<?xml version="1.0" encoding="UTF-8"?><svg xmlns="http://www.w3.org/2000/svg" viewBox="0 0 64 64"><g id="a"><g><g id="b"><g><g><path d="M61,44c0-4.971-4.029-9-9-9h-.009c-2.643,0-5.123,1.299-6.41,2.586-.781,.781-.78,2.048,.001,2.829,.782,.781,2.048,.78,2.829-.001,.694-.695,2.223-1.414,3.58-1.414h.009c2.761,0,5,2.239,5,5-.079,1.414-.817,2.903-1.501,3.661-1.801,2-4.627,2.515-7.619,3.059-1.868,.34-3.8,.692-5.623,1.422-1.025,.411-1.523,1.575-1.113,2.6,.313,.782,1.063,1.257,1.857,1.257,.248,0,.5-.046,.743-.144,1.449-.58,3.102-.881,4.852-1.2,3.356-.611,7.16-1.304,9.875-4.318,1.565-1.737,2.51-4.118,2.529-6.339Z" style="fill:#c8c2b5;"/><path d="M61,44c-.02,2.22-.96,4.6-2.53,6.34-1.32,1.46-2.91,2.38-4.56,3.01-.59-1.09-1.14-2.32-1.61-3.67,1.24-.44,2.34-1.06,3.2-2.02,.68-.76,1.42-2.25,1.5-3.66,0-2.76-2.24-5-5-5h-.01c-.6,0-1.23,.14-1.81,.36-.11-1.34-.17-2.72-.18-4.13,.64-.14,1.31-.23,1.99-.23h.01c4.97,0,9,4.03,9,9Z" style="fill:#e7e5e0;"/></g><g><path d="M49,40c0,12.703-10.297,23-23,23S3,52.703,3,40v-8H49v8Z" style="fill:#c8c2b5;"/><path d="M49,32v8c0,9.18-5.38,17.1-13.16,20.79-11.48-3.49-19.84-14.17-19.84-26.79,0-.67,.02-1.34,.08-2H49Z" style="fill:#e7e5e0;"/></g><path d="M46,40c0,11.046-8.954,20-20,20S6,51.046,6,40v-5H46v5Z" style="fill:#a7a297;"/><g><path d="M45,40c0,10.493-8.507,19-19,19S7,50.493,7,40v-4H45v4Z" style="fill:#a67c52;"/><path d="M45,36v4c0,8.97-6.23,16.5-14.59,18.48-8.04-4.47-13.65-12.79-14.33-22.48h28.92Z" style="fill:#c69c6d;"/></g><g><path d="M45,40c0,10.49-8.51,19-19,19S7,50.49,7,40H45Z" style="fill:#4e3318;"/><path d="M45,40c0,8.97-6.23,16.5-14.59,18.48-6.91-3.84-12.03-10.53-13.76-18.48h28.35Z" style="fill:#613f1e;"/></g><g><path d="M35,50c-1.104,0-2-.896-2-2v-2c0-1.104,.896-2,2-2s2,.896,2,2v2c0,1.104-.896,2-2,2Z" style="fill:#c69c6d;"/><path d="M15,52c-.552,0-1-.448-1-1v-1c0-.552,.448-1,1-1s1,.448,1,1v1c0,.552-.448,1-1,1Z" style="fill:#a67c52;"/></g></g><g><path d="M33,29c-.552,0-1-.448-1-1,0-2.414,1.271-3.686,2.293-4.707,.954-.954,1.707-1.707,1.707-3.293,0-.552,.448-1,1-1s1,.448,1,1c0,2.414-1.271,3.686-2.293,4.707-.954,.954-1.707,1.707-1.707,3.293,0,.552-.448,1-1,1Z" style="fill:#c8c2b5;"/><path d="M19,29c-.552,0-1-.448-1-1,0-1.586-.753-2.339-1.707-3.293-1.021-1.021-2.293-2.293-2.293-4.707,0-.552,.448-1,1-1s1,.448,1,1c0,1.586,.753,2.339,1.707,3.293,1.021,1.021,2.293,2.293,2.293,4.707,0,.552-.448,1-1,1Z" style="fill:#c8c2b5;"/></g><g><g><circle cx="26" cy="11" r="10" style="fill:#415fb5;"/><path d="M36,11c0,1.4-.29,2.74-.82,3.95-1.81,1.88-4.36,3.05-7.18,3.05-5.52,0-10-4.48-10-10,0-1.4,.29-2.74,.82-3.95,1.81-1.88,4.36-3.05,7.18-3.05,5.52,0,10,4.48,10,10Z" style="fill:#577ef2;"/></g><ellipse cx="25" cy="12" rx="5" ry="6" style="fill:#415fb5;"/><g><ellipse cx="26" cy="11" rx="5" ry="6" style="fill:#c69c6d;"/><path d="M27.58,9.67c.63,.48,1.42,1.3,1.42,2.66,0,1.74-1.28,2.59-1.89,3-.04,.02-.07,.05-.11,.07v1.48c-.32,.08-.66,.12-1,.12-1.13,0-2.17-.45-3-1.21v-.79c0-1.36,.79-2.18,1.42-2.67-.63-.48-1.42-1.3-1.42-2.67,0-1.73,1.28-2.58,1.89-2.99,.04-.03,.07-.05,.11-.07v-1.48c.32-.08,.66-.12,1-.12,1.13,0,2.17,.45,3,1.21v.79c0,1.36-.79,2.18-1.42,2.67Z" style="fill:#a67c52;"/><path d="M26,9.66c0,.12,.16,.25,.56,.51,.57,.38,1.44,.96,1.44,2.16s-.87,1.78-1.45,2.17c-.39,.26-.55,.39-.55,.5v2c-.71,0-1.39-.18-2-.5v-1.5c0-1.2,.87-1.78,1.45-2.17,.39-.26,.55-.38,.55-.5,0-.11-.16-.24-.55-.5-.58-.38-1.45-.96-1.45-2.17,0-1.2,.87-1.78,1.45-2.16,.39-.26,.55-.39,.55-.5v-2c.71,0,1.39,.18,2,.5v1.5c0,1.2-.87,1.78-1.45,2.16-.39,.26-.55,.39-.55,.5Z" style="fill:#613f1e;"/></g></g></g><g id="c"><g><g><path d="M43,56c.248,0,.5-.046,.744-.144,1.449-.58,3.102-.881,4.852-1.2,3.356-.611,7.16-1.304,9.875-4.318,1.565-1.737,2.51-4.118,2.529-6.339,0-4.971-4.029-9-9-9h-.009c-1.043,0-2.062,.202-2.991,.527" style="fill:none; stroke:#222325; stroke-linecap:round; stroke-linejoin:round; stroke-width:2px;"/><path d="M49,39.946c.789-.516,1.942-.946,2.991-.946h.009c2.761,0,5,2.239,5,5-.079,1.414-.817,2.903-1.501,3.661-1.801,2-4.627,2.515-7.619,3.059-.494,.09-.992,.181-1.491,.279" style="fill:none; stroke:#222325; stroke-linecap:round; stroke-linejoin:round; stroke-width:2px;"/></g><path d="M49,40c0,12.703-10.297,23-23,23S3,52.703,3,40v-8H49v8Z" style="fill:none; stroke:#222325; stroke-linecap:round; stroke-linejoin:round; stroke-width:2px;"/><path d="M45,40c0,10.493-8.507,19-19,19S7,50.493,7,40v-4H45v4Z" style="fill:none; stroke:#222325; stroke-linecap:round; stroke-linejoin:round; stroke-width:2px;"/><line x1="7" y1="40" x2="45" y2="40" style="fill:none; stroke:#222325; stroke-linejoin:round; stroke-width:2px;"/><path d="M35,50c-1.104,0-2-.896-2-2v-2c0-1.104,.896-2,2-2s2,.896,2,2v2c0,1.104-.896,2-2,2Z" style="fill:none; stroke:#222325; stroke-linecap:round; stroke-linejoin:round; stroke-width:2px;"/></g><g><g><path d="M25,17v-2c0-1.334,2-1.334,2-2.668s-2-1.334-2-2.668,2-1.332,2-2.664v-2" style="fill:none; stroke:#222325; stroke-linejoin:round; stroke-width:2px;"/><ellipse cx="26" cy="11" rx="5" ry="6" style="fill:none; stroke:#222325; stroke-linecap:round; stroke-linejoin:round; stroke-width:2px;"/></g><circle cx="26" cy="11" r="10" style="fill:none; stroke:#222325; stroke-linejoin:round; stroke-width:2px;"/></g><g><path d="M37,20c0,4-4,4-4,8" style="fill:none; stroke:#222325; stroke-linecap:round; stroke-linejoin:round; stroke-width:2px;"/><path d="M15,20c0,4,4,4,4,8" style="fill:none; stroke:#222325; stroke-linecap:round; stroke-linejoin:round; stroke-width:2px;"/></g></g></g></g><g id="d"/><g id="e"/><g id="f"/><g id="g"/><g id="h"/><g id="i"/><g id="j"/><g id="k"/><g id="l"/><g id="m"/><g id="n"/><g id="o"/><g id="p"/><g id="q"/><g id="r"/><g id="s"/><g id="t"/><g id="u"/><g id="v"/><g id="w"/><g id="x"/><g id="y"/><g id="a`"/><g id="aa"/><g id="ab"/><g id="ac"/><g id="ad"/><g id="ae"/><g id="af"/></svg>