<?xml version="1.0" encoding="UTF-8"?><svg xmlns="http://www.w3.org/2000/svg" viewBox="0 0 64 64"><g id="a"/><g id="b"/><g id="c"/><g id="d"/><g id="e"/><g id="f"/><g id="g"/><g id="h"/><g id="i"/><g id="j"><g><g id="k"><g><path d="M43,21c0,6,6,6,6,12v22c0,4.418-3.582,8-8,8H23c-4.418,0-8-3.582-8-8v-22c0-6,6-6,6-12v-7h22v7Z" style="fill:#c8c2b5;"/><path d="M49,33v22c0,3.02-1.67,5.65-4.14,7-9.36-4.53-16.47-24.17-16.84-48h14.98v7c0,6,6,6,6,12Z" style="fill:#e7e5e0;"/></g><g><path d="M45,33v22c0,2.206-1.794,4-4,4H23c-2.206,0-4-1.794-4-4v-22h26Z" style="fill:#a67c52;"/><path d="M45,33v22c0,2.21-1.79,4-4,4h-.17c-4.87-4.99-8.8-14.32-10.98-26h15.15Z" style="fill:#c69c6d;"/></g><g><rect x="23" y="38" width="8" height="8" rx="2" ry="2" style="fill:#577ef2;"/><rect x="24" y="49" width="8" height="8" rx="2" ry="2" style="fill:#577ef2;"/><g><rect x="30" y="42" width="8" height="8" rx="2" ry="2" style="fill:#415fb5;"/><path d="M36,50h-1c-1.11-2.4-2.11-5.08-2.99-8h3.99c1.1,0,2,.9,2,2v4c0,1.1-.9,2-2,2Z" style="fill:#577ef2;"/></g><g><rect x="34" y="52" width="6" height="6" rx="2" ry="2" style="fill:#415fb5;"/><path d="M40,54v2c0,.55-.22,1.04-.58,1.4-1.22-1.53-2.38-3.34-3.45-5.4h2.03c1.1,0,2,.9,2,2Z" style="fill:#577ef2;"/></g><rect x="35" y="38" width="6" height="6" rx="2" ry="2" style="fill:#415fb5;"/></g><g><g><g><path d="M26,31c0-1.105-.895-2-2-2s-2,.895-2,2v2h4v-2Z" style="fill:#e7e5e0;"/><path d="M22,33v2c0,1.105,.895,2,2,2s2-.895,2-2v-2h-4Z" style="fill:#c69c6d;"/></g><path d="M42,49c-.553,0-1-.448-1-1v-1c0-.552,.447-1,1-1s1,.448,1,1v1c0,.552-.447,1-1,1Z" style="fill:#e7e5e0;"/></g><path d="M40,30c-.553,0-1-.448-1-1v-1c0-.552,.447-1,1-1s1,.448,1,1v1c0,.552-.447,1-1,1Z" style="fill:#273640;"/><path d="M39,42c-.553,0-1-.448-1-1v-1c0-.552,.447-1,1-1s1,.448,1,1v1c0,.552-.447,1-1,1Z" style="fill:#577ef2;"/><path d="M27,55c-.553,0-1-.448-1-1v-1c0-.552,.447-1,1-1s1,.448,1,1v1c0,.552-.447,1-1,1Z" style="fill:#415fb5;"/><path d="M47,38c-.553,0-1-.448-1-1v-1c0-.552,.447-1,1-1s1,.448,1,1v1c0,.552-.447,1-1,1Z" style="fill:#fff;"/><g><path d="M38,32c0-1.105-.895-2-2-2s-2,.895-2,2v1h4v-1Z" style="fill:#fff;"/><path d="M34,33v1c0,1.105,.895,2,2,2s2-.895,2-2v-1h-4Z" style="fill:#d3b38f;"/></g></g><path d="M30.999,34c-.46,0-.874-.319-.976-.786L24.056,5.932c-.499-2.278-2.553-3.932-4.885-3.932h-4.171c-.553,0-1-.448-1-1s.447-1,1-1h4.171c3.265,0,6.141,2.315,6.838,5.504l5.968,27.282c.118,.54-.224,1.073-.763,1.191-.072,.016-.145,.023-.215,.023Z" style="fill:#1d252d;"/><g><g><path d="M44,18H20c-1.103,0-2,.897-2,2s.897,2,2,2h24c1.103,0,2-.897,2-2s-.897-2-2-2Z" style="fill:#202d35;"/><path d="M44,12H20c-1.103,0-2,.897-2,2s.897,2,2,2h24c1.103,0,2-.897,2-2s-.897-2-2-2Z" style="fill:#202d35;"/></g><g><path d="M46,20c0,1.1-.9,2-2,2h-15.59c-.11-1.32-.2-2.65-.26-4h15.85c1.1,0,2,.9,2,2Z" style="fill:#273640;"/><path d="M44,16h-15.94c-.04-1.32-.06-2.65-.06-4h16c1.1,0,2,.9,2,2s-.9,2-2,2Z" style="fill:#273640;"/></g></g></g><g id="l"><path d="M44,19c.552,0,1,.448,1,1s-.448,1-1,1H20c-.552,0-1-.448-1-1s.448-1,1-1h24Z" style="fill:none; stroke:#222325; stroke-linecap:round; stroke-linejoin:round; stroke-width:2px;"/><path d="M44,13c.552,0,1,.448,1,1s-.448,1-1,1H20c-.552,0-1-.448-1-1s.448-1,1-1h24Z" style="fill:none; stroke:#222325; stroke-linecap:round; stroke-linejoin:round; stroke-width:2px;"/><g><line x1="21" y1="15" x2="21" y2="19" style="fill:none; stroke:#222325; stroke-linecap:round; stroke-linejoin:round; stroke-width:2px;"/><line x1="43" y1="15" x2="43" y2="19" style="fill:none; stroke:#222325; stroke-linecap:round; stroke-linejoin:round; stroke-width:2px;"/></g><path d="M43,21c0,6,6,6,6,12v22c0,4.418-3.582,8-8,8H23c-4.418,0-8-3.582-8-8v-22c0-6,6-6,6-12h22Z" style="fill:none; stroke:#222325; stroke-linecap:round; stroke-linejoin:round; stroke-width:2px;"/><path d="M45,33v22c0,2.206-1.794,4-4,4H23c-2.206,0-4-1.794-4-4v-22h26Z" style="fill:none; stroke:#222325; stroke-linecap:round; stroke-linejoin:round; stroke-width:2px;"/><g><rect x="23" y="38" width="8" height="8" rx="2" ry="2" style="fill:none; stroke:#222325; stroke-linejoin:round; stroke-width:2px;"/><rect x="30" y="42" width="8" height="8" rx="2" ry="2" style="fill:none; stroke:#222325; stroke-linejoin:round; stroke-width:2px;"/><rect x="24" y="49" width="8" height="8" rx="2" ry="2" style="fill:none; stroke:#222325; stroke-linejoin:round; stroke-width:2px;"/><rect x="34" y="52" width="6" height="6" rx="2" ry="2" style="fill:none; stroke:#222325; stroke-linejoin:round; stroke-width:2px;"/><rect x="35" y="38" width="6" height="6" rx="2" ry="2" style="fill:none; stroke:#222325; stroke-linejoin:round; stroke-width:2px;"/></g><path d="M31,33L25.032,5.718c-.603-2.755-3.042-4.718-5.861-4.718h-4.171" style="fill:none; stroke:#222325; stroke-linecap:round; stroke-linejoin:round; stroke-width:2px;"/><line x1="40" y1="29" x2="40" y2="28" style="fill:none; stroke:#222325; stroke-linecap:round; stroke-linejoin:round; stroke-width:2px;"/></g></g></g><g id="m"/><g id="n"/><g id="o"/><g id="p"/><g id="q"/><g id="r"/><g id="s"/><g id="t"/><g id="u"/><g id="v"/><g id="w"/><g id="x"/><g id="y"/><g id="a`"/><g id="aa"/><g id="ab"/><g id="ac"/><g id="ad"/><g id="ae"/><g id="af"/></svg>