<?xml version="1.0" encoding="UTF-8"?><svg xmlns="http://www.w3.org/2000/svg" viewBox="0 0 64 64"><g id="a"/><g id="b"/><g id="c"/><g id="d"/><g id="e"/><g id="f"/><g id="g"/><g id="h"/><g id="i"/><g id="j"/><g id="k"><g><g id="l"><g><g><rect x="1" y="1" width="28" height="58" style="fill:#8a6744;"/><path d="M29,1V30.41c-4.39-8.19-7-18.38-7-29.41h7Z" style="fill:#a67c52;"/></g><g><rect x="29" y="1" width="28" height="58" style="fill:#a67c52;"/><path d="M57,1V50c-11.45,0-21.61-7.7-28-19.59V1h28Z" style="fill:#c69c6d;"/></g><g><g><path d="M29,10c-.553,0-1-.448-1-1V2c0-.552,.447-1,1-1s1,.448,1,1v7c0,.552-.447,1-1,1Z" style="fill:#735639;"/><path d="M29,40c-.553,0-1-.448-1-1V16c0-.552,.447-1,1-1s1,.448,1,1v23c0,.552-.447,1-1,1Z" style="fill:#735639;"/></g><path d="M29,14c-.553,0-1-.448-1-1v-1c0-.552,.447-1,1-1s1,.448,1,1v1c0,.552-.447,1-1,1Z" style="fill:#735639;"/></g><g><g><circle cx="15" cy="17" r="10" style="fill:#c8c2b5;"/><path d="M25,17c0,1.4-.29,2.74-.82,3.95-1.81,1.88-4.36,3.05-7.18,3.05-5.52,0-10-4.48-10-10,0-1.4,.29-2.74,.82-3.95,1.81-1.88,4.36-3.05,7.18-3.05,5.52,0,10,4.48,10,10Z" style="fill:#e7e5e0;"/></g><ellipse cx="14" cy="18" rx="5" ry="6" style="fill:#c8c2b5;"/><g><ellipse cx="15" cy="17" rx="5" ry="6" style="fill:#c69c6d;"/><path d="M16.58,15.67c.63,.48,1.42,1.3,1.42,2.66,0,1.74-1.28,2.59-1.89,3-.04,.02-.07,.05-.11,.07v1.48c-.32,.08-.66,.12-1,.12-1.13,0-2.17-.45-3-1.21v-.79c0-1.36,.79-2.18,1.42-2.67-.63-.48-1.42-1.3-1.42-2.67,0-1.73,1.28-2.58,1.89-2.99,.04-.03,.07-.05,.11-.07v-1.48c.32-.08,.66-.12,1-.12,1.13,0,2.17,.45,3,1.21v.79c0,1.36-.79,2.18-1.42,2.67Z" style="fill:#a67c52;"/><path d="M15,15.66c0,.12,.16,.25,.56,.51,.57,.38,1.44,.96,1.44,2.16s-.87,1.78-1.45,2.17c-.39,.26-.55,.39-.55,.5v2c-.71,0-1.39-.18-2-.5v-1.5c0-1.2,.87-1.78,1.45-2.17,.39-.26,.55-.38,.55-.5,0-.11-.16-.24-.55-.5-.58-.38-1.45-.96-1.45-2.17,0-1.2,.87-1.78,1.45-2.16,.39-.26,.55-.39,.55-.5v-2c.71,0,1.39,.18,2,.5v1.5c0,1.2-.87,1.78-1.45,2.16-.39,.26-.55,.39-.55,.5Z" style="fill:#613f1e;"/></g></g><g><path d="M49,27h-14c-.553,0-1-.448-1-1s.447-1,1-1h14c.553,0,1,.448,1,1s-.447,1-1,1Z" style="fill:#a67c52;"/><path d="M49,30h-14c-.553,0-1-.448-1-1s.447-1,1-1h14c.553,0,1,.448,1,1s-.447,1-1,1Z" style="fill:#a67c52;"/><path d="M18,33H10c-.553,0-1-.448-1-1s.447-1,1-1h8c.553,0,1,.448,1,1s-.447,1-1,1Z" style="fill:#735639;"/><path d="M49,16h-14c-1.654,0-3-1.346-3-3v-2c0-1.654,1.346-3,3-3h14c1.654,0,3,1.346,3,3v2c0,1.654-1.346,3-3,3Zm-14-6c-.552,0-1,.449-1,1v2c0,.551,.448,1,1,1h14c.552,0,1-.449,1-1v-2c0-.551-.448-1-1-1h-14Z" style="fill:#a67c52;"/></g><g><path d="M50,26h-14c-.553,0-1-.448-1-1s.447-1,1-1h14c.553,0,1,.448,1,1s-.447,1-1,1Z" style="fill:#273640;"/><path d="M50,29h-14c-.553,0-1-.448-1-1s.447-1,1-1h14c.553,0,1,.448,1,1s-.447,1-1,1Z" style="fill:#273640;"/><path d="M19,32H11c-.553,0-1-.448-1-1s.447-1,1-1h8c.553,0,1,.448,1,1s-.447,1-1,1Z" style="fill:#273640;"/></g><rect x="34" y="8" width="18" height="6" rx="2" ry="2" style="fill:#f7b011;"/><path d="M50,15h-14c-1.654,0-3-1.346-3-3v-2c0-1.654,1.346-3,3-3h14c1.654,0,3,1.346,3,3v2c0,1.654-1.346,3-3,3Zm-14-6c-.552,0-1,.449-1,1v2c0,.551,.448,1,1,1h14c.552,0,1-.449,1-1v-2c0-.551-.448-1-1-1h-14Z" style="fill:#273640;"/><path d="M15,28c-6.065,0-11-4.935-11-11S8.935,6,15,6s11,4.935,11,11-4.935,11-11,11Zm0-20c-4.963,0-9,4.038-9,9s4.037,9,9,9,9-4.038,9-9-4.037-9-9-9Z" style="fill:#273640;"/></g><g><g><path d="M49,59c-.512,0-1.023-.195-1.414-.586-.781-.781-.781-2.047,0-2.828,1.569-1.569,3.752-2.047,5.507-2.43,.409-.09,.811-.177,1.189-.276,1.607-.421,2.623-.952,3.395-1.772,.841-.894,1.323-2.026,1.323-3.107,0-1.654-1.346-3-3-3s-3,1.346-3,3c0,1.104-.896,2-2,2s-2-.896-2-2c0-3.86,3.141-7,7-7s7,3.14,7,7c0,2.119-.855,4.196-2.409,5.848-1.693,1.799-3.832,2.517-5.293,2.9-.431,.113-.886,.213-1.351,.314-1.373,.3-2.793,.611-3.533,1.351-.391,.391-.902,.586-1.414,.586Z" style="fill:#c8c2b5;"/><path d="M63,48c0,2.12-.86,4.2-2.41,5.85-.65,.68-1.35,1.21-2.06,1.63-.66-1.06-1.24-2.28-1.74-3.63,.34-.22,.63-.46,.89-.74,.84-.9,1.32-2.03,1.32-3.11,0-1.65-1.35-3-3-3-.26,0-.52,.03-.76,.11-.16-1.3-.24-2.65-.24-4.03,.33-.06,.66-.08,1-.08,3.86,0,7,3.14,7,7Z" style="fill:#e7e5e0;"/></g><g><path d="M54,44c0,10.493-8.507,19-19,19s-19-8.507-19-19v-5H54v5Z" style="fill:#c8c2b5;"/><path d="M54,39v5c0,7.9-4.82,14.67-11.69,17.53q-.01,.01-.01,0c-9.05-4.03-15.3-12.6-15.3-22.53h27Z" style="fill:#e7e5e0;"/></g><g><path d="M50,44c0,8.284-6.716,15-15,15s-15-6.716-15-15v-1h30v1Z" style="fill:#4e3318;"/><path d="M50,43v1c0,7.42-5.4,13.59-12.48,14.79-5.32-3.79-9.06-9.38-10.17-15.79h22.65Z" style="fill:#613f1e;"/></g><g><path d="M50,43v1c0,1.03-.1,2.03-.3,3H20.3c-.2-.97-.3-1.97-.3-3v-1h30Z" style="fill:#a67c52;"/><path d="M50,43v1c0,1.03-.1,2.03-.3,3H28.42c-.48-1.29-.84-2.63-1.07-4h22.65Z" style="fill:#c69c6d;"/></g><path d="M41,53c-.553,0-1-.448-1-1v-1c0-.552,.447-1,1-1s1,.448,1,1v1c0,.552-.447,1-1,1Z" style="fill:#273640;"/></g></g><g id="m"><g><g><path d="M54,44c0,10.493-8.507,19-19,19s-19-8.507-19-19v-5H54v5Z" style="fill:none; stroke:#222325; stroke-linejoin:round; stroke-width:2px;"/><path d="M50,44c0,8.284-6.716,15-15,15s-15-6.716-15-15v-1h30v1Z" style="fill:none; stroke:#222325; stroke-linejoin:round; stroke-width:2px;"/><g><path d="M52,53.404c.376-.092,.743-.172,1.093-.249,.409-.09,.811-.177,1.189-.276,1.607-.421,2.623-.952,3.395-1.772,.841-.894,1.323-2.026,1.323-3.107,0-1.654-1.346-3-3-3-.768,0-1.469,.29-2,.766" style="fill:none; stroke:#222325; stroke-linecap:round; stroke-linejoin:round; stroke-width:2px;"/><path d="M54,41.291c.634-.189,1.305-.291,2-.291,3.859,0,7,3.14,7,7,0,2.119-.855,4.196-2.409,5.848-1.693,1.799-3.832,2.517-5.293,2.9-.431,.113-.886,.213-1.351,.314-1.373,.3-2.793,.611-3.533,1.351-.391,.391-.902,.586-1.414,.586-.346,0-.692-.089-1-.268" style="fill:none; stroke:#222325; stroke-linecap:round; stroke-linejoin:round; stroke-width:2px;"/></g><line x1="21" y1="47" x2="49" y2="47" style="fill:none; stroke:#222325; stroke-linecap:round; stroke-linejoin:round; stroke-width:2px;"/><line x1="41" y1="52" x2="41" y2="51" style="fill:none; stroke:#222325; stroke-linecap:round; stroke-linejoin:round; stroke-width:2px;"/></g><g><g><line x1="29" y1="2" x2="29" y2="9" style="fill:none; stroke:#222325; stroke-linecap:round; stroke-linejoin:round; stroke-width:2px;"/><line x1="29" y1="39" x2="29" y2="16" style="fill:none; stroke:#222325; stroke-linecap:round; stroke-linejoin:round; stroke-width:2px;"/></g><g><g><path d="M14,23v-2c0-1.334,2-1.334,2-2.668s-2-1.334-2-2.668,2-1.332,2-2.664v-2" style="fill:none; stroke:#222325; stroke-linejoin:round; stroke-width:2px;"/><ellipse cx="15" cy="17" rx="5" ry="6" style="fill:none; stroke:#222325; stroke-linecap:round; stroke-linejoin:round; stroke-width:2px;"/></g><circle cx="15" cy="17" r="10" style="fill:none; stroke:#222325; stroke-linejoin:round; stroke-width:2px;"/></g><g><polyline points="57 56 57 59 47 59" style="fill:none; stroke:#222325; stroke-linejoin:round; stroke-width:2px;"/><line x1="57" y1="45" x2="57" y2="52" style="fill:none; stroke:#222325; stroke-linejoin:round; stroke-width:2px;"/><polyline points="23 59 1 59 1 1 57 1 57 41" style="fill:none; stroke:#222325; stroke-linejoin:round; stroke-width:2px;"/></g><line x1="29" y1="13" x2="29" y2="12" style="fill:none; stroke:#222325; stroke-linecap:round; stroke-linejoin:round; stroke-width:2px;"/></g></g><g><rect x="34" y="8" width="18" height="6" rx="2" ry="2" style="fill:none; stroke:#222325; stroke-linejoin:round; stroke-width:2px;"/><line x1="36" y1="25" x2="50" y2="25" style="fill:none; stroke:#222325; stroke-linecap:round; stroke-linejoin:round; stroke-width:2px;"/><line x1="36" y1="28" x2="50" y2="28" style="fill:none; stroke:#222325; stroke-linecap:round; stroke-linejoin:round; stroke-width:2px;"/><line x1="11" y1="31" x2="19" y2="31" style="fill:none; stroke:#222325; stroke-linecap:round; stroke-linejoin:round; stroke-width:2px;"/></g></g></g></g><g id="n"/><g id="o"/><g id="p"/><g id="q"/><g id="r"/><g id="s"/><g id="t"/><g id="u"/><g id="v"/><g id="w"/><g id="x"/><g id="y"/><g id="a`"/><g id="aa"/><g id="ab"/><g id="ac"/><g id="ad"/><g id="ae"/><g id="af"/></svg>