<?xml version="1.0" encoding="UTF-8"?><svg xmlns="http://www.w3.org/2000/svg" viewBox="0 0 64 64"><g id="a"/><g id="b"/><g id="c"/><g id="d"/><g id="e"/><g id="f"/><g id="g"/><g id="h"/><g id="i"/><g id="j"/><g id="k"/><g id="l"><g><g id="m"><g><g><rect x="19" y="23" width="6" height="24" style="fill:#1d252d;"/><path d="M25,23v24c-2.21,0-4-10.75-4-24h4Z" style="fill:#202d35;"/></g><g><g><path d="M18,29h-5c-1.105,0-2,.895-2,2v8c0,1.105,.895,2,2,2h5v-12Z" style="fill:#b50b38;"/><path d="M16,29c0,5.09-.97,9.55-2.43,12h-.57c-1.1,0-2-.9-2-2v-8c0-1.1,.9-2,2-2h3Z" style="fill:#f20f4b;"/></g><g><path d="M12,35c1.105,0,2-.895,2-2s-.895-2-2-2h-1v4h1Z" style="fill:#b50b38;"/><path d="M12,39c1.105,0,2-.895,2-2s-.895-2-2-2h-1v4h1Z" style="fill:#b50b38;"/></g><g><path d="M11,32h1c.552,0,1,.448,1,1s-.448,1-1,1h-1v-2Z" style="fill:#273640;"/><path d="M11,36h1c.552,0,1,.448,1,1s-.448,1-1,1h-1v-2Z" style="fill:#273640;"/></g></g><g><rect x="17" y="28" width="4" height="14" style="fill:#f7b011;"/><path d="M21,28v14c-1.66,0-3-6.27-3-14h3Z" style="fill:#fcee21;"/></g><g><g><rect x="24" y="27" width="26" height="16" style="fill:#4e3318;"/><path d="M50,27v14c-14.36,0-26-6.27-26-14h26Z" style="fill:#613f1e;"/></g><g><g><rect x="24" y="27" width="4" height="16" style="fill:#b50b38;"/><rect x="46" y="27" width="4" height="16" style="fill:#b50b38;"/></g><path d="M24,27h4v7.45c-2.53-2.15-4-4.71-4-7.45Z" style="fill:#f20f4b;"/><path d="M50,27v14c-1.36,0-2.7-.06-4-.16v-13.84h4Z" style="fill:#f20f4b;"/></g><g><g><rect x="27" y="27" width="2" height="16" style="fill:#1d252d;"/><rect x="45" y="27" width="2" height="16" style="fill:#1d252d;"/></g><path d="M27,27h2v8.24c-.74-.53-1.41-1.11-2-1.71v-6.53Z" style="fill:#202d35;"/><path d="M47,27v13.91c-.68-.04-1.34-.1-2-.17v-13.74h2Z" style="fill:#202d35;"/></g></g></g><g><path d="M23,4h-2c-.553,0-1-.448-1-1v-1c0-1.103,.897-2,2-2s2,.897,2,2v1c0,.552-.447,1-1,1Zm-1-2h0Z" style="fill:#1d252d;"/><g><path d="M19,23c0-5-6-5-6-10V4H31V13c0,5-6,5-6,10h-6Z" style="fill:#c8c2b5;"/><path d="M31,4V13c0,5-6,5-6,10h-2.4c-2.71-4.73-4.45-11.47-4.59-19h12.99Z" style="fill:#e7e5e0;"/><rect x="13" y="5" width="18" height="1" style="fill:#c8c2b5;"/></g><g><path d="M31,12v1c0,5-6,5-6,10h-6c0-5-6-5-6-10v-1H31Z" style="fill:#4e3318;"/><path d="M31,12v1c0,5-6,5-6,10h-2.4c-1.7-2.97-3.02-6.74-3.8-11h12.2Z" style="fill:#613f1e;"/></g><g><path d="M31,3h0c.552,0,1,.448,1,1s-.448,1-1,1H13c-.552,0-1-.448-1-1s.448-1,1-1H31Z" style="fill:#202d35;"/><path d="M32,4c0,.55-.45,1-1,1h-12.96c-.03-.66-.04-1.33-.04-2h13c.55,0,1,.45,1,1Z" style="fill:#273640;"/></g><g><ellipse cx="26" cy="12" rx="2" ry="3" style="fill:#412a14;"/><path d="M21.607,14c-.566,0-1.205-.29-1.761-.845-.352-.352-.608-.751-.743-1.155-.208-.623-.1-1.207,.297-1.602,.667-.667,1.827-.48,2.755,.447h0c.352,.352,.608,.751,.743,1.155,.208,.623,.1,1.207-.297,1.602-.268,.268-.614,.398-.994,.398Z" style="fill:#4e3318;"/><path d="M18.395,19c-.38,0-.726-.13-.995-.399-.395-.395-.504-.979-.296-1.601,.135-.404,.392-.803,.743-1.154h0c.929-.927,2.087-1.115,2.756-.447,.395,.395,.504,.979,.296,1.601-.135,.404-.392,.803-.743,1.154-.556,.555-1.194,.846-1.761,.846Z" style="fill:#412a14;"/></g></g><g><g><path d="M14,52h-2c-1.657,0-3,1.343-3,3s1.343,3,3,3h2v-6Z" style="fill:#202d35;"/><path d="M12,52c0,2.23-.81,4.18-2.02,5.21-.6-.54-.98-1.33-.98-2.21,0-1.66,1.34-3,3-3Z" style="fill:#273640;"/></g><g><rect x="13" y="48" width="12" height="13" style="fill:#4e3318;"/><path d="M19.98,48c-.2,5.39-2.03,10.11-4.74,13h-2.24v-13h6.98Z" style="fill:#613f1e;"/><rect x="13" y="49" width="12" height="1" style="fill:#4e3318;"/></g><g><path d="M25,47H11c-.552,0-1,.448-1,1s.448,1,1,1h14v-2Z" style="fill:#202d35;"/><path d="M20,47c0,.68-.03,1.35-.08,2H11c-.55,0-1-.45-1-1s.45-1,1-1h9Z" style="fill:#273640;"/></g></g><g><g><polygon points="40 61 25 61 25 43 33 43 36.89 53 38.44 57 40 61" style="fill:#1d252d;"/><path d="M40,61h-6.7c-3.23-4.21-5.3-10.71-5.3-18h5l3.89,10,1.55,4,1.56,4Z" style="fill:#202d35;"/><polygon points="33.39 44 25 44 25 43 33 43 33.39 44" style="fill:#1d252d;"/></g><polygon points="38.44 57 31 57 31 53 36.89 53 38.44 57" style="fill:#b50b38;"/><g><path d="M19,60h-6c-.553,0-1,.448-1,1s.447,1,1,1,1,.449,1,1,.447,1,1,1h2c.553,0,1-.448,1-1s.448-1,1-1,1-.448,1-1-.447-1-1-1Z" style="fill:#1d252d;"/><path d="M47,60h-6c-.553,0-1,.448-1,1s.447,1,1,1,1,.449,1,1,.447,1,1,1h2c.553,0,1-.448,1-1s.448-1,1-1,1-.448,1-1-.447-1-1-1Z" style="fill:#1d252d;"/></g><g><path d="M49,62H11c-.553,0-1-.448-1-1s.447-1,1-1H49c.553,0,1,.448,1,1s-.447,1-1,1Z" style="fill:#202d35;"/><path d="M50,61c0,.55-.45,1-1,1h-14.88c-.55-.61-1.06-1.28-1.54-2h16.42c.55,0,1,.45,1,1Z" style="fill:#273640;"/></g></g><g><g><circle cx="45" cy="13" r="10" style="fill:#415fb5;"/><path d="M55,13c0,1.4-.29,2.74-.82,3.95-1.81,1.88-4.36,3.05-7.18,3.05-5.52,0-10-4.48-10-10,0-1.4,.29-2.74,.82-3.95,1.81-1.88,4.36-3.05,7.18-3.05,5.52,0,10,4.48,10,10Z" style="fill:#577ef2;"/></g><ellipse cx="44" cy="14" rx="5" ry="6" style="fill:#415fb5;"/><g><ellipse cx="45" cy="13" rx="5" ry="6" style="fill:#c69c6d;"/><path d="M46.58,11.67c.63,.48,1.42,1.3,1.42,2.66,0,1.74-1.28,2.59-1.89,3-.04,.02-.07,.05-.11,.07v1.48c-.32,.08-.66,.12-1,.12-1.13,0-2.17-.45-3-1.21v-.79c0-1.36,.79-2.18,1.42-2.67-.63-.48-1.42-1.3-1.42-2.67,0-1.73,1.28-2.58,1.89-2.99,.04-.03,.07-.05,.11-.07v-1.48c.32-.08,.66-.12,1-.12,1.13,0,2.17,.45,3,1.21v.79c0,1.36-.79,2.18-1.42,2.67Z" style="fill:#a67c52;"/><path d="M45,11.66c0,.12,.16,.25,.56,.51,.57,.38,1.44,.96,1.44,2.16s-.87,1.78-1.45,2.17c-.39,.26-.55,.39-.55,.5v2c-.71,0-1.39-.18-2-.5v-1.5c0-1.2,.87-1.78,1.45-2.17,.39-.26,.55-.38,.55-.5,0-.11-.16-.24-.55-.5-.58-.38-1.45-.96-1.45-2.17,0-1.2,.87-1.78,1.45-2.16,.39-.26,.55-.39,.55-.5v-2c.71,0,1.39,.18,2,.5v1.5c0,1.2-.87,1.78-1.45,2.16-.39,.26-.55,.39-.55,.5Z" style="fill:#613f1e;"/></g></g></g><g id="n"><g><g><polyline points="25 43 25 47 19 47 19 42" style="fill:none; stroke:#222325; stroke-linecap:round; stroke-linejoin:round; stroke-width:2px;"/><polyline points="19 28 19 23 25 23 25 27" style="fill:none; stroke:#222325; stroke-linecap:round; stroke-linejoin:round; stroke-width:2px;"/></g><g><path d="M25,23c0-5,6-5,6-10V5" style="fill:none; stroke:#222325; stroke-linecap:round; stroke-linejoin:round; stroke-width:2px;"/><path d="M19,23c0-5-6-5-6-10V5" style="fill:none; stroke:#222325; stroke-linecap:round; stroke-linejoin:round; stroke-width:2px;"/><path d="M31,3h0c.552,0,1,.448,1,1s-.448,1-1,1H13c-.552,0-1-.448-1-1s.448-1,1-1H31Z" style="fill:none; stroke:#222325; stroke-linecap:round; stroke-linejoin:round; stroke-width:2px;"/><path d="M23,2c0-.552-.448-1-1-1s-1,.448-1,1v1h2v-1Z" style="fill:none; stroke:#222325; stroke-linecap:round; stroke-linejoin:round; stroke-width:2px;"/></g><rect x="17" y="28" width="4" height="14" style="fill:none; stroke:#222325; stroke-linejoin:round; stroke-width:2px;"/><rect x="24" y="27" width="26" height="16" style="fill:none; stroke:#222325; stroke-linejoin:round; stroke-width:2px;"/><g><line x1="28" y1="27" x2="28" y2="43" style="fill:none; stroke:#222325; stroke-linejoin:round; stroke-width:2px;"/><line x1="46" y1="27" x2="46" y2="43" style="fill:none; stroke:#222325; stroke-linejoin:round; stroke-width:2px;"/></g><g><path d="M11,32h1c.552,0,1,.448,1,1s-.448,1-1,1h-1" style="fill:none; stroke:#222325; stroke-linejoin:round; stroke-width:2px;"/><path d="M11,36h1c.552,0,1,.448,1,1s-.448,1-1,1h-1" style="fill:none; stroke:#222325; stroke-linejoin:round; stroke-width:2px;"/></g><path d="M17,29h-4c-1.105,0-2,.895-2,2v8c0,1.105,.895,2,2,2h4" style="fill:none; stroke:#222325; stroke-linejoin:round; stroke-width:2px;"/><path d="M25,47H11c-.552,0-1,.448-1,1s.448,1,1,1h14" style="fill:none; stroke:#222325; stroke-linecap:round; stroke-linejoin:round; stroke-width:2px;"/><line x1="11" y1="61" x2="49" y2="61" style="fill:none; stroke:#222325; stroke-linecap:round; stroke-linejoin:round; stroke-width:2px;"/><line x1="25" y1="47" x2="25" y2="61" style="fill:none; stroke:#222325; stroke-linecap:round; stroke-linejoin:round; stroke-width:2px;"/><line x1="33" y1="43" x2="40" y2="61" style="fill:none; stroke:#222325; stroke-linecap:round; stroke-linejoin:round; stroke-width:2px;"/><line x1="13" y1="12" x2="31" y2="12" style="fill:none; stroke:#222325; stroke-linejoin:round; stroke-width:2px;"/><g><ellipse cx="26" cy="12" rx="1" ry="2" style="fill:none; stroke:#222325; stroke-linejoin:round; stroke-width:2px;"/><ellipse cx="21" cy="12" rx=".632" ry="1.265" transform="translate(-2.335 18.364) rotate(-45)" style="fill:none; stroke:#222325; stroke-linejoin:round; stroke-width:2px;"/><ellipse cx="19" cy="17" rx="1.265" ry=".632" transform="translate(-6.456 18.414) rotate(-45)" style="fill:none; stroke:#222325; stroke-linejoin:round; stroke-width:2px;"/></g><line x1="13" y1="49" x2="13" y2="61" style="fill:none; stroke:#222325; stroke-linejoin:round; stroke-width:2px;"/><path d="M13,52h-1c-1.657,0-3,1.343-3,3s1.343,3,3,3h1" style="fill:none; stroke:#222325; stroke-linejoin:round; stroke-width:2px;"/><polyline points="38 57 31 57 31 53 37 53" style="fill:none; stroke:#222325; stroke-linejoin:round; stroke-width:2px;"/><g><path d="M19,61c-1.105,0-2,.895-2,2h-2c0-1.105-.895-2-2-2" style="fill:none; stroke:#222325; stroke-linejoin:round; stroke-width:2px;"/><path d="M47,61c-1.105,0-2,.895-2,2h-2c0-1.105-.895-2-2-2" style="fill:none; stroke:#222325; stroke-linejoin:round; stroke-width:2px;"/></g></g><g><g><path d="M44,19v-2c0-1.334,2-1.334,2-2.668s-2-1.334-2-2.668,2-1.332,2-2.664v-2" style="fill:none; stroke:#222325; stroke-linejoin:round; stroke-width:2px;"/><ellipse cx="45" cy="13" rx="5" ry="6" style="fill:none; stroke:#222325; stroke-linecap:round; stroke-linejoin:round; stroke-width:2px;"/></g><circle cx="45" cy="13" r="10" style="fill:none; stroke:#222325; stroke-linejoin:round; stroke-width:2px;"/></g></g></g></g><g id="o"/><g id="p"/><g id="q"/><g id="r"/><g id="s"/><g id="t"/><g id="u"/><g id="v"/><g id="w"/><g id="x"/><g id="y"/><g id="a`"/><g id="aa"/><g id="ab"/><g id="ac"/><g id="ad"/><g id="ae"/><g id="af"/></svg>