<?xml version="1.0" encoding="UTF-8"?><svg xmlns="http://www.w3.org/2000/svg" viewBox="0 0 64 64"><g id="a"/><g id="b"/><g id="c"/><g id="d"/><g id="e"/><g id="f"/><g id="g"/><g id="h"/><g id="i"/><g id="j"/><g id="k"/><g id="l"/><g id="m"><g><g id="n"><g><g><circle cx="37" cy="27" r="26" style="fill:#202d35;"/><path d="M63,27c0,7.97-3.58,15.1-9.23,19.86-15.98-4.51-28.04-21.9-28.74-42.94,3.58-1.87,7.65-2.92,11.97-2.92,14.36,0,26,11.64,26,26Z" style="fill:#273640;"/></g><circle cx="37" cy="27" r="23" style="fill:#1d252d;"/><g><circle cx="37" cy="27" r="22" style="fill:#a7a297;"/><path d="M59,27c0,7.58-3.83,14.27-9.67,18.23-12.66-5.73-22.09-19.82-23.98-36.9,3.38-2.11,7.37-3.33,11.65-3.33,12.15,0,22,9.85,22,22Z" style="fill:#c8c2b5;"/></g><circle cx="37" cy="27" r="6" style="fill:#273640;"/><circle cx="37" cy="27" r="4" style="fill:#1d252d;"/><g><path d="M37,11c-1.104,0-2,.896-2,2v12h-9c-1.104,0-2,.896-2,2s.896,2,2,2h11c1.104,0,2-.896,2-2V13c0-1.104-.896-2-2-2Z" style="fill:#b50b38;"/><path d="M39,13v14c0,1.1-.9,2-2,2h-4.95c-.76-1.28-1.46-2.62-2.1-4h5.05V13c0-1.1,.9-2,2-2s2,.9,2,2Z" style="fill:#f20f4b;"/></g><g><path d="M17,28h-3c-.552,0-1-.448-1-1s.448-1,1-1h3c.552,0,1,.448,1,1s-.448,1-1,1Z" style="fill:#1d252d;"/><path d="M60,28h-3c-.552,0-1-.448-1-1s.448-1,1-1h3c.552,0,1,.448,1,1s-.448,1-1,1Z" style="fill:#1d252d;"/><path d="M37,8c-.552,0-1-.448-1-1v-3c0-.552,.448-1,1-1s1,.448,1,1v3c0,.552-.448,1-1,1Z" style="fill:#1d252d;"/></g><g><path d="M51,14c-.256,0-.512-.098-.707-.293-.391-.391-.391-1.023,0-1.414l1-1c.391-.391,1.023-.391,1.414,0s.391,1.023,0,1.414l-1,1c-.195,.195-.451,.293-.707,.293Z" style="fill:#202d35;"/><path d="M23,14c-.256,0-.512-.098-.707-.293l-1-1c-.391-.391-.391-1.023,0-1.414s1.023-.391,1.414,0l1,1c.391,.391,.391,1.023,0,1.414-.195,.195-.451,.293-.707,.293Z" style="fill:#202d35;"/><path d="M52,43c-.256,0-.512-.098-.707-.293l-1-1c-.391-.391-.391-1.023,0-1.414s1.023-.391,1.414,0l1,1c.391,.391,.391,1.023,0,1.414-.195,.195-.451,.293-.707,.293Z" style="fill:#202d35;"/></g></g><g><g><path d="M34,59c-.512,0-1.023-.195-1.414-.586-.781-.781-.781-2.047,0-2.828,1.569-1.569,3.752-2.047,5.507-2.43,.409-.09,.811-.177,1.189-.276,1.607-.421,2.623-.952,3.395-1.772,.841-.894,1.323-2.026,1.323-3.107,0-1.654-1.346-3-3-3s-3,1.346-3,3c0,1.104-.896,2-2,2s-2-.896-2-2c0-3.86,3.141-7,7-7s7,3.14,7,7c0,2.119-.855,4.196-2.409,5.848-1.693,1.799-3.832,2.517-5.293,2.9-.431,.113-.886,.213-1.351,.314-1.373,.3-2.793,.611-3.533,1.351-.391,.391-.902,.586-1.414,.586Z" style="fill:#c8c2b5;"/><path d="M48,48c0,2.12-.86,4.2-2.41,5.85-.65,.68-1.35,1.21-2.06,1.63-.66-1.06-1.24-2.28-1.74-3.63,.34-.22,.63-.46,.89-.74,.84-.9,1.32-2.03,1.32-3.11,0-1.65-1.35-3-3-3-.26,0-.52,.03-.76,.11-.16-1.3-.24-2.65-.24-4.03,.33-.06,.66-.08,1-.08,3.86,0,7,3.14,7,7Z" style="fill:#e7e5e0;"/></g><g><path d="M39,44c0,10.493-8.507,19-19,19S1,54.493,1,44v-5H39v5Z" style="fill:#c8c2b5;"/><path d="M39,39v5c0,7.9-4.82,14.67-11.69,17.53q-.01,.01-.01,0c-9.05-4.03-15.3-12.6-15.3-22.53h27Z" style="fill:#e7e5e0;"/></g><g><path d="M35,44c0,8.284-6.716,15-15,15s-15-6.716-15-15v-1h30v1Z" style="fill:#4e3318;"/><path d="M35,43v1c0,7.42-5.4,13.59-12.48,14.79-5.32-3.79-9.06-9.38-10.17-15.79h22.65Z" style="fill:#613f1e;"/></g><g><path d="M35,43v1c0,1.03-.1,2.03-.3,3H5.3c-.2-.97-.3-1.97-.3-3v-1h30Z" style="fill:#a67c52;"/><path d="M35,43v1c0,1.03-.1,2.03-.3,3H13.42c-.48-1.29-.84-2.63-1.07-4h22.65Z" style="fill:#c69c6d;"/></g><path d="M26,53c-.553,0-1-.448-1-1v-1c0-.552,.447-1,1-1s1,.448,1,1v1c0,.552-.447,1-1,1Z" style="fill:#273640;"/></g></g><g id="o"><g><g><path d="M13.929,39c-1.871-3.59-2.929-7.672-2.929-12C11,12.641,22.641,1,37,1s26,11.641,26,26c0,10.428-6.139,19.422-15,23.565" style="fill:none; stroke:#222325; stroke-linecap:round; stroke-linejoin:round; stroke-width:2px;"/><path d="M44,47.859c-1.898,.639-3.912,1.025-6,1.119" style="fill:none; stroke:#222325; stroke-linejoin:round; stroke-width:2px;"/><path d="M18.568,39c-2.256-3.453-3.568-7.576-3.568-12,0-12.131,9.869-22,22-22s22,9.869,22,22c0,8.093-4.392,15.179-10.918,19" style="fill:none; stroke:#222325; stroke-linejoin:round; stroke-width:2px;"/></g><g><line x1="14" y1="27" x2="17" y2="27" style="fill:none; stroke:#222325; stroke-linecap:round; stroke-linejoin:round; stroke-width:2px;"/><line x1="60" y1="27" x2="57" y2="27" style="fill:none; stroke:#222325; stroke-linecap:round; stroke-linejoin:round; stroke-width:2px;"/><line x1="37" y1="4" x2="37" y2="7" style="fill:none; stroke:#222325; stroke-linecap:round; stroke-linejoin:round; stroke-width:2px;"/></g><g><line x1="51" y1="13" x2="52" y2="12" style="fill:none; stroke:#222325; stroke-linecap:round; stroke-linejoin:round; stroke-width:2px;"/><line x1="23" y1="13" x2="22" y2="12" style="fill:none; stroke:#222325; stroke-linecap:round; stroke-linejoin:round; stroke-width:2px;"/><line x1="51" y1="41" x2="52" y2="42" style="fill:none; stroke:#222325; stroke-linecap:round; stroke-linejoin:round; stroke-width:2px;"/></g><g><path d="M31.341,25c.603-1.705,1.954-3.056,3.658-3.658" style="fill:none; stroke:#222325; stroke-linejoin:round; stroke-width:2px;"/><path d="M39,21.341c2.33,.824,4,3.046,4,5.659,0,3.314-2.686,6-6,6-2.612,0-4.835-1.67-5.659-4" style="fill:none; stroke:#222325; stroke-linejoin:round; stroke-width:2px;"/></g><path d="M37,11c-1.104,0-2,.896-2,2v12h-9c-1.104,0-2,.896-2,2s.896,2,2,2h11c1.104,0,2-.896,2-2V13c0-1.104-.896-2-2-2Z" style="fill:none; stroke:#222325; stroke-linecap:round; stroke-linejoin:round; stroke-width:2px;"/></g><g><path d="M39,44c0,10.493-8.507,19-19,19S1,54.493,1,44v-5H39v5Z" style="fill:none; stroke:#222325; stroke-linejoin:round; stroke-width:2px;"/><path d="M35,44c0,8.284-6.716,15-15,15s-15-6.716-15-15v-1h30v1Z" style="fill:none; stroke:#222325; stroke-linejoin:round; stroke-width:2px;"/><g><path d="M37,53.404c.376-.092,.743-.172,1.093-.249,.409-.09,.811-.177,1.189-.276,1.607-.421,2.623-.952,3.395-1.772,.841-.894,1.323-2.026,1.323-3.107,0-1.654-1.346-3-3-3-.768,0-1.469,.29-2,.766" style="fill:none; stroke:#222325; stroke-linecap:round; stroke-linejoin:round; stroke-width:2px;"/><path d="M39,41.291c.634-.189,1.305-.291,2-.291,3.859,0,7,3.14,7,7,0,2.119-.855,4.196-2.409,5.848-1.693,1.799-3.832,2.517-5.293,2.9-.431,.113-.886,.213-1.351,.314-1.373,.3-2.793,.611-3.533,1.351-.391,.391-.902,.586-1.414,.586-.346,0-.692-.089-1-.268" style="fill:none; stroke:#222325; stroke-linecap:round; stroke-linejoin:round; stroke-width:2px;"/></g><line x1="6" y1="47" x2="34" y2="47" style="fill:none; stroke:#222325; stroke-linecap:round; stroke-linejoin:round; stroke-width:2px;"/><line x1="26" y1="52" x2="26" y2="51" style="fill:none; stroke:#222325; stroke-linecap:round; stroke-linejoin:round; stroke-width:2px;"/></g></g></g></g><g id="p"/><g id="q"/><g id="r"/><g id="s"/><g id="t"/><g id="u"/><g id="v"/><g id="w"/><g id="x"/><g id="y"/><g id="a`"/><g id="aa"/><g id="ab"/><g id="ac"/><g id="ad"/><g id="ae"/><g id="af"/></svg>