<?xml version="1.0" encoding="UTF-8"?><svg xmlns="http://www.w3.org/2000/svg" viewBox="0 0 64 64"><g id="a"/><g id="b"/><g id="c"/><g id="d"/><g id="e"/><g id="f"/><g id="g"/><g id="h"/><g id="i"/><g id="j"/><g id="k"/><g id="l"/><g id="m"/><g id="n"><g><g id="o"><g><rect x="11" y="59" width="42" height="4" style="fill:#202d35;"/><path d="M53,59v4h-17.22c-2.38-1.13-3.78-2.5-3.78-4h21Z" style="fill:#273640;"/></g><g><g><path d="M46,55c-.512,0-1.023-.195-1.414-.586-.781-.781-.781-2.047,0-2.828,1.569-1.569,3.752-2.047,5.507-2.43,.409-.09,.811-.177,1.189-.276,1.607-.421,2.623-.952,3.395-1.772,.841-.894,1.323-2.026,1.323-3.107,0-1.654-1.346-3-3-3s-3,1.346-3,3c0,1.104-.896,2-2,2s-2-.896-2-2c0-3.86,3.141-7,7-7s7,3.14,7,7c0,2.119-.855,4.196-2.409,5.848-1.693,1.799-3.832,2.517-5.293,2.9-.431,.113-.886,.213-1.351,.314-1.373,.3-2.793,.611-3.533,1.351-.391,.391-.902,.586-1.414,.586Z" style="fill:#c8c2b5;"/><path d="M60,44c0,2.12-.86,4.2-2.41,5.85-.65,.68-1.35,1.21-2.06,1.63-.66-1.06-1.24-2.28-1.74-3.63,.34-.22,.63-.46,.89-.74,.84-.9,1.32-2.03,1.32-3.11,0-1.65-1.35-3-3-3-.26,0-.52,.03-.76,.11-.16-1.3-.24-2.65-.24-4.03,.33-.06,.66-.08,1-.08,3.86,0,7,3.14,7,7Z" style="fill:#e7e5e0;"/></g><g><path d="M51,40c0,10.493-8.507,19-19,19s-19-8.507-19-19v-5H51v5Z" style="fill:#c8c2b5;"/><path d="M51,35v5c0,7.9-4.82,14.67-11.69,17.53q-.01,.01-.01,0c-9.05-4.03-15.3-12.6-15.3-22.53h27Z" style="fill:#e7e5e0;"/></g><g><path d="M47,40c0,8.284-6.716,15-15,15s-15-6.716-15-15v-1h30v1Z" style="fill:#4e3318;"/><path d="M47,39v1c0,7.42-5.4,13.59-12.48,14.79-5.32-3.79-9.06-9.38-10.17-15.79h22.65Z" style="fill:#613f1e;"/></g><g><path d="M47,39v1c0,1.03-.1,2.03-.3,3H17.3c-.2-.97-.3-1.97-.3-3v-1h30Z" style="fill:#a67c52;"/><path d="M47,39v1c0,1.03-.1,2.03-.3,3H25.42c-.48-1.29-.84-2.63-1.07-4h22.65Z" style="fill:#c69c6d;"/></g><path d="M38,49c-.553,0-1-.448-1-1v-1c0-.552,.447-1,1-1s1,.448,1,1v1c0,.552-.447,1-1,1Z" style="fill:#273640;"/></g><g><g><path d="M24,11h-5c-.552,0-1-.448-1-1s.448-1,1-1h5c.552,0,1,.448,1,1s-.448,1-1,1Z" style="fill:#273640;"/><rect x="15" y="8" width="5" height="4" rx="1" ry="1" style="fill:#202d35;"/><g><path d="M3,7c-1.657,0-3,1.343-3,3s1.343,3,3,3h13V7H3Z" style="fill:#4e3318;"/><path d="M16,7v6c-7.18,0-13-2.69-13-6h13Z" style="fill:#613f1e;"/></g></g><g><rect x="30" y="16" width="4" height="4" style="fill:#1d252d;"/><g><path d="M41,21c0-3.866-4.029-7-9-7s-9,3.134-9,7h3c0-2.209,2.686-4,6-4s6,1.791,6,4h3Z" style="fill:#202d35;"/><path d="M41,21h-3c0-2.21-2.69-4-6-4-.33,0-.64,.02-.95,.05-.48-.91-.91-1.85-1.3-2.82,.72-.15,1.47-.23,2.25-.23,4.97,0,9,3.13,9,7Z" style="fill:#273640;"/></g><g><path d="M44,4c-1.105,0-2,.895-2,2v6c0,1.105-.895,2-2,2H24c-1.105,0-2-.895-2-2V6c0-1.105-.895-2-2-2h24Z" style="fill:#c8c2b5;"/><path d="M44,4c-1.1,0-2,.9-2,2v6c0,1.1-.9,2-2,2h-10.34c-1.25-3.11-2.09-6.47-2.45-10h16.79Z" style="fill:#e7e5e0;"/><path d="M44,4c-.74,0-1.38,.4-1.73,1H21.73c-.35-.6-.99-1-1.73-1h24Z" style="fill:#c8c2b5;"/></g><path d="M38,11c-.552,0-1-.448-1-1v-1c0-.552,.448-1,1-1s1,.448,1,1v1c0,.552-.448,1-1,1Z" style="fill:#273640;"/><g><rect x="1" y="1" width="62" height="3" style="fill:#202d35;"/><path d="M63,1v3H27.21c-.11-.99-.17-1.99-.19-3H63Z" style="fill:#273640;"/></g></g></g></g><g id="p"><g><path d="M51,40c0,10.493-8.507,19-19,19s-19-8.507-19-19v-5H51v5Z" style="fill:none; stroke:#222325; stroke-linejoin:round; stroke-width:2px;"/><path d="M47,40c0,8.284-6.716,15-15,15s-15-6.716-15-15v-1h30v1Z" style="fill:none; stroke:#222325; stroke-linejoin:round; stroke-width:2px;"/><g><path d="M49,49.404c.376-.092,.743-.172,1.093-.249,.409-.09,.811-.177,1.189-.276,1.607-.421,2.623-.952,3.395-1.772,.841-.894,1.323-2.026,1.323-3.107,0-1.654-1.346-3-3-3-.768,0-1.469,.29-2,.766" style="fill:none; stroke:#222325; stroke-linecap:round; stroke-linejoin:round; stroke-width:2px;"/><path d="M51,37.291c.634-.189,1.305-.291,2-.291,3.859,0,7,3.14,7,7,0,2.119-.855,4.196-2.409,5.848-1.693,1.799-3.832,2.517-5.293,2.9-.431,.113-.886,.213-1.351,.314-1.373,.3-2.793,.611-3.533,1.351-.391,.391-.902,.586-1.414,.586-.346,0-.692-.089-1-.268" style="fill:none; stroke:#222325; stroke-linecap:round; stroke-linejoin:round; stroke-width:2px;"/></g><line x1="18" y1="43" x2="46" y2="43" style="fill:none; stroke:#222325; stroke-linecap:round; stroke-linejoin:round; stroke-width:2px;"/><line x1="38" y1="48" x2="38" y2="47" style="fill:none; stroke:#222325; stroke-linecap:round; stroke-linejoin:round; stroke-width:2px;"/></g><rect x="11" y="59" width="42" height="4" style="fill:none; stroke:#222325; stroke-linejoin:round; stroke-width:2px;"/><g><polyline points="30 17 30 20 34 20 34 17" style="fill:none; stroke:#222325; stroke-linejoin:round; stroke-width:2px;"/><path d="M41,21c0-3.866-4.029-7-9-7s-9,3.134-9,7h3c0-2.209,2.686-4,6-4s6,1.791,6,4h3Z" style="fill:none; stroke:#222325; stroke-linejoin:round; stroke-width:2px;"/><polyline points="63 1 63 4 1 4 1 1" style="fill:none; stroke:#222325; stroke-linecap:round; stroke-linejoin:round; stroke-width:2px;"/><g><line x1="22" y1="10" x2="19" y2="10" style="fill:none; stroke:#222325; stroke-linecap:round; stroke-linejoin:round; stroke-width:2px;"/><polyline points="16 11 19 11 19 9 16 9" style="fill:none; stroke:#222325; stroke-linecap:round; stroke-linejoin:round; stroke-width:2px;"/><path d="M3,12H16v-4H3c-1.105,0-2,.895-2,2,0,1.105,.895,2,2,2Z" style="fill:none; stroke:#222325; stroke-linecap:round; stroke-linejoin:round; stroke-width:2px;"/></g><path d="M44,4c-1.105,0-2,.895-2,2v6c0,1.105-.895,2-2,2H24c-1.105,0-2-.895-2-2V6c0-1.105-.895-2-2-2" style="fill:none; stroke:#222325; stroke-linecap:round; stroke-linejoin:round; stroke-width:2px;"/><line x1="38" y1="10" x2="38" y2="9" style="fill:none; stroke:#222325; stroke-linecap:round; stroke-linejoin:round; stroke-width:2px;"/></g></g></g></g><g id="q"/><g id="r"/><g id="s"/><g id="t"/><g id="u"/><g id="v"/><g id="w"/><g id="x"/><g id="y"/><g id="a`"/><g id="aa"/><g id="ab"/><g id="ac"/><g id="ad"/><g id="ae"/><g id="af"/></svg>