<?xml version="1.0" encoding="UTF-8"?><svg xmlns="http://www.w3.org/2000/svg" viewBox="0 0 64 64"><g id="a"/><g id="b"/><g id="c"/><g id="d"/><g id="e"/><g id="f"/><g id="g"/><g id="h"/><g id="i"/><g id="j"/><g id="k"/><g id="l"/><g id="m"/><g id="n"/><g id="o"/><g id="p"><g><g id="q"><g><g><path d="M42,33c-.553,0-1-.448-1-1v-6c0-.551-.448-1-1-1h-9c-.553,0-1-.448-1-1s.447-1,1-1h9c1.654,0,3,1.346,3,3v6c0,.552-.447,1-1,1Z" style="fill:#202d35;"/><path d="M36,27c-.553,0-1-.448-1-1v-4c0-.552,.447-1,1-1s1,.448,1,1v4c0,.552-.447,1-1,1Z" style="fill:#1d252d;"/></g><g><g><polygon points="44 46 40 46 41 37 43 37 44 46" style="fill:#b50b38;"/><polygon points="44 48 43.31 54.21 43 57 41 57 40 48 44 48" style="fill:#b50b38;"/></g><path d="M41.74,48h2.26l-.69,6.21c-.63-1.4-1.17-3.55-1.57-6.21Z" style="fill:#f20f4b;"/><path d="M44,46h-2.52c-.31-2.68-.48-5.75-.48-9h2l1,9Z" style="fill:#f20f4b;"/></g><g><rect x="41" y="32" width="2" height="2" style="fill:#f7b011;"/><rect x="41" y="60" width="2" height="3" style="fill:#f7b011;"/></g><g><path d="M44,35h-4c-.553,0-1-.447-1-1s.447-1,1-1h4c.553,0,1,.447,1,1s-.447,1-1,1Z" style="fill:#202d35;"/><path d="M44,38h-4c-.553,0-1-.447-1-1s.447-1,1-1h4c.553,0,1,.447,1,1s-.447,1-1,1Z" style="fill:#202d35;"/><path d="M44,61h-4c-.553,0-1-.447-1-1s.447-1,1-1h4c.553,0,1,.447,1,1s-.447,1-1,1Z" style="fill:#202d35;"/><path d="M44,58h-4c-.553,0-1-.447-1-1s.447-1,1-1h4c.553,0,1,.447,1,1s-.447,1-1,1Z" style="fill:#202d35;"/></g></g><g><g><rect x="17" y="57" width="8" height="4" rx="1" ry="1" style="fill:#4e3318;"/><path d="M20.75,57c-.43,1.69-1.39,3.11-2.66,4h-.09c-.55,0-1-.45-1-1v-2c0-.55,.45-1,1-1h2.75Z" style="fill:#613f1e;"/></g><g><path d="M46,64H19c-.553,0-1-.447-1-1s.447-1,1-1h27c.553,0,1,.447,1,1s-.447,1-1,1Z" style="fill:#4e3318;"/><path d="M47,63c0,.55-.45,1-1,1H29.22c-.41-.62-.8-1.29-1.17-2h17.95c.55,0,1,.45,1,1Z" style="fill:#613f1e;"/></g><g><rect x="22" y="54" width="10" height="8" style="fill:#202d35;"/><path d="M32,54v8h-3.95c-1.16-2.27-2.04-5-2.55-8h6.5Z" style="fill:#273640;"/></g><g><path d="M20,49v5c0,1.105,.895,2,2,2h10c1.105,0,2-.895,2-2v-5h-14Z" style="fill:#415fb5;"/><path d="M34,49v5c0,1.1-.9,2-2,2h-6.1c-.51-2.17-.82-4.53-.88-7h8.98Z" style="fill:#577ef2;"/></g><g><path d="M27,54c-.553,0-1-.447-1-1v-1c0-.553,.447-1,1-1s1,.447,1,1v1c0,.553-.447,1-1,1Z" style="fill:#273640;"/><path d="M30,54c-.553,0-1-.447-1-1v-1c0-.553,.447-1,1-1s1,.447,1,1v1c0,.553-.447,1-1,1Z" style="fill:#273640;"/><path d="M24,54c-.553,0-1-.447-1-1v-1c0-.553,.447-1,1-1s1,.447,1,1v1c0,.553-.447,1-1,1Z" style="fill:#273640;"/></g><g><path d="M35,50H19c-.553,0-1-.447-1-1s.447-1,1-1h16c.553,0,1,.447,1,1s-.447,1-1,1Z" style="fill:#202d35;"/><path d="M36,49c0,.55-.45,1-1,1h-9.95c-.03-.66-.05-1.33-.05-2h10c.55,0,1,.45,1,1Z" style="fill:#273640;"/></g></g><g><g><path d="M24,26v1c0,1.84-.941,3.712-2.411,4.819-2.179,1.64-3.589,4.244-3.589,7.181,0,4.971,4.029,9,9,9s9-4.029,9-9c0-2.938-1.41-5.541-3.589-7.181-1.47-1.106-2.411-2.979-2.411-4.819v-1h-6Z" style="fill:#c8c2b5;"/><path d="M36,39c0,2.57-1.07,4.88-2.8,6.51-3.63-1.96-6.46-9.73-7.08-19.51h3.88v1c0,1.84,.94,3.71,2.41,4.82,2.18,1.64,3.59,4.24,3.59,7.18Z" style="fill:#e7e5e0;"/></g><g><path d="M36,39c0,4.97-4.03,9-9,9s-9-4.03-9-9c0-.34,.02-.67,.05-1h17.9c.03,.33,.05,.66,.05,1Z" style="fill:#4e3318;"/><path d="M36,39c0,2.57-1.07,4.88-2.8,6.51-1.94-1.04-3.64-3.74-4.9-7.51h7.65c.03,.33,.05,.66,.05,1Z" style="fill:#613f1e;"/></g><g><polygon points="28 24 28 41 26 40 26 24 28 24" style="fill:#415fb5;"/><path d="M28,24v13.06c-1.1-3.63-1.82-8.13-1.96-13.06h1.96Z" style="fill:#577ef2;"/></g><g><rect x="23" y="22" width="8" height="4" style="fill:#202d35;"/><path d="M31,22v4h-4.88c-.08-1.3-.12-2.64-.12-4h5Z" style="fill:#273640;"/></g></g><g><g><path d="M24,22c0-4-4-4-4-8V3h14V14c0,4-4,4-4,8h-6Z" style="fill:#c8c2b5;"/><path d="M34,3V14c0,4-4,4-4,8h-.85c-1.79-4.96-2.95-11.62-3.12-19h7.97Z" style="fill:#e7e5e0;"/></g><g><rect x="25" y="7" width="4" height="8" style="fill:#415fb5;"/><path d="M29,7V15h-1.73c-.48-2.48-.84-5.17-1.05-8h2.78Z" style="fill:#577ef2;"/></g><g><rect x="24" y="3" width="6" height="6" style="fill:#4e3318;"/><path d="M30,3v6h-3.6c-.2-1.93-.33-3.93-.37-6h3.97Z" style="fill:#613f1e;"/></g><g><rect x="19" y="1" width="16" height="4" style="fill:#202d35;"/><path d="M35,1V5h-8.9c-.07-1.31-.1-2.64-.1-4h9Z" style="fill:#273640;"/></g></g></g><g id="r"><path d="M24,26v1c0,1.84-.941,3.712-2.411,4.819-2.179,1.64-3.589,4.244-3.589,7.181,0,4.971,4.029,9,9,9s9-4.029,9-9c0-2.938-1.41-5.541-3.589-7.181-1.47-1.106-2.411-2.979-2.411-4.819v-1h-6Z" style="fill:none; stroke:#222325; stroke-linejoin:round; stroke-width:2px;"/><rect x="23" y="22" width="8" height="4" style="fill:none; stroke:#222325; stroke-linejoin:round; stroke-width:2px;"/><path d="M30,22c0-4,4-4,4-8V5" style="fill:none; stroke:#222325; stroke-linecap:round; stroke-linejoin:round; stroke-width:2px;"/><path d="M24,22c0-4-4-4-4-8V5" style="fill:none; stroke:#222325; stroke-linecap:round; stroke-linejoin:round; stroke-width:2px;"/><rect x="19" y="1" width="16" height="4" style="fill:none; stroke:#222325; stroke-linecap:round; stroke-linejoin:round; stroke-width:2px;"/><polyline points="25 9 25 15 29 15 29 9" style="fill:none; stroke:#222325; stroke-linecap:round; stroke-linejoin:round; stroke-width:2px;"/><polyline points="24 5 24 9 30 9 30 5" style="fill:none; stroke:#222325; stroke-linecap:round; stroke-linejoin:round; stroke-width:2px;"/><line x1="19" y1="49" x2="35" y2="49" style="fill:none; stroke:#222325; stroke-linecap:round; stroke-linejoin:round; stroke-width:2px;"/><path d="M20,49v5c0,1.105,.895,2,2,2h10c1.105,0,2-.895,2-2v-5" style="fill:none; stroke:#222325; stroke-linecap:round; stroke-linejoin:round; stroke-width:2px;"/><g><line x1="27" y1="53" x2="27" y2="52" style="fill:none; stroke:#222325; stroke-linecap:round; stroke-linejoin:round; stroke-width:2px;"/><line x1="30" y1="53" x2="30" y2="52" style="fill:none; stroke:#222325; stroke-linecap:round; stroke-linejoin:round; stroke-width:2px;"/><line x1="24" y1="53" x2="24" y2="52" style="fill:none; stroke:#222325; stroke-linecap:round; stroke-linejoin:round; stroke-width:2px;"/></g><polyline points="22 56 22 62 32 62 32 56" style="fill:none; stroke:#222325; stroke-linecap:round; stroke-linejoin:round; stroke-width:2px;"/><polyline points="22 58 18 58 18 60 22 60" style="fill:none; stroke:#222325; stroke-linecap:round; stroke-linejoin:round; stroke-width:2px;"/><line x1="19" y1="63" x2="46" y2="63" style="fill:none; stroke:#222325; stroke-linecap:round; stroke-linejoin:round; stroke-width:2px;"/><g><line x1="40" y1="34" x2="44" y2="34" style="fill:none; stroke:#222325; stroke-linecap:round; stroke-linejoin:round; stroke-width:2px;"/><line x1="40" y1="37" x2="44" y2="37" style="fill:none; stroke:#222325; stroke-linecap:round; stroke-linejoin:round; stroke-width:2px;"/><polyline points="41 34 41 32 43 32 43 34" style="fill:none; stroke:#222325; stroke-linecap:round; stroke-linejoin:round; stroke-width:2px;"/></g><g><line x1="40" y1="60" x2="44" y2="60" style="fill:none; stroke:#222325; stroke-linecap:round; stroke-linejoin:round; stroke-width:2px;"/><line x1="40" y1="57" x2="44" y2="57" style="fill:none; stroke:#222325; stroke-linecap:round; stroke-linejoin:round; stroke-width:2px;"/><polyline points="41 60 41 62 43 62 43 60" style="fill:none; stroke:#222325; stroke-linecap:round; stroke-linejoin:round; stroke-width:2px;"/></g><path d="M31,24h9c1.105,0,2,.895,2,2v6" style="fill:none; stroke:#222325; stroke-linecap:round; stroke-linejoin:round; stroke-width:2px;"/><line x1="36" y1="22" x2="36" y2="26" style="fill:none; stroke:#222325; stroke-linecap:round; stroke-linejoin:round; stroke-width:2px;"/><g><polyline points="43 37 44 46 40 46 41 37" style="fill:none; stroke:#222325; stroke-linecap:round; stroke-linejoin:round; stroke-width:2px;"/><polyline points="43 57 44 48 40 48 41 57" style="fill:none; stroke:#222325; stroke-linecap:round; stroke-linejoin:round; stroke-width:2px;"/></g><polyline points="28 26 28 41 26 40 26 26" style="fill:none; stroke:#222325; stroke-linecap:round; stroke-linejoin:round; stroke-width:2px;"/><line x1="18" y1="38" x2="36" y2="38" style="fill:none; stroke:#222325; stroke-linejoin:round; stroke-width:2px;"/></g></g></g><g id="s"/><g id="t"/><g id="u"/><g id="v"/><g id="w"/><g id="x"/><g id="y"/><g id="a`"/><g id="aa"/><g id="ab"/><g id="ac"/><g id="ad"/><g id="ae"/><g id="af"/></svg>