<?xml version="1.0" encoding="UTF-8"?><svg xmlns="http://www.w3.org/2000/svg" viewBox="0 0 64 64"><g id="a"/><g id="b"/><g id="c"/><g id="d"/><g id="e"/><g id="f"/><g id="g"/><g id="h"/><g id="i"/><g id="j"/><g id="k"/><g id="l"/><g id="m"/><g id="n"/><g id="o"/><g id="p"/><g id="q"><g><g id="r"><g><rect x="20" y="37" width="16" height="8" style="fill:#4e3318;"/><path d="M36,37v6c-7.73,0-14-2.69-14-6h14Z" style="fill:#613f1e;"/><rect x="20" y="38" width="16" height="2" style="fill:#4e3318;"/></g><g><path d="M36,43c3.951,4.142,6,12.107,6,20H14c0-7.893,2.049-15.858,6-20h16Z" style="fill:#273640;"/><g><path d="M25,43c-3,4-4,10-4,20h-7c0-7.89,2.05-15.86,6-20h5Z" style="fill:#181f25;"/><path d="M25,43c-1.55,2.06-2.56,4.66-3.18,8.06-.53-2.56-.82-5.26-.82-8.06h4Z" style="fill:#1d252d;"/></g><g><path d="M35,63c0-10-1-16-4-20h-6c-3,4-4,10-4,20h14Z" style="fill:#1d252d;"/><path d="M35,63h-8.2c-2.3-3.33-4.03-7.41-4.98-11.94,.62-3.4,1.63-6,3.18-8.06h6c3,4,4,10,4,20Z" style="fill:#202d35;"/></g></g><g><g><path d="M42,16h6c3.309,0,6,2.691,6,6v8c0,1.104-.896,2-2,2s-2-.896-2-2v-8c0-1.103-.897-2-2-2h-6v-4Z" style="fill:#202d35;"/><path d="M54,22v8c0,.19-.03,.38-.08,.55-1.65-2.42-2.82-7.62-2.91-13.73,1.79,1.03,2.99,2.97,2.99,5.18Z" style="fill:#273640;"/></g><g><rect x="38" y="15" width="6" height="6" style="fill:#202d35;"/><path d="M44,15v6c-1.1,0-2-2.69-2-6h2Z" style="fill:#273640;"/></g><g><path d="M19,33c-.576-2.88-1.146-5.762-1.756-8.635-.52-2.445-1.194-4.92-2.84-6.87-1.066-1.263-2.682-2.439-4.403-2.495,0-1.657,2.239-3,5-3h26l-4,21H19Z" style="fill:#f20f4b;"/><g><path d="M24,12v21h-5c-.58-2.88-1.15-5.76-1.76-8.63-.52-2.45-1.19-4.92-2.84-6.87-1.06-1.27-2.68-2.44-4.4-2.5,0-1.66,2.24-3,5-3h9Z" style="fill:#7e0727;"/><path d="M24,12v14.7c-1.85-4.3-3.14-9.3-3.69-14.7h3.69Z" style="fill:#97092f;"/></g><g><rect x="24" y="12" width="8" height="21" style="fill:#97092f;"/><path d="M32,12v21h-4.55c-1.3-1.87-2.46-3.99-3.45-6.3V12h8Z" style="fill:#b50b38;"/></g></g><g><g><rect x="18" y="33" width="20" height="6" rx="1" ry="1" style="fill:#a67c52;"/><path d="M38,34v4c0,.55-.45,1-1,1h-5.44c-1.29-1.65-2.47-3.67-3.52-6h8.96c.55,0,1,.45,1,1Z" style="fill:#c69c6d;"/></g><g><polygon points="30 1 30 3 29 6 29 8 25 8 25 6 24 3 24 1 30 1" style="fill:#1d252d;"/><path d="M30,1V3l-1,3v.8c-1.73-.66-3-3.01-3-5.8h4Z" style="fill:#202d35;"/></g><g><path d="M39,12v-2l-3.904-3.123c-.709-.567-1.59-.877-2.499-.877h-11.194c-.908,0-1.79,.309-2.499,.877l-3.904,3.123v2h24Z" style="fill:#202d35;"/><path d="M39,10v2h-15.78c-.15-1.95-.22-3.96-.22-6h9.6c.91,0,1.79,.31,2.5,.88l3.9,3.12Z" style="fill:#273640;"/></g><g><rect x="15" y="10" width="24" height="2" style="fill:#1d252d;"/><path d="M39,10v2h-15.78c-.06-.66-.1-1.33-.12-2h15.9Z" style="fill:#202d35;"/></g></g></g></g><g id="s"><rect x="18" y="33" width="20" height="6" rx="1" ry="1" style="fill:none; stroke:#222325; stroke-linecap:round; stroke-linejoin:round; stroke-width:2px;"/><path d="M36,43c3.951,4.142,6,12.107,6,20H14c0-7.893,2.049-15.858,6-20h16Z" style="fill:none; stroke:#222325; stroke-linecap:round; stroke-linejoin:round; stroke-width:2px;"/><g><line x1="20" y1="43" x2="20" y2="39" style="fill:none; stroke:#222325; stroke-linecap:round; stroke-linejoin:round; stroke-width:2px;"/><line x1="36" y1="43" x2="36" y2="39" style="fill:none; stroke:#222325; stroke-linecap:round; stroke-linejoin:round; stroke-width:2px;"/></g><g><line x1="24" y1="12" x2="24" y2="33" style="fill:none; stroke:#222325; stroke-linecap:round; stroke-linejoin:round; stroke-width:2px;"/><line x1="32" y1="12" x2="32" y2="22" style="fill:none; stroke:#222325; stroke-linecap:round; stroke-linejoin:round; stroke-width:2px;"/><line x1="32" y1="26" x2="32" y2="27" style="fill:none; stroke:#222325; stroke-linecap:round; stroke-linejoin:round; stroke-width:2px;"/><line x1="32" y1="33" x2="32" y2="31" style="fill:none; stroke:#222325; stroke-linecap:round; stroke-linejoin:round; stroke-width:2px;"/></g><path d="M19,33c-.576-2.88-1.146-5.762-1.756-8.635-.52-2.445-1.194-4.92-2.84-6.87-1.066-1.263-2.682-2.439-4.403-2.495,0-1.657,2.239-3,5-3h26l-4,21H19Z" style="fill:none; stroke:#222325; stroke-linecap:round; stroke-linejoin:round; stroke-width:2px;"/><path d="M39,12v-2l-3.904-3.123c-.709-.567-1.59-.877-2.499-.877h-11.194c-.908,0-1.79,.309-2.499,.877l-3.904,3.123v2" style="fill:none; stroke:#222325; stroke-linecap:round; stroke-linejoin:round; stroke-width:2px;"/><polyline points="29 6 30 3 30 1 24 1 24 3 25 6" style="fill:none; stroke:#222325; stroke-linecap:round; stroke-linejoin:round; stroke-width:2px;"/><g><path d="M44,16h4c3.309,0,6,2.691,6,6v8c0,1.104-.896,2-2,2s-2-.896-2-2v-8c0-1.103-.897-2-2-2h-4" style="fill:none; stroke:#222325; stroke-linecap:round; stroke-linejoin:round; stroke-width:2px;"/><polyline points="41 15 44 15 44 21 40 21" style="fill:none; stroke:#222325; stroke-linecap:round; stroke-linejoin:round; stroke-width:2px;"/></g><g><path d="M21,63c0-10,1-16,4-20" style="fill:none; stroke:#222325; stroke-linecap:round; stroke-linejoin:round; stroke-width:2px;"/><path d="M35,63c0-10-1-16-4-20" style="fill:none; stroke:#222325; stroke-linecap:round; stroke-linejoin:round; stroke-width:2px;"/></g></g></g></g><g id="t"/><g id="u"/><g id="v"/><g id="w"/><g id="x"/><g id="y"/><g id="a`"/><g id="aa"/><g id="ab"/><g id="ac"/><g id="ad"/><g id="ae"/><g id="af"/></svg>