<?xml version="1.0" encoding="UTF-8"?><svg xmlns="http://www.w3.org/2000/svg" viewBox="0 0 64 64"><g id="a"/><g id="b"/><g id="c"/><g id="d"/><g id="e"/><g id="f"/><g id="g"/><g id="h"/><g id="i"/><g id="j"/><g id="k"/><g id="l"/><g id="m"/><g id="n"/><g id="o"/><g id="p"/><g id="q"/><g id="r"><g><g id="s"><g><g><path d="M53,55c-.925,0-1.841-.172-2.721-.513-1.03-.397-1.543-1.556-1.145-2.586,.397-1.03,1.558-1.542,2.586-1.145,.418,.161,.849,.243,1.279,.243,3.252,0,6-4.579,6-10,0-5.494-1.776-9-3-9-.399,0-.946,0-1.488,1.548-.184,.524-.278,1.155-.379,1.823-.207,1.376-.464,3.089-1.684,4.556-1.079,1.298-2.742,2.072-4.449,2.072-1.104,0-2-.896-2-2s.896-2,2-2c.524,0,1.051-.241,1.374-.629,.505-.608,.644-1.528,.804-2.593,.117-.784,.251-1.672,.559-2.551,1.224-3.493,3.538-4.226,5.264-4.226,4.187,0,7,5.224,7,13,0,7.851-4.393,14-10,14Z" style="fill:#202d35;"/><path d="M63,41c0,3.98-1.13,7.52-2.98,10.04-1.15-.55-2.24-1.35-3.25-2.34,1.35-1.85,2.23-4.64,2.23-7.7,0-5.49-1.78-9-3-9-.4,0-.95,0-1.49,1.55-.18,.52-.28,1.15-.38,1.82-.2,1.38-.46,3.09-1.68,4.56-.17,.21-.36,.41-.57,.58-.72-2.03-1.25-4.25-1.56-6.61,.09-.54,.22-1.1,.42-1.67,1.22-3.5,3.53-4.23,5.26-4.23,4.19,0,7,5.22,7,13Z" style="fill:#273640;"/></g><g><path d="M45,25H25l-7.955,35.588c-.03,.139-.045,.277-.045,.412-.002,1.077,.897,2,2.057,2h31.886c1.16,0,2.059-.923,2.057-2,0-.135-.015-.273-.045-.412l-7.955-35.588Z" style="fill:#202d35;"/><path d="M53,61c0,.83-.53,1.57-1.31,1.86-.56,.09-1.12,.14-1.69,.14-11.05,0-20-17.01-20-38h15l7.96,35.59c.03,.14,.04,.27,.04,.41Z" style="fill:#273640;"/></g><g><path d="M53,61c0,1.08-.9,2-2.06,2H19.06c-1.16,0-2.06-.92-2.06-2,0-.14,.01-.27,.04-.41l4.16-18.59h27.6l4.16,18.59c.03,.14,.04,.27,.04,.41Z" style="fill:#415fb5;"/><path d="M53,61c0,.83-.53,1.57-1.31,1.86-.56,.09-1.12,.14-1.69,.14-7.83,0-14.61-8.55-17.89-21h16.69l4.16,18.59c.03,.14,.04,.27,.04,.41Z" style="fill:#577ef2;"/></g><g><path d="M2,19h.021c5.851,.062,9.963,1.665,12.223,4.763,1.557,2.135,1.756,4.455,1.756,6.237,0,2.451-.877,4.486-1.725,6.454-.218,.506-.436,1.012-.636,1.525-.156,.397-.313,.777-.469,1.148-.654,1.567-1.171,2.805-1.171,4.873,0,3.859,3.589,7,8,7,1.104,0,2,.896,2,2s-.896,2-2,2c-6.617,0-12-4.935-12-11,0-2.869,.752-4.671,1.48-6.414,.144-.344,.29-.695,.434-1.063,.218-.556,.453-1.104,.689-1.651,.719-1.669,1.397-3.246,1.397-4.872,0-1.793-.286-2.917-.988-3.88-1.837-2.519-5.904-3.086-9.012-3.12v-4Z" style="fill:#273640;"/><ellipse cx="2" cy="21" rx="1" ry="2" style="fill:#1d252d;"/></g><path d="M45,56c-.553,0-1-.447-1-1v-1c0-.553,.447-1,1-1s1,.447,1,1v1c0,.553-.447,1-1,1Z" style="fill:#273640;"/><path d="M26,45c-1.105,0-2,.895-2,2v2c0,1.105,.895,2,2,2s2-.895,2-2v-2c0-1.105-.895-2-2-2Z" style="fill:#577ef2;"/><g><path d="M43,41c0-1.105-.895-2-2-2s-2,.895-2,2v1h4v-1Z" style="fill:#59646c;"/><path d="M39,42v1c0,1.105,.895,2,2,2s2-.895,2-2v-1h-4Z" style="fill:#7e9cf5;"/></g></g><g><g><circle cx="35" cy="11" r="10" style="fill:#c8c2b5;"/><path d="M45,11c0,1.4-.29,2.74-.82,3.95-1.81,1.88-4.36,3.05-7.18,3.05-5.52,0-10-4.48-10-10,0-1.4,.29-2.74,.82-3.95,1.81-1.88,4.36-3.05,7.18-3.05,5.52,0,10,4.48,10,10Z" style="fill:#e7e5e0;"/></g><path d="M37,13c0,1.657-1.343,3-3,3s-3-1.343-3-3c0-3,3-5,3-5,0,0,3,2,3,5Z" style="fill:#c8c2b5;"/><g><path d="M38,12c0,1.657-1.343,3-3,3s-3-1.343-3-3c0-3,3-5,3-5,0,0,3,2,3,5Z" style="fill:#415fb5;"/><path d="M38,12c0,.3-.05,.6-.13,.87-.27,.08-.57,.13-.87,.13-1.66,0-3-1.34-3-3,0-1.17,.46-2.19,1.01-2.99,.21,.14,2.99,2.1,2.99,4.99Z" style="fill:#577ef2;"/></g></g></g><g id="t"><path d="M18.294,55l-1.249,5.588c-.03,.139-.045,.277-.045,.412-.002,1.077,.897,2,2.057,2h31.886c1.16,0,2.059-.923,2.057-2,0-.135-.015-.273-.045-.412l-7.955-35.588H25l-5.812,26" style="fill:none; stroke:#222325; stroke-linejoin:round; stroke-width:2px;"/><path d="M51,50.622c.24,0,.484,.043,.721,.135,.418,.161,.849,.243,1.279,.243,3.252,0,6-4.579,6-10,0-5.494-1.776-9-3-9-.399,0-.946,0-1.488,1.548-.184,.524-.278,1.155-.379,1.823-.207,1.376-.464,3.089-1.684,4.556-.866,1.042-2.109,1.747-3.449,1.984" style="fill:none; stroke:#222325; stroke-linecap:round; stroke-linejoin:round; stroke-width:2px;"/><path d="M48,38c.524,0,1.051-.241,1.374-.629,.505-.608,.644-1.528,.804-2.593,.117-.784,.251-1.672,.559-2.551,1.224-3.493,3.538-4.226,5.264-4.226,4.187,0,7,5.224,7,13,0,7.851-4.393,14-10,14-.335,0-.669-.023-1-.067" style="fill:none; stroke:#222325; stroke-linecap:round; stroke-linejoin:round; stroke-width:2px;"/><line x1="22" y1="42" x2="48" y2="42" style="fill:none; stroke:#222325; stroke-linecap:round; stroke-linejoin:round; stroke-width:2px;"/><g><path d="M2,19h.021c5.851,.062,9.963,1.665,12.223,4.763,1.557,2.135,1.756,4.455,1.756,6.237,0,2.451-.877,4.486-1.725,6.454-.218,.506-.436,1.012-.636,1.525-.156,.397-.313,.777-.469,1.148-.654,1.567-1.171,2.805-1.171,4.873,0,3.859,3.589,7,8,7,1.104,0,2,.896,2,2s-.896,2-2,2c-6.617,0-12-4.935-12-11,0-2.869,.752-4.671,1.48-6.414,.144-.344,.29-.695,.434-1.063,.218-.556,.453-1.104,.689-1.651,.719-1.669,1.397-3.246,1.397-4.872,0-1.793-.286-2.917-.988-3.88-1.837-2.519-5.904-3.086-9.012-3.12" style="fill:none; stroke:#222325; stroke-linecap:round; stroke-linejoin:round; stroke-width:2px;"/><ellipse cx="2" cy="21" rx="1" ry="2" style="fill:none; stroke:#222325; stroke-linecap:round; stroke-linejoin:round; stroke-width:2px;"/></g><g><circle cx="35" cy="11" r="10" style="fill:none; stroke:#222325; stroke-linecap:round; stroke-linejoin:round; stroke-width:2px;"/><path d="M38,12c0,1.657-1.343,3-3,3s-3-1.343-3-3c0-3,3-5,3-5,0,0,3,2,3,5Z" style="fill:none; stroke:#222325; stroke-linecap:round; stroke-linejoin:round; stroke-width:2px;"/></g><line x1="45" y1="55" x2="45" y2="54" style="fill:none; stroke:#222325; stroke-linecap:round; stroke-linejoin:round; stroke-width:2px;"/></g></g></g><g id="u"/><g id="v"/><g id="w"/><g id="x"/><g id="y"/><g id="a`"/><g id="aa"/><g id="ab"/><g id="ac"/><g id="ad"/><g id="ae"/><g id="af"/></svg>