<?xml version="1.0" encoding="UTF-8"?><svg xmlns="http://www.w3.org/2000/svg" viewBox="0 0 64 64"><g id="a"/><g id="b"/><g id="c"/><g id="d"/><g id="e"/><g id="f"/><g id="g"/><g id="h"/><g id="i"/><g id="j"/><g id="k"/><g id="l"/><g id="m"/><g id="n"/><g id="o"/><g id="p"/><g id="q"/><g id="r"/><g id="s"><g><g id="t"><g><g><rect x="9" y="18" width="34" height="14" style="fill:#415fb5;"/><path d="M43,18v14H23.98c-1.27-4.25-1.98-8.99-1.98-14h21Z" style="fill:#577ef2;"/></g><g><rect x="9" y="18" width="34" height="4" style="fill:#364f97;"/><path d="M43,18v4H22.16c-.11-1.31-.16-2.65-.16-4h21Z" style="fill:#415fb5;"/></g><g><g><path d="M61,44c0-4.971-4.029-9-9-9h-.009c-2.643,0-5.123,1.299-6.41,2.586-.781,.781-.78,2.048,.001,2.829,.782,.781,2.048,.78,2.829-.001,.694-.695,2.223-1.414,3.58-1.414h.009c2.761,0,5,2.239,5,5-.079,1.414-.817,2.903-1.501,3.661-1.801,2-4.627,2.515-7.619,3.059-1.868,.34-3.8,.692-5.623,1.422-1.025,.411-1.523,1.575-1.113,2.6,.313,.782,1.063,1.257,1.857,1.257,.248,0,.5-.046,.743-.144,1.449-.58,3.102-.881,4.852-1.2,3.356-.611,7.16-1.304,9.875-4.318,1.565-1.737,2.51-4.118,2.529-6.339Z" style="fill:#c8c2b5;"/><path d="M61,44c-.02,2.22-.96,4.6-2.53,6.34-1.32,1.46-2.91,2.38-4.56,3.01-.59-1.09-1.14-2.32-1.61-3.67,1.24-.44,2.34-1.06,3.2-2.02,.68-.76,1.42-2.25,1.5-3.66,0-2.76-2.24-5-5-5h-.01c-.6,0-1.23,.14-1.81,.36-.11-1.34-.17-2.72-.18-4.13,.64-.14,1.31-.23,1.99-.23h.01c4.97,0,9,4.03,9,9Z" style="fill:#e7e5e0;"/></g><g><path d="M49,40c0,12.703-10.297,23-23,23S3,52.703,3,40v-8H49v8Z" style="fill:#c8c2b5;"/><path d="M49,32v8c0,9.18-5.38,17.1-13.16,20.79-11.48-3.49-19.84-14.17-19.84-26.79,0-.67,.02-1.34,.08-2H49Z" style="fill:#e7e5e0;"/></g><path d="M46,40c0,11.046-8.954,20-20,20S6,51.046,6,40v-5H46v5Z" style="fill:#a7a297;"/><g><path d="M45,40c0,10.493-8.507,19-19,19S7,50.493,7,40v-4H45v4Z" style="fill:#a67c52;"/><path d="M45,36v4c0,8.97-6.23,16.5-14.59,18.48-8.04-4.47-13.65-12.79-14.33-22.48h28.92Z" style="fill:#c69c6d;"/></g><g><path d="M45,40c0,10.49-8.51,19-19,19S7,50.49,7,40H45Z" style="fill:#4e3318;"/><path d="M45,40c0,8.97-6.23,16.5-14.59,18.48-6.91-3.84-12.03-10.53-13.76-18.48h28.35Z" style="fill:#613f1e;"/></g><g><path d="M35,50c-1.104,0-2-.896-2-2v-2c0-1.104,.896-2,2-2s2,.896,2,2v2c0,1.104-.896,2-2,2Z" style="fill:#c69c6d;"/><path d="M15,52c-.552,0-1-.448-1-1v-1c0-.552,.448-1,1-1s1,.448,1,1v1c0,.552-.448,1-1,1Z" style="fill:#a67c52;"/></g></g><g><path d="M30,43h-8c-2.206,0-4-1.794-4-4v-10c0-2.206,1.794-4,4-4h8c2.206,0,4,1.794,4,4v10c0,2.206-1.794,4-4,4Zm-8-14v10h8l-.002-10h-7.998Z" style="fill:#202d35;"/><path d="M34,29v10c0,2.21-1.79,4-4,4h-.71c-.9-1.22-1.73-2.56-2.49-4h3.2v-10h-6.81c-.29-1.3-.53-2.63-.71-4h7.52c2.21,0,4,1.79,4,4Z" style="fill:#273640;"/></g></g><g><g><circle cx="26" cy="9" r="8" style="fill:#c8c2b5;"/><path d="M34,9c0,1.7-.53,3.27-1.44,4.56-1.29,.91-2.86,1.44-4.56,1.44-4.42,0-8-3.58-8-8,0-1.7,.53-3.27,1.44-4.56,1.29-.91,2.86-1.44,4.56-1.44,4.42,0,8,3.58,8,8Z" style="fill:#e7e5e0;"/></g><path d="M28,11c0,1.657-1.343,3-3,3s-3-1.343-3-3c0-3,3-5,3-5,0,0,3,2,3,5Z" style="fill:#c8c2b5;"/><g><path d="M29,10c0,1.657-1.343,3-3,3s-3-1.343-3-3c0-3,3-5,3-5,0,0,3,2,3,5Z" style="fill:#415fb5;"/><path d="M29,10c0,.3-.05,.6-.13,.87-.27,.08-.57,.13-.87,.13-1.66,0-3-1.34-3-3,0-1.17,.46-2.19,1.01-2.99,.21,.14,2.99,2.1,2.99,4.99Z" style="fill:#577ef2;"/></g></g></g><g id="u"><g><g><path d="M43,56c.248,0,.5-.046,.744-.144,1.449-.58,3.102-.881,4.852-1.2,3.356-.611,7.16-1.304,9.875-4.318,1.565-1.737,2.51-4.118,2.529-6.339,0-4.971-4.029-9-9-9h-.009c-1.043,0-2.062,.202-2.991,.527" style="fill:none; stroke:#222325; stroke-linecap:round; stroke-linejoin:round; stroke-width:2px;"/><path d="M49,39.946c.789-.516,1.942-.946,2.991-.946h.009c2.761,0,5,2.239,5,5-.079,1.414-.817,2.903-1.501,3.661-1.801,2-4.627,2.515-7.619,3.059-.494,.09-.992,.181-1.491,.279" style="fill:none; stroke:#222325; stroke-linecap:round; stroke-linejoin:round; stroke-width:2px;"/></g><path d="M34,32h15v8c0,12.703-10.297,23-23,23S3,52.703,3,40v-8h15" style="fill:none; stroke:#222325; stroke-linecap:round; stroke-linejoin:round; stroke-width:2px;"/><line x1="22" y1="32" x2="30" y2="32" style="fill:none; stroke:#222325; stroke-linecap:round; stroke-linejoin:round; stroke-width:2px;"/><path d="M34,36h11v4c0,10.493-8.507,19-19,19S7,50.493,7,40v-4h11" style="fill:none; stroke:#222325; stroke-linecap:round; stroke-linejoin:round; stroke-width:2px;"/><line x1="22" y1="36" x2="30" y2="36" style="fill:none; stroke:#222325; stroke-linecap:round; stroke-linejoin:round; stroke-width:2px;"/><line x1="34" y1="40" x2="45" y2="40" style="fill:none; stroke:#222325; stroke-linejoin:round; stroke-width:2px;"/><line x1="7" y1="40" x2="18" y2="40" style="fill:none; stroke:#222325; stroke-linejoin:round; stroke-width:2px;"/><path d="M35,50c-1.104,0-2-.896-2-2v-2c0-1.104,.896-2,2-2s2,.896,2,2v2c0,1.104-.896,2-2,2Z" style="fill:none; stroke:#222325; stroke-linecap:round; stroke-linejoin:round; stroke-width:2px;"/></g><path d="M30,43h-8c-2.206,0-4-1.794-4-4v-10c0-2.206,1.794-4,4-4h8c2.206,0,4,1.794,4,4v10c0,2.206-1.794,4-4,4Zm-8-14v10h8l-.002-10h-7.998Z" style="fill:none; stroke:#222325; stroke-linecap:round; stroke-linejoin:round; stroke-width:2px;"/><g><polyline points="43 32 43 18 9 18 9 32" style="fill:none; stroke:#222325; stroke-linejoin:round; stroke-width:2px;"/><line x1="9" y1="22" x2="43" y2="22" style="fill:none; stroke:#222325; stroke-linecap:round; stroke-linejoin:round; stroke-width:2px;"/></g><g><path d="M29,10c0,1.657-1.343,3-3,3s-3-1.343-3-3c0-3,3-5,3-5,0,0,3,2,3,5Z" style="fill:none; stroke:#222325; stroke-linecap:round; stroke-linejoin:round; stroke-width:2px;"/><circle cx="26" cy="9" r="8" style="fill:none; stroke:#222325; stroke-linejoin:round; stroke-width:2px;"/></g></g></g></g><g id="v"/><g id="w"/><g id="x"/><g id="y"/><g id="a`"/><g id="aa"/><g id="ab"/><g id="ac"/><g id="ad"/><g id="ae"/><g id="af"/></svg>