<?xml version="1.0" encoding="UTF-8"?><svg xmlns="http://www.w3.org/2000/svg" viewBox="0 0 64 64"><g id="a"/><g id="b"><g><g id="c"><g><path d="M51,16l-5.777,45.253c-.127,.999-.977,1.747-1.984,1.747H22.761c-1.007,0-1.856-.748-1.984-1.747L15,16H51Z" style="fill:#c8c2b5;"/><path d="M51,16l-5.78,45.25c-.12,1-.97,1.75-1.98,1.75h-6.52c-6.14-10.42-10.46-27.36-11.48-47h25.76Z" style="fill:#e7e5e0;"/><g><polygon points="51 16 50.74 18 15.26 18 15 16 51 16" style="fill:#a7a297;"/><polygon points="49.59 27 46.53 51 19.47 51 16.41 27 49.59 27" style="fill:#a7a297;"/></g></g><g><path d="M13,1h3.983c2.664,0,5.037,1.789,5.769,4.351l1.171,4.099c.304,1.062-.312,2.169-1.373,2.472-.184,.053-.369,.078-.55,.078-.871,0-1.671-.573-1.922-1.451l-1.171-4.099c-.244-.853-1.035-1.45-1.923-1.45h-3.983V1Z" style="fill:#b50b38;"/><path d="M23.95,9.6c-2.78-1.09-4.82-4.34-4.93-8.24,1.77,.64,3.19,2.11,3.73,3.99l1.17,4.1c.01,.05,.03,.1,.03,.15Z" style="fill:#f20f4b;"/><ellipse cx="13" cy="3" rx="1" ry="2" style="fill:#273640;"/></g><g><polygon points="51 28 48 50 18 50 15 28 51 28" style="fill:#a67c52;"/><path d="M51,28l-3,22H31.06c-2.09-6.42-3.72-13.87-4.75-22h24.69Z" style="fill:#c69c6d;"/></g><g><g><path d="M31,40c-.552,0-1-.448-1-1v-4c0-.551-.449-1-1-1s-1,.449-1,1v4c0,.552-.448,1-1,1s-1-.448-1-1v-4c0-1.654,1.346-3,3-3s3,1.346,3,3v4c0,.552-.448,1-1,1Z" style="fill:#8a6744;"/><path d="M34,40c-.552,0-1-.448-1-1v-6c0-.552,.448-1,1-1s1,.448,1,1v6c0,.552-.448,1-1,1Z" style="fill:#8a6744;"/><path d="M37,40c-.256,0-.512-.098-.707-.293l-3-3c-.391-.391-.391-1.023,0-1.414l3-3c.391-.391,1.023-.391,1.414,0s.391,1.023,0,1.414l-2.293,2.293,2.293,2.293c.391,.391,.391,1.023,0,1.414-.195,.195-.451,.293-.707,.293Z" style="fill:#8a6744;"/><path d="M31,38h-4c-.552,0-1-.448-1-1s.448-1,1-1h4c.552,0,1,.448,1,1s-.448,1-1,1Z" style="fill:#8a6744;"/><path d="M43,40h-2c-1.103,0-2-.897-2-2v-4c0-1.103,.897-2,2-2h2c.552,0,1,.448,1,1s-.448,1-1,1h-2v4h2c.552,0,1,.448,1,1s-.448,1-1,1Z" style="fill:#8a6744;"/><path d="M42,37h-2c-.552,0-1-.448-1-1s.448-1,1-1h2c.552,0,1,.448,1,1s-.448,1-1,1Z" style="fill:#8a6744;"/><path d="M25,34h-4c-.552,0-1-.448-1-1s.448-1,1-1h4c.552,0,1,.448,1,1s-.448,1-1,1Z" style="fill:#8a6744;"/><path d="M23,40c-.552,0-1-.448-1-1v-6c0-.552,.448-1,1-1s1,.448,1,1v6c0,.552-.448,1-1,1Z" style="fill:#8a6744;"/></g><g><path d="M28,48c-1.654,0-3-1.346-3-3s1.346-3,3-3,3,1.346,3,3-1.346,3-3,3Zm0-4c-.551,0-1,.449-1,1s.449,1,1,1,1-.449,1-1-.449-1-1-1Z" style="fill:#8a6744;"/><path d="M35,48c-1.654,0-3-1.346-3-3v-2c0-.552,.448-1,1-1s1,.448,1,1v2c0,.551,.449,1,1,1s1-.449,1-1v-2c0-.552,.448-1,1-1s1,.448,1,1v2c0,1.654-1.346,3-3,3Z" style="fill:#8a6744;"/><path d="M44,44h-4c-.552,0-1-.448-1-1s.448-1,1-1h4c.552,0,1,.448,1,1s-.448,1-1,1Z" style="fill:#8a6744;"/><path d="M42,48c-.552,0-1-.448-1-1v-4c0-.552,.448-1,1-1s1,.448,1,1v4c0,.552-.448,1-1,1Z" style="fill:#8a6744;"/></g></g><g><g><path d="M32,39c-.552,0-1-.448-1-1v-4c0-.551-.449-1-1-1s-1,.449-1,1v4c0,.552-.448,1-1,1s-1-.448-1-1v-4c0-1.654,1.346-3,3-3s3,1.346,3,3v4c0,.552-.448,1-1,1Z" style="fill:#202d35;"/><path d="M35,39c-.552,0-1-.448-1-1v-6c0-.552,.448-1,1-1s1,.448,1,1v6c0,.552-.448,1-1,1Z" style="fill:#202d35;"/><path d="M38,39c-.256,0-.512-.098-.707-.293l-3-3c-.391-.391-.391-1.023,0-1.414l3-3c.391-.391,1.023-.391,1.414,0s.391,1.023,0,1.414l-2.293,2.293,2.293,2.293c.391,.391,.391,1.023,0,1.414-.195,.195-.451,.293-.707,.293Z" style="fill:#202d35;"/><path d="M32,37h-4c-.552,0-1-.448-1-1s.448-1,1-1h4c.552,0,1,.448,1,1s-.448,1-1,1Z" style="fill:#202d35;"/><path d="M44,39h-2c-1.103,0-2-.897-2-2v-4c0-1.103,.897-2,2-2h2c.552,0,1,.448,1,1s-.448,1-1,1h-2v4h2c.552,0,1,.448,1,1s-.448,1-1,1Z" style="fill:#202d35;"/><path d="M43,36h-2c-.552,0-1-.448-1-1s.448-1,1-1h2c.552,0,1,.448,1,1s-.448,1-1,1Z" style="fill:#202d35;"/><path d="M26,33h-4c-.552,0-1-.448-1-1s.448-1,1-1h4c.552,0,1,.448,1,1s-.448,1-1,1Z" style="fill:#202d35;"/><path d="M24,39c-.552,0-1-.448-1-1v-6c0-.552,.448-1,1-1s1,.448,1,1v6c0,.552-.448,1-1,1Z" style="fill:#202d35;"/></g><g><path d="M29,47c-1.654,0-3-1.346-3-3s1.346-3,3-3,3,1.346,3,3-1.346,3-3,3Zm0-4c-.551,0-1,.449-1,1s.449,1,1,1,1-.449,1-1-.449-1-1-1Z" style="fill:#202d35;"/><path d="M36,47c-1.654,0-3-1.346-3-3v-2c0-.552,.448-1,1-1s1,.448,1,1v2c0,.551,.449,1,1,1s1-.449,1-1v-2c0-.552,.448-1,1-1s1,.448,1,1v2c0,1.654-1.346,3-3,3Z" style="fill:#202d35;"/><path d="M45,43h-4c-.552,0-1-.448-1-1s.448-1,1-1h4c.552,0,1,.448,1,1s-.448,1-1,1Z" style="fill:#202d35;"/><path d="M43,47c-.552,0-1-.448-1-1v-4c0-.552,.448-1,1-1s1,.448,1,1v4c0,.552-.448,1-1,1Z" style="fill:#202d35;"/></g></g><g><rect x="15" y="12" width="36" height="4" style="fill:#202d35;"/><path d="M51,12v4H25.24c-.08-1.32-.13-2.65-.16-4h25.92Z" style="fill:#273640;"/></g><g><polygon points="49 6 49 12 17 12 17 9 27 9 49 6" style="fill:#4e3318;"/><path d="M49,6v6H25.08c-.04-.99-.06-1.99-.07-3h1.99l22-3Z" style="fill:#613f1e;"/></g><path d="M52,17H14c-.552,0-1-.448-1-1s.448-1,1-1H52c.552,0,1,.448,1,1s-.448,1-1,1Z" style="fill:#1d252d;"/></g><g id="d"><line x1="14" y1="16" x2="52" y2="16" style="fill:none; stroke:#222325; stroke-linecap:round; stroke-linejoin:round; stroke-width:2px;"/><g><line x1="16.532" y1="28" x2="15" y2="16" style="fill:none; stroke:#222325; stroke-linecap:round; stroke-linejoin:round; stroke-width:2px;"/><path d="M46.66,50l-1.437,11.253c-.127,.999-.977,1.747-1.984,1.747H22.761c-1.007,0-1.856-.748-1.984-1.747l-1.437-11.253" style="fill:none; stroke:#222325; stroke-linecap:round; stroke-linejoin:round; stroke-width:2px;"/><line x1="51" y1="16" x2="49.468" y2="28" style="fill:none; stroke:#222325; stroke-linecap:round; stroke-linejoin:round; stroke-width:2px;"/></g><polygon points="48 50 18 50 15 28 51 28 48 50" style="fill:none; stroke:#222325; stroke-linecap:round; stroke-linejoin:round; stroke-width:2px;"/><polyline points="15 16 15 12 51 12 51 16" style="fill:none; stroke:#222325; stroke-linecap:round; stroke-linejoin:round; stroke-width:2px;"/><polyline points="17 12 17 9 27 9 49 6 49 12" style="fill:none; stroke:#222325; stroke-linecap:round; stroke-linejoin:round; stroke-width:2px;"/><g><path d="M19.634,9l-.728-2.55c-.244-.853-1.035-1.45-1.923-1.45h-3.983" style="fill:none; stroke:#222325; stroke-linecap:round; stroke-linejoin:round; stroke-width:2px;"/><path d="M13,1h3.983c2.664,0,5.037,1.789,5.769,4.351l1.042,3.649" style="fill:none; stroke:#222325; stroke-linecap:round; stroke-linejoin:round; stroke-width:2px;"/><ellipse cx="13" cy="3" rx="1" ry="2" style="fill:none; stroke:#222325; stroke-linecap:round; stroke-linejoin:round; stroke-width:2px;"/></g><g><path d="M28,38v-4c0-1.105,.895-2,2-2s2,.895,2,2v4" style="fill:none; stroke:#222325; stroke-linecap:round; stroke-linejoin:round; stroke-width:2px;"/><line x1="35" y1="32" x2="35" y2="38" style="fill:none; stroke:#222325; stroke-linecap:round; stroke-linejoin:round; stroke-width:2px;"/><polyline points="38 32 35 35 38 38" style="fill:none; stroke:#222325; stroke-linecap:round; stroke-linejoin:round; stroke-width:2px;"/><line x1="28" y1="36" x2="32" y2="36" style="fill:none; stroke:#222325; stroke-linecap:round; stroke-linejoin:round; stroke-width:2px;"/><path d="M44,38h-2c-.552,0-1-.448-1-1v-4c0-.552,.448-1,1-1h2" style="fill:none; stroke:#222325; stroke-linecap:round; stroke-linejoin:round; stroke-width:2px;"/><line x1="41" y1="35" x2="43" y2="35" style="fill:none; stroke:#222325; stroke-linecap:round; stroke-linejoin:round; stroke-width:2px;"/><line x1="22" y1="32" x2="26" y2="32" style="fill:none; stroke:#222325; stroke-linecap:round; stroke-linejoin:round; stroke-width:2px;"/><line x1="24" y1="32" x2="24" y2="38" style="fill:none; stroke:#222325; stroke-linecap:round; stroke-linejoin:round; stroke-width:2px;"/></g><g><circle cx="29" cy="44" r="2" style="fill:none; stroke:#222325; stroke-linecap:round; stroke-linejoin:round; stroke-width:2px;"/><path d="M34,42v2c0,1.105,.895,2,2,2s2-.895,2-2v-2" style="fill:none; stroke:#222325; stroke-linecap:round; stroke-linejoin:round; stroke-width:2px;"/><line x1="41" y1="42" x2="45" y2="42" style="fill:none; stroke:#222325; stroke-linecap:round; stroke-linejoin:round; stroke-width:2px;"/><line x1="43" y1="42" x2="43" y2="46" style="fill:none; stroke:#222325; stroke-linecap:round; stroke-linejoin:round; stroke-width:2px;"/></g></g></g></g><g id="e"/><g id="f"/><g id="g"/><g id="h"/><g id="i"/><g id="j"/><g id="k"/><g id="l"/><g id="m"/><g id="n"/><g id="o"/><g id="p"/><g id="q"/><g id="r"/><g id="s"/><g id="t"/><g id="u"/><g id="v"/><g id="w"/><g id="x"/><g id="y"/><g id="a`"/><g id="aa"/><g id="ab"/><g id="ac"/><g id="ad"/><g id="ae"/><g id="af"/></svg>