<?xml version="1.0" encoding="UTF-8"?><svg xmlns="http://www.w3.org/2000/svg" viewBox="0 0 64 64"><g id="a"/><g id="b"/><g id="c"/><g id="d"/><g id="e"/><g id="f"/><g id="g"/><g id="h"/><g id="i"/><g id="j"/><g id="k"/><g id="l"/><g id="m"/><g id="n"/><g id="o"/><g id="p"/><g id="q"/><g id="r"/><g id="s"/><g id="t"><g><g id="u"><g><g><path d="M25,13c13.255,0,24,3.582,24,8l-11,26H12L1,21c0-4.418,10.745-8,24-8Z" style="fill:#4e3318;"/><path d="M49,21l-11,26h-11.84c-5.58-7.69-9.16-19.61-9.16-33,0-.18,0-.36,.01-.54,2.5-.3,5.19-.46,7.99-.46,13.25,0,24,3.58,24,8Z" style="fill:#613f1e;"/></g><g><polygon points="39.69 43 38 47 12 47 10.31 43 39.69 43" style="fill:#202d35;"/><path d="M39.69,43l-1.69,4h-11.84c-.9-1.23-1.74-2.56-2.51-4h16.04Z" style="fill:#273640;"/></g><g><rect x="14" y="43" width="2" height="4" style="fill:#1d252d;"/><rect x="18" y="43" width="2" height="4" style="fill:#1d252d;"/><rect x="22" y="43" width="2" height="4" style="fill:#1d252d;"/><rect x="26" y="43" width="2" height="4" style="fill:#1d252d;"/><rect x="30" y="43" width="2" height="4" style="fill:#1d252d;"/><rect x="34" y="43" width="2" height="4" style="fill:#1d252d;"/></g><g><path d="M25,22c-1.104,0-2-.896-2-2v-1c0-1.104,.896-2,2-2s2,.896,2,2v1c0,1.104-.896,2-2,2Z" style="fill:#412a14;"/><path d="M31,22c-1.104,0-2-.896-2-2v-1c0-1.104,.896-2,2-2s2,.896,2,2v1c0,1.104-.896,2-2,2Z" style="fill:#412a14;"/><path d="M37,22c-1.104,0-2-.896-2-2v-1c0-1.104,.896-2,2-2s2,.896,2,2v1c0,1.104-.896,2-2,2Z" style="fill:#412a14;"/><path d="M43,22c-1.104,0-2-.896-2-2v-1c0-1.104,.896-2,2-2s2,.896,2,2v1c0,1.104-.896,2-2,2Z" style="fill:#412a14;"/><path d="M13,22c-1.104,0-2-.896-2-2v-1c0-1.104,.896-2,2-2s2,.896,2,2v1c0,1.104-.896,2-2,2Z" style="fill:#412a14;"/><path d="M7,22c-1.104,0-2-.896-2-2v-1c0-1.104,.896-2,2-2s2,.896,2,2v1c0,1.104-.896,2-2,2Z" style="fill:#412a14;"/><path d="M19,22c-1.104,0-2-.896-2-2v-1c0-1.104,.896-2,2-2s2,.896,2,2v1c0,1.104-.896,2-2,2Z" style="fill:#412a14;"/><path d="M28,26c-1.104,0-2-.896-2-2v-1c0-1.104,.896-2,2-2s2,.896,2,2v1c0,1.104-.896,2-2,2Z" style="fill:#412a14;"/><path d="M34,26c-1.104,0-2-.896-2-2v-1c0-1.104,.896-2,2-2s2,.896,2,2v1c0,1.104-.896,2-2,2Z" style="fill:#412a14;"/><path d="M40,26c-1.104,0-2-.896-2-2v-1c0-1.104,.896-2,2-2s2,.896,2,2v1c0,1.104-.896,2-2,2Z" style="fill:#412a14;"/><path d="M16,26c-1.104,0-2-.896-2-2v-1c0-1.104,.896-2,2-2s2,.896,2,2v1c0,1.104-.896,2-2,2Z" style="fill:#412a14;"/><path d="M10,26c-1.104,0-2-.896-2-2v-1c0-1.104,.896-2,2-2s2,.896,2,2v1c0,1.104-.896,2-2,2Z" style="fill:#412a14;"/><path d="M22,26c-1.104,0-2-.896-2-2v-1c0-1.104,.896-2,2-2s2,.896,2,2v1c0,1.104-.896,2-2,2Z" style="fill:#412a14;"/><path d="M25,30c-1.104,0-2-.896-2-2v-1c0-1.104,.896-2,2-2s2,.896,2,2v1c0,1.104-.896,2-2,2Z" style="fill:#412a14;"/><path d="M31,30c-1.104,0-2-.896-2-2v-1c0-1.104,.896-2,2-2s2,.896,2,2v1c0,1.104-.896,2-2,2Z" style="fill:#412a14;"/><path d="M37,30c-1.104,0-2-.896-2-2v-1c0-1.104,.896-2,2-2s2,.896,2,2v1c0,1.104-.896,2-2,2Z" style="fill:#412a14;"/><path d="M43,30c-1.104,0-2-.896-2-2v-1c0-1.104,.896-2,2-2s2,.896,2,2v1c0,1.104-.896,2-2,2Z" style="fill:#412a14;"/><path d="M13,30c-1.104,0-2-.896-2-2v-1c0-1.104,.896-2,2-2s2,.896,2,2v1c0,1.104-.896,2-2,2Z" style="fill:#412a14;"/><path d="M7,30c-1.104,0-2-.896-2-2v-1c0-1.104,.896-2,2-2s2,.896,2,2v1c0,1.104-.896,2-2,2Z" style="fill:#412a14;"/><path d="M19,30c-1.104,0-2-.896-2-2v-1c0-1.104,.896-2,2-2s2,.896,2,2v1c0,1.104-.896,2-2,2Z" style="fill:#412a14;"/><path d="M28,34c-1.104,0-2-.896-2-2v-1c0-1.104,.896-2,2-2s2,.896,2,2v1c0,1.104-.896,2-2,2Z" style="fill:#412a14;"/><path d="M34,34c-1.104,0-2-.896-2-2v-1c0-1.104,.896-2,2-2s2,.896,2,2v1c0,1.104-.896,2-2,2Z" style="fill:#412a14;"/><path d="M40,34c-1.104,0-2-.896-2-2v-1c0-1.104,.896-2,2-2s2,.896,2,2v1c0,1.104-.896,2-2,2Z" style="fill:#412a14;"/><path d="M16,34c-1.104,0-2-.896-2-2v-1c0-1.104,.896-2,2-2s2,.896,2,2v1c0,1.104-.896,2-2,2Z" style="fill:#412a14;"/><path d="M10,34c-1.104,0-2-.896-2-2v-1c0-1.104,.896-2,2-2s2,.896,2,2v1c0,1.104-.896,2-2,2Z" style="fill:#412a14;"/><path d="M22,34c-1.104,0-2-.896-2-2v-1c0-1.104,.896-2,2-2s2,.896,2,2v1c0,1.104-.896,2-2,2Z" style="fill:#412a14;"/><path d="M25,38c-1.104,0-2-.896-2-2v-1c0-1.104,.896-2,2-2s2,.896,2,2v1c0,1.104-.896,2-2,2Z" style="fill:#412a14;"/><path d="M31,38c-1.104,0-2-.896-2-2v-1c0-1.104,.896-2,2-2s2,.896,2,2v1c0,1.104-.896,2-2,2Z" style="fill:#412a14;"/><path d="M37,38c-1.104,0-2-.896-2-2v-1c0-1.104,.896-2,2-2s2,.896,2,2v1c0,1.104-.896,2-2,2Z" style="fill:#412a14;"/><path d="M13,38c-1.104,0-2-.896-2-2v-1c0-1.104,.896-2,2-2s2,.896,2,2v1c0,1.104-.896,2-2,2Z" style="fill:#412a14;"/><path d="M19,38c-1.104,0-2-.896-2-2v-1c0-1.104,.896-2,2-2s2,.896,2,2v1c0,1.104-.896,2-2,2Z" style="fill:#412a14;"/><path d="M28,42c-1.104,0-2-.896-2-2v-1c0-1.104,.896-2,2-2s2,.896,2,2v1c0,1.104-.896,2-2,2Z" style="fill:#412a14;"/><path d="M34,42c-1.104,0-2-.896-2-2v-1c0-1.104,.896-2,2-2s2,.896,2,2v1c0,1.104-.896,2-2,2Z" style="fill:#412a14;"/><path d="M16,42c-1.104,0-2-.896-2-2v-1c0-1.104,.896-2,2-2s2,.896,2,2v1c0,1.104-.896,2-2,2Z" style="fill:#412a14;"/><path d="M22,42c-1.104,0-2-.896-2-2v-1c0-1.104,.896-2,2-2s2,.896,2,2v1c0,1.104-.896,2-2,2Z" style="fill:#412a14;"/></g><g><path d="M25,21c-.552,0-1-.447-1-1v-1c0-.553,.448-1,1-1s1,.447,1,1v1c0,.553-.448,1-1,1Z" style="fill:#202d35;"/><path d="M31,21c-.552,0-1-.447-1-1v-1c0-.553,.448-1,1-1s1,.447,1,1v1c0,.553-.448,1-1,1Z" style="fill:#202d35;"/><path d="M37,21c-.552,0-1-.447-1-1v-1c0-.553,.448-1,1-1s1,.447,1,1v1c0,.553-.448,1-1,1Z" style="fill:#202d35;"/><path d="M43,21c-.552,0-1-.447-1-1v-1c0-.553,.448-1,1-1s1,.447,1,1v1c0,.553-.448,1-1,1Z" style="fill:#202d35;"/><path d="M13,21c-.552,0-1-.447-1-1v-1c0-.553,.448-1,1-1s1,.447,1,1v1c0,.553-.448,1-1,1Z" style="fill:#202d35;"/><path d="M7,21c-.552,0-1-.447-1-1v-1c0-.553,.448-1,1-1s1,.447,1,1v1c0,.553-.448,1-1,1Z" style="fill:#202d35;"/><path d="M19,21c-.552,0-1-.447-1-1v-1c0-.553,.448-1,1-1s1,.447,1,1v1c0,.553-.448,1-1,1Z" style="fill:#202d35;"/><path d="M28,25c-.552,0-1-.447-1-1v-1c0-.553,.448-1,1-1s1,.447,1,1v1c0,.553-.448,1-1,1Z" style="fill:#202d35;"/><path d="M34,25c-.552,0-1-.447-1-1v-1c0-.553,.448-1,1-1s1,.447,1,1v1c0,.553-.448,1-1,1Z" style="fill:#202d35;"/><path d="M40,25c-.552,0-1-.447-1-1v-1c0-.553,.448-1,1-1s1,.447,1,1v1c0,.553-.448,1-1,1Z" style="fill:#202d35;"/><path d="M16,25c-.552,0-1-.447-1-1v-1c0-.553,.448-1,1-1s1,.447,1,1v1c0,.553-.448,1-1,1Z" style="fill:#202d35;"/><path d="M10,25c-.552,0-1-.447-1-1v-1c0-.553,.448-1,1-1s1,.447,1,1v1c0,.553-.448,1-1,1Z" style="fill:#202d35;"/><path d="M22,25c-.552,0-1-.447-1-1v-1c0-.553,.448-1,1-1s1,.447,1,1v1c0,.553-.448,1-1,1Z" style="fill:#202d35;"/><path d="M25,29c-.552,0-1-.447-1-1v-1c0-.553,.448-1,1-1s1,.447,1,1v1c0,.553-.448,1-1,1Z" style="fill:#202d35;"/><path d="M31,29c-.552,0-1-.447-1-1v-1c0-.553,.448-1,1-1s1,.447,1,1v1c0,.553-.448,1-1,1Z" style="fill:#202d35;"/><path d="M37,29c-.552,0-1-.447-1-1v-1c0-.553,.448-1,1-1s1,.447,1,1v1c0,.553-.448,1-1,1Z" style="fill:#202d35;"/><path d="M43,29c-.552,0-1-.447-1-1v-1c0-.553,.448-1,1-1s1,.447,1,1v1c0,.553-.448,1-1,1Z" style="fill:#202d35;"/><path d="M13,29c-.552,0-1-.447-1-1v-1c0-.553,.448-1,1-1s1,.447,1,1v1c0,.553-.448,1-1,1Z" style="fill:#202d35;"/><path d="M7,29c-.552,0-1-.447-1-1v-1c0-.553,.448-1,1-1s1,.447,1,1v1c0,.553-.448,1-1,1Z" style="fill:#202d35;"/><path d="M19,29c-.552,0-1-.447-1-1v-1c0-.553,.448-1,1-1s1,.447,1,1v1c0,.553-.448,1-1,1Z" style="fill:#202d35;"/><path d="M28,33c-.552,0-1-.447-1-1v-1c0-.553,.448-1,1-1s1,.447,1,1v1c0,.553-.448,1-1,1Z" style="fill:#202d35;"/><path d="M34,33c-.552,0-1-.447-1-1v-1c0-.553,.448-1,1-1s1,.447,1,1v1c0,.553-.448,1-1,1Z" style="fill:#202d35;"/><path d="M40,33c-.552,0-1-.447-1-1v-1c0-.553,.448-1,1-1s1,.447,1,1v1c0,.553-.448,1-1,1Z" style="fill:#202d35;"/><path d="M16,33c-.552,0-1-.447-1-1v-1c0-.553,.448-1,1-1s1,.447,1,1v1c0,.553-.448,1-1,1Z" style="fill:#202d35;"/><path d="M10,33c-.552,0-1-.447-1-1v-1c0-.553,.448-1,1-1s1,.447,1,1v1c0,.553-.448,1-1,1Z" style="fill:#202d35;"/><path d="M22,33c-.552,0-1-.447-1-1v-1c0-.553,.448-1,1-1s1,.447,1,1v1c0,.553-.448,1-1,1Z" style="fill:#202d35;"/><path d="M25,37c-.552,0-1-.447-1-1v-1c0-.553,.448-1,1-1s1,.447,1,1v1c0,.553-.448,1-1,1Z" style="fill:#202d35;"/><path d="M31,37c-.552,0-1-.447-1-1v-1c0-.553,.448-1,1-1s1,.447,1,1v1c0,.553-.448,1-1,1Z" style="fill:#202d35;"/><path d="M37,37c-.552,0-1-.447-1-1v-1c0-.553,.448-1,1-1s1,.447,1,1v1c0,.553-.448,1-1,1Z" style="fill:#202d35;"/><path d="M13,37c-.552,0-1-.447-1-1v-1c0-.553,.448-1,1-1s1,.447,1,1v1c0,.553-.448,1-1,1Z" style="fill:#202d35;"/><path d="M28,41c-.552,0-1-.447-1-1v-1c0-.553,.448-1,1-1s1,.447,1,1v1c0,.553-.448,1-1,1Z" style="fill:#202d35;"/><path d="M34,41c-.552,0-1-.447-1-1v-1c0-.553,.448-1,1-1s1,.447,1,1v1c0,.553-.448,1-1,1Z" style="fill:#202d35;"/><path d="M16,41c-.552,0-1-.447-1-1v-1c0-.553,.448-1,1-1s1,.447,1,1v1c0,.553-.448,1-1,1Z" style="fill:#202d35;"/><path d="M22,41c-.552,0-1-.447-1-1v-1c0-.553,.448-1,1-1s1,.447,1,1v1c0,.553-.448,1-1,1Z" style="fill:#202d35;"/></g></g><g><g><path d="M39,17c13.255,0,24,3.582,24,8l-11,26H26L15,25c0-4.418,10.745-8,24-8Z" style="fill:#a67c52;"/><path d="M63,25l-11,26h-11.84c-5.58-7.69-9.16-19.61-9.16-33,0-.18,0-.36,.01-.54,2.5-.3,5.19-.46,7.99-.46,13.25,0,24,3.58,24,8Z" style="fill:#c69c6d;"/></g><g><polygon points="53.69 47 52 51 26 51 24.31 47 53.69 47" style="fill:#4e3318;"/><path d="M53.69,47l-1.69,4h-11.84c-.9-1.23-1.74-2.56-2.51-4h16.04Z" style="fill:#613f1e;"/></g><g><rect x="28" y="47" width="2" height="4" style="fill:#412a14;"/><rect x="32" y="47" width="2" height="4" style="fill:#412a14;"/><rect x="36" y="47" width="2" height="4" style="fill:#412a14;"/><rect x="40" y="47" width="2" height="4" style="fill:#412a14;"/><rect x="44" y="47" width="2" height="4" style="fill:#412a14;"/><rect x="48" y="47" width="2" height="4" style="fill:#412a14;"/></g><g><path d="M39,26c-1.104,0-2-.896-2-2v-1c0-1.104,.896-2,2-2s2,.896,2,2v1c0,1.104-.896,2-2,2Z" style="fill:#8a6744;"/><path d="M45,26c-1.104,0-2-.896-2-2v-1c0-1.104,.896-2,2-2s2,.896,2,2v1c0,1.104-.896,2-2,2Z" style="fill:#8a6744;"/><path d="M51,26c-1.104,0-2-.896-2-2v-1c0-1.104,.896-2,2-2s2,.896,2,2v1c0,1.104-.896,2-2,2Z" style="fill:#8a6744;"/><path d="M57,26c-1.104,0-2-.896-2-2v-1c0-1.104,.896-2,2-2s2,.896,2,2v1c0,1.104-.896,2-2,2Z" style="fill:#8a6744;"/><path d="M27,26c-1.104,0-2-.896-2-2v-1c0-1.104,.896-2,2-2s2,.896,2,2v1c0,1.104-.896,2-2,2Z" style="fill:#8a6744;"/><path d="M21,26c-1.104,0-2-.896-2-2v-1c0-1.104,.896-2,2-2s2,.896,2,2v1c0,1.104-.896,2-2,2Z" style="fill:#8a6744;"/><path d="M33,26c-1.104,0-2-.896-2-2v-1c0-1.104,.896-2,2-2s2,.896,2,2v1c0,1.104-.896,2-2,2Z" style="fill:#8a6744;"/><path d="M42,30c-1.104,0-2-.896-2-2v-1c0-1.104,.896-2,2-2s2,.896,2,2v1c0,1.104-.896,2-2,2Z" style="fill:#8a6744;"/><path d="M48,30c-1.104,0-2-.896-2-2v-1c0-1.104,.896-2,2-2s2,.896,2,2v1c0,1.104-.896,2-2,2Z" style="fill:#8a6744;"/><path d="M54,30c-1.104,0-2-.896-2-2v-1c0-1.104,.896-2,2-2s2,.896,2,2v1c0,1.104-.896,2-2,2Z" style="fill:#8a6744;"/><path d="M30,30c-1.104,0-2-.896-2-2v-1c0-1.104,.896-2,2-2s2,.896,2,2v1c0,1.104-.896,2-2,2Z" style="fill:#8a6744;"/><path d="M24,30c-1.104,0-2-.896-2-2v-1c0-1.104,.896-2,2-2s2,.896,2,2v1c0,1.104-.896,2-2,2Z" style="fill:#8a6744;"/><path d="M36,30c-1.104,0-2-.896-2-2v-1c0-1.104,.896-2,2-2s2,.896,2,2v1c0,1.104-.896,2-2,2Z" style="fill:#8a6744;"/><path d="M39,34c-1.104,0-2-.896-2-2v-1c0-1.104,.896-2,2-2s2,.896,2,2v1c0,1.104-.896,2-2,2Z" style="fill:#8a6744;"/><path d="M45,34c-1.104,0-2-.896-2-2v-1c0-1.104,.896-2,2-2s2,.896,2,2v1c0,1.104-.896,2-2,2Z" style="fill:#8a6744;"/><path d="M51,34c-1.104,0-2-.896-2-2v-1c0-1.104,.896-2,2-2s2,.896,2,2v1c0,1.104-.896,2-2,2Z" style="fill:#8a6744;"/><path d="M57,34c-1.104,0-2-.896-2-2v-1c0-1.104,.896-2,2-2s2,.896,2,2v1c0,1.104-.896,2-2,2Z" style="fill:#8a6744;"/><path d="M27,34c-1.104,0-2-.896-2-2v-1c0-1.104,.896-2,2-2s2,.896,2,2v1c0,1.104-.896,2-2,2Z" style="fill:#8a6744;"/><path d="M21,34c-1.104,0-2-.896-2-2v-1c0-1.104,.896-2,2-2s2,.896,2,2v1c0,1.104-.896,2-2,2Z" style="fill:#8a6744;"/><path d="M33,34c-1.104,0-2-.896-2-2v-1c0-1.104,.896-2,2-2s2,.896,2,2v1c0,1.104-.896,2-2,2Z" style="fill:#8a6744;"/><path d="M42,38c-1.104,0-2-.896-2-2v-1c0-1.104,.896-2,2-2s2,.896,2,2v1c0,1.104-.896,2-2,2Z" style="fill:#8a6744;"/><path d="M48,38c-1.104,0-2-.896-2-2v-1c0-1.104,.896-2,2-2s2,.896,2,2v1c0,1.104-.896,2-2,2Z" style="fill:#8a6744;"/><path d="M54,38c-1.104,0-2-.896-2-2v-1c0-1.104,.896-2,2-2s2,.896,2,2v1c0,1.104-.896,2-2,2Z" style="fill:#8a6744;"/><path d="M30,38c-1.104,0-2-.896-2-2v-1c0-1.104,.896-2,2-2s2,.896,2,2v1c0,1.104-.896,2-2,2Z" style="fill:#8a6744;"/><path d="M24,38c-1.104,0-2-.896-2-2v-1c0-1.104,.896-2,2-2s2,.896,2,2v1c0,1.104-.896,2-2,2Z" style="fill:#8a6744;"/><path d="M36,38c-1.104,0-2-.896-2-2v-1c0-1.104,.896-2,2-2s2,.896,2,2v1c0,1.104-.896,2-2,2Z" style="fill:#8a6744;"/><path d="M39,42c-1.104,0-2-.896-2-2v-1c0-1.104,.896-2,2-2s2,.896,2,2v1c0,1.104-.896,2-2,2Z" style="fill:#8a6744;"/><path d="M45,42c-1.104,0-2-.896-2-2v-1c0-1.104,.896-2,2-2s2,.896,2,2v1c0,1.104-.896,2-2,2Z" style="fill:#8a6744;"/><path d="M51,42c-1.104,0-2-.896-2-2v-1c0-1.104,.896-2,2-2s2,.896,2,2v1c0,1.104-.896,2-2,2Z" style="fill:#8a6744;"/><path d="M27,42c-1.104,0-2-.896-2-2v-1c0-1.104,.896-2,2-2s2,.896,2,2v1c0,1.104-.896,2-2,2Z" style="fill:#8a6744;"/><path d="M33,42c-1.104,0-2-.896-2-2v-1c0-1.104,.896-2,2-2s2,.896,2,2v1c0,1.104-.896,2-2,2Z" style="fill:#8a6744;"/><path d="M42,46c-1.104,0-2-.896-2-2v-1c0-1.104,.896-2,2-2s2,.896,2,2v1c0,1.104-.896,2-2,2Z" style="fill:#8a6744;"/><path d="M48,46c-1.104,0-2-.896-2-2v-1c0-1.104,.896-2,2-2s2,.896,2,2v1c0,1.104-.896,2-2,2Z" style="fill:#8a6744;"/><path d="M30,46c-1.104,0-2-.896-2-2v-1c0-1.104,.896-2,2-2s2,.896,2,2v1c0,1.104-.896,2-2,2Z" style="fill:#8a6744;"/><path d="M36,46c-1.104,0-2-.896-2-2v-1c0-1.104,.896-2,2-2s2,.896,2,2v1c0,1.104-.896,2-2,2Z" style="fill:#8a6744;"/></g><g><path d="M39,25c-.552,0-1-.447-1-1v-1c0-.553,.448-1,1-1s1,.447,1,1v1c0,.553-.448,1-1,1Z" style="fill:#613f1e;"/><path d="M45,25c-.552,0-1-.447-1-1v-1c0-.553,.448-1,1-1s1,.447,1,1v1c0,.553-.448,1-1,1Z" style="fill:#613f1e;"/><path d="M51,25c-.552,0-1-.447-1-1v-1c0-.553,.448-1,1-1s1,.447,1,1v1c0,.553-.448,1-1,1Z" style="fill:#613f1e;"/><path d="M57,25c-.552,0-1-.447-1-1v-1c0-.553,.448-1,1-1s1,.447,1,1v1c0,.553-.448,1-1,1Z" style="fill:#613f1e;"/><path d="M27,25c-.552,0-1-.447-1-1v-1c0-.553,.448-1,1-1s1,.447,1,1v1c0,.553-.448,1-1,1Z" style="fill:#613f1e;"/><path d="M21,25c-.552,0-1-.447-1-1v-1c0-.553,.448-1,1-1s1,.447,1,1v1c0,.553-.448,1-1,1Z" style="fill:#613f1e;"/><path d="M33,25c-.552,0-1-.447-1-1v-1c0-.553,.448-1,1-1s1,.447,1,1v1c0,.553-.448,1-1,1Z" style="fill:#613f1e;"/><path d="M42,29c-.552,0-1-.447-1-1v-1c0-.553,.448-1,1-1s1,.447,1,1v1c0,.553-.448,1-1,1Z" style="fill:#613f1e;"/><path d="M48,29c-.552,0-1-.447-1-1v-1c0-.553,.448-1,1-1s1,.447,1,1v1c0,.553-.448,1-1,1Z" style="fill:#613f1e;"/><path d="M54,29c-.552,0-1-.447-1-1v-1c0-.553,.448-1,1-1s1,.447,1,1v1c0,.553-.448,1-1,1Z" style="fill:#613f1e;"/><path d="M30,29c-.552,0-1-.447-1-1v-1c0-.553,.448-1,1-1s1,.447,1,1v1c0,.553-.448,1-1,1Z" style="fill:#613f1e;"/><path d="M24,29c-.552,0-1-.447-1-1v-1c0-.553,.448-1,1-1s1,.447,1,1v1c0,.553-.448,1-1,1Z" style="fill:#613f1e;"/><path d="M36,29c-.552,0-1-.447-1-1v-1c0-.553,.448-1,1-1s1,.447,1,1v1c0,.553-.448,1-1,1Z" style="fill:#613f1e;"/><path d="M39,33c-.552,0-1-.447-1-1v-1c0-.553,.448-1,1-1s1,.447,1,1v1c0,.553-.448,1-1,1Z" style="fill:#613f1e;"/><path d="M45,33c-.552,0-1-.447-1-1v-1c0-.553,.448-1,1-1s1,.447,1,1v1c0,.553-.448,1-1,1Z" style="fill:#613f1e;"/><path d="M51,33c-.552,0-1-.447-1-1v-1c0-.553,.448-1,1-1s1,.447,1,1v1c0,.553-.448,1-1,1Z" style="fill:#613f1e;"/><path d="M57,33c-.552,0-1-.447-1-1v-1c0-.553,.448-1,1-1s1,.447,1,1v1c0,.553-.448,1-1,1Z" style="fill:#613f1e;"/><path d="M27,33c-.552,0-1-.447-1-1v-1c0-.553,.448-1,1-1s1,.447,1,1v1c0,.553-.448,1-1,1Z" style="fill:#613f1e;"/><path d="M21,33c-.552,0-1-.447-1-1v-1c0-.553,.448-1,1-1s1,.447,1,1v1c0,.553-.448,1-1,1Z" style="fill:#613f1e;"/><path d="M33,33c-.552,0-1-.447-1-1v-1c0-.553,.448-1,1-1s1,.447,1,1v1c0,.553-.448,1-1,1Z" style="fill:#613f1e;"/><path d="M42,37c-.552,0-1-.447-1-1v-1c0-.553,.448-1,1-1s1,.447,1,1v1c0,.553-.448,1-1,1Z" style="fill:#613f1e;"/><path d="M48,37c-.552,0-1-.447-1-1v-1c0-.553,.448-1,1-1s1,.447,1,1v1c0,.553-.448,1-1,1Z" style="fill:#613f1e;"/><path d="M54,37c-.552,0-1-.447-1-1v-1c0-.553,.448-1,1-1s1,.447,1,1v1c0,.553-.448,1-1,1Z" style="fill:#613f1e;"/><path d="M30,37c-.552,0-1-.447-1-1v-1c0-.553,.448-1,1-1s1,.447,1,1v1c0,.553-.448,1-1,1Z" style="fill:#613f1e;"/><path d="M24,37c-.552,0-1-.447-1-1v-1c0-.553,.448-1,1-1s1,.447,1,1v1c0,.553-.448,1-1,1Z" style="fill:#613f1e;"/><path d="M36,37c-.552,0-1-.447-1-1v-1c0-.553,.448-1,1-1s1,.447,1,1v1c0,.553-.448,1-1,1Z" style="fill:#613f1e;"/><path d="M39,41c-.552,0-1-.447-1-1v-1c0-.553,.448-1,1-1s1,.447,1,1v1c0,.553-.448,1-1,1Z" style="fill:#613f1e;"/><path d="M45,41c-.552,0-1-.447-1-1v-1c0-.553,.448-1,1-1s1,.447,1,1v1c0,.553-.448,1-1,1Z" style="fill:#613f1e;"/><path d="M51,41c-.552,0-1-.447-1-1v-1c0-.553,.448-1,1-1s1,.447,1,1v1c0,.553-.448,1-1,1Z" style="fill:#613f1e;"/><path d="M27,41c-.552,0-1-.447-1-1v-1c0-.553,.448-1,1-1s1,.447,1,1v1c0,.553-.448,1-1,1Z" style="fill:#613f1e;"/><path d="M33,41c-.552,0-1-.447-1-1v-1c0-.553,.448-1,1-1s1,.447,1,1v1c0,.553-.448,1-1,1Z" style="fill:#613f1e;"/><path d="M42,45c-.552,0-1-.447-1-1v-1c0-.553,.448-1,1-1s1,.447,1,1v1c0,.553-.448,1-1,1Z" style="fill:#613f1e;"/><path d="M48,45c-.552,0-1-.447-1-1v-1c0-.553,.448-1,1-1s1,.447,1,1v1c0,.553-.448,1-1,1Z" style="fill:#613f1e;"/><path d="M30,45c-.552,0-1-.447-1-1v-1c0-.553,.448-1,1-1s1,.447,1,1v1c0,.553-.448,1-1,1Z" style="fill:#613f1e;"/><path d="M36,45c-.552,0-1-.447-1-1v-1c0-.553,.448-1,1-1s1,.447,1,1v1c0,.553-.448,1-1,1Z" style="fill:#613f1e;"/></g></g></g><g id="v"><g><path d="M24,47H12L1,21c0-4.418,10.745-8,24-8,8.883,0,16.639,1.609,20.789,4" style="fill:none; stroke:#222325; stroke-linecap:round; stroke-linejoin:round; stroke-width:2px;"/><line x1="11" y1="43" x2="23" y2="43" style="fill:none; stroke:#222325; stroke-linejoin:round; stroke-width:2px;"/><g><line x1="15" y1="43" x2="15" y2="47" style="fill:none; stroke:#222325; stroke-linejoin:round; stroke-width:2px;"/><line x1="19" y1="43" x2="19" y2="47" style="fill:none; stroke:#222325; stroke-linejoin:round; stroke-width:2px;"/></g><g><line x1="13" y1="20" x2="13" y2="19" style="fill:none; stroke:#222325; stroke-linecap:round; stroke-linejoin:round; stroke-width:2px;"/><line x1="7" y1="20" x2="7" y2="19" style="fill:none; stroke:#222325; stroke-linecap:round; stroke-linejoin:round; stroke-width:2px;"/><line x1="19" y1="20" x2="19" y2="19" style="fill:none; stroke:#222325; stroke-linecap:round; stroke-linejoin:round; stroke-width:2px;"/><line x1="10" y1="24" x2="10" y2="23" style="fill:none; stroke:#222325; stroke-linecap:round; stroke-linejoin:round; stroke-width:2px;"/><line x1="13" y1="28" x2="13" y2="27" style="fill:none; stroke:#222325; stroke-linecap:round; stroke-linejoin:round; stroke-width:2px;"/><line x1="7" y1="28" x2="7" y2="27" style="fill:none; stroke:#222325; stroke-linecap:round; stroke-linejoin:round; stroke-width:2px;"/><line x1="16" y1="32" x2="16" y2="31" style="fill:none; stroke:#222325; stroke-linecap:round; stroke-linejoin:round; stroke-width:2px;"/><line x1="10" y1="32" x2="10" y2="31" style="fill:none; stroke:#222325; stroke-linecap:round; stroke-linejoin:round; stroke-width:2px;"/><line x1="13" y1="36" x2="13" y2="35" style="fill:none; stroke:#222325; stroke-linecap:round; stroke-linejoin:round; stroke-width:2px;"/><line x1="16" y1="40" x2="16" y2="39" style="fill:none; stroke:#222325; stroke-linecap:round; stroke-linejoin:round; stroke-width:2px;"/></g></g><g><path d="M39,17c13.255,0,24,3.582,24,8l-11,26H26L15,25c0-4.418,10.745-8,24-8Z" style="fill:none; stroke:#222325; stroke-linecap:round; stroke-linejoin:round; stroke-width:2px;"/><line x1="25" y1="47" x2="53" y2="47" style="fill:none; stroke:#222325; stroke-linejoin:round; stroke-width:2px;"/><g><line x1="29" y1="47" x2="29" y2="51" style="fill:none; stroke:#222325; stroke-linejoin:round; stroke-width:2px;"/><line x1="33" y1="47" x2="33" y2="51" style="fill:none; stroke:#222325; stroke-linejoin:round; stroke-width:2px;"/><line x1="37" y1="47" x2="37" y2="51" style="fill:none; stroke:#222325; stroke-linejoin:round; stroke-width:2px;"/><line x1="41" y1="47" x2="41" y2="51" style="fill:none; stroke:#222325; stroke-linejoin:round; stroke-width:2px;"/><line x1="45" y1="47" x2="45" y2="51" style="fill:none; stroke:#222325; stroke-linejoin:round; stroke-width:2px;"/><line x1="49" y1="47" x2="49" y2="51" style="fill:none; stroke:#222325; stroke-linejoin:round; stroke-width:2px;"/></g><g><line x1="39" y1="24" x2="39" y2="23" style="fill:none; stroke:#222325; stroke-linecap:round; stroke-linejoin:round; stroke-width:2px;"/><line x1="45" y1="24" x2="45" y2="23" style="fill:none; stroke:#222325; stroke-linecap:round; stroke-linejoin:round; stroke-width:2px;"/><line x1="51" y1="24" x2="51" y2="23" style="fill:none; stroke:#222325; stroke-linecap:round; stroke-linejoin:round; stroke-width:2px;"/><line x1="57" y1="24" x2="57" y2="23" style="fill:none; stroke:#222325; stroke-linecap:round; stroke-linejoin:round; stroke-width:2px;"/><line x1="27" y1="24" x2="27" y2="23" style="fill:none; stroke:#222325; stroke-linecap:round; stroke-linejoin:round; stroke-width:2px;"/><line x1="21" y1="24" x2="21" y2="23" style="fill:none; stroke:#222325; stroke-linecap:round; stroke-linejoin:round; stroke-width:2px;"/><line x1="33" y1="24" x2="33" y2="23" style="fill:none; stroke:#222325; stroke-linecap:round; stroke-linejoin:round; stroke-width:2px;"/><line x1="42" y1="28" x2="42" y2="27" style="fill:none; stroke:#222325; stroke-linecap:round; stroke-linejoin:round; stroke-width:2px;"/><line x1="48" y1="28" x2="48" y2="27" style="fill:none; stroke:#222325; stroke-linecap:round; stroke-linejoin:round; stroke-width:2px;"/><line x1="54" y1="28" x2="54" y2="27" style="fill:none; stroke:#222325; stroke-linecap:round; stroke-linejoin:round; stroke-width:2px;"/><line x1="30" y1="28" x2="30" y2="27" style="fill:none; stroke:#222325; stroke-linecap:round; stroke-linejoin:round; stroke-width:2px;"/><line x1="24" y1="28" x2="24" y2="27" style="fill:none; stroke:#222325; stroke-linecap:round; stroke-linejoin:round; stroke-width:2px;"/><line x1="36" y1="28" x2="36" y2="27" style="fill:none; stroke:#222325; stroke-linecap:round; stroke-linejoin:round; stroke-width:2px;"/><line x1="39" y1="32" x2="39" y2="31" style="fill:none; stroke:#222325; stroke-linecap:round; stroke-linejoin:round; stroke-width:2px;"/><line x1="45" y1="32" x2="45" y2="31" style="fill:none; stroke:#222325; stroke-linecap:round; stroke-linejoin:round; stroke-width:2px;"/><line x1="51" y1="32" x2="51" y2="31" style="fill:none; stroke:#222325; stroke-linecap:round; stroke-linejoin:round; stroke-width:2px;"/><line x1="57" y1="32" x2="57" y2="31" style="fill:none; stroke:#222325; stroke-linecap:round; stroke-linejoin:round; stroke-width:2px;"/><line x1="27" y1="32" x2="27" y2="31" style="fill:none; stroke:#222325; stroke-linecap:round; stroke-linejoin:round; stroke-width:2px;"/><line x1="21" y1="32" x2="21" y2="31" style="fill:none; stroke:#222325; stroke-linecap:round; stroke-linejoin:round; stroke-width:2px;"/><line x1="33" y1="32" x2="33" y2="31" style="fill:none; stroke:#222325; stroke-linecap:round; stroke-linejoin:round; stroke-width:2px;"/><line x1="42" y1="36" x2="42" y2="35" style="fill:none; stroke:#222325; stroke-linecap:round; stroke-linejoin:round; stroke-width:2px;"/><line x1="48" y1="36" x2="48" y2="35" style="fill:none; stroke:#222325; stroke-linecap:round; stroke-linejoin:round; stroke-width:2px;"/><line x1="54" y1="36" x2="54" y2="35" style="fill:none; stroke:#222325; stroke-linecap:round; stroke-linejoin:round; stroke-width:2px;"/><line x1="30" y1="36" x2="30" y2="35" style="fill:none; stroke:#222325; stroke-linecap:round; stroke-linejoin:round; stroke-width:2px;"/><line x1="24" y1="36" x2="24" y2="35" style="fill:none; stroke:#222325; stroke-linecap:round; stroke-linejoin:round; stroke-width:2px;"/><line x1="36" y1="36" x2="36" y2="35" style="fill:none; stroke:#222325; stroke-linecap:round; stroke-linejoin:round; stroke-width:2px;"/><line x1="39" y1="40" x2="39" y2="39" style="fill:none; stroke:#222325; stroke-linecap:round; stroke-linejoin:round; stroke-width:2px;"/><line x1="45" y1="40" x2="45" y2="39" style="fill:none; stroke:#222325; stroke-linecap:round; stroke-linejoin:round; stroke-width:2px;"/><line x1="51" y1="40" x2="51" y2="39" style="fill:none; stroke:#222325; stroke-linecap:round; stroke-linejoin:round; stroke-width:2px;"/><line x1="27" y1="40" x2="27" y2="39" style="fill:none; stroke:#222325; stroke-linecap:round; stroke-linejoin:round; stroke-width:2px;"/><line x1="33" y1="40" x2="33" y2="39" style="fill:none; stroke:#222325; stroke-linecap:round; stroke-linejoin:round; stroke-width:2px;"/><line x1="42" y1="44" x2="42" y2="43" style="fill:none; stroke:#222325; stroke-linecap:round; stroke-linejoin:round; stroke-width:2px;"/><line x1="48" y1="44" x2="48" y2="43" style="fill:none; stroke:#222325; stroke-linecap:round; stroke-linejoin:round; stroke-width:2px;"/><line x1="30" y1="44" x2="30" y2="43" style="fill:none; stroke:#222325; stroke-linecap:round; stroke-linejoin:round; stroke-width:2px;"/><line x1="36" y1="44" x2="36" y2="43" style="fill:none; stroke:#222325; stroke-linecap:round; stroke-linejoin:round; stroke-width:2px;"/></g></g></g></g></g><g id="w"/><g id="x"/><g id="y"/><g id="a`"/><g id="aa"/><g id="ab"/><g id="ac"/><g id="ad"/><g id="ae"/><g id="af"/></svg>