<?xml version="1.0" encoding="UTF-8"?><svg xmlns="http://www.w3.org/2000/svg" viewBox="0 0 64 64"><g id="a"/><g id="b"/><g id="c"/><g id="d"/><g id="e"/><g id="f"/><g id="g"/><g id="h"/><g id="i"/><g id="j"/><g id="k"/><g id="l"/><g id="m"/><g id="n"/><g id="o"/><g id="p"/><g id="q"/><g id="r"/><g id="s"/><g id="t"/><g id="u"><g><g id="v"><g><rect x="2" y="11" width="20" height="33" style="fill:#202d35;"/><path d="M22,11V44H10.16c-2.34-8.84-3.85-20.33-4.11-33h15.95Z" style="fill:#273640;"/></g><g><path d="M12,42c-5.523,0-10-2.239-10-5v21c0,2.761,4.477,5,10,5s10-2.239,10-5v-21c0,2.761-4.477,5-10,5Z" style="fill:#415fb5;"/><path d="M22,37v21c0,1.27-.95,2.43-2.52,3.32-3.96-2.15-7.43-9.28-9.86-19.47,.76,.1,1.56,.15,2.38,.15,5.52,0,10-2.24,10-5Z" style="fill:#577ef2;"/></g><g><ellipse cx="12" cy="11" rx="10" ry="5" style="fill:#415fb5;"/><path d="M22,11c0,2.76-4.48,5-10,5-2.17,0-4.19-.35-5.83-.94-.11-2.63-.17-5.32-.17-8.06,1.67-.63,3.75-1,6-1,5.52,0,10,2.24,10,5Z" style="fill:#577ef2;"/><ellipse cx="12" cy="11" rx="3" ry="2" style="fill:#415fb5;"/></g><g><circle cx="12" cy="29" r="8" style="fill:#c8c2b5;"/><path d="M20,29c0,4.42-3.58,8-8,8-1.28,0-2.5-.3-3.57-.84-.74-4.06-1.33-8.47-1.74-13.14,1.41-1.25,3.27-2.02,5.31-2.02,4.42,0,8,3.58,8,8Z" style="fill:#e7e5e0;"/></g><g><ellipse cx="12" cy="29" rx="5" ry="6" style="fill:#c69c6d;"/><path d="M13.58,27.67c.63,.48,1.42,1.3,1.42,2.66,0,1.74-1.28,2.59-1.89,3-.04,.02-.07,.05-.11,.07v1.48c-.32,.08-.66,.12-1,.12-1.13,0-2.17-.45-3-1.21v-.79c0-1.36,.79-2.18,1.42-2.67-.63-.48-1.42-1.3-1.42-2.67,0-1.73,1.28-2.58,1.89-2.99,.04-.03,.07-.05,.11-.07v-1.48c.32-.08,.66-.12,1-.12,1.13,0,2.17,.45,3,1.21v.79c0,1.36-.79,2.18-1.42,2.67Z" style="fill:#a67c52;"/><path d="M12,27.66c0,.12,.16,.25,.56,.51,.57,.38,1.44,.96,1.44,2.16s-.87,1.78-1.45,2.17c-.39,.26-.55,.39-.55,.5v2c-.71,0-1.39-.18-2-.5v-1.5c0-1.2,.87-1.78,1.45-2.17,.39-.26,.55-.38,.55-.5,0-.11-.16-.24-.55-.5-.58-.38-1.45-.96-1.45-2.17,0-1.2,.87-1.78,1.45-2.16,.39-.26,.55-.39,.55-.5v-2c.71,0,1.39,.18,2,.5v1.5c0,1.2-.87,1.78-1.45,2.16-.39,.26-.55,.39-.55,.5Z" style="fill:#613f1e;"/></g><g><path d="M48,18c-1.103,0-2-.897-2-2,0-.553,.448-1,1-1s1,.447,1,1c.552,0,1,.447,1,1s-.448,1-1,1Z" style="fill:#c8c2b5;"/><path d="M46,20c-1.103,0-2-.897-2-2,0-.553,.448-1,1-1s1,.447,1,1c.552,0,1,.447,1,1s-.448,1-1,1Z" style="fill:#c8c2b5;"/></g><g><g><path d="M10,7v4c0,.552,.895,1,2,1s2-.448,2-1V7h-4Z" style="fill:#202d35;"/><path d="M14,7v4c0,.33-.33,.63-.83,.81-1.26-.61-2.17-2.53-2.17-4.81h3Z" style="fill:#273640;"/></g><ellipse cx="12" cy="7" rx="2" ry="1" style="fill:#1d252d;"/><path d="M50,9H26c-1.654,0-3-1.346-3-3v-2c0-.552-.449-1-1-1H14c-.551,0-1,.448-1,1v2c0,.553-.448,1-1,1s-1-.447-1-1v-2c0-1.654,1.346-3,3-3h8c1.654,0,3,1.346,3,3v2c0,.552,.449,1,1,1h24c.552,0,1,.447,1,1s-.448,1-1,1Z" style="fill:#273640;"/><g><circle cx="55" cy="8" r="7" style="fill:#a67c52;"/><path d="M62,8c0,.79-.13,1.54-.37,2.24-1.24,1.1-2.85,1.76-4.63,1.76-3.87,0-7-3.13-7-7,0-.79,.13-1.54,.37-2.24,1.24-1.1,2.85-1.76,4.63-1.76,3.87,0,7,3.13,7,7Z" style="fill:#c69c6d;"/></g></g><g><path d="M18,52c-.552,0-1-.447-1-1v-1c0-.553,.448-1,1-1s1,.447,1,1v1c0,.553-.448,1-1,1Z" style="fill:#273640;"/><path d="M58,8c-.552,0-1-.447-1-1v-1c0-.553,.448-1,1-1s1,.447,1,1v1c0,.553-.448,1-1,1Z" style="fill:#273640;"/></g></g><g id="w"><ellipse cx="12" cy="11" rx="10" ry="5" style="fill:none; stroke:#222325; stroke-linecap:round; stroke-linejoin:round; stroke-width:2px;"/><path d="M2,11V58c0,2.761,4.477,5,10,5s10-2.239,10-5V11" style="fill:none; stroke:#222325; stroke-linecap:round; stroke-linejoin:round; stroke-width:2px;"/><path d="M22,37c0,2.761-4.477,5-10,5s-10-2.239-10-5" style="fill:none; stroke:#222325; stroke-linecap:round; stroke-linejoin:round; stroke-width:2px;"/><g><ellipse cx="12" cy="7" rx="2" ry="1" style="fill:none; stroke:#222325; stroke-linecap:round; stroke-linejoin:round; stroke-width:2px;"/><path d="M10,7v4c0,.552,.895,1,2,1s2-.448,2-1V7" style="fill:none; stroke:#222325; stroke-linecap:round; stroke-linejoin:round; stroke-width:2px;"/></g><path d="M12,6v-2c0-1.105,.895-2,2-2h8c1.105,0,2,.895,2,2v2c0,1.105,.895,2,2,2h22" style="fill:none; stroke:#222325; stroke-linecap:round; stroke-linejoin:round; stroke-width:2px;"/><circle cx="55" cy="8" r="7" style="fill:none; stroke:#222325; stroke-linecap:round; stroke-linejoin:round; stroke-width:2px;"/><g><path d="M11,35v-2c0-1.334,2-1.334,2-2.668s-2-1.334-2-2.668,2-1.332,2-2.664v-2" style="fill:none; stroke:#222325; stroke-linejoin:round; stroke-width:2px;"/><ellipse cx="12" cy="29" rx="5" ry="6" style="fill:none; stroke:#222325; stroke-linecap:round; stroke-linejoin:round; stroke-width:2px;"/></g><line x1="18" y1="51" x2="18" y2="50" style="fill:none; stroke:#222325; stroke-linecap:round; stroke-linejoin:round; stroke-width:2px;"/><line x1="58" y1="7" x2="58" y2="6" style="fill:none; stroke:#222325; stroke-linecap:round; stroke-linejoin:round; stroke-width:2px;"/><g><path d="M48,17c-.552,0-1-.448-1-1" style="fill:none; stroke:#222325; stroke-linecap:round; stroke-linejoin:round; stroke-width:2px;"/><path d="M46,19c-.552,0-1-.448-1-1" style="fill:none; stroke:#222325; stroke-linecap:round; stroke-linejoin:round; stroke-width:2px;"/></g></g></g></g><g id="x"/><g id="y"/><g id="a`"/><g id="aa"/><g id="ab"/><g id="ac"/><g id="ad"/><g id="ae"/><g id="af"/></svg>