<?xml version="1.0" encoding="UTF-8"?><svg xmlns="http://www.w3.org/2000/svg" viewBox="0 0 64 64"><g id="a"/><g id="b"/><g id="c"/><g id="d"/><g id="e"/><g id="f"/><g id="g"/><g id="h"/><g id="i"/><g id="j"/><g id="k"/><g id="l"/><g id="m"/><g id="n"/><g id="o"/><g id="p"/><g id="q"/><g id="r"/><g id="s"/><g id="t"/><g id="u"/><g id="v"/><g id="w"><g><g id="x"><g><g><g><path d="M35.023,38h-12.047l-9.648,19.424c-.225,.522-.329,1.056-.329,1.576-.001,2.11,1.707,4,4.02,4h23.96c2.313,0,4.021-1.89,4.02-4,0-.52-.104-1.054-.329-1.576l-9.648-19.424Z" style="fill:#c8c2b5;"/><path d="M45,59c0,2.11-1.71,4-4.02,4h-3.3c-5.04-3.9-9.04-13.2-10.76-25h8.1l9.65,19.42c.23,.53,.33,1.06,.33,1.58Z" style="fill:#e7e5e0;"/><polygon points="36.01 40 21.99 40 22.98 38 35.02 38 36.01 40" style="fill:#c8c2b5;"/></g><g><path d="M45,59c0,2.11-1.71,4-4.02,4H17.02c-2.31,0-4.02-1.89-4.02-4,0-.52,.1-1.05,.33-1.58l3.19-6.42h24.96l3.19,6.42c.23,.53,.33,1.06,.33,1.58Z" style="fill:#4e3318;"/><path d="M45,59c0,2.11-1.71,4-4.02,4h-3.3c-2.98-2.31-5.6-6.51-7.59-12h11.39l3.19,6.42c.23,.53,.33,1.06,.33,1.58Z" style="fill:#613f1e;"/></g><g><path d="M35,35c0-3,1-8,4-10H16c-1.657,0-3,1.343-3,3,5.523,0,10,3.134,10,7h12Z" style="fill:#c8c2b5;"/><path d="M39,25c-3,2-4,7-4,10h-8.47c-.34-3.19-.53-6.55-.53-10h13Z" style="fill:#e7e5e0;"/></g><g><path d="M49,53c-1.104,0-2-.896-2-2v-8c0-2.206-1.794-4-4-4h-4c-1.104,0-2-.896-2-2s.896-2,2-2h4c4.411,0,8,3.589,8,8v8c0,1.104-.896,2-2,2Z" style="fill:#202d35;"/><path d="M51,43v8c0,.17-.02,.34-.06,.5-1.7-1.62-2.94-7.05-2.94-13.5,0-.41,.01-.82,.02-1.22,1.82,1.47,2.98,3.71,2.98,6.22Z" style="fill:#273640;"/></g><g><rect x="21" y="35" width="16" height="4" style="fill:#202d35;"/><path d="M37,35v4h-9.93c-.21-1.3-.39-2.63-.54-4h10.47Z" style="fill:#273640;"/></g><g><circle cx="19" cy="58" r="2" style="fill:#613f1e;"/><circle cx="38" cy="55" r="1" style="fill:#856b52;"/></g><g><path d="M25,50c0-1.105-.895-2-2-2s-2,.895-2,2v1h4v-1Z" style="fill:#e7e5e0;"/><path d="M21,51v1c0,1.105,.895,2,2,2s2-.895,2-2v-1h-4Z" style="fill:#613f1e;"/></g><path d="M35,47c-.553,0-1-.448-1-1v-1c0-.552,.447-1,1-1s1,.448,1,1v1c0,.552-.447,1-1,1Z" style="fill:#fff;"/></g><g><rect x="25" y="23" width="6" height="4" style="fill:#202d35;"/><path d="M31,23v4h-4.01c-.53-1.27-.99-2.6-1.37-4h5.38Z" style="fill:#273640;"/></g><g><polygon points="41 13 36 25 20 25 15 13 41 13" style="fill:#a67c52;"/><path d="M41,13l-5,12h-9.77c-1.23-3.6-2-7.67-2.19-12h16.96Z" style="fill:#c69c6d;"/><polygon points="41 13 40.58 14 15.42 14 15 13 41 13" style="fill:#8a6744;"/></g><g><path d="M23,23c-1.104,0-2-.896-2-2v-1c0-1.104,.896-2,2-2s2,.896,2,2v1c0,1.104-.896,2-2,2Z" style="fill:#8a6744;"/><path d="M28,24c-1.104,0-2-.896-2-2v-2c0-1.104,.896-2,2-2s2,.896,2,2v2c0,1.104-.896,2-2,2Z" style="fill:#8a6744;"/><path d="M33,23c-1.104,0-2-.896-2-2v-1c0-1.104,.896-2,2-2s2,.896,2,2v1c0,1.104-.896,2-2,2Z" style="fill:#8a6744;"/></g><g><path d="M28,23c-.553,0-1-.447-1-1v-2c0-.553,.447-1,1-1s1,.447,1,1v2c0,.553-.447,1-1,1Z" style="fill:#273640;"/><path d="M23,22c-.553,0-1-.447-1-1v-1c0-.553,.447-1,1-1s1,.447,1,1v1c0,.553-.447,1-1,1Z" style="fill:#273640;"/><path d="M33,22c-.553,0-1-.447-1-1v-1c0-.553,.447-1,1-1s1,.447,1,1v1c0,.553-.447,1-1,1Z" style="fill:#273640;"/></g><g><path d="M14,11c-.552,0-1,.448-1,1s.448,1,1,1h28c.552,0,1-.448,1-1,0-.552-.448-1-1-1H14Z" style="fill:#202d35;"/><path d="M43,12c0,.55-.45,1-1,1H24.04c-.03-.66-.04-1.33-.04-2h18c.55,0,1,.45,1,1Z" style="fill:#273640;"/></g></g><g><g><circle cx="28" cy="9" r="8" style="fill:#c8c2b5;"/><path d="M36,9c0,1.7-.53,3.27-1.44,4.56-1.29,.91-2.86,1.44-4.56,1.44-4.42,0-8-3.58-8-8,0-1.7,.53-3.27,1.44-4.56,1.29-.91,2.86-1.44,4.56-1.44,4.42,0,8,3.58,8,8Z" style="fill:#e7e5e0;"/></g><path d="M30,11c0,1.657-1.343,3-3,3s-3-1.343-3-3c0-3,3-5,3-5,0,0,3,2,3,5Z" style="fill:#c8c2b5;"/><g><path d="M31,10c0,1.657-1.343,3-3,3s-3-1.343-3-3c0-3,3-5,3-5,0,0,3,2,3,5Z" style="fill:#415fb5;"/><path d="M31,10c0,.3-.05,.6-.13,.87-.27,.08-.57,.13-.87,.13-1.66,0-3-1.34-3-3,0-1.17,.46-2.19,1.01-2.99,.21,.14,2.99,2.1,2.99,4.99Z" style="fill:#577ef2;"/></g></g></g><g id="y"><g><path d="M35.023,39h-12.047l-9.648,18.424c-.225,.522-.329,1.056-.329,1.576-.001,2.11,1.707,4,4.02,4h23.96c2.313,0,4.021-1.89,4.02-4,0-.52-.104-1.054-.329-1.576l-9.648-18.424Z" style="fill:none; stroke:#222325; stroke-linecap:round; stroke-linejoin:round; stroke-width:2px;"/><path d="M35,35c0-3,1-8,4-10H16c-1.657,0-3,1.343-3,3,5.523,0,10,3.134,10,7h12Z" style="fill:none; stroke:#222325; stroke-linecap:round; stroke-linejoin:round; stroke-width:2px;"/><rect x="21" y="35" width="16" height="4" style="fill:none; stroke:#222325; stroke-linecap:round; stroke-linejoin:round; stroke-width:2px;"/><path d="M49,53c-1.104,0-2-.896-2-2v-8c0-2.206-1.794-4-4-4h-4c-1.104,0-2-.896-2-2s.896-2,2-2h4c4.411,0,8,3.589,8,8v8c0,1.104-.896,2-2,2Z" style="fill:none; stroke:#222325; stroke-linecap:round; stroke-linejoin:round; stroke-width:2px;"/><line x1="17" y1="51" x2="41" y2="51" style="fill:none; stroke:#222325; stroke-linecap:round; stroke-linejoin:round; stroke-width:2px;"/><g><circle cx="19" cy="58" r="2" style="fill:none; stroke:#222325; stroke-linecap:round; stroke-linejoin:round; stroke-width:2px;"/><circle cx="38" cy="55" r="1" style="fill:none; stroke:#222325; stroke-linecap:round; stroke-linejoin:round; stroke-width:2px;"/><line x1="35" y1="46" x2="35" y2="45" style="fill:none; stroke:#222325; stroke-linecap:round; stroke-linejoin:round; stroke-width:2px;"/></g></g><g><path d="M31,10c0,1.657-1.343,3-3,3s-3-1.343-3-3c0-3,3-5,3-5,0,0,3,2,3,5Z" style="fill:none; stroke:#222325; stroke-linecap:round; stroke-linejoin:round; stroke-width:2px;"/><circle cx="28" cy="9" r="8" style="fill:none; stroke:#222325; stroke-linejoin:round; stroke-width:2px;"/></g><polyline points="21 13 15 13 20 25 36 25 41 13 35 13" style="fill:none; stroke:#222325; stroke-linejoin:round; stroke-width:2px;"/><g><path d="M35,13h7c.552,0,1-.448,1-1,0-.552-.448-1-1-1h-6" style="fill:none; stroke:#222325; stroke-linecap:round; stroke-linejoin:round; stroke-width:2px;"/><path d="M20,11h-6c-.552,0-1,.448-1,1s.448,1,1,1h7" style="fill:none; stroke:#222325; stroke-linecap:round; stroke-linejoin:round; stroke-width:2px;"/></g><g><line x1="28" y1="22" x2="28" y2="20" style="fill:none; stroke:#222325; stroke-linecap:round; stroke-linejoin:round; stroke-width:2px;"/><line x1="23" y1="21" x2="23" y2="20" style="fill:none; stroke:#222325; stroke-linecap:round; stroke-linejoin:round; stroke-width:2px;"/><line x1="33" y1="21" x2="33" y2="20" style="fill:none; stroke:#222325; stroke-linecap:round; stroke-linejoin:round; stroke-width:2px;"/></g><polyline points="25 25 25 27 31 27 31 25" style="fill:none; stroke:#222325; stroke-linejoin:round; stroke-width:2px;"/></g></g></g><g id="a`"/><g id="aa"/><g id="ab"/><g id="ac"/><g id="ad"/><g id="ae"/><g id="af"/></svg>