<?xml version="1.0" encoding="UTF-8"?><svg xmlns="http://www.w3.org/2000/svg" viewBox="0 0 64 64"><g id="a"/><g id="b"/><g id="c"/><g id="d"/><g id="e"/><g id="f"/><g id="g"/><g id="h"/><g id="i"/><g id="j"/><g id="k"/><g id="l"/><g id="m"/><g id="n"/><g id="o"/><g id="p"/><g id="q"/><g id="r"/><g id="s"/><g id="t"/><g id="u"/><g id="v"/><g id="w"/><g id="x"><g><g id="y"><g><path d="M45,31c0-1.657,1.343-3,3-3h3c1.103,0,2,.897,2,2v11c0,1.418-.708,2.618-1.895,3.211-.988,.494-1.389,1.695-.895,2.684,.351,.701,1.057,1.105,1.791,1.105,.3,0,.605-.067,.893-.211,2.532-1.267,4.105-3.868,4.105-6.789v-11c0-3.309-2.691-6-6-6h-3c-1.657,0-3-1.343-3-3v10Z" style="fill:#1d252d;"/><path d="M57,30v11c0,.85-.13,1.68-.39,2.45-1.56-3.56-2.61-10.49-2.61-18.45v-.19c1.79,1.03,3,2.97,3,5.19Z" style="fill:#202d35;"/></g><g><rect x="28" y="5" width="2" height="4" style="fill:#1d252d;"/><g><rect x="26" y="9" width="6" height="4" style="fill:#202d35;"/><path d="M32,9v4h-1.8c-.78-1.1-1.45-2.45-1.96-4h3.76Z" style="fill:#273640;"/></g><g><rect x="23" y="1" width="12" height="4" rx="1" ry="1" style="fill:#b50b38;"/><path d="M35,2v2c0,.55-.45,1-1,1h-6.71c-.19-1.27-.29-2.62-.29-4h7c.55,0,1,.45,1,1Z" style="fill:#f20f4b;"/></g></g><g><path d="M10,63c-.552,0-1-.448-1-1s.448-1,1-1c1.657,0,3-2.239,3-5V26c0-3.866-2.686-7-6-7,0-2.209,3.134-4,7-4h31c.552,0,1,.448,1,1s-.448,1-1,1V56c0,2.761,1.343,5,3,5,.552,0,1,.448,1,1,0,.552-.448,1-1,1H10Z" style="fill:#c8c2b5;"/><path d="M49,62c0,.55-.45,1-1,1h-14.07c-6.81-9.76-11.48-27.51-11.9-48h22.97c.55,0,1,.45,1,1s-.45,1-1,1V56c0,2.76,1.34,5,3,5,.55,0,1,.45,1,1Z" style="fill:#e7e5e0;"/></g><g><path d="M49,62c0,.55-.45,1-1,1H10c-.55,0-1-.45-1-1s.45-1,1-1c1.66,0,3-2.24,3-5v-11H45v11c0,2.76,1.34,5,3,5,.55,0,1,.45,1,1Z" style="fill:#4e3318;"/><path d="M49,62c0,.55-.45,1-1,1h-14.07c-3.13-4.49-5.81-10.66-7.83-18h18.9v11c0,2.76,1.34,5,3,5,.55,0,1,.45,1,1Z" style="fill:#613f1e;"/></g><g><path d="M49,62c0,.55-.45,1-1,1H10c-.55,0-1-.45-1-1s.45-1,1-1c1.66,0,3-2.24,3-5v-5h3c1.1,0,2,.9,2,2v4c0,1.1,.9,2,2,2h2c1.1,0,2-.9,2-2v-4c0-1.1,.9-2,2-2h6c1.1,0,2,.9,2,2v4c0,1.1,.9,2,2,2h2c1.1,0,2-.9,2-2v-4c0-1.1,.9-2,2-2h3v5c0,2.76,1.34,5,3,5,.55,0,1,.45,1,1Z" style="fill:#1d252d;"/><path d="M49,62c0,.55-.45,1-1,1h-14.07c-2.24-3.2-4.24-7.26-5.94-12h4.01c1.1,0,2,.9,2,2v4c0,1.1,.9,2,2,2h2c1.1,0,2-.9,2-2v-4c0-1.1,.9-2,2-2h3v5c0,2.76,1.34,5,3,5,.55,0,1,.45,1,1Z" style="fill:#202d35;"/></g><path d="M29,42c-.553,0-1-.447-1-1V15c0-.553,.447-1,1-1s1,.447,1,1v26c0,.553-.447,1-1,1Z" style="fill:#1d252d;"/><rect x="27" y="40" width="4" height="6" rx="1" ry="1" style="fill:#415fb5;"/><g><path d="M14,15v-2c0-.552,.448-1,1-1h28c.552,0,1,.448,1,1v2H14Z" style="fill:#1d252d;"/><path d="M44,13v2H22.03c-.02-1-.03-2-.03-3h21c.55,0,1,.45,1,1Z" style="fill:#202d35;"/></g><g><g><rect x="13" y="44" width="32" height="2" style="fill:#202d35;"/><path d="M45,24v4H13v-2c0-.7-.09-1.37-.25-2H45Z" style="fill:#202d35;"/></g><g><path d="M45,24v4H22.89c-.15-1.31-.28-2.65-.39-4h22.5Z" style="fill:#273640;"/><path d="M25.83,44h19.17v2H26.39c-.19-.65-.38-1.32-.56-2Z" style="fill:#273640;"/></g></g><g><path d="M17,42c-.553,0-1-.447-1-1v-1c0-.553,.447-1,1-1s1,.447,1,1v1c0,.553-.447,1-1,1Z" style="fill:#e7e5e0;"/><path d="M36,34c0-1.105,.895-2,2-2s2,.895,2,2v2c0,1.105-.895,2-2,2s-2-.895-2-2v-2Z" style="fill:#fff;"/><g><path d="M21,27c0-1.105-.895-2-2-2s-2,.895-2,2v1h4v-1Z" style="fill:#273640;"/><path d="M17,28v1c0,1.105,.895,2,2,2s2-.895,2-2v-1h-4Z" style="fill:#e7e5e0;"/></g></g></g><g id="a`"><path d="M10,63c-.552,0-1-.448-1-1s.448-1,1-1c1.657,0,3-2.239,3-5V26c0-3.866-2.686-7-6-7,0-2.209,3.134-4,7-4h31c.552,0,1,.448,1,1s-.448,1-1,1V56c0,2.761,1.343,5,3,5,.552,0,1,.448,1,1,0,.552-.448,1-1,1H10Z" style="fill:none; stroke:#222325; stroke-linecap:round; stroke-linejoin:round; stroke-width:2px;"/><path d="M13,51h3c1.105,0,2,.895,2,2v4c0,1.105,.895,2,2,2h2c1.105,0,2-.895,2-2v-4c0-1.105,.895-2,2-2h6c1.105,0,2,.895,2,2v4c0,1.105,.895,2,2,2h2c1.105,0,2-.895,2-2v-4c0-1.105,.895-2,2-2h3" style="fill:none; stroke:#222325; stroke-linecap:round; stroke-linejoin:round; stroke-width:2px;"/><path d="M14,15v-2c0-.552,.448-1,1-1h28c.552,0,1,.448,1,1v2" style="fill:none; stroke:#222325; stroke-linecap:round; stroke-linejoin:round; stroke-width:2px;"/><polyline points="26 12 26 9 32 9 32 12" style="fill:none; stroke:#222325; stroke-linecap:round; stroke-linejoin:round; stroke-width:2px;"/><rect x="23" y="1" width="12" height="4" rx="1" ry="1" style="fill:none; stroke:#222325; stroke-linecap:round; stroke-linejoin:round; stroke-width:2px;"/><g><line x1="28" y1="5" x2="28" y2="9" style="fill:none; stroke:#222325; stroke-linecap:round; stroke-linejoin:round; stroke-width:2px;"/><line x1="30" y1="5" x2="30" y2="9" style="fill:none; stroke:#222325; stroke-linecap:round; stroke-linejoin:round; stroke-width:2px;"/></g><line x1="29" y1="15" x2="29" y2="41" style="fill:none; stroke:#222325; stroke-linecap:round; stroke-linejoin:round; stroke-width:2px;"/><polyline points="28 45 28 41 30 41 30 45" style="fill:none; stroke:#222325; stroke-linecap:round; stroke-linejoin:round; stroke-width:2px;"/><line x1="13" y1="45" x2="45" y2="45" style="fill:none; stroke:#222325; stroke-linecap:round; stroke-linejoin:round; stroke-width:2px;"/><g><line x1="13" y1="24" x2="45" y2="24" style="fill:none; stroke:#222325; stroke-linecap:round; stroke-linejoin:round; stroke-width:2px;"/><line x1="13" y1="28" x2="45" y2="28" style="fill:none; stroke:#222325; stroke-linecap:round; stroke-linejoin:round; stroke-width:2px;"/></g><path d="M45,31c0-1.657,1.343-3,3-3h3c1.103,0,2,.897,2,2v11c0,1.418-.708,2.618-1.895,3.211-.988,.494-1.389,1.695-.895,2.684,.351,.701,1.057,1.105,1.791,1.105,.3,0,.605-.067,.893-.211,2.532-1.267,4.105-3.868,4.105-6.789v-11c0-3.309-2.691-6-6-6h-3c-1.657,0-3-1.343-3-3" style="fill:none; stroke:#222325; stroke-linecap:round; stroke-linejoin:round; stroke-width:2px;"/><line x1="17" y1="41" x2="17" y2="40" style="fill:none; stroke:#222325; stroke-linecap:round; stroke-linejoin:round; stroke-width:2px;"/><path d="M36,34c0-1.105,.895-2,2-2s2,.895,2,2v2c0,1.105-.895,2-2,2s-2-.895-2-2v-2Z" style="fill:none; stroke:#222325; stroke-linecap:round; stroke-linejoin:round; stroke-width:2px;"/></g></g></g><g id="aa"/><g id="ab"/><g id="ac"/><g id="ad"/><g id="ae"/><g id="af"/></svg>