<?xml version="1.0" encoding="UTF-8"?><svg xmlns="http://www.w3.org/2000/svg" viewBox="0 0 64 64"><g id="a"/><g id="b"/><g id="c"/><g id="d"/><g id="e"/><g id="f"/><g id="g"/><g id="h"/><g id="i"/><g id="j"/><g id="k"/><g id="l"/><g id="m"/><g id="n"/><g id="o"/><g id="p"/><g id="q"/><g id="r"/><g id="s"/><g id="t"/><g id="u"/><g id="v"/><g id="w"/><g id="x"/><g id="y"><g><g id="a`"><g><g><path d="M48,63v-19c0-2.209-1.791-4-4-4H20c-2.209,0-4,1.791-4,4v19h32Z" style="fill:#f2b3a2;"/><path d="M48,44v19H31.24c-5.04-5.5-8.24-13.76-8.24-23h21c2.21,0,4,1.79,4,4Z" style="fill:#ffecdb;"/></g><g><path d="M16,55v-11c0-2.209,1.791-4,4-4h24c2.209,0,4,1.791,4,4v11H16Z" style="fill:#c8c2b5;"/><path d="M48,44v11H26.09c-1.97-4.41-3.09-9.54-3.09-15h21c2.21,0,4,1.79,4,4Z" style="fill:#e7e5e0;"/></g><g><path d="M21,63v-23h4v9c0,1.105,.895,2,2,2h10c1.105,0,2-.895,2-2v-9h4v23H21Z" style="fill:#202d35;"/><path d="M43,40v23h-11.76c-5.04-5.5-8.24-13.76-8.24-23h2v9c0,1.1,.9,2,2,2h10c1.1,0,2-.9,2-2v-9h4Z" style="fill:#273640;"/></g><path d="M37,57h-10c-.552,0-1-.447-1-1s.448-1,1-1h10c.552,0,1,.447,1,1s-.448,1-1,1Z" style="fill:#1d252d;"/><g><g><rect x="43" y="55" width="1" height="8" style="fill:#f2b3a2;"/><rect x="43" y="40" width="1" height="15" style="fill:#c8c2b5;"/></g><g><rect x="20" y="55" width="1" height="8" style="fill:#ca9587;"/><rect x="20" y="40" width="1" height="15" style="fill:#a7a297;"/></g></g><g><path d="M34,40v-5h-4v5h-3c0,2.761,2.239,5,5,5s5-2.239,5-5h-3Z" style="fill:#f2b3a2;"/><path d="M34,35v2.83c-.65,.11-1.32,.17-2,.17s-1.35-.06-2-.17v-2.83h4Z" style="fill:#ca9587;"/></g><path d="M32,46c-3.309,0-6-2.691-6-6h2c0,2.206,1.794,4,4,4s4-1.794,4-4h2c0,3.309-2.691,6-6,6Z" style="fill:#f20f4b;"/></g><g><g><path d="M20,23c-1.657,0-3,1.343-3,3s1.343,3,3,3h3v-9l-3,3Z" style="fill:#ca9587;"/><path d="M44,23c1.657,0,3,1.343,3,3s-1.343,3-3,3h-3v-9l3,3Z" style="fill:#f2b3a2;"/></g><g><path d="M21,18v8c0,6.075,4.925,11,11,11s11-4.925,11-11v-8H21Z" style="fill:#f2b3a2;"/><path d="M43,18v8c0,4.78-3.04,8.84-7.3,10.36-5.56-2.98-9.94-9.79-11.76-18.36h19.06Z" style="fill:#ffecdb;"/><path d="M43,18v6.24c-.19-.17-.36-.36-.5-.58-1.44-2.15-5.75-3.66-10.5-3.66s-9.06,1.51-10.5,3.66c-.14,.22-.31,.41-.5,.57v-6.23h22Z" style="fill:#f2b3a2;"/></g><g><path d="M26,25h-1c-.552,0-1-.447-1-1s.448-1,1-1h1c.552,0,1,.447,1,1s-.448,1-1,1Z" style="fill:#1d252d;"/><path d="M39,25h-1c-.552,0-1-.447-1-1s.448-1,1-1h1c.552,0,1,.447,1,1s-.448,1-1,1Z" style="fill:#1d252d;"/></g><g><path d="M45,18c3-4,3-9,3-9,0-3.866-7.163-8-16-8-8.837,0-16,4.134-16,8,0,0,0,5,3,9l2,3,12-3,10,3,2-3Z" style="fill:#4e3318;"/><path d="M48,9s0,5-3,9l-2,3-10-3-8.54,2.14c-.94-3.43-1.46-7.19-1.46-11.14,0-2.29,.17-4.52,.51-6.65,2.46-.84,5.37-1.35,8.49-1.35,8.84,0,16,4.13,16,8Z" style="fill:#613f1e;"/></g><g><path d="M45.001,23.999c-.646,0-1.281-.312-1.666-.891-1.639-2.458-6.194-4.109-11.335-4.109s-9.697,1.651-11.335,4.109c-.612,.92-1.854,1.168-2.773,.555-.919-.612-1.167-1.854-.555-2.773,2.422-3.634,8.041-5.89,14.663-5.89s12.241,2.257,14.663,5.89c.613,.919,.364,2.161-.555,2.773-.341,.228-.727,.336-1.107,.336Z" style="fill:#b50b38;"/><path d="M46.109,23.66c-.34,.23-.73,.34-1.11,.34-.64,0-1.28-.31-1.66-.89-1.64-2.46-6.2-4.11-11.34-4.11-2.79,0-5.42,.49-7.49,1.33-.36-1.27-.65-2.59-.88-3.95,2.42-.89,5.29-1.38,8.37-1.38,6.62,0,12.24,2.26,14.659,5.89,.62,.92,.37,2.16-.55,2.77Z" style="fill:#f20f4b;"/></g><circle cx="32" cy="9" r="6" style="fill:#c69c6d;"/></g></g><g id="aa"><g><path d="M30,37v3c0,1.105,.895,2,2,2s2-.895,2-2v-3" style="fill:none; stroke:#222325; stroke-linecap:round; stroke-linejoin:round; stroke-width:2px;"/><g><path d="M30,40h-10c-2.209,0-4,1.791-4,4v19" style="fill:none; stroke:#222325; stroke-linecap:round; stroke-linejoin:round; stroke-width:2px;"/><path d="M34,40h10c2.209,0,4,1.791,4,4v19" style="fill:none; stroke:#222325; stroke-linecap:round; stroke-linejoin:round; stroke-width:2px;"/></g><g><line x1="21" y1="40" x2="21" y2="63" style="fill:none; stroke:#222325; stroke-linecap:round; stroke-linejoin:round; stroke-width:2px;"/><line x1="43" y1="40" x2="43" y2="63" style="fill:none; stroke:#222325; stroke-linecap:round; stroke-linejoin:round; stroke-width:2px;"/><path d="M25,40v9c0,1.105,.895,2,2,2h10c1.105,0,2-.895,2-2v-9" style="fill:none; stroke:#222325; stroke-linecap:round; stroke-linejoin:round; stroke-width:2px;"/></g><g><line x1="16" y1="55" x2="21" y2="55" style="fill:none; stroke:#222325; stroke-linecap:round; stroke-linejoin:round; stroke-width:2px;"/><line x1="43" y1="55" x2="48" y2="55" style="fill:none; stroke:#222325; stroke-linecap:round; stroke-linejoin:round; stroke-width:2px;"/></g><path d="M37,40c0,2.761-2.239,5-5,5s-5-2.239-5-5" style="fill:none; stroke:#222325; stroke-linecap:round; stroke-linejoin:round; stroke-width:2px;"/><line x1="27" y1="56" x2="37" y2="56" style="fill:none; stroke:#222325; stroke-linecap:round; stroke-linejoin:round; stroke-width:2px;"/></g><g><path d="M21,23v3c0,6.075,4.925,11,11,11s11-4.925,11-11v-3" style="fill:none; stroke:#222325; stroke-linecap:round; stroke-linejoin:round; stroke-width:2px;"/><g><path d="M17.764,24c-.475,.531-.764,1.232-.764,2,0,1.657,1.343,3,3,3h1" style="fill:none; stroke:#222325; stroke-linecap:round; stroke-linejoin:round; stroke-width:2px;"/><path d="M46.236,24c.475,.531,.764,1.232,.764,2,0,1.657-1.343,3-3,3h-1" style="fill:none; stroke:#222325; stroke-linecap:round; stroke-linejoin:round; stroke-width:2px;"/></g><path d="M45,18c3-4,3-9,3-9,0-3.866-7.163-8-16-8-8.837,0-16,4.134-16,8,0,0,0,5,3,9" style="fill:none; stroke:#222325; stroke-linecap:round; stroke-linejoin:round; stroke-width:2px;"/><path d="M45.002,23.999c-.646,0-1.281-.312-1.666-.891-1.639-2.458-6.194-4.109-11.336-4.109s-9.697,1.651-11.336,4.109c-.612,.92-1.854,1.168-2.773,.555-.919-.612-1.167-1.854-.555-2.773,2.422-3.634,8.041-5.89,14.664-5.89s12.242,2.257,14.664,5.89c.613,.919,.364,2.161-.555,2.773-.341,.228-.727,.336-1.107,.336Z" style="fill:none; stroke:#222325; stroke-linecap:round; stroke-linejoin:round; stroke-width:2px;"/><g><line x1="25" y1="24" x2="26" y2="24" style="fill:none; stroke:#222325; stroke-linecap:round; stroke-linejoin:round; stroke-width:2px;"/><line x1="38" y1="24" x2="39" y2="24" style="fill:none; stroke:#222325; stroke-linecap:round; stroke-linejoin:round; stroke-width:2px;"/></g><circle cx="32" cy="9" r="6" style="fill:none; stroke:#222325; stroke-linecap:round; stroke-linejoin:round; stroke-width:2px;"/></g></g></g></g><g id="ab"/><g id="ac"/><g id="ad"/><g id="ae"/><g id="af"/></svg>