<?xml version="1.0" encoding="UTF-8"?><svg xmlns="http://www.w3.org/2000/svg" viewBox="0 0 64 64"><g id="a"/><g id="b"/><g id="c"/><g id="d"/><g id="e"/><g id="f"/><g id="g"/><g id="h"/><g id="i"/><g id="j"/><g id="k"/><g id="l"/><g id="m"/><g id="n"/><g id="o"/><g id="p"/><g id="q"/><g id="r"/><g id="s"/><g id="t"/><g id="u"/><g id="v"/><g id="w"/><g id="x"/><g id="y"/><g id="a`"><g><g id="aa"><g><g><rect x="22" y="1" width="4" height="18" style="fill:#b50b38;"/><path d="M26,1V17.47c-1.73-1.89-3-8.55-3-16.47h3Z" style="fill:#f20f4b;"/></g><g><rect x="38" y="1" width="4" height="18" style="fill:#b50b38;"/><path d="M42,1V17.47c-1.73-1.89-3-8.55-3-16.47h3Z" style="fill:#f20f4b;"/></g></g><g><path d="M46,15V31c0,4.418,2.239,8,5,8v24H13v-24c2.761,0,5-3.582,5-8V15h28Z" style="fill:#202d35;"/><path d="M51,39v24h-10.24c-8.67-7.84-14.76-26.38-14.76-48h20V31c0,4.42,2.24,8,5,8Z" style="fill:#273640;"/></g><g><g><circle cx="32" cy="30" r="10" style="fill:#c8c2b5;"/><path d="M42,30c0,1.4-.29,2.74-.82,3.95-1.81,1.88-4.36,3.05-7.18,3.05-5.52,0-10-4.48-10-10,0-1.4,.29-2.74,.82-3.95,1.81-1.88,4.36-3.05,7.18-3.05,5.52,0,10,4.48,10,10Z" style="fill:#e7e5e0;"/></g><ellipse cx="31" cy="31" rx="5" ry="6" style="fill:#c8c2b5;"/><g><ellipse cx="32" cy="30" rx="5" ry="6" style="fill:#c69c6d;"/><path d="M33.58,28.67c.63,.48,1.42,1.3,1.42,2.66,0,1.74-1.28,2.59-1.89,3-.04,.02-.07,.05-.11,.07v1.48c-.32,.08-.66,.12-1,.12-1.13,0-2.17-.45-3-1.21v-.79c0-1.36,.79-2.18,1.42-2.67-.63-.48-1.42-1.3-1.42-2.67,0-1.73,1.28-2.58,1.89-2.99,.04-.03,.07-.05,.11-.07v-1.48c.32-.08,.66-.12,1-.12,1.13,0,2.17,.45,3,1.21v.79c0,1.36-.79,2.18-1.42,2.67Z" style="fill:#a67c52;"/><path d="M32,28.66c0,.12,.16,.25,.56,.51,.57,.38,1.44,.96,1.44,2.16s-.87,1.78-1.45,2.17c-.39,.26-.55,.39-.55,.5v2c-.71,0-1.39-.18-2-.5v-1.5c0-1.2,.87-1.78,1.45-2.17,.39-.26,.55-.38,.55-.5,0-.11-.16-.24-.55-.5-.58-.38-1.45-.96-1.45-2.17,0-1.2,.87-1.78,1.45-2.16,.39-.26,.55-.39,.55-.5v-2c.71,0,1.39,.18,2,.5v1.5c0,1.2-.87,1.78-1.45,2.16-.39,.26-.55,.39-.55,.5Z" style="fill:#613f1e;"/></g></g><g><g><g><rect x="3" y="44" width="4" height="11" style="fill:#273640;"/><polygon points="7 44 3 55 3 44 7 44" style="fill:#202d35;"/></g><polygon points="13 40 7 40 3 44 13 44 13 40" style="fill:#f20f4b;"/></g><g><g><rect x="57" y="44" width="4" height="11" style="fill:#273640;"/><polygon points="57 44 61 55 61 44 57 44" style="fill:#202d35;"/></g><polygon points="51 40 57 40 61 44 51 44 51 40" style="fill:#f20f4b;"/></g></g><g><rect x="24" y="47" width="16" height="10" style="fill:#415fb5;"/><path d="M40,47v10h-4.15c-1.79-2.84-3.4-6.21-4.77-10h8.92Z" style="fill:#577ef2;"/></g><path d="M41,48H23c-.552,0-1-.447-1-1s.448-1,1-1h18c.552,0,1,.447,1,1s-.448,1-1,1Z" style="fill:#1d252d;"/></g><g id="ab"><g><g><path d="M31,36v-2c0-1.334,2-1.334,2-2.668s-2-1.334-2-2.668,2-1.332,2-2.664v-2" style="fill:none; stroke:#222325; stroke-linejoin:round; stroke-width:2px;"/><ellipse cx="32" cy="30" rx="5" ry="6" style="fill:none; stroke:#222325; stroke-linecap:round; stroke-linejoin:round; stroke-width:2px;"/></g><circle cx="32" cy="30" r="10" style="fill:none; stroke:#222325; stroke-linejoin:round; stroke-width:2px;"/></g><path d="M46,15V31c0,4.418,2.239,8,5,8v24H13v-24c2.761,0,5-3.582,5-8V15h28Z" style="fill:none; stroke:#222325; stroke-linecap:round; stroke-linejoin:round; stroke-width:2px;"/><g><polyline points="26 15 26 1 22 1 22 15" style="fill:none; stroke:#222325; stroke-linecap:round; stroke-linejoin:round; stroke-width:2px;"/><polyline points="38 15 38 1 42 1 42 15" style="fill:none; stroke:#222325; stroke-linecap:round; stroke-linejoin:round; stroke-width:2px;"/></g><g><g><polyline points="13 40 7 40 3 44 13 44" style="fill:none; stroke:#222325; stroke-linecap:round; stroke-linejoin:round; stroke-width:2px;"/><polyline points="3 44 3 55 7 55 7 44" style="fill:none; stroke:#222325; stroke-linecap:round; stroke-linejoin:round; stroke-width:2px;"/></g><g><polyline points="51 40 57 40 61 44 51 44" style="fill:none; stroke:#222325; stroke-linecap:round; stroke-linejoin:round; stroke-width:2px;"/><polyline points="61 44 61 55 57 55 57 44" style="fill:none; stroke:#222325; stroke-linecap:round; stroke-linejoin:round; stroke-width:2px;"/></g></g><g><line x1="23" y1="47" x2="41" y2="47" style="fill:none; stroke:#222325; stroke-linecap:round; stroke-linejoin:round; stroke-width:2px;"/><polyline points="24 47 24 57 40 57 40 47" style="fill:none; stroke:#222325; stroke-linecap:round; stroke-linejoin:round; stroke-width:2px;"/></g></g></g></g><g id="ac"/><g id="ad"/><g id="ae"/><g id="af"/></svg>