<?xml version="1.0" encoding="UTF-8"?><svg xmlns="http://www.w3.org/2000/svg" viewBox="0 0 64 64"><g id="a"/><g id="b"/><g id="c"/><g id="d"/><g id="e"/><g id="f"/><g id="g"/><g id="h"/><g id="i"/><g id="j"/><g id="k"/><g id="l"/><g id="m"/><g id="n"/><g id="o"/><g id="p"/><g id="q"/><g id="r"/><g id="s"/><g id="t"/><g id="u"/><g id="v"/><g id="w"/><g id="x"/><g id="y"/><g id="a`"/><g id="aa"><g><g id="ab"><g><g><path d="M11,33v28c0,1.105,.895,2,2,2h16c1.105,0,2-.895,2-2v-28H11Z" style="fill:#c8c2b5;"/><path d="M31,33v28c0,1.1-.9,2-2,2h-3.24c-3.49-5.52-6.27-16.38-7.7-30h12.94Z" style="fill:#e7e5e0;"/><rect x="11" y="31" width="20" height="3" style="fill:#a7a297;"/></g><g><path d="M31,44v17c0,1.1-.9,2-2,2H13c-1.1,0-2-.9-2-2v-17H31Z" style="fill:#a67c52;"/><path d="M31,44v17c0,1.1-.9,2-2,2h-3.24c-2.49-3.93-4.61-10.58-6.15-19h11.39Z" style="fill:#c69c6d;"/></g><g><polygon points="27 33 25 49 17 49 15 33 27 33" style="fill:#4e3318;"/><path d="M27,33l-2,16h-4.36c-1.08-4.67-1.96-10.07-2.58-16h8.94Z" style="fill:#613f1e;"/></g><path d="M15,53c-1.105,0-2,.895-2,2v2c0,1.105,.895,2,2,2s2-.895,2-2v-2c0-1.105-.895-2-2-2Z" style="fill:#c69c6d;"/><g><path d="M27.75,32.338c-.189-.215-.463-.338-.75-.338H15c-.287,0-.56,.123-.75,.338-.19,.216-.278,.502-.243,.786l2,16c.063,.5,.488,.876,.992,.876h8c.504,0,.93-.376,.992-.876l2-16c.036-.284-.053-.57-.243-.786Zm-11.617,1.662h3.867v14h-2.117l-1.75-14Zm7.984,14h-2.117v-14h3.867l-1.75,14Z" style="fill:#202d35;"/><path d="M27.75,32.34c-.19-.22-.46-.34-.75-.34h-9.05c.07,.67,.14,1.34,.22,2h1.83v12.01c.27,1.38,.57,2.71,.88,3.99h4.12c.5,0,.93-.38,.99-.88l2-16c.04-.28-.05-.57-.24-.78Zm-3.63,15.66h-2.12v-14h3.87l-1.75,14Z" style="fill:#273640;"/></g><g><path d="M24,10v7c0,6,8,6,8,12v4H10v-4c0-6,8-6,8-12v-7h6Z" style="fill:#b50b38;"/><path d="M32,29v4h-13.94c-.43-4.11-.74-8.46-.91-13,.52-.82,.85-1.79,.85-3v-7h6v7c0,6,8,6,8,12Z" style="fill:#f20f4b;"/><rect x="18" y="11" width="6" height="2" style="fill:#b50b38;"/></g><g><rect x="18" y="5" width="6" height="3" style="fill:#1d252d;"/><g><rect x="17" y="7" width="8" height="4" rx="1" ry="1" style="fill:#202d35;"/><path d="M25,8v2c0,.55-.45,1-1,1h-2.32c-.77-1.02-1.41-2.39-1.87-4h4.19c.55,0,1,.45,1,1Z" style="fill:#273640;"/></g><g><rect x="17" y="1" width="8" height="4" style="fill:#4e3318;"/><path d="M25,1V5h-5.65c-.23-1.25-.35-2.6-.35-4h6Z" style="fill:#613f1e;"/></g></g><g><path d="M27,58c-.552,0-1-.447-1-1v-1c0-.553,.448-1,1-1s1,.447,1,1v1c0,.553-.448,1-1,1Z" style="fill:#273640;"/><path d="M15,30c-.552,0-1-.447-1-1v-1c0-.553,.448-1,1-1s1,.447,1,1v1c0,.553-.448,1-1,1Z" style="fill:#273640;"/></g></g><g><g><circle cx="44" cy="18" r="10" style="fill:#415fb5;"/><path d="M54,18c0,1.4-.29,2.74-.82,3.95-1.81,1.88-4.36,3.05-7.18,3.05-5.52,0-10-4.48-10-10,0-1.4,.29-2.74,.82-3.95,1.81-1.88,4.36-3.05,7.18-3.05,5.52,0,10,4.48,10,10Z" style="fill:#577ef2;"/></g><ellipse cx="43" cy="19" rx="5" ry="6" style="fill:#415fb5;"/><g><ellipse cx="44" cy="18" rx="5" ry="6" style="fill:#c69c6d;"/><path d="M45.58,16.67c.63,.48,1.42,1.3,1.42,2.66,0,1.74-1.28,2.59-1.89,3-.04,.02-.07,.05-.11,.07v1.48c-.32,.08-.66,.12-1,.12-1.13,0-2.17-.45-3-1.21v-.79c0-1.36,.79-2.18,1.42-2.67-.63-.48-1.42-1.3-1.42-2.67,0-1.73,1.28-2.58,1.89-2.99,.04-.03,.07-.05,.11-.07v-1.48c.32-.08,.66-.12,1-.12,1.13,0,2.17,.45,3,1.21v.79c0,1.36-.79,2.18-1.42,2.67Z" style="fill:#a67c52;"/><path d="M44,16.66c0,.12,.16,.25,.56,.51,.57,.38,1.44,.96,1.44,2.16s-.87,1.78-1.45,2.17c-.39,.26-.55,.39-.55,.5v2c-.71,0-1.39-.18-2-.5v-1.5c0-1.2,.87-1.78,1.45-2.17,.39-.26,.55-.38,.55-.5,0-.11-.16-.24-.55-.5-.58-.38-1.45-.96-1.45-2.17,0-1.2,.87-1.78,1.45-2.16,.39-.26,.55-.39,.55-.5v-2c.71,0,1.39,.18,2,.5v1.5c0,1.2-.87,1.78-1.45,2.16-.39,.26-.55,.39-.55,.5Z" style="fill:#613f1e;"/></g></g></g><g id="ac"><g><path d="M24,10v7c0,6,8,6,8,12v4H10v-4c0-6,8-6,8-12v-7" style="fill:none; stroke:#222325; stroke-linecap:round; stroke-linejoin:round; stroke-width:2px;"/><rect x="17" y="8" width="8" height="2" style="fill:none; stroke:#222325; stroke-linecap:round; stroke-linejoin:round; stroke-width:2px;"/><rect x="17" y="1" width="8" height="4" style="fill:none; stroke:#222325; stroke-linecap:round; stroke-linejoin:round; stroke-width:2px;"/><g><line x1="18" y1="8" x2="18" y2="5" style="fill:none; stroke:#222325; stroke-linecap:round; stroke-linejoin:round; stroke-width:2px;"/><line x1="24" y1="8" x2="24" y2="5" style="fill:none; stroke:#222325; stroke-linecap:round; stroke-linejoin:round; stroke-width:2px;"/></g><path d="M11,33v28c0,1.105,.895,2,2,2h16c1.105,0,2-.895,2-2v-28" style="fill:none; stroke:#222325; stroke-linecap:round; stroke-linejoin:round; stroke-width:2px;"/><g><polyline points="27 33 25 49 17 49 15 33" style="fill:none; stroke:#222325; stroke-linecap:round; stroke-linejoin:round; stroke-width:2px;"/><line x1="21" y1="49" x2="21" y2="33" style="fill:none; stroke:#222325; stroke-linecap:round; stroke-linejoin:round; stroke-width:2px;"/></g><g><line x1="27" y1="57" x2="27" y2="56" style="fill:none; stroke:#222325; stroke-linecap:round; stroke-linejoin:round; stroke-width:2px;"/><line x1="15" y1="29" x2="15" y2="28" style="fill:none; stroke:#222325; stroke-linecap:round; stroke-linejoin:round; stroke-width:2px;"/></g></g><g><line x1="11" y1="44" x2="16" y2="44" style="fill:none; stroke:#222325; stroke-linecap:round; stroke-linejoin:round; stroke-width:2px;"/><line x1="26" y1="44" x2="31" y2="44" style="fill:none; stroke:#222325; stroke-linecap:round; stroke-linejoin:round; stroke-width:2px;"/></g><g><g><path d="M43,24v-2c0-1.334,2-1.334,2-2.668s-2-1.334-2-2.668,2-1.332,2-2.664v-2" style="fill:none; stroke:#222325; stroke-linejoin:round; stroke-width:2px;"/><ellipse cx="44" cy="18" rx="5" ry="6" style="fill:none; stroke:#222325; stroke-linecap:round; stroke-linejoin:round; stroke-width:2px;"/></g><circle cx="44" cy="18" r="10" style="fill:none; stroke:#222325; stroke-linejoin:round; stroke-width:2px;"/></g></g></g></g><g id="ad"/><g id="ae"/><g id="af"/></svg>