<?xml version="1.0" encoding="UTF-8"?><svg xmlns="http://www.w3.org/2000/svg" viewBox="0 0 64 64"><g id="a"/><g id="b"/><g id="c"/><g id="d"/><g id="e"/><g id="f"/><g id="g"/><g id="h"/><g id="i"/><g id="j"/><g id="k"/><g id="l"/><g id="m"/><g id="n"/><g id="o"/><g id="p"/><g id="q"/><g id="r"/><g id="s"/><g id="t"/><g id="u"/><g id="v"/><g id="w"/><g id="x"/><g id="y"/><g id="a`"/><g id="aa"/><g id="ab"><g><g id="ac"><g><g><path d="M42,60H22c-1.103,0-2,.897-2,2s.897,2,2,2h20c1.103,0,2-.897,2-2s-.897-2-2-2Z" style="fill:#202d35;"/><path d="M44,62c0,1.1-.9,2-2,2h-2.78c-.95-1.2-1.87-2.53-2.75-4h5.53c1.1,0,2,.9,2,2Z" style="fill:#273640;"/></g><g><path d="M40,30l7.564,22.762c.297,.744,.435,1.5,.436,2.238,.003,3.172-2.538,6-5.959,6H21.959c-3.42,0-5.962-2.828-5.959-6,0-.738,.139-1.494,.436-2.238l7.564-22.762h0L14.146,3.746c-.099-.248-.146-.5-.146-.746,0-1.057,.853-2,2-2H48c1.147,0,2,.942,2,2,0,.246-.046,.498-.146,.746l-9.854,26.254h0Z" style="fill:#c8c2b5;"/><path d="M49.85,3.75l-9.85,26.25,7.56,22.76c.3,.75,.44,1.5,.44,2.24,0,3.17-2.54,6-5.96,6h-4.95C29.25,48.75,24,26.46,24,1h24c1.15,0,2,.94,2,2,0,.25-.05,.5-.15,.75Z" style="fill:#e7e5e0;"/></g><g><path d="M48,55c0,3.17-2.54,6-5.96,6H21.96c-3.42,0-5.96-2.83-5.96-6,0-.74,.14-1.49,.44-2.24l2.58-7.76h25.96l2.58,7.76c.3,.75,.44,1.5,.44,2.24Z" style="fill:#4e3318;"/><path d="M48,55c0,3.17-2.54,6-5.96,6h-4.95c-2.71-4.23-5.11-9.66-7.09-16h14.98l2.58,7.76c.3,.75,.44,1.5,.44,2.24Z" style="fill:#613f1e;"/></g><path d="M38,1c-1.657,0-4,2-4,5,0,1.657-.895,3-2,3s-2-1.343-2-3c0-3-2.343-5-4-5h12Z" style="fill:#273640;"/><g><path d="M30,41h-9.98c-1.467,0-2.444-1.503-1.837-2.828l3.817-8.172-3.817-8.172c-.607-1.324,.369-2.828,1.837-2.828h9.98v22Z" style="fill:#a67c52;"/><path d="M30,19v22h-1.16c-1.77-6.59-3.12-14.02-3.94-22h5.1Z" style="fill:#c69c6d;"/></g><g><path d="M34,41h9.98c1.467,0,2.444-1.503,1.837-2.828l-3.817-8.172,3.817-8.172c.607-1.324-.369-2.828-1.837-2.828h-9.98v22Z" style="fill:#a67c52;"/><path d="M44.84,40.82c-4.42-1.39-7.84-10.63-7.84-21.82h6.98c1.47,0,2.44,1.5,1.84,2.83l-3.82,8.17,3.82,8.17c.47,1.05-.03,2.2-.98,2.65Z" style="fill:#c69c6d;"/></g><g><path d="M44,31h-10c-.553,0-1-.447-1-1s.447-1,1-1h10c.553,0,1,.447,1,1s-.447,1-1,1Z" style="fill:#273640;"/><path d="M30,31h-10c-.553,0-1-.447-1-1s.447-1,1-1h10c.553,0,1,.447,1,1s-.447,1-1,1Z" style="fill:#273640;"/></g><path d="M37,38c-.553,0-1-.447-1-1,0-3.722-1.295-6-2-6h-4c-.815,0-2,1.948-2,5,0,.553-.447,1-1,1s-1-.447-1-1c0-3.99,1.72-7,4-7h4c2.626,0,4,4.024,4,8,0,.553-.447,1-1,1Z" style="fill:#1d252d;"/><ellipse cx="32" cy="30" rx="2" ry="3" style="fill:#273640;"/></g><g><path d="M26,52c0,1.105-.895,2-2,2s-2-.895-2-2v-2c0-1.105,.895-2,2-2s2,.895,2,2v2Z" style="fill:#613f1e;"/><path d="M43,10c-.553,0-1-.447-1-1v-1c0-.553,.447-1,1-1s1,.447,1,1v1c0,.553-.447,1-1,1Z" style="fill:#fff;"/><path d="M42,56c-.553,0-1-.447-1-1v-1c0-.553,.447-1,1-1s1,.447,1,1v1c0,.553-.447,1-1,1Z" style="fill:#a67c52;"/><path d="M38,9c-1.105,0-2,.895-2,2v2c0,1.105,.895,2,2,2s2-.895,2-2v-2c0-1.105-.895-2-2-2Z" style="fill:#fff;"/></g></g><g id="ad"><g><path d="M43.656,41l3.909,11.762c.297,.744,.435,1.5,.436,2.238,.003,3.172-2.538,6-5.959,6H21.959c-3.42,0-5.962-2.828-5.959-6,0-.738,.139-1.494,.436-2.238l3.909-11.762" style="fill:none; stroke:#222325; stroke-linecap:round; stroke-linejoin:round; stroke-width:2px;"/><path d="M19.871,19L14.146,3.746c-.099-.248-.146-.5-.146-.746,0-1.057,.853-2,2-2H48c1.147,0,2,.942,2,2,0,.246-.046,.498-.146,.746l-5.725,15.254" style="fill:none; stroke:#222325; stroke-linecap:round; stroke-linejoin:round; stroke-width:2px;"/></g><path d="M30,41h-9.98c-1.467,0-2.444-1.503-1.837-2.828l3.817-8.172-3.817-8.172c-.607-1.324,.369-2.828,1.837-2.828h9.98v22Z" style="fill:none; stroke:#222325; stroke-linecap:round; stroke-linejoin:round; stroke-width:2px;"/><path d="M34,41h9.98c1.467,0,2.444-1.503,1.837-2.828l-3.817-8.172,3.817-8.172c.607-1.324-.369-2.828-1.837-2.828h-9.98v22Z" style="fill:none; stroke:#222325; stroke-linecap:round; stroke-linejoin:round; stroke-width:2px;"/><g><line x1="34" y1="30" x2="44" y2="30" style="fill:none; stroke:#222325; stroke-linecap:round; stroke-linejoin:round; stroke-width:2px;"/><line x1="20" y1="30" x2="30" y2="30" style="fill:none; stroke:#222325; stroke-linecap:round; stroke-linejoin:round; stroke-width:2px;"/></g><path d="M42,61c.552,0,1,.448,1,1s-.448,1-1,1H22c-.552,0-1-.448-1-1s.448-1,1-1" style="fill:none; stroke:#222325; stroke-linecap:round; stroke-linejoin:round; stroke-width:2px;"/><g><ellipse cx="32" cy="30" rx="2" ry="3" style="fill:none; stroke:#222325; stroke-linecap:round; stroke-linejoin:round; stroke-width:2px;"/><path d="M27,36c0-3.314,1.343-6,3-6" style="fill:none; stroke:#222325; stroke-linecap:round; stroke-linejoin:round; stroke-width:2px;"/><path d="M34,30c1.657,0,3,3.134,3,7" style="fill:none; stroke:#222325; stroke-linecap:round; stroke-linejoin:round; stroke-width:2px;"/></g><path d="M38,1c-1.657,0-4,2-4,5,0,1.657-.895,3-2,3s-2-1.343-2-3c0-3-2.343-5-4-5" style="fill:none; stroke:#222325; stroke-linecap:round; stroke-linejoin:round; stroke-width:2px;"/><g><path d="M26,52c0,1.105-.895,2-2,2s-2-.895-2-2v-2c0-1.105,.895-2,2-2s2,.895,2,2v2Z" style="fill:none; stroke:#222325; stroke-linecap:round; stroke-linejoin:round; stroke-width:2px;"/><line x1="43" y1="9" x2="43" y2="8" style="fill:none; stroke:#222325; stroke-linecap:round; stroke-linejoin:round; stroke-width:2px;"/></g><line x1="19" y1="45" x2="45" y2="45" style="fill:none; stroke:#222325; stroke-linejoin:round; stroke-width:2px;"/></g></g></g><g id="ae"/><g id="af"/></svg>