<?xml version="1.0" encoding="UTF-8"?><svg xmlns="http://www.w3.org/2000/svg" viewBox="0 0 64 64"><g id="a"/><g id="b"/><g id="c"/><g id="d"/><g id="e"/><g id="f"/><g id="g"/><g id="h"/><g id="i"/><g id="j"/><g id="k"/><g id="l"/><g id="m"/><g id="n"/><g id="o"/><g id="p"/><g id="q"/><g id="r"/><g id="s"/><g id="t"/><g id="u"/><g id="v"/><g id="w"/><g id="x"/><g id="y"/><g id="a`"/><g id="aa"/><g id="ab"/><g id="ac"><g><g id="ad"><g><g><path d="M61,44c0-4.971-4.029-9-9-9h-.009c-2.643,0-5.123,1.299-6.41,2.586-.781,.781-.78,2.048,.001,2.829,.782,.781,2.048,.78,2.829-.001,.694-.695,2.223-1.414,3.58-1.414h.009c2.761,0,5,2.239,5,5-.079,1.414-.817,2.903-1.501,3.661-1.801,2-4.627,2.515-7.619,3.059-1.868,.34-3.8,.692-5.623,1.422-1.025,.411-1.523,1.575-1.113,2.6,.313,.782,1.063,1.257,1.857,1.257,.248,0,.5-.046,.743-.144,1.449-.58,3.102-.881,4.852-1.2,3.356-.611,7.16-1.304,9.875-4.318,1.565-1.737,2.51-4.118,2.529-6.339Z" style="fill:#c8c2b5;"/><path d="M61,44c-.02,2.22-.96,4.6-2.53,6.34-1.32,1.46-2.91,2.38-4.56,3.01-.59-1.09-1.14-2.32-1.61-3.67,1.24-.44,2.34-1.06,3.2-2.02,.68-.76,1.42-2.25,1.5-3.66,0-2.76-2.24-5-5-5h-.01c-.6,0-1.23,.14-1.81,.36-.11-1.34-.17-2.72-.18-4.13,.64-.14,1.31-.23,1.99-.23h.01c4.97,0,9,4.03,9,9Z" style="fill:#e7e5e0;"/></g><g><path d="M49,40c0,12.703-10.297,23-23,23S3,52.703,3,40v-8H49v8Z" style="fill:#c8c2b5;"/><path d="M49,32v8c0,9.18-5.38,17.1-13.16,20.79-11.48-3.49-19.84-14.17-19.84-26.79,0-.67,.02-1.34,.08-2H49Z" style="fill:#e7e5e0;"/></g><path d="M46,40c0,11.046-8.954,20-20,20S6,51.046,6,40v-5H46v5Z" style="fill:#a7a297;"/><g><path d="M45,40c0,10.493-8.507,19-19,19S7,50.493,7,40v-4H45v4Z" style="fill:#a67c52;"/><path d="M45,36v4c0,8.97-6.23,16.5-14.59,18.48-8.04-4.47-13.65-12.79-14.33-22.48h28.92Z" style="fill:#c69c6d;"/></g><g><path d="M45,40c0,10.49-8.51,19-19,19S7,50.49,7,40H45Z" style="fill:#4e3318;"/><path d="M45,40c0,8.97-6.23,16.5-14.59,18.48-6.91-3.84-12.03-10.53-13.76-18.48h28.35Z" style="fill:#613f1e;"/></g><path d="M35,50c-1.104,0-2-.896-2-2v-2c0-1.104,.896-2,2-2s2,.896,2,2v2c0,1.104-.896,2-2,2Z" style="fill:#c69c6d;"/></g><g><path d="M23.414,39.782l-3-3.164c-.391-.412-.902-.618-1.414-.618s-1.024,.206-1.414,.618l-3,3.164c-.375,.396-.586,.932-.586,1.491v8.618c0,1.165,.895,2.109,2,2.109h6c1.105,0,2-.944,2-2.109v-8.618c0-.559-.211-1.096-.586-1.491Zm-4.414,3.218c-1.103,0-2-.897-2-2s.897-2,2-2,2,.897,2,2-.897,2-2,2Z" style="fill:#412a14;"/><g><path d="M24.414,38.782l-3-3.164c-.391-.412-.902-.618-1.414-.618s-1.024,.206-1.414,.618l-3,3.164c-.375,.396-.586,.932-.586,1.491v8.618c0,1.165,.895,2.109,2,2.109h6c1.105,0,2-.944,2-2.109v-8.618c0-.559-.211-1.096-.586-1.491Zm-4.414,3.218c-1.103,0-2-.897-2-2s.897-2,2-2,2,.897,2,2-.897,2-2,2Z" style="fill:#b50b38;"/><path d="M24.41,38.78l-3-3.16c-.39-.41-.9-.62-1.41-.62s-1.02,.21-1.41,.62l-2.5,2.63c.46,5.89,2.73,10.74,5.78,12.75h1.13c1.1,0,2-.94,2-2.11v-8.62c0-.56-.21-1.09-.59-1.49Zm-4.41,3.22c-1.1,0-2-.9-2-2s.9-2,2-2,2,.9,2,2-.9,2-2,2Z" style="fill:#f20f4b;"/></g><path d="M20,41c-.553,0-1-.447-1-1v-9c0-.553,.447-1,1-1s1,.447,1,1v9c0,.553-.447,1-1,1Z" style="fill:#202d35;"/></g><g><path d="M33,29c-.552,0-1-.448-1-1,0-2.414,1.271-3.686,2.293-4.707,.954-.954,1.707-1.707,1.707-3.293,0-.552,.448-1,1-1s1,.448,1,1c0,2.414-1.271,3.686-2.293,4.707-.954,.954-1.707,1.707-1.707,3.293,0,.552-.448,1-1,1Z" style="fill:#c8c2b5;"/><path d="M19,29c-.552,0-1-.448-1-1,0-1.586-.753-2.339-1.707-3.293-1.021-1.021-2.293-2.293-2.293-4.707,0-.552,.448-1,1-1s1,.448,1,1c0,1.586,.753,2.339,1.707,3.293,1.021,1.021,2.293,2.293,2.293,4.707,0,.552-.448,1-1,1Z" style="fill:#c8c2b5;"/></g><g><g><circle cx="26" cy="11" r="10" style="fill:#415fb5;"/><path d="M36,11c0,1.4-.29,2.74-.82,3.95-1.81,1.88-4.36,3.05-7.18,3.05-5.52,0-10-4.48-10-10,0-1.4,.29-2.74,.82-3.95,1.81-1.88,4.36-3.05,7.18-3.05,5.52,0,10,4.48,10,10Z" style="fill:#577ef2;"/></g><g><g><path d="M23.279,8.721c1.059,1.059,.639,3.196,.639,3.196,0,0-2.137,.42-3.196-.639s-.639-3.196-.639-3.196c0,0,2.137-.42,3.196,.639Z" style="fill:#415fb5;"/><path d="M26.721,8.721c-1.059,1.059-.639,3.196-.639,3.196,0,0,2.137,.42,3.196-.639s.639-3.196,.639-3.196c0,0-2.137-.42-3.196,.639Z" style="fill:#415fb5;"/></g><path d="M25,19c-.553,0-1-.447-1-1v-7c0-.553,.447-1,1-1s1,.447,1,1v7c0,.553-.447,1-1,1Z" style="fill:#415fb5;"/></g><g><g><path d="M24.279,7.721c1.059,1.059,.639,3.196,.639,3.196,0,0-2.137,.42-3.196-.639s-.639-3.196-.639-3.196c0,0,2.137-.42,3.196,.639Z" style="fill:#8cc63f;"/><path d="M27.721,7.721c-1.059,1.059-.639,3.196-.639,3.196,0,0,2.137,.42,3.196-.639s.639-3.196,.639-3.196c0,0-2.137-.42-3.196,.639Z" style="fill:#8cc63f;"/></g><path d="M26,18c-.553,0-1-.447-1-1v-7c0-.553,.447-1,1-1s1,.447,1,1v7c0,.553-.447,1-1,1Z" style="fill:#613f1e;"/></g></g></g><g><g><g><path d="M43,56c.248,0,.5-.046,.744-.144,1.449-.58,3.102-.881,4.852-1.2,3.356-.611,7.16-1.304,9.875-4.318,1.565-1.737,2.51-4.118,2.529-6.339,0-4.971-4.029-9-9-9h-.009c-1.043,0-2.062,.202-2.991,.527" style="fill:none; stroke:#222325; stroke-linecap:round; stroke-linejoin:round; stroke-width:2px;"/><path d="M49,39.946c.789-.516,1.942-.946,2.991-.946h.009c2.761,0,5,2.239,5,5-.079,1.414-.817,2.903-1.501,3.661-1.801,2-4.627,2.515-7.619,3.059-.494,.09-.992,.181-1.491,.279" style="fill:none; stroke:#222325; stroke-linecap:round; stroke-linejoin:round; stroke-width:2px;"/></g><path d="M49,40c0,12.703-10.297,23-23,23S3,52.703,3,40v-8H49v8Z" style="fill:none; stroke:#222325; stroke-linecap:round; stroke-linejoin:round; stroke-width:2px;"/><path d="M22,36h23v4c0,10.493-8.507,19-19,19S7,50.493,7,40v-4h11" style="fill:none; stroke:#222325; stroke-linecap:round; stroke-linejoin:round; stroke-width:2px;"/><line x1="25" y1="40" x2="45" y2="40" style="fill:none; stroke:#222325; stroke-linejoin:round; stroke-width:2px;"/><line x1="7" y1="40" x2="15" y2="40" style="fill:none; stroke:#222325; stroke-linejoin:round; stroke-width:2px;"/><path d="M35,50c-1.104,0-2-.896-2-2v-2c0-1.104,.896-2,2-2s2,.896,2,2v2c0,1.104-.896,2-2,2Z" style="fill:none; stroke:#222325; stroke-linecap:round; stroke-linejoin:round; stroke-width:2px;"/></g><circle cx="26" cy="11" r="10" style="fill:none; stroke:#222325; stroke-linejoin:round; stroke-width:2px;"/><g><path d="M37,20c0,4-4,4-4,8" style="fill:none; stroke:#222325; stroke-linecap:round; stroke-linejoin:round; stroke-width:2px;"/><path d="M15,20c0,4,4,4,4,8" style="fill:none; stroke:#222325; stroke-linecap:round; stroke-linejoin:round; stroke-width:2px;"/></g><path d="M24.279,7.721c1.059,1.059,.639,3.196,.639,3.196,0,0-2.137,.42-3.196-.639s-.639-3.196-.639-3.196c0,0,2.137-.42,3.196,.639Z" style="fill:none; stroke:#222325; stroke-linecap:round; stroke-linejoin:round; stroke-width:2px;"/><path d="M27.721,7.721c-1.059,1.059-.639,3.196-.639,3.196,0,0,2.137,.42,3.196-.639s.639-3.196,.639-3.196c0,0-2.137-.42-3.196,.639Z" style="fill:none; stroke:#222325; stroke-linecap:round; stroke-linejoin:round; stroke-width:2px;"/><line x1="26" y1="10" x2="26" y2="17" style="fill:none; stroke:#222325; stroke-linecap:round; stroke-linejoin:round; stroke-width:2px;"/><g><path d="M25,40.273v8.618c0,1.165-.895,2.109-2,2.109h-6c-1.105,0-2-.944-2-2.109v-8.618c0-.559,.211-1.096,.586-1.491l3-3.164c.391-.412,.902-.618,1.414-.618s1.024,.206,1.414,.618l3,3.164c.375,.396,.586,.932,.586,1.491Z" style="fill:none; stroke:#222325; stroke-linecap:round; stroke-linejoin:round; stroke-width:2px;"/><circle cx="20" cy="40" r="1" style="fill:none; stroke:#222325; stroke-linecap:round; stroke-linejoin:round; stroke-width:2px;"/><line x1="20" y1="40" x2="20" y2="31" style="fill:none; stroke:#222325; stroke-linecap:round; stroke-linejoin:round; stroke-width:2px;"/></g></g></g></g><g id="ae"/></svg>