<?xml version="1.0" encoding="UTF-8"?><svg xmlns="http://www.w3.org/2000/svg" viewBox="0 0 64 64"><g id="a"/><g id="b"/><g id="c"><g><g id="d"><g><path d="M49,63H5c-.552,0-1-.448-1-1s.448-1,1-1c2,0,3-4,3-10V27c0-12,6-12,6-24,0-1.105,.448-2,1-2H49V63Z" style="fill:#a67c52;"/><path d="M49,1V63h-13.35C25.77,52.02,19,29.28,19,3c0-.67,0-1.34,.01-2h29.99Z" style="fill:#c69c6d;"/><g><path d="M49,24v22H8V27c0-1.09,.05-2.09,.14-3H49Z" style="fill:#a67c52;"/><path d="M49,1V10H13.09c.55-1.85,.91-4.07,.91-7,0-1.1,.45-2,1-2H49Z" style="fill:#a67c52;"/></g></g><g><path d="M47,25v20H8V27c0-.71,.02-1.37,.06-2H47Z" style="fill:#ce930e;"/><path d="M47,25v20H25.63c-2.14-5.92-3.83-12.67-4.97-20h26.34Z" style="fill:#f7b011;"/></g><path d="M39,35c0,3.92-1.61,7.46-4.21,10H15.21c-2.6-2.54-4.21-6.08-4.21-10s1.61-7.46,4.21-10h19.58c2.6,2.54,4.21,6.08,4.21,10Z" style="fill:#bd870d;"/><g><path d="M49,1V9H13.36c.4-1.64,.64-3.58,.64-6,0-1.1,.45-2,1-2H49Z" style="fill:#c8c2b5;"/><path d="M49,1V9H19.12c-.08-1.97-.12-3.98-.12-6,0-.67,0-1.34,.01-2h29.99Z" style="fill:#e7e5e0;"/></g><g><path d="M59,63c.552,0,1-.448,1-1,0-.552-.448-1-1-1-2,0-3-4-3-10V27c0-12-6-12-6-24,0-1.105-.448-2-1-2-.552,0-1,.895-1,2,0,12-6,12-6,24v24c0,6-1,10-3,10-.552,0-1,.448-1,1s.448,1,1,1h20Z" style="fill:#202d35;"/><path d="M60,62c0,.55-.45,1-1,1h-7.15c-3.77-7.53-6.65-25.02-7.55-46.57,1.69-3.56,3.7-6.49,3.7-13.43,0-1.1,.45-2,1-2s1,.9,1,2c0,12,6,12,6,24v24c0,6,1,10,3,10,.55,0,1,.45,1,1Z" style="fill:#273640;"/></g><g><path d="M50,3V41c0,.55-.45,1-1,1s-1-.45-1-1V3c0-1.1,.45-2,1-2s1,.9,1,2Z" style="fill:#1d252d;"/><path d="M49,47c-.552,0-1-.448-1-1v-1c0-.552,.448-1,1-1s1,.448,1,1v1c0,.552-.448,1-1,1Z" style="fill:#1d252d;"/><path d="M50,50v13h-2v-13c0-.55,.45-1,1-1s1,.45,1,1Z" style="fill:#1d252d;"/></g><g><circle cx="25" cy="35" r="13" style="fill:#c8c2b5;"/><path d="M38,35c0,6.59-4.91,12.04-11.27,12.88-2.88-7.12-5.08-15.63-6.39-25.02,1.45-.55,3.02-.86,4.66-.86,7.18,0,13,5.82,13,13Z" style="fill:#e7e5e0;"/></g><ellipse cx="24" cy="36" rx="7" ry="9" style="fill:#a7a297;"/><g><g><ellipse cx="25" cy="35" rx="7" ry="9" style="fill:#a67c52;"/><path d="M32,35c0,2.3-.67,4.41-1.8,6-.96,.64-2.04,1-3.2,1-3.87,0-7-4.03-7-9,0-2.3,.67-4.41,1.8-6,.96-.64,2.04-1,3.2-1,3.87,0,7,4.03,7,9Z" style="fill:#c69c6d;"/></g><path d="M26.69,30.15c-.46,.66-.69,.98-.69,1.85,0,.89,.22,1.23,.66,1.89,.57,.84,1.34,2,1.34,4.11s-.81,3.29-1.41,4.14c-.32,.46-.5,.72-.59,1.08v.69c-.33,.06-.66,.09-1,.09-1.08,0-2.09-.31-3-.87v-.13c0-.12,.01-.25,.03-.37,.25-1.3,.85-2.16,1.28-2.79,.46-.65,.69-.98,.69-1.84,0-.9-.22-1.23-.66-1.89-.57-.85-1.34-2.01-1.34-4.11,0-2.13,.81-3.29,1.41-4.14,.32-.46,.5-.72,.59-1.08v-.69c.33-.06,.66-.09,1-.09,1.08,0,2.09,.31,3,.87v.13c0,.12-.01,.25-.03,.37-.25,1.3-.85,2.16-1.28,2.78Z" style="fill:#613f1e;"/><path d="M25.87,29.58c-.49,.69-.87,1.24-.87,2.42,0,1.19,.37,1.75,.83,2.44,.52,.78,1.17,1.76,1.17,3.56,0,1.81-.68,2.78-1.23,3.56-.35,.51-.64,.92-.77,1.54v.9c-.7,0-1.37-.13-2-.38v-.62c0-.06,.01-.12,.02-.18,.2-1.1,.69-1.79,1.11-2.4,.49-.69,.87-1.24,.87-2.42,0-1.2-.37-1.75-.83-2.45-.52-.78-1.17-1.75-1.17-3.55,0-1.81,.68-2.78,1.23-3.57,.35-.5,.64-.91,.77-1.53v-.9c.7,0,1.37,.13,2,.38v.62c0,.06-.01,.12-.02,.18-.2,1.1-.69,1.79-1.11,2.4Z" style="fill:#4e3318;"/></g></g><g id="e"><g><path d="M40,63H5c-.552,0-1-.448-1-1s.448-1,1-1c2,0,3-4,3-10V27c0-12,6-12,6-24,0-1.105,.448-2,1-2H49" style="fill:none; stroke:#222325; stroke-linecap:round; stroke-linejoin:round; stroke-width:2px;"/><path d="M59,63c.552,0,1-.448,1-1,0-.552-.448-1-1-1-2,0-3-4-3-10V27c0-12-6-12-6-24,0-1.105-.448-2-1-2-.552,0-1,.895-1,2,0,12-6,12-6,24v24c0,6-1,10-3,10-.552,0-1,.448-1,1s.448,1,1,1h20Z" style="fill:none; stroke:#222325; stroke-linecap:round; stroke-linejoin:round; stroke-width:2px;"/></g><g><path d="M26,27c-.384,2.046-2,2.375-2,4.997,0,3.001,2,3.001,2,6.001,0,2.624-1.616,2.953-2,5.001" style="fill:none; stroke:#222325; stroke-linecap:round; stroke-linejoin:round; stroke-width:2px;"/><ellipse cx="25" cy="35" rx="7" ry="9" style="fill:none; stroke:#222325; stroke-linecap:round; stroke-linejoin:round; stroke-width:2px;"/></g><circle cx="25" cy="35" r="13" style="fill:none; stroke:#222325; stroke-linecap:round; stroke-linejoin:round; stroke-width:2px;"/><line x1="13" y1="9" x2="47" y2="9" style="fill:none; stroke:#222325; stroke-linejoin:round; stroke-width:2px;"/><g><g><line x1="33" y1="25" x2="42" y2="25" style="fill:none; stroke:#222325; stroke-linejoin:round; stroke-width:2px;"/><line x1="8" y1="25" x2="17" y2="25" style="fill:none; stroke:#222325; stroke-linejoin:round; stroke-width:2px;"/></g><g><line x1="33" y1="45" x2="42" y2="45" style="fill:none; stroke:#222325; stroke-linejoin:round; stroke-width:2px;"/><line x1="8" y1="45" x2="17" y2="45" style="fill:none; stroke:#222325; stroke-linejoin:round; stroke-width:2px;"/></g></g><g><line x1="49" y1="1" x2="49" y2="41" style="fill:none; stroke:#222325; stroke-linecap:round; stroke-linejoin:round; stroke-width:2px;"/><line x1="49" y1="45" x2="49" y2="46" style="fill:none; stroke:#222325; stroke-linecap:round; stroke-linejoin:round; stroke-width:2px;"/><line x1="49" y1="50" x2="49" y2="63" style="fill:none; stroke:#222325; stroke-linecap:round; stroke-linejoin:round; stroke-width:2px;"/></g></g></g></g><g id="f"/><g id="g"/><g id="h"/><g id="i"/><g id="j"/><g id="k"/><g id="l"/><g id="m"/><g id="n"/><g id="o"/><g id="p"/><g id="q"/><g id="r"/><g id="s"/><g id="t"/><g id="u"/><g id="v"/><g id="w"/><g id="x"/><g id="y"/><g id="a`"/><g id="aa"/><g id="ab"/><g id="ac"/><g id="ad"/><g id="ae"/><g id="af"/></svg>