<?xml version="1.0" encoding="UTF-8"?><svg xmlns="http://www.w3.org/2000/svg" viewBox="0 0 64 64"><g id="a"/><g id="b"/><g id="c"/><g id="d"/><g id="e"/><g id="f"/><g id="g"/><g id="h"/><g id="i"/><g id="j"/><g id="k"/><g id="l"/><g id="m"/><g id="n"/><g id="o"/><g id="p"/><g id="q"/><g id="r"/><g id="s"/><g id="t"/><g id="u"/><g id="v"/><g id="w"/><g id="x"/><g id="y"/><g id="a`"/><g id="aa"/><g id="ab"/><g id="ac"/><g id="ad"><g><g id="ae"><g><path d="M51,22c2.52,5.205,4,12.15,4,19,0,5.643-1.005,10.944-2.769,15.547-.453,1.183,.502,2.453,1.769,2.453,1.105,0,2,.895,2,2s-.895,2-2,2H10c-1.105,0-2-.895-2-2s.895-2,2-2c1.267,0,2.222-1.27,1.769-2.453-1.763-4.603-2.769-9.904-2.769-15.547,0-6.85,1.48-13.795,4-19v-3H51v3Z" style="fill:#a67c52;"/><path d="M56,61c0,1.1-.9,2-2,2h-10.79c-12.26-5.71-21.35-23.09-22.15-44h29.94v3c2.52,5.21,4,12.15,4,19,0,5.64-1.01,10.94-2.77,15.55-.45,1.18,.5,2.45,1.77,2.45,1.1,0,2,.9,2,2Z" style="fill:#c69c6d;"/><path d="M51.46,23H12.54c.15-.34,.3-.68,.46-1v-3H51v3c.16,.32,.31,.66,.46,1Z" style="fill:#a67c52;"/></g><g><path d="M53,22c.552,0,1-.448,1-1,0-.552-.448-1-1-1s-1-.448-1-1c0-.552,.448-1,1-1s1-.448,1-1-.448-1-1-1H11c-.552,0-1,.448-1,1s.448,1,1,1,1,.448,1,1-.448,1-1,1-1,.448-1,1,.448,1,1,1H53Z" style="fill:#202d35;"/><path d="M54,21c0,.55-.45,1-1,1H21.23c-.15-1.97-.23-3.97-.23-6H53c.55,0,1,.45,1,1s-.45,1-1,1-1,.45-1,1,.45,1,1,1,1,.45,1,1Z" style="fill:#273640;"/></g><g><path d="M13,16c0-6.627,8.507-12,19-12s19,5.373,19,12H13Z" style="fill:#4e3318;"/><path d="M50.93,14.98c-.64,.01-1.28,.02-1.93,.02-13.89,0-25.49-3.7-28.33-8.64,3.16-1.48,7.09-2.36,11.33-2.36,9.95,0,18.11,4.83,18.93,10.98Z" style="fill:#613f1e;"/></g><g><g><circle cx="32" cy="40" r="10" style="fill:#c8c2b5;"/><path d="M42,40c0,1.4-.29,2.74-.82,3.95-1.81,1.88-4.36,3.05-7.18,3.05-5.52,0-10-4.48-10-10,0-1.4,.29-2.74,.82-3.95,1.81-1.88,4.36-3.05,7.18-3.05,5.52,0,10,4.48,10,10Z" style="fill:#e7e5e0;"/></g><ellipse cx="31" cy="41" rx="5" ry="6" style="fill:#c8c2b5;"/><g><ellipse cx="32" cy="40" rx="5" ry="6" style="fill:#c69c6d;"/><path d="M33.58,38.67c.63,.48,1.42,1.3,1.42,2.66,0,1.74-1.28,2.59-1.89,3-.04,.02-.07,.05-.11,.07v1.48c-.32,.08-.66,.12-1,.12-1.13,0-2.17-.45-3-1.21v-.79c0-1.36,.79-2.18,1.42-2.67-.63-.48-1.42-1.3-1.42-2.67,0-1.73,1.28-2.58,1.89-2.99,.04-.03,.07-.05,.11-.07v-1.48c.32-.08,.66-.12,1-.12,1.13,0,2.17,.45,3,1.21v.79c0,1.36-.79,2.18-1.42,2.67Z" style="fill:#a67c52;"/><path d="M32,38.66c0,.12,.16,.25,.56,.51,.57,.38,1.44,.96,1.44,2.16s-.87,1.78-1.45,2.17c-.39,.26-.55,.39-.55,.5v2c-.71,0-1.39-.18-2-.5v-1.5c0-1.2,.87-1.78,1.45-2.17,.39-.26,.55-.38,.55-.5,0-.11-.16-.24-.55-.5-.58-.38-1.45-.96-1.45-2.17,0-1.2,.87-1.78,1.45-2.16,.39-.26,.55-.39,.55-.5v-2c.71,0,1.39,.18,2,.5v1.5c0,1.2-.87,1.78-1.45,2.16-.39,.26-.55,.39-.55,.5Z" style="fill:#613f1e;"/></g></g><path d="M32,51c-6.065,0-11-4.935-11-11s4.935-11,11-11,11,4.935,11,11-4.935,11-11,11Zm0-20c-4.963,0-9,4.037-9,9s4.037,9,9,9,9-4.037,9-9-4.037-9-9-9Z" style="fill:#273640;"/><g><ellipse cx="36" cy="3" rx="2" ry="3" style="fill:#4e3318;"/><ellipse cx="24" cy="15" rx="2" ry="3" style="fill:#613f1e;"/><path d="M19.606,9c-.566,0-1.205-.29-1.761-.846-.928-.928-1.116-2.087-.447-2.756s1.828-.481,2.756,.447c.928,.928,1.116,2.087,.447,2.756-.269,.269-.615,.398-.995,.398Zm-.603-1h0Z" style="fill:#613f1e;"/><path d="M47.606,10c-.566,0-1.205-.29-1.761-.846-.928-.928-1.116-2.087-.447-2.756s1.828-.481,2.756,.447c.928,.928,1.116,2.087,.447,2.756-.269,.269-.615,.398-.995,.398Zm-.603-1h0Z" style="fill:#4e3318;"/><path d="M32.394,13c-.38,0-.727-.13-.995-.398-.669-.669-.48-1.828,.447-2.756,.929-.928,2.087-1.117,2.756-.447,.669,.669,.48,1.828-.447,2.756-.556,.556-1.194,.846-1.761,.846Z" style="fill:#4e3318;"/></g><g><path d="M16,31c-1.104,0-2-.896-2-2v-1c0-1.104,.896-2,2-2s2,.896,2,2v1c0,1.104-.896,2-2,2Z" style="fill:#8a6744;"/><path d="M19,31c-1.104,0-2-.896-2-2v-1c0-1.104,.896-2,2-2s2,.896,2,2v1c0,1.104-.896,2-2,2Z" style="fill:#8a6744;"/><path d="M47,54c-1.104,0-2-.896-2-2v-1c0-1.104,.896-2,2-2s2,.896,2,2v1c0,1.104-.896,2-2,2Z" style="fill:#a67c52;"/></g><g><path d="M16,30c-.553,0-1-.447-1-1v-1c0-.553,.447-1,1-1s1,.447,1,1v1c0,.553-.447,1-1,1Z" style="fill:#613f1e;"/><path d="M19,30c-.553,0-1-.447-1-1v-1c0-.553,.447-1,1-1s1,.447,1,1v1c0,.553-.447,1-1,1Z" style="fill:#613f1e;"/><path d="M47,53c-.553,0-1-.447-1-1v-1c0-.553,.447-1,1-1s1,.447,1,1v1c0,.553-.447,1-1,1Z" style="fill:#613f1e;"/></g></g><g id="af"><g><g><path d="M31,46v-2c0-1.334,2-1.334,2-2.668s-2-1.334-2-2.668,2-1.332,2-2.664v-2" style="fill:none; stroke:#222325; stroke-linejoin:round; stroke-width:2px;"/><ellipse cx="32" cy="40" rx="5" ry="6" style="fill:none; stroke:#222325; stroke-linecap:round; stroke-linejoin:round; stroke-width:2px;"/></g><circle cx="32" cy="40" r="10" style="fill:none; stroke:#222325; stroke-linejoin:round; stroke-width:2px;"/></g><g><path d="M51,22c2.52,5.205,4,12.15,4,19,0,5.643-1.005,10.944-2.769,15.547-.453,1.183,.502,2.453,1.769,2.453,1.105,0,2,.895,2,2s-.895,2-2,2H10c-1.105,0-2-.895-2-2s.895-2,2-2c1.267,0,2.222-1.27,1.769-2.453-1.763-4.603-2.769-9.904-2.769-15.547,0-6.85,1.48-13.795,4-19" style="fill:none; stroke:#222325; stroke-linecap:round; stroke-linejoin:round; stroke-width:2px;"/><path d="M53,22c.552,0,1-.448,1-1,0-.552-.448-1-1-1s-1-.448-1-1c0-.552,.448-1,1-1s1-.448,1-1-.448-1-1-1H11c-.552,0-1,.448-1,1s.448,1,1,1,1,.448,1,1-.448,1-1,1-1,.448-1,1,.448,1,1,1H53Z" style="fill:none; stroke:#222325; stroke-linecap:round; stroke-linejoin:round; stroke-width:2px;"/><path d="M13,16c0-6.627,8.507-12,19-12s19,5.373,19,12" style="fill:none; stroke:#222325; stroke-linecap:round; stroke-linejoin:round; stroke-width:2px;"/></g><g><ellipse cx="36" cy="3" rx="1" ry="2" style="fill:none; stroke:#222325; stroke-linecap:round; stroke-linejoin:round; stroke-width:2px;"/><ellipse cx="24" cy="15" rx="1" ry="2" style="fill:none; stroke:#222325; stroke-linecap:round; stroke-linejoin:round; stroke-width:2px;"/><ellipse cx="19" cy="7" rx=".632" ry="1.265" transform="translate(.615 15.485) rotate(-45)" style="fill:none; stroke:#222325; stroke-linecap:round; stroke-linejoin:round; stroke-width:2px;"/><ellipse cx="47" cy="8" rx=".632" ry="1.265" transform="translate(8.109 35.577) rotate(-45)" style="fill:none; stroke:#222325; stroke-linecap:round; stroke-linejoin:round; stroke-width:2px;"/><ellipse cx="33" cy="11" rx="1.265" ry=".632" transform="translate(1.887 26.556) rotate(-45)" style="fill:none; stroke:#222325; stroke-linecap:round; stroke-linejoin:round; stroke-width:2px;"/></g><g><line x1="16" y1="29" x2="16" y2="28" style="fill:none; stroke:#222325; stroke-linecap:round; stroke-linejoin:round; stroke-width:2px;"/><line x1="19" y1="29" x2="19" y2="28" style="fill:none; stroke:#222325; stroke-linecap:round; stroke-linejoin:round; stroke-width:2px;"/><line x1="47" y1="52" x2="47" y2="51" style="fill:none; stroke:#222325; stroke-linecap:round; stroke-linejoin:round; stroke-width:2px;"/></g></g></g></g></svg>