<?xml version="1.0" encoding="UTF-8"?><svg xmlns="http://www.w3.org/2000/svg" viewBox="0 0 64 64"><g id="a"/><g id="b"/><g id="c"/><g id="d"><g><g id="e"><g><g><path d="M50,53c-.552,0-1,.895-1,2v6c0,1.105-.895,2-2,2H17c-1.105,0-2-.895-2-2v-6c0-1.105-.448-2-1-2v-2H50v2Z" style="fill:#c8c2b5;"/><path d="M50,51v2c-.55,0-1,.9-1,2v6c0,.95-.67,1.75-1.57,1.95-9.03-.5-16.62-5.3-19.81-11.95h22.38Z" style="fill:#e7e5e0;"/><path d="M50,51v2c-.37,0-.69,.4-.86,1H14.86c-.17-.6-.49-1-.86-1v-2H50Z" style="fill:#c8c2b5;"/></g><g><rect x="14" y="51" width="36" height="2" style="fill:#202d35;"/><path d="M50,51v2H28.75c-.43-.64-.8-1.31-1.13-2h22.38Z" style="fill:#273640;"/></g><g><path d="M49,51c0-1.105-.895-2-2-2-7.5,0-7.5-6-15-6-7.5,0-7.5,6-15,6-1.105,0-2,.895-2,2H49Z" style="fill:#a67c52;"/><path d="M49,51H27.62c-.93-1.92-1.48-3.99-1.59-6.16,1.47-1.03,3.21-1.84,5.97-1.84,7.5,0,7.5,6,15,6,1.1,0,2,.9,2,2Z" style="fill:#c69c6d;"/></g><path d="M45,59c-.553,0-1-.448-1-1v-1c0-.552,.447-1,1-1s1,.448,1,1v1c0,.552-.447,1-1,1Z" style="fill:#fff;"/><path d="M18,61c-.553,0-1-.448-1-1v-1c0-.552,.447-1,1-1s1,.448,1,1v1c0,.552-.447,1-1,1Z" style="fill:#e7e5e0;"/><g><path d="M29,48c-.553,0-1-.448-1-1v-1c0-.552,.447-1,1-1s1,.448,1,1v1c0,.552-.447,1-1,1Z" style="fill:#613f1e;"/><path d="M38,47c-.256,0-.512-.098-.707-.293-.391-.391-.391-1.023,0-1.414l1-1c.391-.391,1.023-.391,1.414,0s.391,1.023,0,1.414l-1,1c-.195,.195-.451,.293-.707,.293Z" style="fill:#613f1e;"/></g></g><g><g><rect x="17" y="35" width="30" height="4" style="fill:#c8c2b5;"/><path d="M47,35v4h-5.86c-1.61-.84-3.12-2.21-4.5-4h10.36Z" style="fill:#e7e5e0;"/></g><g><polygon points="46 35 18 35 22 32 42 32 46 35" style="fill:#202d35;"/><path d="M46,35h-9.36c-.69-.9-1.34-1.9-1.96-3h7.32l4,3Z" style="fill:#273640;"/></g><g><path d="M36,28c0,2.209,1.791,4,4,4h-16c2.209,0,4-1.791,4-4h8Z" style="fill:#b50b38;"/><path d="M40,32h-5.32c-.67-1.22-1.3-2.56-1.88-4h3.2c0,2.21,1.79,4,4,4Z" style="fill:#f20f4b;"/></g><g><path d="M36,28c0-2.457-.17-5.027,.545-7.409,.452-1.506,1.167-2.918,1.988-4.254,1.201-1.952,2.467-3.964,2.467-6.337,0-4.971-4.029-9-9-9-4.971,0-9,4.029-9,9,0,2.373,1.266,4.385,2.467,6.337,.822,1.336,1.536,2.748,1.988,4.254,.715,2.382,.545,4.952,.545,7.409h8Z" style="fill:#4e3318;"/><path d="M41,10c0,2.37-1.27,4.39-2.47,6.34-.82,1.33-1.53,2.74-1.99,4.25-.71,2.38-.54,4.95-.54,7.41h-3.2c-2.37-5.93-3.8-13.61-3.8-22,0-1.54,.05-3.05,.14-4.53,.9-.31,1.86-.47,2.86-.47,4.97,0,9,4.03,9,9Z" style="fill:#613f1e;"/></g></g><g><path d="M44,27c-.553,0-1-.448-1-1v-3c0-.552,.447-1,1-1s1,.448,1,1v3c0,.552-.447,1-1,1Z" style="fill:#c8c2b5;"/><path d="M44,20c-.553,0-1-.448-1-1v-1c0-.552,.447-1,1-1s1,.448,1,1v1c0,.552-.447,1-1,1Z" style="fill:#c8c2b5;"/><path d="M14,34c-.553,0-1-.448-1-1v-5c0-.552,.447-1,1-1s1,.448,1,1v5c0,.552-.447,1-1,1Z" style="fill:#c8c2b5;"/></g></g><g id="f"><g><path d="M36,28c0-2.457-.17-5.027,.545-7.409,.452-1.506,1.167-2.918,1.988-4.254,1.201-1.952,2.467-3.964,2.467-6.337,0-4.971-4.029-9-9-9-4.971,0-9,4.029-9,9,0,2.373,1.266,4.385,2.467,6.337,.822,1.336,1.536,2.748,1.988,4.254,.715,2.382,.545,4.952,.545,7.409h8Z" style="fill:none; stroke:#222325; stroke-linecap:round; stroke-linejoin:round; stroke-width:2px;"/><rect x="17" y="35" width="30" height="4" style="fill:none; stroke:#222325; stroke-linecap:round; stroke-linejoin:round; stroke-width:2px;"/><polygon points="42 32 22 32 18 35 46 35 42 32" style="fill:none; stroke:#222325; stroke-linecap:round; stroke-linejoin:round; stroke-width:2px;"/><g><path d="M28,28c0,2.209-1.791,4-4,4" style="fill:none; stroke:#222325; stroke-linecap:round; stroke-linejoin:round; stroke-width:2px;"/><path d="M36,28c0,2.209,1.791,4,4,4" style="fill:none; stroke:#222325; stroke-linecap:round; stroke-linejoin:round; stroke-width:2px;"/></g></g><g><path d="M50,53c-.552,0-1,.895-1,2v6c0,1.105-.895,2-2,2H17c-1.105,0-2-.895-2-2v-6c0-1.105-.448-2-1-2v-2H50v2Z" style="fill:none; stroke:#222325; stroke-linecap:round; stroke-linejoin:round; stroke-width:2px;"/><line x1="45" y1="58" x2="45" y2="57" style="fill:none; stroke:#222325; stroke-linecap:round; stroke-linejoin:round; stroke-width:2px;"/><g><line x1="29" y1="47" x2="29" y2="46" style="fill:none; stroke:#222325; stroke-linecap:round; stroke-linejoin:round; stroke-width:2px;"/><line x1="38" y1="46" x2="39" y2="45" style="fill:none; stroke:#222325; stroke-linecap:round; stroke-linejoin:round; stroke-width:2px;"/></g><path d="M49,51c0-1.105-.895-2-2-2-7.5,0-7.5-6-15-6-7.5,0-7.5,6-15,6-1.105,0-2,.895-2,2" style="fill:none; stroke:#222325; stroke-linecap:round; stroke-linejoin:round; stroke-width:2px;"/></g><g><line x1="44" y1="26" x2="44" y2="23" style="fill:none; stroke:#222325; stroke-linecap:round; stroke-linejoin:round; stroke-width:2px;"/><line x1="44" y1="19" x2="44" y2="18" style="fill:none; stroke:#222325; stroke-linecap:round; stroke-linejoin:round; stroke-width:2px;"/><line x1="14" y1="33" x2="14" y2="28" style="fill:none; stroke:#222325; stroke-linecap:round; stroke-linejoin:round; stroke-width:2px;"/></g></g></g></g><g id="g"/><g id="h"/><g id="i"/><g id="j"/><g id="k"/><g id="l"/><g id="m"/><g id="n"/><g id="o"/><g id="p"/><g id="q"/><g id="r"/><g id="s"/><g id="t"/><g id="u"/><g id="v"/><g id="w"/><g id="x"/><g id="y"/><g id="a`"/><g id="aa"/><g id="ab"/><g id="ac"/><g id="ad"/><g id="ae"/><g id="af"/></svg>