<?xml version="1.0" encoding="UTF-8"?><svg xmlns="http://www.w3.org/2000/svg" viewBox="0 0 64 64"><g id="a"/><g id="b"/><g id="c"/><g id="d"/><g id="e"><g><g id="f"><g><path d="M13,3c-.553,0-1-.448-1-1V1c0-.552,.447-1,1-1s1,.448,1,1v1c0,.552-.447,1-1,1Z" style="fill:#1d252d;"/><g><path d="M6,6v5.343c0,1.061,.421,2.078,1.172,2.828l1.828,1.828h0c1.105,0,2,.895,2,2v2h4v-2c0-1.105,.895-2,2-2h0l1.828-1.828c.75-.75,1.172-1.768,1.172-2.828V6H6Z" style="fill:#c8c2b5;"/><path d="M20,6v5.34c0,1.06-.42,2.08-1.17,2.83l-1.83,1.83c-1.1,0-2,.9-2,2v2h-.32c-2.32-3.25-3.97-8.23-4.5-14h9.82Z" style="fill:#e7e5e0;"/></g><g><path d="M6,6v-1c0-1.657,3.134-3,7-3s7,1.343,7,3v1H6Z" style="fill:#202d35;"/><path d="M20,5v1H10.18c-.11-1.2-.17-2.44-.18-3.71,.91-.19,1.92-.29,3-.29,3.87,0,7,1.34,7,3Z" style="fill:#273640;"/></g><path d="M16,12c-.553,0-1-.448-1-1v-1c0-.552,.447-1,1-1s1,.448,1,1v1c0,.552-.447,1-1,1Z" style="fill:#fff;"/></g><g><g><path d="M51,38h-5c-.553,0-1-.448-1-1s.447-1,1-1h5c.553,0,1,.448,1,1s-.447,1-1,1Z" style="fill:#273640;"/><path d="M62,35h-11c-.553,0-1,.448-1,1v2c0,.552,.447,1,1,1h11c1.103,0,2-.897,2-2s-.897-2-2-2Z" style="fill:#1d252d;"/></g><g><path d="M34,34v5c0,.552,.448,1,1,1h10c.552,0,1-.448,1-1v-5h-12Z" style="fill:#c8c2b5;"/><path d="M46,34v5c0,.55-.45,1-1,1h-2.67c-1.85-1.41-3.34-3.5-4.27-6h7.94Z" style="fill:#e7e5e0;"/><rect x="34" y="34" width="12" height="1" style="fill:#c8c2b5;"/></g><g><rect x="33" y="29" width="14" height="5" style="fill:#1d252d;"/><path d="M47,29v5h-8.94c-.57-1.54-.93-3.22-1.03-5h9.97Z" style="fill:#202d35;"/></g><g><rect x="32" y="27" width="16" height="3" style="fill:#202d35;"/><path d="M48,27v3h-10.88c-.08-.65-.12-1.32-.12-2,0-.34,.01-.67,.03-1h10.97Z" style="fill:#273640;"/></g></g><g><g><rect x="1" y="59" width="60" height="4" style="fill:#b50b38;"/><path d="M61,59v4h-11.37c-3.06-.85-5.97-2.2-8.68-4h20.05Z" style="fill:#f20f4b;"/></g><g><rect x="5" y="20" width="46" height="8" style="fill:#b50b38;"/><path d="M51,20v8H22.7c-.41-2.59-.65-5.27-.69-8h28.99Z" style="fill:#f20f4b;"/></g><g><circle cx="35" cy="24" r="3" style="fill:#b50b38;"/><circle cx="45" cy="24" r="3" style="fill:#b50b38;"/></g><g><rect x="6" y="28" width="14" height="28" style="fill:#c8c2b5;"/><path d="M20,28v28h-6c-2.43-6.39-4-16.55-4-28h10Z" style="fill:#e7e5e0;"/></g><g><circle cx="10" cy="33" r="3" style="fill:#c8c2b5;"/><circle cx="16" cy="33" r="3" style="fill:#c8c2b5;"/></g><path d="M13,44c-2.209,0-4,1.791-4,4v8h8v-8c0-2.209-1.791-4-4-4Z" style="fill:#c8c2b5;"/><g><rect x="7" y="56" width="12" height="3" style="fill:#202d35;"/><rect x="7" y="56" width="12" height="2" style="fill:#1d252d;"/></g><g><path d="M10,56v-8c0-1.657,1.343-3,3-3s3,1.343,3,3v8h-6Z" style="fill:#202d35;"/><path d="M16,48v8h-2c-1.08-2.83-1.98-6.4-2.66-10.5,.48-.31,1.05-.5,1.66-.5,1.66,0,3,1.34,3,3Z" style="fill:#273640;"/></g></g><g><path d="M50,57h-7c-.553,0-1-.448-1-1s.447-1,1-1h7c1.103,0,2-.897,2-2s-.897-2-2-2c-.229,0-.454,.038-.666,.113-.519,.183-1.092-.087-1.276-.608s.088-1.092,.608-1.277c.427-.152,.876-.229,1.334-.229,2.206,0,4,1.794,4,4s-1.794,4-4,4Z" style="fill:#c8c2b5;"/><g><path d="M49,49c0,4.971-4.029,9-9,9s-9-4.029-9-9h18Z" style="fill:#c8c2b5;"/><path d="M49,49c0,4.11-2.76,7.58-6.52,8.65-3.88-1.73-6.48-4.96-6.48-8.65h13Z" style="fill:#e7e5e0;"/></g></g><g><g><path d="M35,26c-1.103,0-2-.897-2-2s.897-2,2-2,2,.897,2,2-.897,2-2,2Zm0-2h0Zm0,0h0Zm0,0h0Zm0,0h0Zm0,0h0Zm0,0h0Zm0,0h0Zm0,0h0Z" style="fill:#273640;"/><path d="M45,26c-1.103,0-2-.897-2-2s.897-2,2-2,2,.897,2,2-.897,2-2,2Zm0-2h0Zm0,0h0Zm0,0h0Zm0,0h0Zm0,0h0Zm0,0h0Zm0,0h0Zm0,0h0Z" style="fill:#273640;"/></g><g><path d="M10,35c-1.103,0-2-.897-2-2s.897-2,2-2,2,.897,2,2-.897,2-2,2Zm0-2h0Zm0,0h0Zm0,0h0Zm0,0h0Zm0,0h0Zm0,0h0Zm0,0h0Zm0,0h0Z" style="fill:#273640;"/><path d="M16,35c-1.103,0-2-.897-2-2s.897-2,2-2,2,.897,2,2-.897,2-2,2Zm0-2h0Zm0,0h0Zm0,0h0Zm0,0h0Zm0,0h0Zm0,0h0Zm0,0h0Zm0,0h0Z" style="fill:#273640;"/></g></g><path d="M40,47c-1.103,0-2-.891-2-2,0-.718,.641-1.811,1.177-2.592,.187-.272,.505-.408,.823-.408s.636,.136,.823,.408c.536,.781,1.177,1.874,1.177,2.592,0,1.109-.897,2-2,2Z" style="fill:#c69c6d;"/></g><g id="g"><g><rect x="5" y="20" width="46" height="8" style="fill:none; stroke:#222325; stroke-linecap:round; stroke-linejoin:round; stroke-width:2px;"/><polyline points="32 28 32 30 48 30 48 28" style="fill:none; stroke:#222325; stroke-linecap:round; stroke-linejoin:round; stroke-width:2px;"/><polyline points="33 30 33 34 47 34 47 30" style="fill:none; stroke:#222325; stroke-linecap:round; stroke-linejoin:round; stroke-width:2px;"/><g><path d="M34,34v5c0,.552,.448,1,1,1h10c.552,0,1-.448,1-1v-5" style="fill:none; stroke:#222325; stroke-linecap:round; stroke-linejoin:round; stroke-width:2px;"/><line x1="46" y1="37" x2="51" y2="37" style="fill:none; stroke:#222325; stroke-linecap:round; stroke-linejoin:round; stroke-width:2px;"/><path d="M62,38h-11v-2h11c.552,0,1,.448,1,1s-.448,1-1,1Z" style="fill:none; stroke:#222325; stroke-linecap:round; stroke-linejoin:round; stroke-width:2px;"/></g><rect x="1" y="59" width="60" height="4" style="fill:none; stroke:#222325; stroke-linecap:round; stroke-linejoin:round; stroke-width:2px;"/><polyline points="6 28 6 56 20 56 20 28" style="fill:none; stroke:#222325; stroke-linecap:round; stroke-linejoin:round; stroke-width:2px;"/></g><g><line x1="7" y1="56" x2="7" y2="59" style="fill:none; stroke:#222325; stroke-linecap:round; stroke-linejoin:round; stroke-width:2px;"/><line x1="19" y1="56" x2="19" y2="59" style="fill:none; stroke:#222325; stroke-linecap:round; stroke-linejoin:round; stroke-width:2px;"/></g><g><path d="M49,49c0,4.971-4.029,9-9,9s-9-4.029-9-9h18Z" style="fill:none; stroke:#222325; stroke-linecap:round; stroke-linejoin:round; stroke-width:2px;"/><path d="M49,50.171c.313-.111,.649-.171,1-.171,1.657,0,3,1.343,3,3s-1.343,3-3,3h-4" style="fill:none; stroke:#222325; stroke-linecap:round; stroke-linejoin:round; stroke-width:2px;"/></g><g><path d="M6,6v-1c0-1.657,3.134-3,7-3s7,1.343,7,3v1" style="fill:none; stroke:#222325; stroke-linecap:round; stroke-linejoin:round; stroke-width:2px;"/><line x1="13" y1="2" x2="13" y2="1" style="fill:none; stroke:#222325; stroke-linecap:round; stroke-linejoin:round; stroke-width:2px;"/><path d="M6,6v5.343c0,1.061,.421,2.078,1.172,2.828l1.828,1.828h0c1.105,0,2,.895,2,2v2h4v-2c0-1.105,.895-2,2-2h0l1.828-1.828c.75-.75,1.172-1.768,1.172-2.828V6H6Z" style="fill:none; stroke:#222325; stroke-linecap:round; stroke-linejoin:round; stroke-width:2px;"/><line x1="16" y1="11" x2="16" y2="10" style="fill:none; stroke:#222325; stroke-linecap:round; stroke-linejoin:round; stroke-width:2px;"/></g><g><circle cx="35" cy="24" r="1" style="fill:none; stroke:#222325; stroke-linecap:round; stroke-linejoin:round; stroke-width:2px;"/><circle cx="45" cy="24" r="1" style="fill:none; stroke:#222325; stroke-linecap:round; stroke-linejoin:round; stroke-width:2px;"/></g><g><circle cx="10" cy="33" r="1" style="fill:none; stroke:#222325; stroke-linecap:round; stroke-linejoin:round; stroke-width:2px;"/><circle cx="16" cy="33" r="1" style="fill:none; stroke:#222325; stroke-linecap:round; stroke-linejoin:round; stroke-width:2px;"/></g><path d="M10,56v-8c0-1.657,1.343-3,3-3s3,1.343,3,3v8" style="fill:none; stroke:#222325; stroke-linecap:round; stroke-linejoin:round; stroke-width:2px;"/><path d="M41,45c0,.552-.448,1-1,1s-1-.448-1-1,1-2,1-2c0,0,1,1.448,1,2Z" style="fill:none; stroke:#222325; stroke-linecap:round; stroke-linejoin:round; stroke-width:2px;"/></g></g></g><g id="h"/><g id="i"/><g id="j"/><g id="k"/><g id="l"/><g id="m"/><g id="n"/><g id="o"/><g id="p"/><g id="q"/><g id="r"/><g id="s"/><g id="t"/><g id="u"/><g id="v"/><g id="w"/><g id="x"/><g id="y"/><g id="a`"/><g id="aa"/><g id="ab"/><g id="ac"/><g id="ad"/><g id="ae"/><g id="af"/></svg>