<?xml version="1.0" encoding="UTF-8"?><svg xmlns="http://www.w3.org/2000/svg" viewBox="0 0 64 64"><g id="a"/><g id="b"/><g id="c"/><g id="d"/><g id="e"/><g id="f"><g><g id="g"><g><g><path d="M35.023,38h-12.047l-9.648,19.424c-.225,.522-.329,1.056-.329,1.576-.001,2.11,1.707,4,4.02,4h23.96c2.313,0,4.021-1.89,4.02-4,0-.52-.104-1.054-.329-1.576l-9.648-19.424Z" style="fill:#c8c2b5;"/><path d="M45,59c0,2.11-1.71,4-4.02,4h-3.3c-5.04-3.9-9.04-13.2-10.76-25h8.1l9.65,19.42c.23,.53,.33,1.06,.33,1.58Z" style="fill:#e7e5e0;"/><polygon points="36.01 40 21.99 40 22.98 38 35.02 38 36.01 40" style="fill:#c8c2b5;"/></g><g><path d="M45,59c0,2.11-1.71,4-4.02,4H17.02c-2.31,0-4.02-1.89-4.02-4,0-.52,.1-1.05,.33-1.58l3.19-6.42h24.96l3.19,6.42c.23,.53,.33,1.06,.33,1.58Z" style="fill:#4e3318;"/><path d="M45,59c0,2.11-1.71,4-4.02,4h-3.3c-2.98-2.31-5.6-6.51-7.59-12h11.39l3.19,6.42c.23,.53,.33,1.06,.33,1.58Z" style="fill:#613f1e;"/></g><g><path d="M35,35c0-3,1-8,4-10H16c-1.657,0-3,1.343-3,3,5.523,0,10,3.134,10,7h12Z" style="fill:#c8c2b5;"/><path d="M39,25c-3,2-4,7-4,10h-8.47c-.34-3.19-.53-6.55-.53-10h13Z" style="fill:#e7e5e0;"/></g><g><path d="M49,53c-1.104,0-2-.896-2-2v-8c0-2.206-1.794-4-4-4h-4c-1.104,0-2-.896-2-2s.896-2,2-2h4c4.411,0,8,3.589,8,8v8c0,1.104-.896,2-2,2Z" style="fill:#202d35;"/><path d="M51,43v8c0,.17-.02,.34-.06,.5-1.7-1.62-2.94-7.05-2.94-13.5,0-.41,.01-.82,.02-1.22,1.82,1.47,2.98,3.71,2.98,6.22Z" style="fill:#273640;"/></g><g><rect x="21" y="35" width="16" height="4" style="fill:#202d35;"/><path d="M37,35v4h-9.93c-.21-1.3-.39-2.63-.54-4h10.47Z" style="fill:#273640;"/></g><g><circle cx="19" cy="58" r="2" style="fill:#613f1e;"/><circle cx="38" cy="55" r="1" style="fill:#856b52;"/></g><g><path d="M25,50c0-1.105-.895-2-2-2s-2,.895-2,2v1h4v-1Z" style="fill:#e7e5e0;"/><path d="M21,51v1c0,1.105,.895,2,2,2s2-.895,2-2v-1h-4Z" style="fill:#613f1e;"/></g><path d="M35,47c-.553,0-1-.448-1-1v-1c0-.552,.447-1,1-1s1,.448,1,1v1c0,.552-.447,1-1,1Z" style="fill:#fff;"/></g><g><g><circle cx="28" cy="11" r="10" style="fill:#415fb5;"/><path d="M38,11c0,1.4-.29,2.74-.82,3.95-1.81,1.88-4.36,3.05-7.18,3.05-5.52,0-10-4.48-10-10,0-1.4,.29-2.74,.82-3.95,1.81-1.88,4.36-3.05,7.18-3.05,5.52,0,10,4.48,10,10Z" style="fill:#577ef2;"/></g><ellipse cx="27" cy="12" rx="5" ry="6" style="fill:#415fb5;"/><g><ellipse cx="28" cy="11" rx="5" ry="6" style="fill:#c69c6d;"/><path d="M29.58,9.67c.63,.48,1.42,1.3,1.42,2.66,0,1.74-1.28,2.59-1.89,3-.04,.02-.07,.05-.11,.07v1.48c-.32,.08-.66,.12-1,.12-1.13,0-2.17-.45-3-1.21v-.79c0-1.36,.79-2.18,1.42-2.67-.63-.48-1.42-1.3-1.42-2.67,0-1.73,1.28-2.58,1.89-2.99,.04-.03,.07-.05,.11-.07v-1.48c.32-.08,.66-.12,1-.12,1.13,0,2.17,.45,3,1.21v.79c0,1.36-.79,2.18-1.42,2.67Z" style="fill:#a67c52;"/><path d="M28,9.66c0,.12,.16,.25,.56,.51,.57,.38,1.44,.96,1.44,2.16s-.87,1.78-1.45,2.17c-.39,.26-.55,.39-.55,.5v2c-.71,0-1.39-.18-2-.5v-1.5c0-1.2,.87-1.78,1.45-2.17,.39-.26,.55-.38,.55-.5,0-.11-.16-.24-.55-.5-.58-.38-1.45-.96-1.45-2.17,0-1.2,.87-1.78,1.45-2.16,.39-.26,.55-.39,.55-.5v-2c.71,0,1.39,.18,2,.5v1.5c0,1.2-.87,1.78-1.45,2.16-.39,.26-.55,.39-.55,.5Z" style="fill:#613f1e;"/></g></g></g><g id="h"><g><path d="M35.023,39h-12.047l-9.648,18.424c-.225,.522-.329,1.056-.329,1.576-.001,2.11,1.707,4,4.02,4h23.96c2.313,0,4.021-1.89,4.02-4,0-.52-.104-1.054-.329-1.576l-9.648-18.424Z" style="fill:none; stroke:#222325; stroke-linecap:round; stroke-linejoin:round; stroke-width:2px;"/><path d="M35,35c0-3,1-8,4-10H16c-1.657,0-3,1.343-3,3,5.523,0,10,3.134,10,7h12Z" style="fill:none; stroke:#222325; stroke-linecap:round; stroke-linejoin:round; stroke-width:2px;"/><rect x="21" y="35" width="16" height="4" style="fill:none; stroke:#222325; stroke-linecap:round; stroke-linejoin:round; stroke-width:2px;"/><path d="M49,53c-1.104,0-2-.896-2-2v-8c0-2.206-1.794-4-4-4h-4c-1.104,0-2-.896-2-2s.896-2,2-2h4c4.411,0,8,3.589,8,8v8c0,1.104-.896,2-2,2Z" style="fill:none; stroke:#222325; stroke-linecap:round; stroke-linejoin:round; stroke-width:2px;"/><line x1="17" y1="51" x2="41" y2="51" style="fill:none; stroke:#222325; stroke-linecap:round; stroke-linejoin:round; stroke-width:2px;"/><g><circle cx="19" cy="58" r="2" style="fill:none; stroke:#222325; stroke-linecap:round; stroke-linejoin:round; stroke-width:2px;"/><circle cx="38" cy="55" r="1" style="fill:none; stroke:#222325; stroke-linecap:round; stroke-linejoin:round; stroke-width:2px;"/><line x1="35" y1="46" x2="35" y2="45" style="fill:none; stroke:#222325; stroke-linecap:round; stroke-linejoin:round; stroke-width:2px;"/></g></g><g><g><path d="M27,17v-2c0-1.334,2-1.334,2-2.668s-2-1.334-2-2.668,2-1.332,2-2.664v-2" style="fill:none; stroke:#222325; stroke-linejoin:round; stroke-width:2px;"/><ellipse cx="28" cy="11" rx="5" ry="6" style="fill:none; stroke:#222325; stroke-linecap:round; stroke-linejoin:round; stroke-width:2px;"/></g><circle cx="28" cy="11" r="10" style="fill:none; stroke:#222325; stroke-linejoin:round; stroke-width:2px;"/></g></g></g></g><g id="i"/><g id="j"/><g id="k"/><g id="l"/><g id="m"/><g id="n"/><g id="o"/><g id="p"/><g id="q"/><g id="r"/><g id="s"/><g id="t"/><g id="u"/><g id="v"/><g id="w"/><g id="x"/><g id="y"/><g id="a`"/><g id="aa"/><g id="ab"/><g id="ac"/><g id="ad"/><g id="ae"/><g id="af"/></svg>