<?xml version="1.0" encoding="UTF-8"?><svg xmlns="http://www.w3.org/2000/svg" viewBox="0 0 64 64"><g id="a"/><g id="b"/><g id="c"/><g id="d"/><g id="e"/><g id="f"/><g id="g"><g><g id="h"><g><path d="M10,9L4,54H50L43.23,2.738c-.131-.995-.979-1.738-1.983-1.738H12c-3.314,0-6,1.791-6,4,2.209,0,4,1,4,4Z" style="fill:#c8c2b5;"/><path d="M50,54h-17.62C23.16,43.13,17,23.46,17,1h24.25c1,0,1.85,.74,1.98,1.74l6.77,51.26Z" style="fill:#e7e5e0;"/></g><g><polygon points="50 54 4 54 7.73 26 46.3 26 50 54" style="fill:#415fb5;"/><path d="M50,54h-17.62c-5.56-6.57-10.02-16.34-12.67-28h26.59l3.7,28Z" style="fill:#577ef2;"/></g><g><polygon points="50 54 45.24 62.57 45 63 9 63 4 54 50 54" style="fill:#202d35;"/><path d="M50,54l-4.76,8.57c-4.67-1.05-9.02-4.05-12.86-8.57h17.62Z" style="fill:#273640;"/></g><path d="M16,54v3c0,1.105,.895,2,2,2s2-.895,2-2v-3h-4Z" style="fill:#273640;"/><g><path d="M50,45h-4c-1.104,0-2-.896-2-2s.896-2,2-2h4c3.309,0,6-2.691,6-6v-14c0-3.309-2.691-6-6-6h-8c-1.104,0-2-.896-2-2s.896-2,2-2h8c5.514,0,10,4.486,10,10v14c0,5.514-4.486,10-10,10Z" style="fill:#202d35;"/><path d="M60,21v14c0,2.78-1.15,5.31-2.99,7.13-.86-.83-1.68-1.92-2.44-3.25,.9-1.04,1.43-2.4,1.43-3.88v-14c0-3.31-2.69-6-6-6h-.91c-.06-1.31-.09-2.65-.09-4h1c5.51,0,10,4.49,10,10Z" style="fill:#273640;"/></g><g><path d="M14,46h-1c-.552,0-1-.448-1-1V23c0-.552,.448-1,1-1h1c.552,0,1,.448,1,1s-.448,1-1,1v20c.552,0,1,.448,1,1s-.448,1-1,1Z" style="fill:#273640;"/><path d="M16,39h-3c-.552,0-1-.448-1-1s.448-1,1-1h3c.552,0,1,.448,1,1s-.448,1-1,1Z" style="fill:#273640;"/><path d="M16,31h-3c-.552,0-1-.448-1-1s.448-1,1-1h3c.552,0,1,.448,1,1s-.448,1-1,1Z" style="fill:#273640;"/></g><g><path d="M42,19c-3.309,0-6-2.691-6-6s2.691-6,6-6c.552,0,1,.448,1,1s-.448,1-1,1c-2.206,0-4,1.794-4,4s1.794,4,4,4c.552,0,1,.448,1,1s-.448,1-1,1Z" style="fill:#c8c2b5;"/><path d="M46,49c-3.309,0-6-2.691-6-6s2.691-6,6-6c.552,0,1,.448,1,1s-.448,1-1,1c-2.206,0-4,1.794-4,4s1.794,4,4,4c.552,0,1,.448,1,1s-.448,1-1,1Z" style="fill:#415fb5;"/></g><g><g><path d="M42,33c-.552,0-1-.448-1-1v-1c0-.552,.448-1,1-1s1,.448,1,1v1c0,.552-.448,1-1,1Z" style="fill:#e7e5e0;"/><path d="M10,50c-.552,0-1-.448-1-1v-1c0-.552,.448-1,1-1s1,.448,1,1v1c0,.552-.448,1-1,1Z" style="fill:#577ef2;"/></g><path d="M38,39c0,1.105-.895,2-2,2s-2-.895-2-2v-2c0-1.105,.895-2,2-2s2,.895,2,2v2Z" style="fill:#e7e5e0;"/><g><path d="M23,22c-1.105,0-2,.895-2,2v2h4v-2c0-1.105-.895-2-2-2Z" style="fill:#fff;"/><path d="M21,28c0,1.105,.895,2,2,2s2-.895,2-2v-2h-4v2Z" style="fill:#415fb5;"/><path d="M27,27c0,.552,.448,1,1,1s1-.448,1-1v-1h-2v1Z" style="fill:#415fb5;"/><path d="M28,25c-.552,0-1,.448-1,1h2c0-.552-.448-1-1-1Z" style="fill:#fff;"/></g></g></g><g id="i"><g><path d="M44.321,11l-1.091-8.262c-.131-.995-.979-1.738-1.983-1.738H12c-3.314,0-6,1.791-6,4,2.209,0,4,1,4,4L4,54H50l-1.189-9" style="fill:none; stroke:#222325; stroke-linecap:round; stroke-linejoin:round; stroke-width:2px;"/><line x1="48.283" y1="41" x2="44.849" y2="15" style="fill:none; stroke:#222325; stroke-linecap:round; stroke-linejoin:round; stroke-width:2px;"/><path d="M16,54v3c0,1.105,.895,2,2,2s2-.895,2-2v-3" style="fill:none; stroke:#222325; stroke-linecap:round; stroke-linejoin:round; stroke-width:2px;"/></g><polyline points="50 54 45 63 9 63 4 54" style="fill:none; stroke:#222325; stroke-linecap:round; stroke-linejoin:round; stroke-width:2px;"/><path d="M50,45h-4c-1.104,0-2-.896-2-2s.896-2,2-2h4c3.309,0,6-2.691,6-6v-14c0-3.309-2.691-6-6-6h-8c-1.104,0-2-.896-2-2s.896-2,2-2h8c5.514,0,10,4.486,10,10v14c0,5.514-4.486,10-10,10Z" style="fill:none; stroke:#222325; stroke-linecap:round; stroke-linejoin:round; stroke-width:2px;"/><g><polyline points="14 23 13 23 13 45 14 45" style="fill:none; stroke:#222325; stroke-linecap:round; stroke-linejoin:round; stroke-width:2px;"/><line x1="13" y1="38" x2="16" y2="38" style="fill:none; stroke:#222325; stroke-linecap:round; stroke-linejoin:round; stroke-width:2px;"/><line x1="13" y1="30" x2="16" y2="30" style="fill:none; stroke:#222325; stroke-linecap:round; stroke-linejoin:round; stroke-width:2px;"/></g><line x1="8" y1="26" x2="46" y2="26" style="fill:none; stroke:#222325; stroke-linecap:round; stroke-linejoin:round; stroke-width:2px;"/><g><line x1="42" y1="32" x2="42" y2="31" style="fill:none; stroke:#222325; stroke-linecap:round; stroke-linejoin:round; stroke-width:2px;"/><line x1="10" y1="49" x2="10" y2="48" style="fill:none; stroke:#222325; stroke-linecap:round; stroke-linejoin:round; stroke-width:2px;"/></g><g><path d="M42,18c-2.761,0-5-2.239-5-5s2.239-5,5-5" style="fill:none; stroke:#222325; stroke-linecap:round; stroke-linejoin:round; stroke-width:2px;"/><path d="M46,48c-2.761,0-5-2.239-5-5s2.239-5,5-5" style="fill:none; stroke:#222325; stroke-linecap:round; stroke-linejoin:round; stroke-width:2px;"/></g><path d="M38,39c0,1.105-.895,2-2,2s-2-.895-2-2v-2c0-1.105,.895-2,2-2s2,.895,2,2v2Z" style="fill:none; stroke:#222325; stroke-linecap:round; stroke-linejoin:round; stroke-width:2px;"/></g></g></g><g id="j"/><g id="k"/><g id="l"/><g id="m"/><g id="n"/><g id="o"/><g id="p"/><g id="q"/><g id="r"/><g id="s"/><g id="t"/><g id="u"/><g id="v"/><g id="w"/><g id="x"/><g id="y"/><g id="a`"/><g id="aa"/><g id="ab"/><g id="ac"/><g id="ad"/><g id="ae"/><g id="af"/></svg>