<?xml version="1.0" encoding="UTF-8"?><svg xmlns="http://www.w3.org/2000/svg" viewBox="0 0 64 64"><g id="a"/><g id="b"/><g id="c"/><g id="d"/><g id="e"/><g id="f"/><g id="g"/><g id="h"><g><g id="i"><g><path d="M57,43h-4c-1.104,0-2-.896-2-2s.896-2,2-2h4c1.103,0,2-.897,2-2v-10c0-3.309-2.691-6-6-6h-8c-1.104,0-2-.896-2-2s.896-2,2-2h8c5.514,0,10,4.486,10,10v10c0,3.309-2.691,6-6,6Z" style="fill:#202d35;"/><path d="M63,27v10c0,2.95-2.13,5.4-4.94,5.9-.96-1.06-1.85-2.38-2.66-3.9h1.6c1.1,0,2-.9,2-2v-10c0-3.31-2.69-6-6-6h-1.92c-.05-.98-.08-1.99-.08-3,0-.34,0-.67,.01-1h1.99c5.51,0,10,4.49,10,10Z" style="fill:#273640;"/></g><path d="M27,10h-2c-.552,0-1-.448-1-1v-2c0-1.103,.897-2,2-2s2,.897,2,2v2c0,.552-.448,1-1,1Z" style="fill:#1d252d;"/><g><path d="M36,12c0-2.209-4.477-4-10-4s-10,1.791-10,4v2h20v-2Z" style="fill:#4e3318;"/><path d="M36,12v2h-12.59c-1.41-1.62-2.26-3.48-2.39-5.47,1.47-.34,3.17-.53,4.98-.53,5.52,0,10,1.79,10,4Z" style="fill:#613f1e;"/></g><g><path d="M12,16v-2c0-1.105,.895-2,2-2h25c1.105,0,2,.895,2,2v2H12Z" style="fill:#202d35;"/><path d="M41,14v2h-15.41c-1.55-1.14-2.77-2.5-3.56-4h16.97c1.1,0,2,.9,2,2Z" style="fill:#273640;"/></g><g><path d="M8,49v4c0,2.761,8.507,5,19,5s19-2.239,19-5v-4H8Z" style="fill:#1d252d;"/><path d="M46,49v4c0,1.58-2.79,2.99-7.16,3.91-5.23-1.41-10.03-4.15-14.11-7.91h21.27Z" style="fill:#202d35;"/></g><g><path d="M7,23.021c-2.927,5.783-6,8.979-6,20.979,0,1,0,4,4,6,4,2,13,4,22,4,9,0,18-2,22-4,4-2,4-5,4-6,0-15-5-24-11-29H10c-3.314,0-6,1.791-6,4,2,0,3,1.791,3,4v.021Z" style="fill:#c8c2b5;"/><path d="M53,44c0,1,0,4-4,6-3.35,1.68-10.21,3.35-17.64,3.84-12.05-6.79-20.36-21.18-20.36-37.84,0-.34,0-.67,.01-1h30.99c6,5,11,14,11,29Z" style="fill:#e7e5e0;"/></g><g><path d="M53,44c0,1,0,4-4,6s-13,4-22,4-18-2-22-4-4-5-4-6c0-6.81,.99-10.78,2.38-14H51.23c1.12,3.94,1.77,8.58,1.77,14Z" style="fill:#4e3318;"/><path d="M53,44c0,1,0,4-4,6-3.35,1.68-10.21,3.35-17.64,3.84-8.49-4.79-15.13-13.36-18.31-23.84H51.23c1.12,3.94,1.77,8.58,1.77,14Z" style="fill:#613f1e;"/></g><g><path d="M41,26c0,1.105-.895,2-2,2s-2-.895-2-2v-2c0-1.105,.895-2,2-2s2,.895,2,2v2Z" style="fill:#fff;"/><path d="M10,40c-.552,0-1-.448-1-1v-1c0-.552,.448-1,1-1s1,.448,1,1v1c0,.552-.448,1-1,1Z" style="fill:#613f1e;"/><circle cx="17" cy="45" r="2" style="fill:#613f1e;"/><g><path d="M27,29c0-1.105-.895-2-2-2s-2,.895-2,2v1h4v-1Z" style="fill:#fff;"/><path d="M23,30v2c0,1.105,.895,2,2,2s2-.895,2-2v-2h-4Z" style="fill:#856b52;"/></g></g></g><g id="j"><g><g><path d="M7,23.021c-2.927,5.783-6,8.979-6,20.979,0,1,0,4,4,6,4,2,13,4,22,4,9,0,18-2,22-4,4-2,4-5,4-6,0-15-5-24-11-29H10c-3.314,0-6,1.791-6,4,2,0,3,1.791,3,4v.021Z" style="fill:none; stroke:#222325; stroke-linecap:round; stroke-linejoin:round; stroke-width:2px;"/><path d="M8,51v2c0,2.761,8.507,5,19,5s19-2.239,19-5v-2" style="fill:none; stroke:#222325; stroke-linejoin:round; stroke-width:2px;"/></g><path d="M12,15v-1c0-1.105,.895-2,2-2h25c1.105,0,2,.895,2,2v1" style="fill:none; stroke:#222325; stroke-linecap:round; stroke-linejoin:round; stroke-width:2px;"/><path d="M16,12c0-2.209,4.477-4,10-4s10,1.791,10,4" style="fill:none; stroke:#222325; stroke-linecap:round; stroke-linejoin:round; stroke-width:2px;"/><path d="M25,8v-1c0-.552,.448-1,1-1s1,.448,1,1v1" style="fill:none; stroke:#222325; stroke-linecap:round; stroke-linejoin:round; stroke-width:2px;"/><line x1="3" y1="30" x2="51" y2="30" style="fill:none; stroke:#222325; stroke-linejoin:round; stroke-width:2px;"/><g><path d="M41,26c0,1.105-.895,2-2,2s-2-.895-2-2v-2c0-1.105,.895-2,2-2s2,.895,2,2v2Z" style="fill:none; stroke:#222325; stroke-linecap:round; stroke-linejoin:round; stroke-width:2px;"/><line x1="10" y1="39" x2="10" y2="38" style="fill:none; stroke:#222325; stroke-linecap:round; stroke-linejoin:round; stroke-width:2px;"/><circle cx="17" cy="45" r="2" style="fill:none; stroke:#222325; stroke-linecap:round; stroke-linejoin:round; stroke-width:2px;"/></g></g><g><path d="M53,39h4c1.103,0,2-.897,2-2v-10c0-3.309-2.691-6-6-6h-6" style="fill:none; stroke:#222325; stroke-linejoin:round; stroke-width:2px;"/><path d="M44,17h9c5.514,0,10,4.486,10,10v10c0,3.309-2.691,6-6,6h-4" style="fill:none; stroke:#222325; stroke-linejoin:round; stroke-width:2px;"/></g></g></g></g><g id="k"/><g id="l"/><g id="m"/><g id="n"/><g id="o"/><g id="p"/><g id="q"/><g id="r"/><g id="s"/><g id="t"/><g id="u"/><g id="v"/><g id="w"/><g id="x"/><g id="y"/><g id="a`"/><g id="aa"/><g id="ab"/><g id="ac"/><g id="ad"/><g id="ae"/><g id="af"/></svg>