<?xml version="1.0" encoding="UTF-8"?><svg xmlns="http://www.w3.org/2000/svg" viewBox="0 0 64 64"><g id="a"/><g id="b"/><g id="c"/><g id="d"/><g id="e"/><g id="f"/><g id="g"/><g id="h"/><g id="i"><g><g id="j"><g><path d="M34,18h-3c-.552,0-1-.448-1-1s.448-1,1-1h3c.552,0,1,.448,1,1s-.448,1-1,1Z" style="fill:#1d252d;"/><rect x="33" y="15" width="8" height="4" rx="1" ry="1" style="fill:#202d35;"/><path d="M60,20h-22v-6h22c1.657,0,3,1.343,3,3s-1.343,3-3,3Z" style="fill:#4e3318;"/><path d="M63,17c0,.75-.28,1.44-.73,1.96-.75,.03-1.5,.04-2.27,.04-9.51,0-17.55-2.11-20.13-5h20.13c1.66,0,3,1.34,3,3Z" style="fill:#613f1e;"/></g><g><path d="M17,22v4c0,.552,.448,1,1,1h2c.552,0,1-.448,1-1v-4h-4Z" style="fill:#613f1e;"/><path d="M21,22c5.523,0,10,4.477,10,10h-4c0-3.314-2.686-6-6-6v-4Z" style="fill:#273640;"/><g><path d="M33,12c-1.105,0-2,.895-2,2v8c0,1.105-.895,2-2,2H9c-1.105,0-2-.895-2-2V14c0-1.105-.895-2-2-2h28Z" style="fill:#a67c52;"/><path d="M33,12c-1.1,0-2,.9-2,2v8c0,1.1-.9,2-2,2h-8.4c-2.44-3.35-4.22-7.45-5.05-12h17.45Z" style="fill:#c69c6d;"/><path d="M33,12c-.74,0-1.38,.4-1.73,1H6.73c-.35-.6-.99-1-1.73-1h28Z" style="fill:#a67c52;"/></g><g><rect x="1" y="5" width="36" height="4" style="fill:#1d252d;"/><path d="M37,5v4H15.13c-.08-.98-.13-1.98-.13-3,0-.34,0-.67,.02-1h21.98Z" style="fill:#202d35;"/></g><g><path d="M34,9v2c0,.55-.45,1-1,1H5c-.55,0-1-.45-1-1v-2h30Z" style="fill:#202d35;"/><path d="M34,9v2c0,.55-.45,1-1,1H15.55c-.19-.98-.32-1.98-.42-3h18.87Z" style="fill:#273640;"/></g><path d="M27,19c-.552,0-1-.448-1-1v-1c0-.552,.448-1,1-1s1,.448,1,1v1c0,.552-.448,1-1,1Z" style="fill:#273640;"/></g><g><g><circle cx="29" cy="49" r="10" style="fill:#c8c2b5;"/><path d="M39,49c0,1.4-.29,2.74-.82,3.95-1.81,1.88-4.36,3.05-7.18,3.05-5.52,0-10-4.48-10-10,0-1.4,.29-2.74,.82-3.95,1.81-1.88,4.36-3.05,7.18-3.05,5.52,0,10,4.48,10,10Z" style="fill:#e7e5e0;"/></g><path d="M31,51c0,1.657-1.343,3-3,3s-3-1.343-3-3c0-3,3-5,3-5,0,0,3,2,3,5Z" style="fill:#c8c2b5;"/><g><path d="M32,50c0,1.657-1.343,3-3,3s-3-1.343-3-3c0-3,3-5,3-5,0,0,3,2,3,5Z" style="fill:#4e3318;"/><path d="M32,50c0,.3-.05,.6-.13,.87-.27,.08-.57,.13-.87,.13-1.66,0-3-1.34-3-3,0-1.17,.46-2.19,1.01-2.99,.21,.14,2.99,2.1,2.99,4.99Z" style="fill:#613f1e;"/></g></g></g><g id="k"><g><g><rect x="1" y="5" width="36" height="4" style="fill:none; stroke:#222325; stroke-linecap:round; stroke-linejoin:round; stroke-width:2px;"/><path d="M4,9v2c0,.552,.448,1,1,1h28c.552,0,1-.448,1-1v-2" style="fill:none; stroke:#222325; stroke-linecap:round; stroke-linejoin:round; stroke-width:2px;"/><path d="M33,12c-1.105,0-2,.895-2,2v8c0,1.105-.895,2-2,2H9c-1.105,0-2-.895-2-2V14c0-1.105-.895-2-2-2" style="fill:none; stroke:#222325; stroke-linecap:round; stroke-linejoin:round; stroke-width:2px;"/><path d="M17,24v2c0,.552,.448,1,1,1h2c.552,0,1-.448,1-1v-2" style="fill:none; stroke:#222325; stroke-linecap:round; stroke-linejoin:round; stroke-width:2px;"/></g><line x1="27" y1="18" x2="27" y2="17" style="fill:none; stroke:#222325; stroke-linecap:round; stroke-linejoin:round; stroke-width:2px;"/><g><line x1="31" y1="17" x2="34" y2="17" style="fill:none; stroke:#222325; stroke-linecap:round; stroke-linejoin:round; stroke-width:2px;"/><polyline points="38 16 34 16 34 18 38 18" style="fill:none; stroke:#222325; stroke-linecap:round; stroke-linejoin:round; stroke-width:2px;"/><path d="M60,20h-22v-6h22c1.657,0,3,1.343,3,3s-1.343,3-3,3Z" style="fill:none; stroke:#222325; stroke-linecap:round; stroke-linejoin:round; stroke-width:2px;"/></g><path d="M27.001,24c2.428,1.824,3.999,4.729,3.999,8h-4c0-3.314-2.686-6-6-6v-2" style="fill:none; stroke:#222325; stroke-linecap:round; stroke-linejoin:round; stroke-width:2px;"/></g><g><circle cx="29" cy="49" r="10" style="fill:none; stroke:#222325; stroke-linecap:round; stroke-linejoin:round; stroke-width:2px;"/><path d="M32,50c0,1.657-1.343,3-3,3s-3-1.343-3-3c0-3,3-5,3-5,0,0,3,2,3,5Z" style="fill:none; stroke:#222325; stroke-linecap:round; stroke-linejoin:round; stroke-width:2px;"/></g></g></g></g><g id="l"/><g id="m"/><g id="n"/><g id="o"/><g id="p"/><g id="q"/><g id="r"/><g id="s"/><g id="t"/><g id="u"/><g id="v"/><g id="w"/><g id="x"/><g id="y"/><g id="a`"/><g id="aa"/><g id="ab"/><g id="ac"/><g id="ad"/><g id="ae"/><g id="af"/></svg>