<?xml version="1.0" encoding="UTF-8"?>
<svg id="a" data-name="FLAT COLORED" xmlns="http://www.w3.org/2000/svg" width="2000" height="2000" viewBox="0 0 2000 2000">
  <path d="m1303.335,1405.85c-54.39,0-98.639-44.249-98.639-98.639v-101.359c0-22.34-18.175-40.514-40.515-40.514h-117.679v-58.124h117.679c54.389,0,98.639,44.249,98.639,98.638v101.359c0,22.34,18.175,40.515,40.515,40.515s40.515-18.175,40.515-40.515v-378.806h58.124v378.806c0,54.39-44.249,98.639-98.638,98.639Z" fill="#fff" stroke-width="0"/>
  <g>
    <path d="m1378.644,1052.579c-4.771,2.555-10.542,2.319-15.111-.58-233.166-147.814-40.132-365.851,52.939-452.222,3.743-3.476,8.674-2.695,11.626.156,2.272,2.185,3.373,5.59,1.884,9.221-16.257,39.654-24.752,103.778,22.082,189.061,59.434,108.222,17.377,179.962-25.222,219.797-18.897,17.665-37.898,29.054-48.197,34.568Z" fill="#54b646" stroke-width="0"/>
    <path d="m1426.841,1018.012c-.956.527-1.859,1.021-2.702,1.472-4.771,2.555-10.542,2.319-15.111-.58-207.356-131.454-77.648-318.439,19.069-418.971,2.272,2.185,3.373,5.59,1.884,9.221-16.257,39.654-24.752,103.778,22.082,189.061,59.434,108.222,17.377,179.962-25.222,219.797Z" fill="#54e346" stroke-width="0"/>
    <path d="m1377.58,740.699s-23.115,77.374,11.138,146.66c34.253,69.286-10.07,165.218-10.07,165.218,0,0,10.96-77.046-27.613-148.572-38.573-71.526,26.546-163.306,26.546-163.306Z" fill="#54b646" stroke-width="0"/>
  </g>
  <polygon points="1103.669 912.61 1060.632 1382.288 1053.42 1460.967 676.529 1460.967 626.28 912.61 1103.669 912.61" fill="#54b646" stroke-width="0"/>
  <path d="m1103.669,912.61l-43.037,469.678h-263.66c-24.571,0-45.135-20.061-47.547-46.384l-38.786-423.294h393.03Z" fill="#54e346" stroke-width="0"/>
  <g>
    <polygon points="948.076 1223.891 810.846 1396.294 854.981 1261.127 781.873 1261.127 852.219 1116.309 948.076 1116.309 883.942 1223.891 948.076 1223.891" fill="#fddb3a" stroke-width="0"/>
    <path d="m810.846,1396.294l44.135-135.167h-63.596c14.274-1.175,44.947-7.675,94.157-37.235h62.534l-137.23,172.403Z" fill="#ffb433" stroke-width="0"/>
  </g>
  <path d="m1128.43,1517.229h-527.934v-21.301c0-25.367,20.564-45.931,45.931-45.931h436.072c25.367,0,45.931,20.564,45.931,45.931v21.301Z" fill="#ffb433" stroke-width="0"/>
  <rect x="518.494" y="568.292" width="692.969" height="498.556" rx="116.912" ry="116.912" fill="#6ad2ff" stroke-width="0"/>
  <path d="m1211.464,685.204v262.761h-439.135c-64.465,0-116.911-52.446-116.911-116.912v-262.76h439.135c64.466,0,116.912,52.446,116.912,116.912Z" fill="#a6fbff" stroke-width="0"/>
  <path d="m1128.43,685.204v264.732c0,18.703-15.174,33.878-33.878,33.878h-459.146c-18.714,0-33.878-15.175-33.878-33.878v-264.732c0-18.703,15.164-33.878,33.878-33.878h459.146c18.703,0,33.878,15.175,33.878,33.878Z" fill="#a6fbff" stroke-width="0"/>
  <path d="m1128.43,685.204v264.732c0,18.703-15.174,33.878-33.878,33.878h-405.257c-18.714,0-33.878-15.175-33.878-33.878v-264.732c0-18.703,15.164-33.878,33.878-33.878h405.257c18.703,0,33.878,15.175,33.878,33.878Z" fill="#fff" stroke-width="0"/>
  <path d="m1128.43,781.482v168.455c0,18.703-15.174,33.878-33.878,33.878h-459.146c-18.714,0-33.878-15.175-33.878-33.878v-168.455h526.902Z" fill="#ffb433" stroke-width="0"/>
  <path d="m1128.43,781.482v148.444h-439.124c-18.714,0-33.888-15.185-33.888-33.888v-114.555h473.013Z" fill="#fddb3a" stroke-width="0"/>
  <rect x="948.076" y="834.77" width="123.692" height="50.25" fill="#54e346" stroke-width="0"/>
  <path d="m1128.425,533.557v34.736h-502.142v-34.736c0-28.046,22.73-50.787,50.777-50.787h400.589c28.046,0,50.776,22.74,50.776,50.787Z" fill="#54b646" stroke-width="0"/>
  <path d="m1128.425,533.557v34.736h-425.716v-34.736c0-28.046,22.74-50.787,50.787-50.787h324.153c28.046,0,50.776,22.74,50.776,50.787Z" fill="#54e346" stroke-width="0"/>
  <path d="m986.195,535.532h-162.765c-5.523,0-10-4.477-10-10s4.477-10,10-10h162.765c5.523,0,10,4.477,10,10s-4.477,10-10,10Z" fill="#fff" stroke-width="0"/>
  <path d="m1033.668,535.532h-7.63c-5.522,0-10-4.477-10-10s4.478-10,10-10h7.63c5.522,0,10,4.477,10,10s-4.478,10-10,10Z" fill="#fff" stroke-width="0"/>
  <path d="m558.091,827.57c-5.523,0-10-4.477-10-10v-100.153c0-5.523,4.477-10,10-10s10,4.477,10,10v100.153c0,5.523-4.477,10-10,10Z" fill="#fff" stroke-width="0"/>
  <path d="m558.091,862.772c-5.523,0-10-4.477-10-10v-7.63c0-5.523,4.477-10,10-10s10,4.477,10,10v7.63c0,5.523-4.477,10-10,10Z" fill="#fff" stroke-width="0"/>
  <path d="m1016.725,1392.289c-.336,0-.675-.017-1.016-.052-5.495-.554-9.5-5.458-8.945-10.954l12.717-125.986c.554-5.495,5.471-9.503,10.953-8.945,5.495.554,9.5,5.458,8.945,10.954l-12.717,125.986c-.52,5.153-4.866,8.997-9.938,8.997Z" fill="#fff" stroke-width="0"/>
  <path d="m1031.561,1226.026c-.514,0-1.033-.04-1.557-.121-5.456-.853-9.189-5.967-8.336-11.424l2.119-13.564c.853-5.457,5.97-9.186,11.424-8.337,5.456.852,9.189,5.967,8.336,11.424l-2.119,13.564c-.771,4.934-5.026,8.458-9.867,8.458Z" fill="#fff" stroke-width="0"/>
  <path d="m1442.557,906.571c-5.522,0-10-4.477-10-10,0-27.016-15.629-56.811-15.786-57.109-2.585-4.877-.732-10.929,4.142-13.519,4.876-2.59,10.923-.744,13.517,4.128.74,1.39,18.128,34.419,18.128,66.5,0,5.523-4.477,10-10,10Z" fill="#fff" stroke-width="0"/>
  <path d="m1410.344,814.389c-4.064,0-7.884-2.496-9.378-6.529l-2.826-7.629c-1.919-5.179.725-10.933,5.903-12.851,5.176-1.918,10.932.724,12.851,5.904l2.826,7.629c1.919,5.179-.725,10.933-5.903,12.851-1.145.424-2.318.626-3.473.626Z" fill="#fff" stroke-width="0"/>
</svg>