<?xml version="1.0" encoding="UTF-8"?>
<svg id="a" data-name="FLAT COLORED" xmlns="http://www.w3.org/2000/svg" width="2000" height="2000" viewBox="0 0 2000 2000">
  <g>
    <g>
      <path d="m693.688,960.825c34.76,142.35,179.17,417.11,296.27,483.31,96.03,54.3,168,17.8,188.69-36.82,6.07-16.02,7.76-34.93,5.49-54.88-5.47-48.07-33.94-102.21-79.56-136.71-64.55-48.83-103.86-169.66-80.27-225.52,20.96-49.65,63.18-106.17,69.4-170.43,1.65-17.12-.23-34.37-5.72-50.67-13.27-39.44-53.58-109.52-172.51-109.52-47.8,0-89.39,13.25-123.53,35.53-84.08,54.87-122.98,164.48-98.26,265.71Z" fill="#fddb3a" stroke-width="0"/>
      <ellipse cx="1053.575" cy="540.084" rx="96.207" ry="74.732" transform="translate(144.387 1298.43) rotate(-66.972)" fill="#fddb3a" stroke-width="0"/>
      <ellipse cx="908.976" cy="536.573" rx="76.157" ry="55.573" transform="translate(177.145 1297.212) rotate(-76.659)" fill="#fddb3a" stroke-width="0"/>
      <ellipse cx="787.537" cy="576.922" rx="50.766" ry="69.57" transform="translate(-50.431 76.06) rotate(-5.358)" fill="#fddb3a" stroke-width="0"/>
      <ellipse cx="691.807" cy="645.138" rx="45.445" ry="62.277" transform="translate(-158.788 231.269) rotate(-17.055)" fill="#fddb3a" stroke-width="0"/>
      <ellipse cx="627.261" cy="738.463" rx="43.069" ry="59.022" transform="translate(-188.997 216.441) rotate(-17.055)" fill="#fddb3a" stroke-width="0"/>
      <path d="m693.688,960.825c34.76,142.35,179.17,417.11,296.27,483.31,96.03,54.3,168,17.8,188.69-36.82,6.07-16.02,7.76-34.93,5.49-54.88-32.14,21.95-95.22,48.85-172.24-.99-112.56-72.82-367.394-461.789-219.95-656.33-84.08,54.87-122.98,164.48-98.26,265.71Z" fill="#ffb433" stroke-width="0"/>
      <g>
        <g>
          <path d="m1125.678,1265.675c-8.036,1.588-16.286-1.305-21.619-7.522-272.175-317.09,103.686-547.365,276.614-631.243,6.955-3.377,13.749-.065,16.762,5.366,2.323,4.167,2.41,9.584-1.351,14.182-41.07,50.216-81.724,139.288-51.638,283.456,38.182,182.948-54.426,268.204-133.709,307.033-35.167,17.217-67.711,25.301-85.058,28.728Z" fill="#54b646" stroke-width="0"/>
          <path d="m1210.737,1236.947c-1.616.34-3.142.657-4.562.936-8.036,1.588-16.286-1.305-21.619-7.522-242.046-281.993,28.412-495.321,212.879-598.085,2.323,4.167,2.41,9.584-1.351,14.182-41.07,50.216-81.724,139.288-51.638,283.456,38.182,182.948-54.426,268.204-133.709,307.033Z" fill="#54e346" stroke-width="0"/>
          <path d="m1262.055,813.716s-67.677,101.787-48.731,217.235c18.946,115.448-87.639,234.723-87.639,234.723,0,0,49.937-106.688,25.726-227.289-24.211-120.601,110.644-224.669,110.644-224.669Z" fill="#54b646" stroke-width="0"/>
        </g>
        <path d="m1057.674,1056.334c-5.056,0-9.394-3.816-9.932-8.955-.402-3.837-9.224-94.715,44.401-158.76,3.547-4.236,9.853-4.793,14.087-1.247,4.234,3.545,4.793,9.852,1.247,14.087-48.098,57.444-39.932,142.989-39.844,143.847.564,5.49-3.426,10.404-8.915,10.974-.351.037-.7.055-1.045.055Z" fill="#fff" stroke-width="0"/>
        <path d="m1131.981,862.289c-1.858,0-3.736-.517-5.413-1.599-4.64-2.995-5.974-9.184-2.979-13.825l3.86-5.981c2.996-4.639,9.186-5.973,13.825-2.979,4.64,2.995,5.974,9.185,2.979,13.825l-3.86,5.981c-1.913,2.963-5.129,4.578-8.412,4.578Z" fill="#fff" stroke-width="0"/>
      </g>
      <g>
        <path d="m1417.416,1379.613c0,34.08-9.82,65.87-26.8,92.68-30.75,48.61-84.99,80.89-146.77,80.89-95.86,0-173.57-77.71-173.57-173.57,0-61.78,32.27-116.02,80.88-146.78,26.81-16.97,58.6-26.8,92.69-26.8,95.86,0,173.57,77.71,173.57,173.58Z" fill="#6ad2ff" stroke-width="0"/>
        <path d="m1417.416,1379.613c0,34.08-9.82,65.87-26.8,92.68-26.81,16.98-58.6,26.8-92.68,26.8-95.87,0-173.58-77.71-173.58-173.57,0-34.09,9.83-65.88,26.8-92.69,26.81-16.97,58.6-26.8,92.69-26.8,95.86,0,173.57,77.71,173.57,173.58Z" fill="#a6fbff" stroke-width="0"/>
      </g>
    </g>
    <path d="m784.067,1027.009c-3.655,0-7.177-2.012-8.936-5.498-36.073-71.509-40.66-131.05-38.155-168.406,2.753-41.066,14.294-65.065,14.784-66.067,2.425-4.962,8.415-7.018,13.377-4.588,4.953,2.423,7.009,8.397,4.601,13.353-.148.308-10.551,22.337-12.88,59.773-2.156,34.643,2.362,89.99,36.131,156.928,2.487,4.931.506,10.944-4.425,13.433-1.444.729-2.981,1.073-4.496,1.073Z" fill="#fff" stroke-width="0"/>
    <path d="m810.001,1072.013c-3.322,0-6.571-1.654-8.472-4.673l-7.035-11.173c-2.943-4.673-1.54-10.848,3.134-13.79,4.674-2.943,10.848-1.539,13.79,3.134l7.035,11.173c2.943,4.673,1.54,10.848-3.134,13.79-1.654,1.042-3.498,1.539-5.318,1.539Z" fill="#fff" stroke-width="0"/>
    <path d="m1055.793,598.86c-3.341,0-6.604-1.672-8.499-4.717-2.916-4.685-1.486-10.845,3.193-13.767.457-.288,35.618-22.691,34.613-49.487-.207-5.52,4.1-10.161,9.618-10.368,5.521-.213,10.161,4.099,10.368,9.618,1.441,38.46-42.162,66.054-44.02,67.209-1.644,1.024-3.471,1.512-5.274,1.512Z" fill="#fff" stroke-width="0"/>
    <path d="m1088.641,504.104c-3.523,0-6.94-1.866-8.764-5.17l-3.883-7.035c-2.669-4.835-.912-10.918,3.923-13.587,4.833-2.669,10.918-.912,13.587,3.923l3.883,7.035c2.669,4.835.912,10.918-3.923,13.587-1.531.846-3.19,1.247-4.823,1.247Z" fill="#fff" stroke-width="0"/>
    <path d="m1358.966,1320.93c-3.354,0-6.63-1.686-8.521-4.75-22.146-35.893-65.286-57.592-65.72-57.807-4.943-2.454-6.969-8.451-4.52-13.397,2.449-4.947,8.441-6.976,13.386-4.53,1.976.976,48.657,24.362,73.875,65.232,2.899,4.7,1.44,10.861-3.26,13.762-1.636,1.009-3.45,1.49-5.241,1.49Z" fill="#fff" stroke-width="0"/>
    <path d="m1253.174,1250.172c-.648,0-1.307-.064-1.967-.195l-9.314-1.858c-5.416-1.08-8.931-6.346-7.851-11.763,1.08-5.416,6.342-8.935,11.763-7.851l9.314,1.857c5.416,1.08,8.931,6.346,7.851,11.763-.948,4.756-5.125,8.046-9.796,8.046Z" fill="#fff" stroke-width="0"/>
  </g>
  <g>
    <path d="m1185.373,1414.114c0,1.251-.037,2.314-.112,3.188-.075.876-.188,1.626-.338,2.25-.149.626-.351,1.163-.6,1.613-.251.45-.65.963-1.2,1.537-.551.576-1.612,1.312-3.188,2.213-1.575.9-3.501,1.762-5.775,2.587-2.275.825-4.875,1.512-7.8,2.062-2.925.55-6.088.825-9.487.825-6.651,0-12.651-1.025-18.001-3.075-5.351-2.05-9.899-5.112-13.65-9.188-3.75-4.075-6.625-9.162-8.625-15.263-2-6.1-3-13.2-3-21.3,0-8.25,1.1-15.575,3.301-21.975,2.199-6.4,5.274-11.775,9.225-16.125,3.949-4.35,8.688-7.65,14.213-9.9,5.524-2.25,11.612-3.375,18.263-3.375,2.7,0,5.299.225,7.8.675,2.5.45,4.812,1.038,6.938,1.763,2.125.726,4.037,1.563,5.738,2.513,1.699.95,2.888,1.762,3.562,2.438.675.675,1.137,1.237,1.388,1.688.249.45.449,1.025.6,1.725.15.701.263,1.526.338,2.475.074.95.112,2.125.112,3.525,0,1.5-.051,2.775-.15,3.825-.101,1.05-.275,1.9-.524,2.55-.251.65-.551,1.125-.9,1.425-.351.3-.75.45-1.2.45-.75,0-1.7-.437-2.85-1.312-1.151-.874-2.639-1.849-4.463-2.925-1.826-1.075-4.001-2.05-6.525-2.925-2.525-.874-5.538-1.312-9.037-1.312-3.851,0-7.288.788-10.312,2.363-3.026,1.575-5.601,3.825-7.726,6.75-2.126,2.925-3.738,6.463-4.838,10.612-1.1,4.151-1.649,8.826-1.649,14.025,0,5.7.587,10.639,1.763,14.813,1.174,4.175,2.85,7.612,5.024,10.312,2.176,2.7,4.801,4.713,7.875,6.038,3.075,1.325,6.537,1.987,10.388,1.987,3.5,0,6.525-.412,9.075-1.237,2.551-.825,4.737-1.737,6.562-2.738,1.825-.999,3.325-1.899,4.501-2.7,1.174-.799,2.087-1.2,2.737-1.2.499,0,.9.101,1.2.3.3.201.549.6.75,1.2.199.6.349,1.438.449,2.513.1,1.076.15,2.512.15,4.312Z" fill="#54b646" stroke-width="0"/>
    <path d="m1285.724,1379.163c0,8.051-1.001,15.251-3.001,21.601-2,6.351-4.976,11.737-8.925,16.163-3.95,4.425-8.838,7.8-14.662,10.125-5.826,2.325-12.564,3.488-20.213,3.488-7.551,0-14.138-.988-19.764-2.962-5.625-1.975-10.312-4.988-14.062-9.038-3.75-4.05-6.562-9.199-8.438-15.45-1.875-6.249-2.812-13.65-2.812-22.2,0-7.849,1-14.912,3-21.188,1.999-6.274,4.975-11.612,8.925-16.013,3.95-4.399,8.838-7.774,14.663-10.125,5.824-2.35,12.588-3.525,20.288-3.525,7.35,0,13.838.975,19.463,2.925,5.625,1.95,10.324,4.95,14.1,9,3.775,4.05,6.625,9.163,8.551,15.338,1.924,6.176,2.888,13.463,2.888,21.863Zm-20.701,1.05c0-5.1-.4-9.737-1.199-13.913-.801-4.174-2.164-7.75-4.088-10.725-1.926-2.974-4.488-5.274-7.688-6.9-3.2-1.625-7.2-2.438-12-2.438-4.851,0-8.901.913-12.15,2.737-3.251,1.826-5.876,4.264-7.875,7.313-2.001,3.05-3.413,6.613-4.238,10.688-.824,4.076-1.237,8.388-1.237,12.938,0,5.301.399,10.063,1.2,14.288.799,4.226,2.149,7.837,4.05,10.837,1.9,3,4.45,5.288,7.65,6.863,3.199,1.575,7.225,2.362,12.075,2.362s8.899-.9,12.15-2.7c3.249-1.8,5.874-4.249,7.875-7.35,1.999-3.1,3.412-6.712,4.237-10.837s1.237-8.513,1.237-13.163Z" fill="#54b646" stroke-width="0"/>
    <path d="m1363.426,1420.789c0,1.451-.064,2.688-.188,3.712-.125,1.025-.312,1.863-.562,2.513-.251.65-.575,1.113-.976,1.387-.4.275-.851.413-1.35.413h-55.801c-1.101,0-2.051-.1-2.85-.3-.801-.199-1.451-.587-1.95-1.163-.501-.574-.862-1.412-1.088-2.513-.225-1.099-.337-2.524-.337-4.275,0-1.65.074-3.062.225-4.238.15-1.174.424-2.224.825-3.15.399-.925.911-1.825,1.537-2.7.625-.874,1.437-1.837,2.438-2.887l16.801-18.001c3.349-3.499,6.049-6.687,8.1-9.562,2.05-2.875,3.649-5.5,4.8-7.875,1.15-2.374,1.938-4.562,2.363-6.562.424-1.999.637-3.9.637-5.7,0-1.65-.262-3.212-.787-4.688-.525-1.474-1.301-2.762-2.325-3.862-1.025-1.099-2.314-1.962-3.862-2.587-1.551-.625-3.375-.938-5.476-.938-2.95,0-5.562.376-7.837,1.126-2.276.75-4.275,1.588-6,2.512-1.726.926-3.163,1.775-4.312,2.55-1.151.775-2.051,1.163-2.7,1.163-.45,0-.838-.15-1.163-.45-.325-.3-.588-.799-.787-1.5-.2-.7-.363-1.637-.487-2.812-.126-1.174-.188-2.612-.188-4.312,0-1.15.037-2.112.112-2.888.075-.774.188-1.45.338-2.025.149-.574.349-1.075.6-1.5.25-.424.686-.938,1.312-1.538.625-.6,1.774-1.362,3.45-2.288,1.675-.925,3.737-1.825,6.188-2.7,2.449-.874,5.149-1.612,8.1-2.212s6.025-.9,9.226-.9c5.05,0,9.462.637,13.237,1.913,3.775,1.275,6.912,3.05,9.413,5.325,2.5,2.276,4.361,4.976,5.588,8.1,1.225,3.126,1.837,6.488,1.837,10.088,0,3.15-.3,6.251-.899,9.3-.601,3.05-1.851,6.337-3.75,9.862-1.901,3.525-4.575,7.425-8.025,11.7-3.45,4.275-8.025,9.238-13.726,14.888l-11.325,11.626h38.251c.499,0,.962.15,1.388.45.424.3.787.763,1.087,1.388.301.626.525,1.451.676,2.475.149,1.025.225,2.238.225,3.638Z" fill="#54b646" stroke-width="0"/>
  </g>
</svg>