<?xml version="1.0" encoding="UTF-8"?>
<svg id="a" data-name="FLAT COLORED" xmlns="http://www.w3.org/2000/svg" width="2000" height="2000" viewBox="0 0 2000 2000">
  <rect x="1266.721" y="560.555" width="102.657" height="583.135" fill="#a6fbff" stroke-width="0"/>
  <g>
    <rect x="1014.419" y="632.279" width="252.859" height="508.918" fill="#6ad2ff" stroke-width="0"/>
    <rect x="1055.754" y="671.451" width="173.389" height="54.937" fill="#a6fbff" stroke-width="0"/>
    <rect x="1055.754" y="761.51" width="173.389" height="54.937" fill="#a6fbff" stroke-width="0"/>
  </g>
  <g>
    <path d="m1565.595,551.119s-24.384,29.263-99.992,21.341c0,0-31.697,18.897-70.719,11.584-39.021-7.313-53.658-31.708-53.658-31.708,0,0-3.256,55.345-87.395,42.683-59.423-8.947-54.576-41.359-46.601-59.637,3.31-7.601,7.175-12.758,7.175-12.758,0,0-17.071-69.064,46.953-88.569,64.014-19.516,88.398,19.505,88.398,19.505,0,0,47.562-24.384,90.245,7.324,42.672,31.708,42.672,61.74,42.672,61.74,0,0,2.498,2.221,6.918,5.445,13.292,9.726,43.964,28.537,76.003,23.05Z" fill="#ffb433" stroke-width="0"/>
    <path d="m1489.593,528.07c-4.943-.224-10.132-.619-15.577-1.185,0,0-33.683,20.082-75.149,12.31-41.455-7.772-57.01-33.683-57.01-33.683,0,0-3.448,58.793-92.85,45.341-20.22-3.043-33.427-8.637-41.776-15.47,3.31-7.601,7.175-12.758,7.175-12.758,0,0-17.071-69.064,46.953-88.569,64.014-19.516,88.398,19.505,88.398,19.505,0,0,47.562-24.384,90.245,7.324,42.672,31.708,42.672,61.74,42.672,61.74,0,0,2.498,2.221,6.918,5.445Z" fill="#fddb3a" stroke-width="0"/>
  </g>
  <rect x="801.181" y="736.928" width="51.005" height="190.399" fill="#ffb433" stroke-width="0"/>
  <g>
    <path d="m847.535,760.154c5.329-2.301,8.983-7.304,9.599-13.076,31.503-294.443-280.417-277.877-415.06-257.373-5.417.823-8.052,5.485-7.629,9.866.318,3.366,2.443,6.563,6.486,7.736,44.148,12.815,103.662,48.48,144.015,144.726,51.205,122.136,139.515,134.703,201.396,125.519,27.446-4.077,49.691-12.431,61.194-17.4Z" fill="#54b646" stroke-width="0"/>
    <path d="m786.341,777.553c1.08-.451,2.098-.879,3.039-1.286,5.329-2.301,8.983-7.304,9.599-13.076,28.014-261.852-215.567-277.735-364.534-263.62.318,3.366,2.443,6.563,6.486,7.736,44.148,12.815,103.662,48.48,144.015,144.726,51.205,122.136,139.515,134.703,201.396,125.519Z" fill="#54e346" stroke-width="0"/>
    <path d="m586.362,551.104s80.397,32.232,115.715,107.237c35.318,75.005,145.454,101.815,145.454,101.815,0,0-72.01-42.219-106.325-122.347-34.315-80.128-154.844-86.705-154.844-86.705Z" fill="#54b646" stroke-width="0"/>
  </g>
  <g>
    <path d="m831.921,770.842c-4.274-.361-8.007-3.008-9.794-6.907-91.184-198.879,131.222-260.491,230.36-277.731,3.988-.695,6.929,1.953,7.66,5.121.567,2.433-.171,5.171-2.728,6.942-27.92,19.341-61.241,58.296-66.919,135.194-7.203,97.583-66.119,127.115-111.626,135.207-20.184,3.586-37.729,2.955-46.954,2.175Z" fill="#54b646" stroke-width="0"/>
    <path d="m878.876,768.667c-.863-.062-1.676-.123-2.431-.188-4.274-.361-8.008-3.008-9.794-6.907-81.09-176.866,85.824-245.169,193.497-270.248.567,2.433-.171,5.171-2.728,6.942-27.92,19.341-61.241,58.296-66.919,135.194-7.203,97.583-66.119,127.115-111.626,135.207Z" fill="#54e346" stroke-width="0"/>
    <path d="m965.817,563.085s-48.757,41.452-55.893,102.287c-7.136,60.835-77.999,105.47-77.999,105.47,0,0,40.537-46.48,45.768-110.669,5.231-64.189,88.125-97.088,88.125-97.088Z" fill="#54b646" stroke-width="0"/>
  </g>
  <path d="m786.708,608.733c-3.541,0-6.971-1.884-8.786-5.21h0c-.287-.525-29.352-52.689-79.269-66.557-5.321-1.478-8.436-6.991-6.958-12.312,1.478-5.322,6.992-8.435,12.312-6.958,58.208,16.171,90.146,73.81,91.477,76.255,2.641,4.851.848,10.923-4.003,13.563-1.519.827-3.156,1.219-4.772,1.219Z" fill="#fff" stroke-width="0"/>
  <g>
    <path d="m1384.071,1201.764c0,5.581-.127,11.132-.382,16.644-.029.695-.059,1.39-.098,2.085-.842,17.065-2.849,33.827-5.943,50.197-1.792,9.546-3.965,18.964-6.491,28.236-3.769,13.883-8.332,27.433-13.628,40.612-5.787,14.412-12.454,28.373-19.954,41.816-4.239,7.627-8.753,15.078-13.501,22.352-13.922,21.295-29.979,41.072-47.866,59.008-10.221,10.261-21.04,19.914-32.397,28.912-5.688,4.513-11.514,8.861-17.476,13.031-10.505,7.373-21.412,14.206-32.681,20.453-53.085,29.499-114.198,46.3-179.237,46.3v-739.282c8.077,0,16.076.254,24.016.764,37.958,2.428,74.36,10.593,108.343,23.635,3.378,1.292,6.736,2.643,10.075,4.034,25.015,10.456,48.63,23.586,70.502,39.016,18.299,12.924,35.374,27.453,51.009,43.411,3.593,3.662,7.118,7.412,10.554,11.22,8.175,9.056,15.91,18.514,23.155,28.354,1.87,2.526,3.71,5.081,5.492,7.666,8.821,12.591,16.869,25.769,24.066,39.447.763,1.439,1.517,2.898,2.262,4.357,8.4,16.448,15.596,33.592,21.471,51.352v.01c1.586,4.758,3.064,9.565,4.455,14.412,4.122,14.382,7.382,29.117,9.751,44.156.382,2.399.734,4.817,1.077,7.236.01.068.02.137.029.206,2.232,16.468,3.397,33.278,3.397,50.363Z" fill="#fddb3a" stroke-width="0"/>
    <g>
      <path d="m1276.207,1462.714c-10.221,10.261-21.04,19.914-32.397,28.912-5.688,4.513-11.514,8.861-17.476,13.031-.813-.49-1.616-.989-2.409-1.478-14.754-9.086-25.407-15.645-49.531-15.645s-34.776,6.56-49.502,15.645c-17.819,10.985-39.995,24.653-81.243,24.653-11.015,0-20.658-.979-29.235-2.614v-62.631c7.744,3.015,16.654,4.788,29.235,4.788,24.124,0,34.776-6.56,49.511-15.655,17.809-10.975,39.985-24.643,81.233-24.643s63.434,13.668,81.243,24.643c7.147,4.416,13.345,8.224,20.57,10.995Z" fill="#ffb433" stroke-width="0"/>
      <path d="m1371.157,1298.926c-3.769,13.883-8.332,27.433-13.628,40.612-5.787,14.412-12.454,28.373-19.954,41.816-9.35,2.017-20.022,3.251-32.417,3.251-41.258,0-63.424-13.658-81.233-24.633-14.754-9.096-25.407-15.665-49.531-15.665s-34.776,6.569-49.502,15.665c-17.819,10.975-39.995,24.633-81.243,24.633-11.015,0-20.658-.969-29.235-2.604v-62.631c7.744,3.016,16.654,4.788,29.235,4.788,24.124,0,34.776-6.56,49.511-15.655,17.809-10.975,39.985-24.643,81.233-24.643s63.434,13.668,81.243,24.643c14.745,9.095,25.407,15.655,49.521,15.655s34.776-6.56,49.521-15.655c5.033-3.104,10.417-6.413,16.478-9.575Z" fill="#ffb433" stroke-width="0"/>
      <path d="m1384.071,1201.764c0,5.581-.127,11.132-.382,16.644-17.369,10.642-39.339,22.979-78.531,22.979-41.258,0-63.424-13.668-81.233-24.643-14.754-9.086-25.407-15.655-49.531-15.655s-34.776,6.569-49.502,15.655c-17.819,10.975-39.995,24.643-81.243,24.643-11.015,0-20.658-.969-29.235-2.604v-62.631c7.744,3.006,16.654,4.787,29.235,4.787,24.124,0,34.776-6.569,49.511-15.655,17.809-10.975,39.985-24.643,81.233-24.643s63.434,13.668,81.243,24.643c14.745,9.086,25.407,15.655,49.521,15.655s34.776-6.569,49.521-15.655c7.51-4.631,15.802-9.742,25.965-14.089.01.068.02.137.029.206,2.232,16.468,3.397,33.278,3.397,50.363Z" fill="#ffb433" stroke-width="0"/>
      <path d="m1365.361,1085.382v.01c-14.715,7.03-33.445,12.777-60.203,12.777-41.258,0-63.424-13.668-81.233-24.643-14.754-9.086-25.407-15.655-49.531-15.655s-34.776,6.569-49.502,15.655c-17.819,10.975-39.995,24.643-81.243,24.643-11.015,0-20.658-.969-29.235-2.604v-62.631c7.744,3.006,16.654,4.787,29.235,4.787,24.124,0,34.776-6.569,49.511-15.645,17.809-10.985,39.985-24.653,81.233-24.653s63.434,13.668,81.243,24.653c14.745,9.076,25.407,15.645,49.521,15.645,16.644,0,26.875-3.133,36.47-8.048.763,1.439,1.517,2.898,2.262,4.357,8.4,16.448,15.596,33.592,21.471,51.352Z" fill="#ffb433" stroke-width="0"/>
      <path d="m1288.916,954.207c-31.134-3.016-49.678-14.451-64.99-23.899-14.754-9.076-25.407-15.645-49.531-15.645s-34.776,6.569-49.502,15.645c-17.819,10.985-39.995,24.653-81.243,24.653-11.015,0-20.658-.969-29.235-2.604v-62.631c7.744,3.006,16.654,4.787,29.235,4.787,24.124,0,34.776-6.569,49.511-15.655,13.354-8.224,29.157-17.966,53.614-22.332,3.378,1.292,6.736,2.643,10.075,4.034,25.015,10.456,48.63,23.586,70.502,39.016,18.299,12.924,35.374,27.453,51.009,43.411,3.593,3.662,7.118,7.412,10.554,11.22Z" fill="#ffb433" stroke-width="0"/>
    </g>
  </g>
  <path d="m1329.648,770.156c-5.522,0-10-4.477-10-10v-104.526c0-5.523,4.478-10,10-10s10,4.477,10,10v104.526c0,5.523-4.477,10-10,10Z" fill="#fff" stroke-width="0"/>
  <path d="m1329.648,818.053c-5.522,0-10-4.477-10-10v-9.162c0-5.523,4.478-10,10-10s10,4.477,10,10v9.162c0,5.523-4.477,10-10,10Z" fill="#fff" stroke-width="0"/>
  <g>
    <g>
      <path d="m1014.419,832.128v739.278c-71.23,0-137.753-20.146-194.189-55.058-37.111-22.951-69.853-52.283-96.698-86.471-49.34-62.827-78.762-142.034-78.762-228.11,0-17.391,1.199-34.495,3.528-51.252.307-2.19.624-4.37.971-6.55,1.477-9.374,3.3-18.62,5.46-27.747,11.624-49.053,33.019-94.33,62.034-133.661,22.059-29.887,48.498-56.346,78.385-78.405,2.101-1.546,4.212-3.072,6.342-4.578,54.067-38.162,118.836-62.193,188.917-66.682,7.938-.505,15.935-.763,24.011-.763Z" fill="#6ad2ff" stroke-width="0"/>
      <path d="m1014.419,832.128v636.753c-31.8,0-62.659-4.014-92.11-11.575-36.507-9.355-70.844-24.16-102.079-43.483-37.111-22.951-69.853-52.283-96.698-86.471-39.371-50.133-66.058-110.681-75.234-176.837.307-2.19.624-4.37.971-6.55,1.477-9.374,3.3-18.62,5.46-27.747,11.624-49.053,33.019-94.33,62.034-133.661,22.059-29.887,48.498-56.346,78.385-78.405,2.101-1.546,4.212-3.072,6.342-4.578,54.067-38.162,118.836-62.193,188.917-66.682,7.938-.505,15.935-.763,24.011-.763Z" fill="#a6fbff" stroke-width="0"/>
      <path d="m806.932,1162.366c-44.593-53.344-105.27-55.633-152.202-46.149,11.624-49.053,33.019-94.33,62.034-133.661,22.059-29.887,48.498-56.346,78.385-78.405,31.503,40.124,6.739,103.744,83.954,162.359,98.412,74.709,11.475,195.923-72.172,95.856Z" fill="#54e346" stroke-width="0"/>
      <path d="m1014.419,1394.192v177.214c-71.23,0-137.754-20.146-194.189-55.058,30.74-19.809,88.612-5.004,106.845-73.074,18.333-68.456,59.438-58.566,87.344-49.082Z" fill="#54b646" stroke-width="0"/>
      <path d="m1014.419,1394.192v74.689c-31.8,0-62.659-4.014-92.11-11.575,1.794-4.241,3.389-8.899,4.767-14.032,18.333-68.456,59.438-58.566,87.343-49.082Z" fill="#54e346" stroke-width="0"/>
    </g>
    <path d="m729.532,1357.967c-3.778,0-7.394-2.151-9.083-5.805-30.836-66.672-33.618-136.234-33.722-139.163-.194-5.519,4.122-10.151,9.642-10.346,5.54-.2,10.149,4.119,10.346,9.636h0c.025.678,2.798,68.581,31.887,131.477,2.318,5.013.134,10.956-4.879,13.274-1.358.628-2.786.926-4.19.926Z" fill="#fff" stroke-width="0"/>
    <path d="m750.311,1405.805c-3.424,0-6.758-1.759-8.623-4.921l-4.921-8.342c-2.806-4.757-1.225-10.888,3.532-13.694,4.758-2.805,10.889-1.224,13.694,3.533l4.921,8.342c2.806,4.757,1.225,10.888-3.532,13.694-1.595.94-3.345,1.388-5.071,1.388Z" fill="#fff" stroke-width="0"/>
  </g>
  <path d="m667.111,528.223c-.432,0-.868-.028-1.308-.085l-6.769-.884c-5.476-.715-9.336-5.734-8.621-11.21.716-5.477,5.732-9.335,11.211-8.621l6.77.884c5.476.715,9.336,5.734,8.621,11.21-.658,5.037-4.957,8.707-9.903,8.707Z" fill="#fff" stroke-width="0"/>
</svg>