<?xml version="1.0" encoding="UTF-8"?>
<svg id="a" data-name="FLAT COLORED" xmlns="http://www.w3.org/2000/svg" width="2000" height="2000" viewBox="0 0 2000 2000">
  <g>
    <path d="m1217.067,807.708c6.51,1.97,11.429,7.308,12.914,13.945,75.854,338.586-289.473,360.806-448.948,354.852-6.416-.237-10.104-5.314-10.194-10.471-.078-3.961,1.971-7.966,6.521-9.869,49.69-20.794,114.228-70.232,148.398-187.647,43.359-149,144.494-175.38,217.754-172.923,32.494,1.095,59.502,7.86,73.555,12.113Z" fill="#54b646" stroke-width="0"/>
    <path d="m1143.512,795.595c1.318.381,2.56.744,3.709,1.093,6.51,1.97,11.429,7.308,12.914,13.945,67.456,301.109-213.997,352.012-389.297,355.402-.078-3.961,1.971-7.966,6.521-9.869,49.69-20.794,114.228-70.232,148.398-187.647,43.359-149,144.494-175.38,217.754-172.923Z" fill="#54e346" stroke-width="0"/>
    <path d="m940.838,1085.829s89.306-48.221,120.441-140.238c31.135-92.017,155.783-137.884,155.783-137.884,0,0-78.213,58.732-107.499,156.58-29.285,97.848-168.725,121.542-168.725,121.542Z" fill="#54b646" stroke-width="0"/>
  </g>
  <g>
    <path d="m653.767,798.16s28.361-220.391,330.808-288.983c0,0,184.726-39.282,303.458,70.229l69.255-40.778-4.001,256.059-235.282-108.113,68.698-41.644s-105.352-72.302-257.622-42.861l-50.672,13.797-224.642,182.293Z" fill="#54e346" stroke-width="0"/>
    <path d="m653.767,798.16s69.516-42.658,129.328,8.344c0,0,10.59-154.931,159.668-207.057,0,0-250.496,36.818-288.996,198.713Z" fill="#ffb433" stroke-width="0"/>
  </g>
  <g>
    <path d="m1054.549,1424.618s-206.513,82.031-413.12-149.254c0,0-123.905-142.528-85.678-299.463l-69.238-40.806,225.901-120.627,19.494,258.198-69.726-39.9s-12.168,127.195,87.396,246.105l36.631,37.632,268.34,108.115Z" fill="#54e346" stroke-width="0"/>
    <path d="m1054.549,1424.618s-71.009-40.123-55.394-117.161c0,0-140.644,65.842-258.502-39.281,0,0,153.633,201.248,313.897,156.442Z" fill="#ffb433" stroke-width="0"/>
  </g>
  <g>
    <path d="m1407.281,761.232s174.05,138.142,76.529,432.537c0,0-61.8,178.459-216.904,223.543l-.864,80.363-217.174-135.711,214.119-145.599.165,80.335s116.333-52.851,169.791-198.437l14.365-50.514-40.027-286.519Z" fill="#54e346" stroke-width="0"/>
    <path d="m1407.281,761.232s.611,81.559-73.958,106.421c0,0,127.183,89.108,94.798,243.68,0,0,97.887-233.499-20.839-350.101Z" fill="#ffb433" stroke-width="0"/>
  </g>
  <path d="m1209.495,590.69c-2.036,0-4.091-.619-5.864-1.906-63.756-46.254-166.411-39.281-167.44-39.205-5.49.409-10.302-3.727-10.71-9.233-.409-5.506,3.72-10.301,9.225-10.712,4.497-.335,110.918-7.644,180.669,42.961,4.471,3.243,5.466,9.496,2.222,13.966-1.956,2.696-5.008,4.128-8.102,4.128Z" fill="#fff" stroke-width="0"/>
  <path d="m1245.722,614.986c-2.3,0-4.61-.789-6.495-2.401l-5.509-4.712c-4.197-3.59-4.69-9.902-1.1-14.099,3.592-4.197,9.902-4.689,14.1-1.099l5.509,4.712c4.197,3.59,4.689,9.902,1.1,14.099-1.978,2.312-4.782,3.5-7.604,3.5Z" fill="#fff" stroke-width="0"/>
  <path d="m1103.786,1093.263c-3.358,0-6.638-1.691-8.526-4.76-2.894-4.702-1.429-10.859,3.271-13.755.807-.502,51.273-32.351,74.604-89.105,2.101-5.108,7.942-7.545,13.051-5.447,5.108,2.1,7.547,7.943,5.447,13.051-25.946,63.116-80.314,97.114-82.615,98.531-1.635,1.005-3.444,1.485-5.231,1.485Z" fill="#fff" stroke-width="0"/>
  <path d="m1191.252,964.271c-.803,0-1.618-.097-2.432-.301-5.358-1.339-8.616-6.768-7.278-12.126l1.472-5.89c1.339-5.358,6.777-8.615,12.126-7.278,5.358,1.339,8.616,6.768,7.278,12.125l-1.472,5.89c-1.136,4.544-5.214,7.579-9.694,7.579Z" fill="#fff" stroke-width="0"/>
  <path d="m1227.165,1367.742c-4.506,0-8.596-3.066-9.708-7.638-1.306-5.366,1.985-10.774,7.352-12.081.635-.155,63.794-15.654,86.671-31.995,4.495-3.209,10.74-2.168,13.95,2.326,3.21,4.494,2.169,10.74-2.325,13.95-26.013,18.579-90.822,34.484-93.568,35.152-.794.193-1.589.286-2.371.286Z" fill="#fff" stroke-width="0"/>
  <path d="m1350.565,1312.373c-2.228,0-4.468-.74-6.326-2.261-4.274-3.497-4.905-9.797-1.407-14.072l5.301-6.479c3.497-4.275,9.798-4.905,14.071-1.408,4.274,3.497,4.905,9.797,1.407,14.072l-5.301,6.479c-1.977,2.417-4.85,3.668-7.745,3.668Z" fill="#fff" stroke-width="0"/>
  <path d="m600.168,1077.361c-4.411,0-8.449-2.94-9.65-7.403-8.863-32.921,7.014-89.556,7.694-91.951,1.509-5.312,7.035-8.394,12.352-6.887,5.312,1.509,8.396,7.039,6.887,12.352-4.209,14.853-13.781,58.402-7.62,81.287,1.436,5.333-1.724,10.82-7.057,12.256-.87.234-1.745.346-2.605.346Z" fill="#fff" stroke-width="0"/>
  <path d="m617.116,954.7c-.762,0-1.535-.088-2.309-.27-5.375-1.27-8.702-6.657-7.432-12.032l1.914-8.099c1.27-5.375,6.654-8.7,12.031-7.432,5.375,1.27,8.702,6.657,7.432,12.032l-1.914,8.099c-1.087,4.601-5.192,7.703-9.723,7.703Z" fill="#fff" stroke-width="0"/>
</svg>