<?xml version="1.0" encoding="UTF-8"?>
<svg id="a" data-name="FLAT COLORED" xmlns="http://www.w3.org/2000/svg" width="2000" height="2000" viewBox="0 0 2000 2000">
  <g>
    <g>
      <polygon points="1342.415 612.318 1280.175 680.878 1227.475 738.928 1139.885 659.418 1192.585 601.368 1254.825 532.808 1342.415 612.318" fill="#fddb3a" stroke-width="0"/>
      <rect x="1231.935" y="536.962" width="92.597" height="118.296" transform="translate(-22.304 1141.847) rotate(-47.766)" fill="#ffb433" stroke-width="0"/>
    </g>
    <path d="m1275.309,716.37l-158.255-144.84c-24.713-22.623-57.012-35.186-90.522-35.186h-310.187c-61.548,0-111.468,49.92-111.468,111.468v762.109c0,61.576,49.92,111.496,111.468,111.496h491.011c61.576,0,111.496-49.92,111.496-111.496v-594.645c0-37.633-15.806-73.506-43.543-98.906Zm-570.537-53.384c0-15.586,7.12-29.496,18.308-38.677,8.632-7.12,19.71-11.38,31.75-11.38h216.889c13.799,0,26.334,5.608,35.379,14.679,9.044,9.044,14.652,21.579,14.652,35.379,0,27.654-22.404,50.058-50.03,50.058h-216.889c-12.04,0-23.118-4.261-31.75-11.381-1.265-1.017-2.474-2.117-3.629-3.271-9.071-9.071-14.679-21.579-14.679-35.406Z" fill="#54b646" stroke-width="0"/>
    <path d="m1318.851,815.276v587.938h-484.304c-61.548,0-111.468-49.92-111.468-111.469v-590.082c8.632,7.12,19.71,11.381,31.75,11.381h216.889c27.626,0,50.03-22.404,50.03-50.058,0-13.8-5.608-26.335-14.652-35.379-9.044-9.071-21.579-14.679-35.379-14.679h-216.889c-12.04,0-23.118,4.261-31.75,11.38v-87.965h303.453c33.509,0,65.809,12.563,90.522,35.186l158.255,144.84c27.736,25.4,43.543,61.273,43.543,98.906Z" fill="#54e346" stroke-width="0"/>
    <path d="m1207.795,941.378v344.58c0,9.25-1.07,18.25-3.11,26.87-12.13,51.59-58.46,89.98-113.74,89.98h-256.26c-64.53,0-116.85-52.31-116.85-116.85v-344.58c0-44.41,24.78-83.03,61.26-102.81,16.53-8.95,35.47-14.04,55.59-14.04h256.26c64.53,0,116.85,52.32,116.85,116.85Z" fill="#6ad2ff" stroke-width="0"/>
    <path d="m1207.795,941.378v344.58c0,9.25-1.07,18.25-3.11,26.87-16.53,8.96-35.47,14.05-55.59,14.05h-256.26c-64.53,0-116.85-52.31-116.85-116.84v-344.59c0-9.25,1.08-18.25,3.11-26.88,16.53-8.95,35.47-14.04,55.59-14.04h256.26c64.53,0,116.85,52.32,116.85,116.85Z" fill="#a6fbff" stroke-width="0"/>
    <g>
      <g>
        <path d="m981.224,1362.557c-5.133,2.968-11.462,2.916-16.569-.095-260.631-153.544-57.025-399.222,41.814-497.137,3.975-3.941,9.403-3.261,12.738-.245,2.567,2.311,3.894,6.002,2.393,10.031-16.386,44.008-23.398,114.536,30.939,206.258,68.956,116.394,25.461,196.462-19.767,241.609-20.063,20.021-40.466,33.173-51.547,39.579Z" fill="#54b646" stroke-width="0"/>
        <path d="m1032.772,1322.979c-1.027.611-1.999,1.185-2.906,1.709-5.133,2.968-11.462,2.916-16.569-.095-231.781-136.55-96.415-345.959,5.91-459.512,2.567,2.311,3.894,6.002,2.393,10.031-16.386,44.008-23.398,114.536,30.939,206.258,68.956,116.394,25.461,196.462-19.767,241.609Z" fill="#54e346" stroke-width="0"/>
      </g>
      <g>
        <polygon points="1068.517 1136.453 893.375 1356.485 949.703 1183.975 856.397 1183.975 946.177 999.15 1068.517 999.15 986.665 1136.453 1068.517 1136.453" fill="#fddb3a" stroke-width="0"/>
        <path d="m893.375,1356.485l56.328-172.51h-81.166c18.218-1.499,57.365-9.795,120.17-47.522h79.81l-175.142,220.032Z" fill="#ffb433" stroke-width="0"/>
      </g>
      <path d="m933.909,1099.947c-1.377,0-2.776-.286-4.113-.891-5.033-2.275-7.268-8.199-4.993-13.231l26.945-59.605c2.276-5.033,8.2-7.266,13.231-4.993,5.033,2.275,7.268,8.199,4.993,13.231l-26.945,59.605c-1.671,3.696-5.31,5.884-9.118,5.884Z" fill="#fff" stroke-width="0"/>
      <path d="m919.543,1132.265c-1.591,0-3.204-.38-4.705-1.183-4.871-2.603-6.709-8.662-4.105-13.533l1.718-3.215c2.603-4.871,8.663-6.711,13.533-4.105,4.871,2.603,6.709,8.662,4.105,13.533l-1.718,3.215c-1.801,3.37-5.257,5.288-8.828,5.288Z" fill="#fff" stroke-width="0"/>
    </g>
    <g>
      <path d="m1392.115,602.418l-51.7,56.96c-4.31,4.73-11.63,5.09-16.37.79l-115.07-104.46c-4.74-4.3-5.09-11.63-.79-16.37l13.79-15.19,37.91-41.77c4.3-4.73,11.63-5.09,16.37-.79l102.07,92.66,13,11.8c4.74,4.3,5.09,11.63.79,16.37Z" fill="#6ad2ff" stroke-width="0"/>
      <path d="m1378.325,574.248l-37.91,41.76c-4.31,4.74-11.63,5.1-16.37.79l-102.07-92.65,37.91-41.77c4.3-4.73,11.63-5.09,16.37-.79l102.07,92.66Z" fill="#a6fbff" stroke-width="0"/>
    </g>
  </g>
  <path d="m1265.233,1146.453c-5.523,0-10-4.477-10-10v-206.377c0-5.522,4.477-10,10-10s10,4.478,10,10v206.377c0,5.523-4.478,10-10,10Z" fill="#fff" stroke-width="0"/>
  <path d="m1265.233,1203.248c-5.523,0-10-4.478-10-10v-15.431c0-5.522,4.477-10,10-10s10,4.478,10,10v15.431c0,5.522-4.478,10-10,10Z" fill="#fff" stroke-width="0"/>
  <path d="m906.475,1485.455h-120.828c-5.523,0-10-4.478-10-10s4.477-10,10-10h120.828c5.523,0,10,4.478,10,10s-4.477,10-10,10Z" fill="#fff" stroke-width="0"/>
  <path d="m754.75,1485.455h-13.242c-5.523,0-10-4.478-10-10s4.477-10,10-10h13.242c5.523,0,10,4.478,10,10s-4.477,10-10,10Z" fill="#fff" stroke-width="0"/>
  <path d="m751.992,1047.248c-5.523,0-10-4.477-10-10v-72c0-5.522,4.477-10,10-10s10,4.478,10,10v72c0,5.523-4.477,10-10,10Z" fill="#fff" stroke-width="0"/>
  <path d="m752.008,940.52c-.621,0-1.25-.058-1.882-.178-5.426-1.027-8.987-6.287-7.959-11.713.175-.924,4.491-22.739,22.611-33.611,4.734-2.84,10.878-1.307,13.72,3.431,2.841,4.735,1.306,10.878-3.43,13.72-10.331,6.198-13.233,20.097-13.261,20.236-.908,4.794-5.094,8.115-9.799,8.115Z" fill="#fff" stroke-width="0"/>
  <path d="m877.233,758.973h-91.034c-5.523,0-10-4.478-10-10s4.477-10,10-10h91.034c5.523,0,10,4.477,10,10s-4.477,10-10,10Z" fill="#fff" stroke-width="0"/>
  <path d="m922.75,758.973h-14.896c-5.523,0-10-4.478-10-10s4.477-10,10-10h14.896c5.523,0,10,4.477,10,10s-4.477,10-10,10Z" fill="#fff" stroke-width="0"/>
</svg>