<?xml version="1.0" encoding="UTF-8"?>
<svg id="a" data-name="FLAT COLORED" xmlns="http://www.w3.org/2000/svg" width="2000" height="2000" viewBox="0 0 2000 2000">
  <g>
    <g>
      <path d="m1255.791,819.016c-.061,3.007-.624,5.89-1.616,8.56-3.733,10.206-13.54,17.436-24.952,17.436-.205,0-.399-.01-.604-.01-14.685-.327-26.323-12.496-25.985-27.181.03-1.647,2.516-168.039-78.058-250.3-29.626-30.25-66.144-44.955-111.62-44.955s-82.424,14.757-112.653,45.118c-82.066,82.414-82.291,248.929-82.281,250.596.062,14.675-11.781,26.64-26.456,26.721h-.133c-10.932,0-20.34-6.606-24.42-16.066-1.37-3.18-2.137-6.678-2.168-10.359-.051-7.711-.021-190.026,97.641-288.28,40.169-40.415,90.8-60.908,150.47-60.908s110.127,20.534,149.744,61.051c96.22,98.398,93.264,280.856,93.09,288.577Z" fill="#fddb3a" stroke-width="0"/>
      <path d="m1254.175,827.576c-3.733,10.206-13.54,17.436-24.952,17.436-.205,0-.399-.01-.604-.01-14.685-.327-26.323-12.496-25.985-27.181.03-1.647,2.516-168.039-78.058-250.3-29.626-30.25-66.144-44.955-111.62-44.955s-82.424,14.757-112.653,45.118c-82.066,82.414-82.291,248.929-82.281,250.596.062,14.675-11.781,26.64-26.456,26.721h-.133c-10.932,0-20.34-6.606-24.42-16.066,5.563-61.481,25.361-175.351,95.473-245.882,40.169-40.425,90.8-60.918,150.47-60.918s110.127,20.545,149.744,61.061c68.424,69.969,86.699,182.458,91.474,244.379Z" fill="#ffb433" stroke-width="0"/>
    </g>
    <path d="m1300.245,1530.616h-600.49c-37.93,0-67.821-32.305-64.886-70.122l54.251-698.254h621.771l50.068,644.535,4.172,53.719c2.935,37.817-26.956,70.122-64.886,70.122Z" fill="#54b646" stroke-width="0"/>
    <path d="m1360.959,1406.775h-537.363c-37.929,0-67.821-32.305-64.876-70.122l44.618-574.413h507.553l50.068,644.535Z" fill="#54e346" stroke-width="0"/>
    <g>
      <path d="m1214.211,1146.428c0,41.85-12.005,80.898-32.756,113.889-37.9,60.269-104.997,100.322-181.454,100.322-118.307,0-214.211-95.904-214.211-214.211,0-76.458,40.053-143.566,100.333-181.466,32.991-20.752,72.028-32.745,113.878-32.745,118.307,0,214.211,95.904,214.211,214.211Z" fill="#6ad2ff" stroke-width="0"/>
      <path d="m1214.211,1146.428c0,41.85-12.005,80.898-32.756,113.889-32.991,20.752-72.04,32.757-113.889,32.757-118.307,0-214.211-95.904-214.211-214.211,0-41.85,12.005-80.91,32.768-113.9,32.991-20.752,72.028-32.745,113.878-32.745,118.307,0,214.211,95.904,214.211,214.211Z" fill="#a6fbff" stroke-width="0"/>
      <g>
        <path d="m997.852,1092.577c8.642-5.076,16.434-9.652,25.032-14.702-5.36-9.118-10.215-18.267-15.966-26.813-3.226-4.793-8.999-3.277-12.499,2.706-7.014,11.99-13.937,24.033-21.31,36.767-12.501-7.193-24.81-14.275-38.344-22.062,10.049-16.117,18.166-33.326,30.068-47.314,21.725-25.531,62.092-20.959,79.909,7.505,5.51,8.802,10.52,17.916,16.003,27.305,8.281-4.686,16.166-9.147,25.159-14.235-2.597,29.8-5.107,58.599-7.696,88.305-26.908-12.544-53.185-24.793-80.357-37.46Z" fill="#fff" stroke-width="0"/>
        <path d="m1059.529,1215.602c10.817,0,20.555.306,30.263-.106,6.657-.282,8.958-5.953,5.286-12.453-6.83-12.093-13.851-24.078-21.258-36.915,12.417-7.165,24.723-14.265,37.795-21.807,7.313,12.654,14.748,24.814,21.421,37.378,3.105,5.846,5.638,12.307,6.867,18.785,5.405,28.483-16.542,56.57-45.574,58.346-11.204.686-22.485.112-34.324.112v29.501c-24.841-17.376-48.532-33.949-72.935-51.02,24.377-17.06,47.971-33.573,72.459-50.711v28.887Z" fill="#fff" stroke-width="0"/>
        <path d="m957.791,1215.64v42.207c-18.872,0-37.901,2.652-55.875-.574-33.271-5.972-49.18-43.649-33.004-73.428,4.84-8.91,10.062-17.613,15.383-26.888-8.202-4.788-15.992-9.336-25.021-14.607,27.242-12.724,53.376-24.93,80.368-37.537,2.573,29.506,5.068,58.129,7.693,88.238-8.842-4.981-16.626-9.366-25.2-14.196-5.148,9.046-10.579,17.83-15.209,27.018-2.604,5.167,1.422,9.654,8.259,9.729,11.945.131,23.893.038,35.84.039,2.117,0,4.235,0,6.765,0Z" fill="#fff" stroke-width="0"/>
      </g>
    </g>
    <circle cx="794.954" cy="841.301" r="43.585" transform="translate(-362.053 808.529) rotate(-45)" fill="#fff" stroke-width="0"/>
    <circle cx="1224.742" cy="841.301" r="43.585" transform="translate(-228.724 532.729) rotate(-22.5)" fill="#fff" stroke-width="0"/>
  </g>
  <path d="m1290.692,1321.27c-5.248,0-9.653-4.091-9.973-9.399l-12.964-215.529c-.332-5.513,3.869-10.251,9.381-10.583,5.508-.329,10.251,3.868,10.582,9.382l12.964,215.529c.332,5.513-3.869,10.251-9.381,10.583-.205.012-.408.018-.61.018Z" fill="#fff" stroke-width="0"/>
  <path d="m1297.304,1380.96c-5.105,0-9.462-3.889-9.945-9.072l-1.486-15.935c-.513-5.499,3.53-10.373,9.029-10.886,5.499-.515,10.372,3.53,10.885,9.028l1.486,15.935c.513,5.499-3.53,10.373-9.029,10.886-.315.029-.629.044-.94.044Z" fill="#fff" stroke-width="0"/>
  <path d="m957.791,1499.122h-186.332c-5.523,0-10-4.478-10-10s4.477-10,10-10h186.332c5.523,0,10,4.477,10,10s-4.477,10-10,10Z" fill="#fff" stroke-width="0"/>
  <path d="m1022.235,1499.122h-11.899c-5.523,0-10-4.478-10-10s4.477-10,10-10h11.899c5.523,0,10,4.477,10,10s-4.477,10-10,10Z" fill="#fff" stroke-width="0"/>
  <path d="m747.561,1064.142c-.824,0-1.66-.102-2.494-.317-5.342-1.374-8.565-6.808-7.2-12.152.843-3.302,21.521-81.245,96.617-114.564,5.047-2.242,10.956.036,13.196,5.085,2.24,5.048-.037,10.956-5.085,13.196-66.044,29.303-85.169,100.534-85.354,101.25-1.167,4.506-5.229,7.503-9.68,7.503Z" fill="#fff" stroke-width="0"/>
  <path d="m739.46,1102.503c-.864,0-1.742-.113-2.615-.35-5.332-1.441-8.485-6.932-7.044-12.263l2.161-7.993c1.441-5.332,6.932-8.48,12.263-7.044,5.332,1.441,8.485,6.932,7.044,12.263l-2.161,7.993c-1.205,4.458-5.241,7.393-9.647,7.393Z" fill="#fff" stroke-width="0"/>
</svg>