<?xml version="1.0" encoding="UTF-8"?>
<svg id="a" data-name="FLAT COLORED" xmlns="http://www.w3.org/2000/svg" width="2000" height="2000" viewBox="0 0 2000 2000">
  <g>
    <g>
      <g>
        <rect x="875.06" y="645.656" width="52.671" height="174.923" fill="#ffb433" stroke-width="0"/>
        <g>
          <path d="m906.199,708.509c-5.503-2.424-9.276-7.695-9.912-13.775-32.531-310.197,289.573-292.745,428.613-271.143,5.594.867,8.315,5.779,7.878,10.394-.328,3.546-2.523,6.914-6.697,8.15-45.589,13.501-107.047,51.074-148.717,152.47-52.877,128.671-144.071,141.91-207.972,132.235-28.342-4.295-51.313-13.097-63.192-18.331Z" fill="#54b646" stroke-width="0"/>
          <path d="m969.391,726.84c-1.115-.475-2.167-.926-3.139-1.355-5.503-2.424-9.276-7.695-9.912-13.775-28.929-275.862,222.606-292.595,376.437-277.725-.328,3.546-2.523,6.914-6.697,8.15-45.589,13.501-107.047,51.074-148.717,152.47-52.877,128.671-144.071,141.91-207.972,132.235Z" fill="#54e346" stroke-width="0"/>
          <path d="m1175.899,488.274s-83.022,33.957-119.493,112.975c-36.471,79.018-150.203,107.263-150.203,107.263,0,0,74.361-44.478,109.796-128.894,35.435-84.415,159.9-91.344,159.9-91.344Z" fill="#54b646" stroke-width="0"/>
        </g>
        <g>
          <path d="m897.893,707.616c3.62-1.558,6.121-4.991,6.571-8.972,23.003-203.102-188.181-193.485-279.417-180.114-3.671.536-5.481,3.74-5.219,6.767.196,2.326,1.616,4.546,4.345,5.379,29.803,9.106,69.875,34.076,96.633,100.761,33.954,84.623,93.646,93.814,135.575,87.835,18.597-2.655,33.699-8.293,41.512-11.656Z" fill="#54b646" stroke-width="0"/>
          <path d="m856.381,719.272c.734-.305,1.425-.595,2.064-.87,3.62-1.558,6.121-4.991,6.571-8.972,20.456-180.621-144.295-193.008-245.188-184.132.196,2.326,1.616,4.546,4.345,5.379,29.803,9.106,69.875,34.076,96.633,100.761,33.954,84.623,93.646,93.814,135.575,87.835Z" fill="#54e346" stroke-width="0"/>
          <path d="m722.342,561.762s54.224,22.722,77.696,74.712c23.472,51.99,97.852,71.143,97.852,71.143,0,0-48.491-29.569-71.255-85.09-22.764-55.521-104.294-60.765-104.294-60.765Z" fill="#54b646" stroke-width="0"/>
        </g>
        <path d="m956.192,554.839c-1.591,0-3.205-.381-4.705-1.184-4.865-2.604-6.705-8.649-4.108-13.519,1.371-2.569,34.265-63.133,94.254-80.136,5.315-1.504,10.841,1.581,12.348,6.895,1.506,5.314-1.581,10.842-6.895,12.348-51.68,14.647-81.769,69.764-82.066,70.318-1.805,3.362-5.259,5.277-8.827,5.277Z" fill="#fff" stroke-width="0"/>
        <path d="m1081.497,466.952c-3.891,0-7.59-2.284-9.208-6.091-2.16-5.083.209-10.955,5.291-13.115l4.809-2.044c5.086-2.162,10.956.209,13.115,5.291,2.16,5.083-.209,10.955-5.291,13.115l-4.809,2.044c-1.276.543-2.603.8-3.907.8Z" fill="#fff" stroke-width="0"/>
      </g>
      <path d="m1080.629,815.519v67.88h-348.85v-67.88c0-22.69,18.39-41.08,41.08-41.08h266.69c22.69,0,41.08,18.39,41.08,41.08Z" fill="#6ad2ff" stroke-width="0"/>
      <path d="m1080.629,815.519v67.88h-285.27v-67.88c0-22.69,18.39-41.08,41.07-41.08h203.12c22.69,0,41.08,18.39,41.08,41.08Z" fill="#a6fbff" stroke-width="0"/>
      <path d="m1162.888,903.218v635.986c0,26.272-22.976,47.578-51.309,47.578h-410.741c-28.343,0-51.319-21.305-51.319-47.578v-635.986c0-26.272,22.976-47.578,51.319-47.578h410.741c28.333,0,51.309,21.305,51.309,47.578Z" fill="#54b646" stroke-width="0"/>
      <path d="m1162.888,903.218v617.237h-390.521c-28.343,0-51.319-21.305-51.319-47.578v-617.237h390.531c28.333,0,51.309,21.305,51.309,47.578Z" fill="#54e346" stroke-width="0"/>
      <g>
        <rect x="721.141" y="921.89" width="370.135" height="104.434" fill="#a6fbff" stroke-width="0"/>
        <rect x="721.141" y="1086.633" width="370.135" height="104.424" fill="#a6fbff" stroke-width="0"/>
        <rect x="721.141" y="1251.366" width="370.135" height="104.434" fill="#a6fbff" stroke-width="0"/>
        <rect x="721.141" y="1416.099" width="370.135" height="104.434" fill="#a6fbff" stroke-width="0"/>
      </g>
      <g>
        <rect x="763.317" y="921.89" width="327.958" height="65.324" fill="#fff" stroke-width="0"/>
        <rect x="763.317" y="1086.633" width="327.958" height="65.314" fill="#fff" stroke-width="0"/>
        <rect x="763.317" y="1251.366" width="327.958" height="65.324" fill="#fff" stroke-width="0"/>
        <rect x="763.317" y="1416.099" width="327.958" height="65.324" fill="#fff" stroke-width="0"/>
      </g>
      <g>
        <g>
          <path d="m1380.197,1042.89c0,42.288-13.451,81.371-36.231,113.033-34.114,47.422-89.141,78.205-151.217,78.205-103.531,0-187.452-85.621-187.452-191.238,0-63.329,30.173-119.467,76.652-154.27,31.035-23.244,69.345-36.968,110.8-36.968,103.526,0,187.448,85.621,187.448,191.238Z" fill="#6ad2ff" stroke-width="0"/>
          <path d="m1380.197,1042.89c0,42.288-13.451,81.371-36.231,113.033-31.035,23.24-69.35,36.963-110.796,36.963-103.526,0-187.452-85.621-187.452-191.238,0-42.288,13.456-81.366,36.231-113.028,31.035-23.244,69.345-36.968,110.8-36.968,103.526,0,187.448,85.621,187.448,191.238Z" fill="#a6fbff" stroke-width="0"/>
        </g>
        <g>
          <polygon points="1333.765 1006.825 1100.895 1305.289 1175.789 1071.287 1051.729 1071.287 1171.102 820.579 1333.765 820.579 1224.934 1006.825 1333.765 1006.825" fill="#fddb3a" stroke-width="0"/>
          <path d="m1100.895,1305.289l74.894-234.002h-107.919c24.222-2.034,76.273-13.287,159.778-64.462h106.116l-232.87,298.464Z" fill="#ffb433" stroke-width="0"/>
        </g>
      </g>
    </g>
    <path d="m681.926,1096.633c-5.523,0-10-4.477-10-10v-102.874c0-5.522,4.477-10,10-10s10,4.478,10,10v102.874c0,5.523-4.478,10-10,10Z" fill="#fff" stroke-width="0"/>
    <path d="m681.926,1137.207c-5.523,0-10-4.478-10-10v-5.793c0-5.523,4.477-10,10-10s10,4.477,10,10v5.793c0,5.522-4.478,10-10,10Z" fill="#fff" stroke-width="0"/>
    <path d="m814.136,1564.104h-62.017c-5.522,0-10-4.478-10-10s4.478-10,10-10h62.017c5.523,0,10,4.478,10,10s-4.477,10-10,10Z" fill="#fff" stroke-width="0"/>
    <path d="m859.705,1564.104h-10.331c-5.522,0-10-4.478-10-10s4.478-10,10-10h10.331c5.522,0,10,4.478,10,10s-4.478,10-10,10Z" fill="#fff" stroke-width="0"/>
  </g>
  <path d="m1207.435,956.933c-1.404,0-2.831-.297-4.19-.925-5.013-2.318-7.197-8.261-4.88-13.274l35.587-76.965c2.318-5.012,8.257-7.198,13.274-4.88,5.013,2.318,7.197,8.261,4.88,13.274l-35.587,76.965c-1.69,3.653-5.306,5.805-9.084,5.805Z" fill="#fff" stroke-width="0"/>
  <path d="m1192.74,993.347c-1.428,0-2.877-.307-4.254-.955-4.996-2.353-7.14-8.311-4.786-13.308l4.351-9.237c2.353-4.997,8.312-7.138,13.308-4.786,4.996,2.354,7.14,8.312,4.786,13.308l-4.351,9.237c-1.705,3.62-5.302,5.741-9.054,5.741Z" fill="#fff" stroke-width="0"/>
</svg>