<?xml version="1.0" encoding="UTF-8"?>
<svg id="a" data-name="FLAT COLORED" xmlns="http://www.w3.org/2000/svg" width="2000" height="2000" viewBox="0 0 2000 2000">
  <path d="m334.218,1231.342c-13.617,0-24.656-11.039-24.656-24.656v-252.708c0-76.183,29.667-147.806,83.537-201.675,53.869-53.869,125.492-83.536,201.675-83.536h648.673c13.617,0,24.656,11.039,24.656,24.656s-11.039,24.656-24.656,24.656h-648.673c-130.076,0-235.9,105.824-235.9,235.9v252.708c0,13.617-11.039,24.656-24.656,24.656Z" fill="#fff" stroke-width="0"/>
  <path d="m1695.413,1216.279v56.519l-99.165-.654-1177.229-7.823h-136.841s13.324-164.702,136.841-164.702c0,0,45.073-176.774,249.092-260.709,63.508-26.126,142.407-43.252,240.149-43.252,0,0,291.851,0,386.312,208.296,0,0,289.044-4.078,376.241,128.173,15.477,23.49,24.599,51.275,24.599,84.153Z" fill="#54e346" stroke-width="0"/>
  <path d="m1221.107,1000.719h-437.578v-139.259s20.787-4.201,54.158-6.429c78.786-5.254,227.708.503,339.001,98.605,15.657,13.788,30.555,29.407,44.419,47.084Z" fill="#a6fbff" stroke-width="0"/>
  <path d="m1176.688,953.636h-339.001v-98.605c78.786-5.254,227.708.503,339.001,98.605Z" fill="#fff" stroke-width="0"/>
  <path d="m740.344,870.744v129.975h-206.684s11.825-19.213,38.435-43.556c26.24-24.021,66.856-53.029,124.683-73.551,13.561-4.817,28.07-9.161,43.565-12.869Z" fill="#a6fbff" stroke-width="0"/>
  <path d="m696.778,883.613v73.551h-124.683c26.24-24.021,66.856-53.029,124.683-73.551Z" fill="#fff" stroke-width="0"/>
  <path d="m1596.248,1272.144l-1177.229-7.823h-136.841s13.324-164.702,136.841-164.702c0,0,45.073-176.774,249.092-260.709v.009s-158.879,114.404-158.879,285.498c0,0,143.225-76.523,260.557,29.815h481.864s30.009-58.25,161.674-51.401c150.942,7.852,174.226,133.022,174.226,133.022l8.696,36.292Z" fill="#54b646" stroke-width="0"/>
  <rect x="788.479" y="1034.228" width="117.182" height="46.228" fill="#54b646" stroke-width="0"/>
  <rect x="247.668" y="1250.997" width="1504.665" height="76.293" rx="13.034" ry="13.034" fill="#6ad2ff" stroke-width="0"/>
  <g>
    <g>
      <path d="m767.181,1338.459c0,79.696-64.608,144.313-144.304,144.313s-144.313-64.618-144.313-144.313c0-8.98.816-17.762,2.39-26.287,12.356-67.15,71.199-118.026,141.924-118.026s129.558,50.877,141.914,118.026c1.574,8.525,2.39,17.307,2.39,26.287Z" fill="#ffb433" stroke-width="0"/>
      <path d="m764.791,1312.172c-12.366,67.15-71.199,118.017-141.914,118.017s-129.558-50.867-141.924-118.017c12.356-67.15,71.199-118.026,141.924-118.026s129.558,50.877,141.914,118.026Z" fill="#fddb3a" stroke-width="0"/>
      <circle cx="622.873" cy="1338.458" r="57.71" transform="translate(-821.161 1645.387) rotate(-77.044)" fill="#a6fbff" stroke-width="0"/>
    </g>
    <path d="m478.595,1343.479c-1.001,0-2.011-.067-3.031-.205-12.225-1.652-20.79-12.941-19.138-25.166.202-1.494,5.205-37.004,27.76-72.471,21.418-33.679,62.864-73.826,138.686-73.826s117.062,40.208,138.235,73.937c22.287,35.504,27.002,71.044,27.192,72.539,1.553,12.238-7.108,23.417-19.346,24.971-12.231,1.548-23.417-7.108-24.971-19.346-.027-.201-3.982-28.41-21.485-55.634-22.097-34.369-55.615-51.796-99.625-51.796s-77.782,17.465-100.208,51.909c-17.75,27.261-21.94,55.498-21.98,55.78-1.514,11.205-11.089,19.307-22.089,19.307Z" fill="#fff" stroke-width="0"/>
  </g>
  <g>
    <g>
      <path d="m1532.065,1338.459c0,79.696-64.608,144.313-144.304,144.313s-144.313-64.618-144.313-144.313c0-8.98.815-17.762,2.39-26.287,12.356-67.15,71.199-118.026,141.924-118.026s129.558,50.877,141.914,118.026c1.574,8.525,2.39,17.307,2.39,26.287Z" fill="#ffb433" stroke-width="0"/>
      <path d="m1529.675,1312.172c-12.366,67.15-71.199,118.017-141.914,118.017s-129.558-50.867-141.924-118.017c12.356-67.15,71.199-118.026,141.924-118.026s129.558,50.877,141.914,118.026Z" fill="#fddb3a" stroke-width="0"/>
      <circle cx="1387.757" cy="1338.458" r="57.71" transform="translate(-233.737 2381.576) rotate(-76.717)" fill="#a6fbff" stroke-width="0"/>
    </g>
    <path d="m1243.479,1343.479c-1.001,0-2.011-.067-3.031-.205-12.225-1.652-20.79-12.941-19.138-25.166.202-1.494,5.205-37.004,27.76-72.471,21.418-33.679,62.864-73.826,138.686-73.826s117.062,40.208,138.235,73.937c22.287,35.504,27.002,71.044,27.192,72.539,1.553,12.238-7.108,23.417-19.346,24.971-12.231,1.548-23.417-7.108-24.971-19.346-.027-.201-3.982-28.41-21.485-55.634-22.097-34.369-55.615-51.796-99.625-51.796s-77.782,17.465-100.208,51.909c-17.75,27.261-21.94,55.498-21.98,55.78-1.514,11.205-11.089,19.307-22.089,19.307Z" fill="#fff" stroke-width="0"/>
  </g>
  <path d="m1695.413,1216.279v3.016c-47.15,1.745-113.996-10.09-129.577-87.169h104.978c15.477,23.49,24.599,51.275,24.599,84.153Z" fill="#fff" stroke-width="0"/>
  <g>
    <g>
      <polygon points="1080.12 687.07 863.47 959.248 933.148 745.855 817.729 745.855 928.787 517.228 1080.12 517.228 978.869 687.07 1080.12 687.07" fill="#fddb3a" stroke-width="0"/>
      <path d="m863.47,959.248l69.678-213.393h-100.402c22.535-1.855,70.96-12.116,148.649-58.785h98.725l-216.649,272.178Z" fill="#ffb433" stroke-width="0"/>
    </g>
    <path d="m913.612,639.543c-1.377,0-2.776-.286-4.113-.89-5.033-2.275-7.268-8.199-4.993-13.231l33.33-73.731c2.276-5.032,8.199-7.267,13.231-4.993,5.033,2.275,7.268,8.199,4.993,13.231l-33.33,73.731c-1.671,3.696-5.31,5.883-9.118,5.883Z" fill="#fff" stroke-width="0"/>
    <path d="m899.903,671.736c-1.314,0-2.65-.26-3.934-.811-5.076-2.176-7.428-8.055-5.252-13.131l3.409-7.954c2.176-5.076,8.055-7.427,13.131-5.252,5.076,2.176,7.428,8.055,5.252,13.131l-3.409,7.954c-1.625,3.791-5.317,6.063-9.196,6.063Z" fill="#fff" stroke-width="0"/>
  </g>
  <g>
    <rect x="1193.181" y="633.21" width="99.415" height="118.687" rx="20.69" ry="20.69" fill="#ffb433" stroke-width="0"/>
    <rect x="1444.419" y="619.407" width="109.257" height="40.809" rx="13.241" ry="13.241" fill="#fddb3a" stroke-width="0"/>
    <rect x="1444.419" y="724.89" width="109.257" height="40.809" rx="13.241" ry="13.241" fill="#fddb3a" stroke-width="0"/>
    <path d="m1464.325,806.421h-105.1c-62.881,0-113.862-50.981-113.862-113.862,0-46.308,27.638-86.167,67.326-103.955,14.203-6.38,29.963-9.919,46.537-9.919h105.1v227.736Z" fill="#6ad2ff" stroke-width="0"/>
    <path d="m1464.325,760.915h-53.913c-62.882,0-113.862-50.981-113.862-113.862,0-21.373,5.887-41.36,16.138-58.449,14.203-6.38,29.963-9.919,46.537-9.919h105.1v182.23Z" fill="#a6fbff" stroke-width="0"/>
  </g>
  <path d="m1156.647,1065.526h-167.851c-5.523,0-10-4.477-10-10s4.477-10,10-10h167.851c5.522,0,10,4.477,10,10s-4.478,10-10,10Z" fill="#fff" stroke-width="0"/>
  <path d="m1215.282,1065.526h-9.608c-5.522,0-10-4.477-10-10s4.478-10,10-10h9.608c5.523,0,10,4.477,10,10s-4.477,10-10,10Z" fill="#fff" stroke-width="0"/>
  <path d="m456.213,1175.857c-1.798,0-3.618-.484-5.258-1.501-4.695-2.909-6.142-9.073-3.233-13.767,1.397-2.254,35.478-55.393,145.58-70.943,5.471-.769,10.528,3.035,11.3,8.503.772,5.469-3.035,10.528-8.503,11.3-100.929,14.254-131.083,61.201-131.376,61.673-1.892,3.054-5.163,4.734-8.51,4.734Z" fill="#fff" stroke-width="0"/>
  <path d="m645.504,1108.767c-.249,0-.499-.009-.752-.028l-8.492-.631c-5.508-.41-9.641-5.207-9.231-10.714.41-5.508,5.214-9.633,10.714-9.231l8.492.631c5.508.41,9.641,5.207,9.231,10.714-.391,5.255-4.776,9.259-9.962,9.259Z" fill="#fff" stroke-width="0"/>
  <path d="m1411.397,1452.642c-4.677,0-8.856-3.297-9.799-8.059-1.072-5.412,2.442-10.669,7.851-11.749h0c.425-.086,42.592-8.868,56.866-36.718,2.52-4.914,8.547-6.857,13.461-4.337,4.915,2.519,6.856,8.545,4.338,13.46-18.722,36.525-68.647,46.792-70.763,47.211-.656.13-1.311.192-1.954.192Z" fill="#fff" stroke-width="0"/>
  <path d="m1374.107,1456.596h-5.511c-5.523,0-10-4.477-10-10s4.477-10,10-10h5.511c5.522,0,10,4.477,10,10s-4.478,10-10,10Z" fill="#fff" stroke-width="0"/>
  <path d="m606.168,1453.876c-40.246,0-72.311-37.856-73.674-39.49-3.539-4.24-2.971-10.546,1.27-14.085,4.236-3.536,10.534-2.972,14.075,1.257h0c.278.331,28.205,33.129,59.485,32.303,5.531-.161,10.114,4.212,10.26,9.733.146,5.521-4.212,10.114-9.733,10.26-.56.015-1.124.022-1.682.022Z" fill="#fff" stroke-width="0"/>
</svg>