<?xml version="1.0" encoding="UTF-8"?>
<svg id="a" data-name="FLAT COLORED" xmlns="http://www.w3.org/2000/svg" width="2000" height="2000" viewBox="0 0 2000 2000">
  <g>
    <path d="m608.407,983.216h-133.267c-89.001,0-161.408-72.408-161.408-161.408s72.408-161.408,161.408-161.408h141.457c13.861,0,25.096,11.236,25.096,25.096s-11.236,25.096-25.096,25.096h-141.457c-61.324,0-111.216,49.891-111.216,111.216s49.891,111.216,111.216,111.216h133.267c13.861,0,25.096,11.236,25.096,25.096s-11.236,25.096-25.096,25.096Z" fill="#fff" stroke-width="0"/>
    <g>
      <rect x="566.89" y="625.283" width="99.415" height="118.687" rx="20.69" ry="20.69" fill="#ffb433" stroke-width="0"/>
      <rect x="818.127" y="611.481" width="109.257" height="40.809" rx="13.241" ry="13.241" fill="#fddb3a" stroke-width="0"/>
      <rect x="818.127" y="716.963" width="109.257" height="40.809" rx="13.241" ry="13.241" fill="#fddb3a" stroke-width="0"/>
      <path d="m838.033,798.495h-105.1c-62.881,0-113.862-50.981-113.862-113.862,0-46.308,27.638-86.167,67.326-103.955,14.203-6.38,29.963-9.919,46.537-9.919h105.1v227.736Z" fill="#6ad2ff" stroke-width="0"/>
      <path d="m838.033,752.989h-53.913c-62.882,0-113.863-50.981-113.863-113.862,0-21.373,5.887-41.36,16.139-58.449,14.203-6.38,29.963-9.919,46.537-9.919h105.1v182.23Z" fill="#a6fbff" stroke-width="0"/>
    </g>
  </g>
  <g>
    <polygon points="1287.318 793.102 1212.5 706.995 1066.438 706.995 1066.438 669.73 1229.488 669.73 1315.447 768.661 1287.318 793.102" fill="#ffb433" stroke-width="0"/>
    <rect x="976.98" y="649.129" width="150.752" height="70.005" rx="26.966" ry="26.966" fill="#fddb3a" stroke-width="0"/>
    <g>
      <path d="m1401.994,784.922c0,7.144-1.557,14.019-4.425,20.448-11.452,25.68-43.893,44.188-82.121,44.188-47.796,0-86.547-28.939-86.547-64.636,0-24.023,17.537-44.979,43.576-56.117,12.661-5.425,27.329-8.526,42.971-8.526,47.796,0,86.546,28.939,86.546,64.643Z" fill="#6ad2ff" stroke-width="0"/>
      <path d="m1401.999,784.922c0,6.614-1.332,13.001-3.81,19.017-.195.481-.399.956-.615,1.43-12.661,5.425-27.329,8.525-42.971,8.525-47.796,0-86.546-28.945-86.546-64.643,0-7.144,1.557-14.019,4.425-20.448,12.661-5.425,27.329-8.525,42.971-8.525,23.406,0,44.651,6.944,60.221,18.227,16.236,11.743,26.325,28.203,26.325,46.416Z" fill="#a6fbff" stroke-width="0"/>
    </g>
    <g>
      <path d="m1539.557,1143.087c-.891,33.732-20.989,65.343-53.768,79.52l-186.502,80.626c-11.176,4.835-23.212,7.324-35.391,7.324h-413.229c-23.253,0-45.583-9.076-62.229-25.312l-277.228-270.149c-1.67-1.629-3.257-3.288-4.753-4.978-24.256-27.278-27.586-62.925-15.642-92.406,7.263-17.915,20.169-33.557,37.46-43.657,12.087-7.068,26.315-11.422,42.254-11.944,146.02-4.815,337.152,10.049,441.696,104.308,18.725,16.891,29.368,40.953,29.368,66.162v51.412c0,49.25,39.929,89.169,89.169,89.169h57.66c47.079,0,86.045-36.6,88.995-83.597l.205-3.268,6.924-110.598c.789-12.579-1.096-25.178-5.531-36.969l-10.264-27.288c-16.441-43.709,3.36-87.612,38.259-108.345,19.288-11.473,43.207-15.857,68.16-9.209,13.91,3.708,26.5,10.653,36.876,20.036,10.377,9.393,18.541,21.224,23.611,34.694l29.931,79.489,51.606,137.026,16.646,44.19c4.189,11.114,6.013,22.556,5.716,33.762Z" fill="#54b646" stroke-width="0"/>
      <path d="m1539.557,1143.087c-3.083,1.803-6.31,3.442-9.67,4.896l-186.491,80.626c-11.176,4.835-23.222,7.324-35.391,7.324h-413.24c-23.242,0-45.573-9.076-62.229-25.301l-277.228-270.15c-19.585-19.094-27.872-43.114-27.032-66.428,12.087-7.068,26.315-11.422,42.254-11.944,146.02-4.815,337.152,10.049,441.696,104.308,18.725,16.891,29.368,40.953,29.368,66.162v51.412c0,49.25,39.929,89.169,89.169,89.169h57.66c47.079,0,86.045-36.6,88.995-83.597l.205-3.268c24.779-14.535,41.977-40.738,43.893-71.355l7.14-113.866c.779-12.569-1.106-25.168-5.542-36.969l-10.264-27.289c-4.272-11.37-6.095-22.74-5.839-33.721,19.288-11.473,43.207-15.857,68.16-9.209,13.91,3.708,26.5,10.653,36.876,20.036,10.377,9.393,18.541,21.224,23.611,34.694l29.931,79.489,51.606,137.026,16.646,44.19c4.189,11.114,6.013,22.556,5.716,33.762Z" fill="#54e346" stroke-width="0"/>
    </g>
    <g>
      <path d="m713.778,1371.225c-47.661,63.871-138.083,77.02-201.954,29.359-63.879-47.667-77.022-138.097-29.361-201.968,5.373-7.2,11.279-13.746,17.641-19.632,50.064-46.434,127.642-52.015,184.33-9.714,50.629,37.78,69.394,102.434,51.234,159.433l-.006.008c-2.165,6.807-4.853,13.492-8.076,20.021-3.833,7.774-8.434,15.293-13.807,22.493Z" fill="#ffb433" stroke-width="0"/>
      <path d="m727.585,1348.729c-50.07,46.422-127.643,52.005-184.318,9.713-56.683-42.297-73.414-118.25-43.165-179.463,50.062-46.428,127.649-52.012,184.332-9.715,56.675,42.292,73.408,118.258,43.152,179.465Z" fill="#fddb3a" stroke-width="0"/>
      <circle cx="598.123" cy="1284.922" r="57.71" transform="translate(-733.391 799.282) rotate(-45)" fill="#fff" stroke-width="0"/>
      <path d="m601.984,1403.253c-26.666,0-50.145-11.008-51.521-11.666-4.984-2.38-7.094-8.349-4.715-13.333,2.378-4.978,8.337-7.093,13.319-4.721h0c.391.185,39.439,18.363,67.534,4.581,4.958-2.435,10.95-.387,13.382,4.573,2.433,4.958.385,10.949-4.573,13.382-10.791,5.294-22.384,7.184-33.427,7.184Z" fill="#fff" stroke-width="0"/>
      <path d="m763.804,1320.011c-1.987,15.918-19.206,25.014-33.475,17.68-58.326-29.962-196.919-101.174-255.215-131.116-12.579-6.463-16.205-22.33-8.686-33.404.942-1.403,2.069-2.725,3.38-3.944.082-.071.154-.143.236-.215,56.902-52.774,142.998-62.218,210.348-21.347,4.814,2.909,9.537,6.085,14.136,9.516,52.518,39.191,76.877,102.137,69.276,162.829Z" fill="#6ad2ff" stroke-width="0"/>
      <path d="m704.289,1260.487c-1.997,15.918-19.217,25.014-33.486,17.68-44.948-23.089-137.579-70.68-204.376-104.995.942-1.403,2.069-2.725,3.38-3.944.082-.071.154-.143.236-.215,56.902-52.774,142.998-62.218,210.348-21.347,20.477,33.947,28.784,73.845,23.898,112.821Z" fill="#a6fbff" stroke-width="0"/>
    </g>
    <g>
      <path d="m1682.229,1257.422c11.462,78.865-43.178,152.101-122.043,163.563-78.875,11.464-152.112-43.186-163.575-122.052-1.292-8.89-1.744-17.695-1.408-26.356,2.566-68.234,53.476-127.037,123.472-137.21,62.514-9.086,121.501,23.362,148.964,76.508v.01c3.284,6.344,6.11,12.972,8.448,19.868,2.787,8.207,4.85,16.778,6.142,25.668Z" fill="#ffb433" stroke-width="0"/>
      <path d="m1676.086,1231.752c-2.579,68.23-53.484,127.03-123.465,137.201-69.989,10.172-135.527-31.704-157.422-96.377,2.57-68.229,53.483-127.039,123.472-137.212,69.98-10.171,135.528,31.714,157.414,96.388Z" fill="#fddb3a" stroke-width="0"/>
      <circle cx="1539.424" cy="1278.177" r="57.71" fill="#fff" stroke-width="0"/>
      <path d="m1577.814,1387.877c-4.119,0-7.977-2.565-9.428-6.669-1.84-5.204.884-10.914,6.084-12.759.673-.243,40.902-14.999,50.988-44.512,1.786-5.227,7.471-8.016,12.697-6.229s8.015,7.471,6.229,12.696c-13.273,38.839-61.203,56.179-63.237,56.898-1.102.39-2.228.575-3.333.575Z" fill="#fff" stroke-width="0"/>
      <path d="m1670.222,1222.012c-62.423,20.057-210.789,67.699-273.181,87.745-15.171,4.876-30.74-6.73-30.157-22.648.01-.112.01-.215.01-.318,2.079-55.202,30.126-105.333,73.712-136.401,22.033-15.713,48.041-26.541,76.662-30.699,64.851-9.424,126.578,17.844,164.13,66.141.973,1.25,1.782,2.551,2.448,3.893,6.177,12.302.143,27.862-13.624,32.287Z" fill="#6ad2ff" stroke-width="0"/>
      <path d="m1683.846,1189.725c-71.12,22.853-191.193,61.42-245.688,78.915-15.181,4.876-30.74-6.73-30.157-22.648,0-.113.01-.215.01-.317,1.321-34.991,13.071-67.945,32.595-95.284,22.033-15.713,48.041-26.541,76.662-30.699,64.851-9.424,126.578,17.844,164.13,66.141.973,1.25,1.782,2.551,2.448,3.893Z" fill="#a6fbff" stroke-width="0"/>
    </g>
    <path d="m1028.534,986.076c-121.999,140.294-430.408-124.621-430.408-124.621,1.158-17.393,32.881-15.662,32.881-15.662,5.962.031,11.831.082,17.608.174,240.505,3.769,328.905,62.269,361.285,102.475,17.27,21.409,18.633,37.635,18.633,37.635Z" fill="#6ad2ff" stroke-width="0"/>
    <path d="m1009.902,948.442c-97.22,72.411-274.544-38.812-361.285-102.475,240.505,3.769,328.905,62.269,361.285,102.475Z" fill="#a6fbff" stroke-width="0"/>
    <path d="m567.642,963.909c0,12.763-5.173,24.308-13.532,32.676-8.359,8.359-19.913,13.532-32.666,13.532h-14.986c-6.74-7.58-11.862-15.806-15.488-24.369-9.434-22.238-8.779-46.751-.154-68.037h30.628c6.443,0,12.569,1.321,18.131,3.688.307.133.604.266.912.4,12.057,5.47,21.358,15.959,25.209,28.804,1.27,4.21,1.946,8.676,1.946,13.306Z" fill="#ffb433" stroke-width="0"/>
    <path d="m543.273,939.54c0,12.763-5.173,24.308-13.532,32.677-8.359,8.358-19.913,13.531-32.666,13.531h-6.105c-9.434-22.238-8.779-46.751-.154-68.037h30.628c6.443,0,12.569,1.321,18.131,3.688.666,1.567,1.26,3.186,1.752,4.835,1.27,4.21,1.946,8.676,1.946,13.306Z" fill="#fddb3a" stroke-width="0"/>
    <path d="m1517.196,1065.135c-4.487,2.294-9.28,4.159-14.341,5.531l-10.151,2.756c-39.273,10.633-79.735-12.579-90.378-51.862-1.752-6.453-2.581-12.927-2.581-19.309,0-6.136.768-12.169,2.254-17.987,6.32-24.963,25.568-45.87,52.18-53.082l10.151-2.745c.42-.113.84-.226,1.26-.328l39.837,105.784,11.77,31.242Z" fill="#a6fbff" stroke-width="0"/>
    <path d="m1505.426,1033.892c-.85.266-1.711.512-2.571.748l-10.151,2.755c-39.273,10.633-79.735-12.579-90.378-51.862-.113-.42-.225-.85-.328-1.27,6.32-24.963,25.568-45.87,52.18-53.082l10.151-2.745c.42-.113.84-.226,1.26-.328l39.837,105.784Z" fill="#fff" stroke-width="0"/>
  </g>
  <g>
    <g>
      <polygon points="1264.134 1128.67 1047.485 1400.848 1117.162 1187.455 1001.744 1187.455 1112.801 958.828 1264.134 958.828 1162.883 1128.67 1264.134 1128.67" fill="#fddb3a" stroke-width="0"/>
      <path d="m1047.485,1400.848l69.677-213.393h-100.401c22.535-1.855,70.96-12.116,148.649-58.785h98.725l-216.649,272.178Z" fill="#ffb433" stroke-width="0"/>
    </g>
    <path d="m1097.626,1081.143c-1.378,0-2.777-.286-4.113-.891-5.033-2.275-7.268-8.199-4.993-13.231l33.331-73.73c2.275-5.032,8.201-7.267,13.231-4.993,5.033,2.275,7.268,8.199,4.993,13.231l-33.331,73.73c-1.671,3.696-5.31,5.884-9.118,5.884Z" fill="#fff" stroke-width="0"/>
    <path d="m1083.917,1113.337c-1.314,0-2.649-.261-3.934-.811-5.076-2.176-7.428-8.054-5.252-13.131l3.409-7.954c2.175-5.074,8.053-7.429,13.13-5.252,5.076,2.176,7.428,8.054,5.252,13.131l-3.409,7.954c-1.625,3.791-5.316,6.064-9.196,6.064Z" fill="#fff" stroke-width="0"/>
  </g>
  <path d="m736.587,1127.133c-2.516,0-5.034-.943-6.978-2.838l-103.294-100.656c-3.956-3.854-4.037-10.186-.183-14.142,3.855-3.955,10.186-4.036,14.141-.183l103.293,100.656c3.956,3.854,4.037,10.186.183,14.142-1.96,2.011-4.56,3.02-7.163,3.02Z" fill="#fff" stroke-width="0"/>
  <path d="m780.979,1170.391c-2.516,0-5.034-.943-6.978-2.838l-10.6-10.329c-3.956-3.854-4.037-10.185-.183-14.142,3.854-3.955,10.186-4.037,14.141-.183l10.6,10.329c3.955,3.854,4.037,10.186.183,14.142-1.96,2.011-4.56,3.021-7.163,3.021Z" fill="#fff" stroke-width="0"/>
  <path d="m872.766,973.878c-.693,0-1.396-.072-2.1-.223-24.242-5.183-89.837-34.438-92.618-35.68-5.042-2.254-7.302-8.168-5.049-13.21,2.253-5.043,8.167-7.303,13.21-5.05.662.296,66.442,29.637,88.637,34.381,5.401,1.154,8.843,6.469,7.689,11.87-1.004,4.695-5.153,7.911-9.769,7.911Z" fill="#fff" stroke-width="0"/>
  <path d="m909.512,980.773c-.405,0-.814-.024-1.227-.075l-4.207-.515c-5.482-.67-9.383-5.658-8.712-11.14.67-5.481,5.657-9.39,11.14-8.712l4.207.515c5.482.67,9.383,5.658,8.712,11.14-.62,5.069-4.933,8.787-9.914,8.787Z" fill="#fff" stroke-width="0"/>
</svg>