<?xml version="1.0" encoding="UTF-8"?>
<svg id="a" data-name="FLAT COLORED" xmlns="http://www.w3.org/2000/svg" width="2000" height="2000" viewBox="0 0 2000 2000">
  <g>
    <rect x="936.524" y="667.01" width="55.714" height="181.366" fill="#ffb433" stroke-width="0"/>
    <path d="m1343.457,1191.9c0,5.684-.12,11.343-.377,16.967-2.083,47.653-12.895,93.042-30.865,134.606-10.485,24.238-23.415,47.181-38.47,68.512-58.018,82.187-147.655,140.462-251.208,157.129-19.917,3.207-40.347,4.87-61.173,4.87-211.024,0-382.094-171.062-382.094-382.085,0-20.329,1.586-40.279,4.647-59.75,9.697-61.774,34.2-118.634,69.772-166.844,24.392-33.069,53.989-62.065,87.58-85.78,55.883-39.447,122.834-64.285,195.274-68.932,8.205-.523,16.478-.789,24.821-.789,211.023,0,382.094,171.07,382.094,382.094Z" fill="#6ad2ff" stroke-width="0"/>
    <path d="m1343.457,1191.9c0,5.684-.12,11.343-.377,16.967-2.083,47.653-12.895,93.042-30.865,134.606-10.485,24.238-23.415,47.181-38.47,68.512-46.417,32.769-100.466,55.455-158.947,64.868-19.917,3.207-40.348,4.869-61.173,4.869-211.024,0-382.094-171.061-382.094-382.085,0-20.328,1.586-40.279,4.647-59.75,9.268-59.029,32.049-113.567,65.092-160.362,55.883-39.447,122.834-64.285,195.274-68.932,8.205-.523,16.478-.789,24.821-.789,211.023,0,382.094,171.07,382.094,382.094Z" fill="#a6fbff" stroke-width="0"/>
    <path d="m1343.457,1191.9c0,5.684-.12,11.343-.377,16.967-62.776,47.541-171.808,10.863-218.165-34.423-61.019-59.604-5.676-137.65-107.848-190.155-71.101-36.541-81.047-123.915-80.524-173.694,8.205-.523,16.478-.789,24.821-.789,211.023,0,382.094,171.07,382.094,382.094Z" fill="#54e346" stroke-width="0"/>
    <path d="m1102.383,1547.167c-119.182,47.198-257.312,32.109-364.381-45.286,50.251-25.815,52.291-74.796,75.766-104.804,15.458-19.754,40.202-31.294,94.079-22.601,75.465,12.175,126.393,60.35,158.69,107.025,16.599,23.981,28.284,47.567,35.846,65.666Z" fill="#54b646" stroke-width="0"/>
    <path d="m1051.121,1265.265c-4.253,39.73-90.821,79.469-163.191,21.288-72.379-58.181-97.92-71.53-187.326-94.653-6.55-1.698-12.946-3.524-19.179-5.487-41.342-12.989-75.311-31.663-97.508-54.263,9.697-61.774,34.2-118.634,69.772-166.844,12.252.934,25.755,2.735,39.971,5.881,54.1,11.977,118.342,43.443,161.631,120.948,87.983,157.516,200.092,133.398,195.831,173.128Z" fill="#54b646" stroke-width="0"/>
    <path d="m887.93,1286.553c-72.379-58.181-97.92-71.53-187.326-94.653-6.55-1.698-12.946-3.524-19.179-5.487-6.473-27.873-9.894-56.93-9.894-86.774,0-20.328,1.586-40.279,4.647-59.75,3.721-23.697,9.62-46.666,17.482-68.701,54.1,11.977,118.342,43.443,161.631,120.948,87.983,157.516,200.092,133.398,195.831,173.128-4.253,39.73-90.821,79.469-163.191,21.288Z" fill="#54e346" stroke-width="0"/>
    <path d="m1066.537,1481.501c-4.287.155-8.591.223-12.912.223-90.846,0-174.286-31.697-239.857-84.647,15.458-19.754,40.202-31.294,94.079-22.601,75.465,12.175,126.393,60.35,158.69,107.025Z" fill="#54e346" stroke-width="0"/>
    <g>
      <path d="m969.461,732.178c-5.821-2.513-9.812-7.978-10.485-14.283-34.411-321.622,306.301-303.527,453.373-281.13,5.917.899,8.796,5.992,8.333,10.777-.347,3.677-2.669,7.169-7.084,8.45-48.223,13.998-113.231,52.955-157.308,158.085-55.932,133.41-152.393,147.137-219.986,137.106-29.979-4.454-54.278-13.579-66.843-19.006Z" fill="#54b646" stroke-width="0"/>
      <path d="m1036.304,751.184c-1.18-.492-2.292-.96-3.32-1.405-5.821-2.514-9.812-7.979-10.485-14.283-30.6-286.022,235.465-303.372,398.183-287.954-.347,3.677-2.669,7.169-7.084,8.45-48.223,13.998-113.231,52.955-157.308,158.085-55.932,133.41-152.393,147.137-219.986,137.106Z" fill="#54e346" stroke-width="0"/>
      <path d="m1254.742,503.832s-87.819,35.207-126.396,117.136c-38.578,81.928-158.88,111.213-158.88,111.213,0,0,78.657-46.116,116.139-133.641,37.482-87.524,169.137-94.708,169.137-94.708Z" fill="#54b646" stroke-width="0"/>
    </g>
    <g>
      <path d="m960.676,731.252c3.829-1.615,6.474-5.174,6.95-9.302,24.332-210.582-199.051-200.611-295.558-186.748-3.883.556-5.797,3.878-5.521,7.016.207,2.412,1.709,4.713,4.596,5.577,31.525,9.441,73.912,35.331,102.216,104.472,35.916,87.74,99.055,97.269,143.407,91.07,19.671-2.753,35.646-8.598,43.91-12.085Z" fill="#54b646" stroke-width="0"/>
      <path d="m916.765,743.337c.776-.316,1.507-.616,2.184-.902,3.829-1.615,6.474-5.174,6.95-9.302,21.638-187.274-152.63-200.117-259.352-190.914.207,2.412,1.709,4.713,4.596,5.577,31.525,9.441,73.912,35.331,102.216,104.472,35.916,87.74,99.055,97.269,143.407,91.07Z" fill="#54e346" stroke-width="0"/>
      <path d="m774.983,580.026s57.356,23.559,82.184,77.464c24.828,53.905,103.505,73.763,103.505,73.763,0,0-51.292-30.658-75.371-88.224-24.079-57.566-110.319-63.003-110.319-63.003Z" fill="#54b646" stroke-width="0"/>
    </g>
    <path d="m1197.265,979.287c-2.943,0-5.858-1.293-7.833-3.775-52.624-66.156-125.178-89.709-125.905-89.939-5.261-1.666-8.183-7.282-6.522-12.544,1.66-5.263,7.267-8.188,12.531-6.532,3.198,1.005,78.974,25.444,135.548,96.565,3.438,4.322,2.721,10.613-1.601,14.051-1.84,1.463-4.037,2.174-6.219,2.174Z" fill="#fff" stroke-width="0"/>
    <path d="m1231.512,1025.65c-3.306,0-6.54-1.637-8.446-4.633l-7.376-11.591c-2.965-4.66-1.591-10.84,3.068-13.806,4.659-2.964,10.84-1.591,13.806,3.068l7.375,11.591c2.965,4.66,1.591,10.84-3.068,13.806-1.664,1.059-3.523,1.565-5.359,1.565Z" fill="#fff" stroke-width="0"/>
    <path d="m660.662,1354.94c-3.04,0-6.043-1.381-8.008-4-29.285-39.046-36.681-104.723-36.981-107.499-.594-5.491,3.375-10.424,8.866-11.018,5.49-.6,10.424,3.374,11.018,8.866.095.858,7.181,63.097,33.098,97.651,3.314,4.418,2.418,10.686-2,14-1.799,1.349-3.905,2-5.992,2Z" fill="#fff" stroke-width="0"/>
    <path d="m681.561,1381.542c-2.303,0-4.618-.791-6.503-2.407l-3.674-3.149c-4.193-3.594-4.679-9.907-1.085-14.101,3.595-4.194,9.907-4.679,14.101-1.085l3.674,3.149c4.193,3.594,4.679,9.907,1.085,14.101-1.978,2.308-4.779,3.492-7.597,3.492Z" fill="#fff" stroke-width="0"/>
    <path d="m1022.343,572.479c-1.618,0-3.259-.394-4.778-1.223-4.844-2.644-6.633-8.706-3.995-13.552,1.446-2.658,36.148-65.286,99.356-82.846,5.319-1.478,10.833,1.637,12.312,6.958,1.478,5.321-1.637,10.834-6.958,12.312-54.918,15.257-86.834,72.57-87.149,73.147-1.818,3.321-5.249,5.204-8.787,5.204Z" fill="#fff" stroke-width="0"/>
    <path d="m1154.885,481.356c-3.917,0-7.634-2.315-9.235-6.157-2.124-5.098.287-10.953,5.385-13.077l5.086-2.119c5.097-2.122,10.953.287,13.077,5.385,2.124,5.098-.287,10.953-5.385,13.077l-5.086,2.119c-1.257.523-2.56.771-3.842.771Z" fill="#fff" stroke-width="0"/>
    <path d="m1094.136,1266.496c-.745,0-1.501-.084-2.257-.258-5.381-1.242-8.737-6.611-7.496-11.993,1.898-8.223,2.534-22.758-14.52-27.709-27.616-8.017-66.566-35.908-68.211-37.091-4.482-3.226-5.501-9.473-2.276-13.956s9.473-5.503,13.956-2.279c.376.27,37.805,27.064,62.107,34.119,27.874,8.093,32.737,32.754,28.432,51.413-1.067,4.625-5.184,7.754-9.735,7.754Z" fill="#fff" stroke-width="0"/>
    <path d="m1081.419,1302.1c-.804,0-1.619-.098-2.434-.301-5.358-1.339-8.615-6.769-7.275-12.127l1.413-5.651c1.34-5.358,6.773-8.612,12.127-7.275,5.358,1.339,8.615,6.769,7.275,12.127l-1.413,5.651c-1.136,4.543-5.213,7.577-9.693,7.577Z" fill="#fff" stroke-width="0"/>
  </g>
  <path d="m766.256,1067.363c-3.208,0-6.359-1.541-8.292-4.398-26.225-38.767-89.176-45.747-89.809-45.813-5.489-.572-9.482-5.483-8.916-10.973.566-5.489,5.461-9.485,10.958-8.922,2.959.302,72.829,7.933,104.332,54.502,3.095,4.574,1.895,10.792-2.68,13.886-1.717,1.162-3.666,1.718-5.594,1.718Z" fill="#fff" stroke-width="0"/>
  <path d="m791.769,1105.032c-2.956,0-5.882-1.304-7.855-3.804l-6.358-8.053c-3.422-4.334-2.683-10.623,1.652-14.045,4.334-3.423,10.623-2.683,14.045,1.652l6.358,8.053c3.422,4.334,2.683,10.623-1.652,14.045-1.835,1.449-4.02,2.152-6.19,2.152Z" fill="#fff" stroke-width="0"/>
</svg>