<?xml version="1.0" encoding="UTF-8"?>
<svg id="a" data-name="FLAT COLORED" xmlns="http://www.w3.org/2000/svg" width="2000" height="2000" viewBox="0 0 2000 2000">
  <g>
    <polygon points="1060.1 769.761 927.699 843.791 968.954 989.807 822.938 948.552 748.908 1080.953 674.877 948.551 528.861 989.807 570.117 843.791 437.715 769.761 570.117 695.73 528.861 549.714 674.877 590.97 748.908 458.568 822.938 590.97 968.954 549.714 927.699 695.73 1060.1 769.761" fill="#ffb433" stroke-width="0"/>
    <circle cx="748.908" cy="769.761" r="108.583" transform="translate(-324.953 755.015) rotate(-45)" fill="#fddb3a" stroke-width="0"/>
  </g>
  <g>
    <path d="m1404.751,1125.009c0,6.195-.131,12.362-.411,18.492-2.27,51.934-14.053,101.403-33.639,146.702-11.428,26.416-25.519,51.421-41.927,74.669-63.231,89.573-160.924,153.084-273.782,171.249-21.706,3.495-43.973,5.308-66.67,5.308-229.986,0-416.429-186.433-416.429-416.419,0-22.155,1.729-43.899,5.064-65.119,10.568-67.324,37.274-129.294,76.042-181.836,26.584-36.04,58.84-67.642,95.45-93.488,60.904-42.992,133.872-70.062,212.821-75.126,8.942-.57,17.959-.86,27.051-.86,229.986,0,416.428,186.442,416.428,416.429Z" fill="#6ad2ff" stroke-width="0"/>
    <path d="m1404.751,1125.009c0,6.195-.131,12.362-.411,18.492-2.27,51.934-14.053,101.403-33.639,146.702-11.428,26.416-25.519,51.421-41.927,74.669-50.589,35.713-109.494,60.438-173.23,70.698-21.707,3.495-43.973,5.307-66.67,5.307-229.986,0-416.429-186.433-416.429-416.419,0-22.155,1.729-43.899,5.064-65.119,10.101-64.334,34.928-123.772,70.941-174.772,60.904-42.992,133.872-70.062,212.821-75.126,8.942-.57,17.959-.86,27.051-.86,229.986,0,416.428,186.442,416.428,416.429Z" fill="#a6fbff" stroke-width="0"/>
    <path d="m1404.751,1125.009c0,6.195-.131,12.362-.411,18.492-68.417,51.813-187.246,11.839-237.77-37.516-66.502-64.96-6.186-150.019-117.539-207.242-77.49-39.825-88.329-135.05-87.76-189.302,8.942-.57,17.959-.86,27.051-.86,229.986,0,416.428,186.442,416.428,416.429Z" fill="#54e346" stroke-width="0"/>
    <path d="m1142.014,1512.2c-129.892,51.44-280.434,34.994-397.124-49.355,54.766-28.135,56.99-81.518,82.574-114.222,16.848-21.529,43.815-34.106,102.533-24.631,82.247,13.269,137.751,65.773,172.95,116.642,18.09,26.136,30.826,51.841,39.067,71.566Z" fill="#54b646" stroke-width="0"/>
    <path d="m1086.146,1204.966c-4.635,43.3-98.982,86.61-177.856,23.202-78.883-63.409-106.719-77.958-204.159-103.159-7.139-1.85-14.11-3.841-20.903-5.98-45.057-14.157-82.078-34.508-106.27-59.139,10.568-67.324,37.274-129.294,76.042-181.836,13.353,1.018,28.07,2.981,43.562,6.41,58.961,13.053,128.977,47.346,176.155,131.817,95.889,171.67,218.072,145.385,213.428,188.685Z" fill="#54b646" stroke-width="0"/>
    <path d="m908.29,1228.168c-78.883-63.409-106.719-77.958-204.159-103.159-7.139-1.85-14.11-3.841-20.903-5.98-7.055-30.378-10.783-62.045-10.783-94.572,0-22.155,1.729-43.899,5.064-65.119,4.056-25.827,10.484-50.86,19.053-74.874,58.961,13.053,128.977,47.346,176.155,131.817,95.889,171.67,218.072,145.385,213.428,188.685-4.635,43.3-98.982,86.61-177.856,23.202Z" fill="#54e346" stroke-width="0"/>
    <path d="m1102.947,1440.633c-4.672.168-9.363.243-14.072.243-99.01,0-189.947-34.545-261.41-92.254,16.848-21.529,43.815-34.106,102.533-24.631,82.247,13.269,137.751,65.773,172.95,116.642Z" fill="#54e346" stroke-width="0"/>
    <path d="m660.6,1301.802c-3.04,0-6.043-1.382-8.008-4.001-31.771-42.36-39.804-113.701-40.13-116.717-.594-5.491,3.375-10.424,8.866-11.019,5.495-.595,10.421,3.373,11.018,8.862h0c.075.686,7.796,68.939,36.247,106.873,3.314,4.418,2.418,10.686-2,14-1.799,1.349-3.905,2.001-5.992,2.001Z" fill="#fff" stroke-width="0"/>
    <path d="m683.377,1330.794c-2.304,0-4.618-.791-6.504-2.407l-4.003-3.432c-4.193-3.595-4.678-9.907-1.084-14.101,3.594-4.194,9.907-4.678,14.101-1.085l4.003,3.432c4.193,3.595,4.678,9.907,1.084,14.101-1.977,2.308-4.779,3.492-7.597,3.492Z" fill="#fff" stroke-width="0"/>
    <path d="m1133.025,1205.408c-.745,0-1.501-.083-2.257-.258-5.381-1.242-8.737-6.611-7.496-11.992,2.14-9.272,2.848-25.662-16.45-31.264-29.951-8.696-72.278-39.005-74.065-40.291-4.482-3.226-5.501-9.474-2.276-13.956,3.225-4.482,9.474-5.503,13.957-2.279.41.295,41.326,29.586,67.961,37.319,29.777,8.645,34.966,35.013,30.362,54.967-1.067,4.625-5.184,7.754-9.735,7.754Z" fill="#fff" stroke-width="0"/>
    <path d="m1119.166,1244.212c-.803,0-1.618-.097-2.432-.301-5.358-1.339-8.616-6.769-7.277-12.126l1.54-6.159c1.34-5.357,6.77-8.616,12.126-7.276,5.358,1.339,8.616,6.769,7.277,12.126l-1.54,6.159c-1.136,4.544-5.213,7.577-9.694,7.577Z" fill="#fff" stroke-width="0"/>
  </g>
  <path d="m1480.112,1255.272v-607.88c0-38.26-31.015-69.275-69.275-69.275h0c-38.259,0-69.275,31.015-69.275,69.275v607.88c-48.8,25.147-82.173,76.028-82.173,134.707,0,83.643,67.806,151.448,151.448,151.448s151.448-67.806,151.448-151.448c0-58.679-33.374-109.56-82.173-134.707Z" fill="#ffb433" stroke-width="0"/>
  <path d="m1435.664,1318.305v-658.127c0-13.712-11.116-24.828-24.828-24.828h0c-13.712,0-24.827,11.116-24.827,24.828v658.127c-29.695,10.285-51.026,38.48-51.026,71.675,0,41.893,33.961,75.853,75.853,75.853s75.853-33.961,75.853-75.853c0-33.194-21.331-61.389-51.026-71.675Z" fill="#fddb3a" stroke-width="0"/>
  <path d="m1183.002,820.798c-2.582,0-5.162-.993-7.119-2.977-36.525-37.016-124.733-54.133-125.62-54.302-5.424-1.031-8.988-6.264-7.958-11.689,1.029-5.425,6.261-8.988,11.686-7.96,3.869.733,95.211,18.436,136.128,59.904,3.879,3.931,3.837,10.263-.094,14.142-1.949,1.923-4.487,2.882-7.023,2.882Z" fill="#fff" stroke-width="0"/>
  <path d="m1217.229,848.66c-2.4,0-4.808-.858-6.724-2.601l-6.069-5.517c-4.086-3.715-4.388-10.039-.673-14.126,3.716-4.087,10.039-4.389,14.126-.673l6.069,5.517c4.086,3.715,4.388,10.039.673,14.126-1.974,2.171-4.684,3.274-7.403,3.274Z" fill="#fff" stroke-width="0"/>
  <path d="m625.773,699.263c-1.531,0-3.083-.352-4.538-1.098-4.903-2.51-6.861-8.495-4.369-13.408,1.077-2.122,27.124-52.084,92.798-61.107,5.476-.755,10.517,3.075,11.268,8.546.752,5.472-3.074,10.517-8.545,11.269-54.986,7.555-76.8,48.63-77.701,50.374-1.779,3.442-5.284,5.425-8.913,5.425Z" fill="#fff" stroke-width="0"/>
  <path d="m764.542,636.936h-5.517c-5.523,0-10-4.477-10-10s4.477-10,10-10h5.517c5.523,0,10,4.478,10,10s-4.477,10-10,10Z" fill="#fff" stroke-width="0"/>
</svg>