<?xml version="1.0" encoding="UTF-8"?>
<svg id="a" data-name="FLAT COLORED" xmlns="http://www.w3.org/2000/svg" width="2000" height="2000" viewBox="0 0 2000 2000">
  <rect x="989.578" y="768.261" width="59.534" height="373.122" fill="#54b646" stroke-width="0"/>
  <g>
    <path d="m1315.632,1205.227h-676.964c0-96.918,100.151-105.825,100.151-105.825.881-30.454,10.4-62.044,30.965-87.8,25.911-32.46,69.377-55.648,135.272-55.648,118.159,0,145.202,130.051,145.202,130.051,0,0,69.098-40.161,153.384-17.871,84.286,22.29,111.99,137.093,111.99,137.093Z" fill="#fddb3a" stroke-width="0"/>
    <path d="m1315.632,1205.227h-676.964c0-96.918,100.151-105.825,100.151-105.825.881-30.454,10.4-62.044,30.965-87.8,0,0-3.129,115.855,80.746,129.784,83.89,13.93,126.621-5.807,126.621-5.807,0,0,15.614,40.624,67.893,32.502,52.264-8.122,54.703-22.052,54.703-22.052,0,0,50.061,55.704,215.886,59.197Z" fill="#ffb433" stroke-width="0"/>
  </g>
  <path d="m1444.413,1138.577l-355.74,257.7c-28.11,20.37-61.94,31.33-96.65,31.33h-382.32l19.31-234.07,59.32-33.75,43.31-24.64c38.32-21.8,81.65-33.26,125.74-33.26h186.59c12.17,0,23.19,4.93,31.16,12.91,7.98,7.97,12.91,18.99,12.91,31.16,0,3.3-.36,6.52-1.06,9.63-4.06,18.18-19.37,32.29-38.59,34.22l-66.94,3.73h210.04l195.71-135.69c8.55-5.93,18.39-8.82,28.17-8.82,13.64,0,27.16,5.63,36.86,16.46.77.86,1.51,1.75,2.22,2.65,17.05,21.87,12.79,53.9-10.04,70.44Z" fill="#a6fbff" stroke-width="0"/>
  <path d="m1444.413,1138.577l-355.74,257.7c-28.11,20.37-61.94,31.33-96.65,31.33h-382.32l19.31-234.07,59.32-33.75v80.493c0,60.103,48.723,108.827,108.827,108.827h177.896c40.56,0,80.198-12.104,113.839-34.761l365.558-246.208c17.05,21.87,12.79,53.9-10.04,70.44Z" fill="#6ad2ff" stroke-width="0"/>
  <path d="m981.453,1193.537h103.98l-206.87.62c-10.67.03-19.33-8.61-19.33-19.28v-.01c0-10.64,8.63-19.28,19.28-19.28h208.47c-4.06,18.18-19.37,32.29-38.59,34.22l-66.94,3.73Z" fill="#6ad2ff" stroke-width="0"/>
  <g>
    <path d="m638.668,1133.606v327.31c0,15.66-12.69,28.35-28.35,28.35h-88.96c-15.66,0-28.35-12.69-28.35-28.35v-327.31c0-15.65,12.69-28.34,28.35-28.34h88.96c15.66,0,28.35,12.69,28.35,28.34Z" fill="#54b646" stroke-width="0"/>
    <path d="m638.668,1133.606v309.03h-73.45c-15.65,0-28.34-12.69-28.34-28.34v-309.03h73.44c15.66,0,28.35,12.69,28.35,28.34Z" fill="#54e346" stroke-width="0"/>
  </g>
  <g>
    <path d="m1024.774,837.899c-6.22-2.686-10.485-8.526-11.204-15.262-36.77-343.679,327.307-324.343,484.466-300.41,6.323.96,9.399,6.403,8.905,11.516-.371,3.929-2.852,7.661-7.57,9.03-51.53,14.959-120.996,56.587-168.097,168.927-59.767,142.56-162.845,157.228-235.073,146.509-32.035-4.759-58-14.51-71.427-20.309Z" fill="#54b646" stroke-width="0"/>
    <path d="m1096.201,858.208c-1.261-.526-2.449-1.026-3.547-1.501-6.22-2.686-10.485-8.526-11.204-15.262-32.698-305.638,251.614-324.177,425.491-307.702-.371,3.929-2.852,7.661-7.57,9.03-51.53,14.959-120.996,56.587-168.097,168.927-59.767,142.56-162.845,157.228-235.073,146.509Z" fill="#54e346" stroke-width="0"/>
    <path d="m1329.62,593.891s-93.841,37.622-135.065,125.169c-41.224,87.547-169.776,118.84-169.776,118.84,0,0,84.051-49.279,124.104-142.806,40.053-93.527,180.737-101.203,180.737-101.203Z" fill="#54b646" stroke-width="0"/>
  </g>
  <g>
    <path d="m1015.387,836.909c4.091-1.726,6.918-5.529,7.427-9.94,26.001-225.025-212.703-214.369-315.828-199.555-4.149.594-6.195,4.144-5.899,7.498.221,2.577,1.826,5.036,4.911,5.96,33.687,10.088,78.981,37.754,109.226,111.636,38.379,93.757,105.849,103.94,153.242,97.316,21.02-2.941,38.09-9.188,46.922-12.914Z" fill="#54b646" stroke-width="0"/>
    <path d="m968.465,849.823c.829-.338,1.611-.659,2.333-.964,4.091-1.726,6.918-5.529,7.427-9.94,23.121-200.117-163.098-213.841-277.139-204.007.221,2.577,1.826,5.036,4.911,5.96,33.687,10.088,78.981,37.754,109.226,111.636,38.379,93.757,105.849,103.94,153.242,97.316Z" fill="#54e346" stroke-width="0"/>
    <path d="m816.959,675.312s61.29,25.175,87.821,82.777c26.531,57.602,110.604,78.822,110.604,78.822,0,0-54.81-32.76-80.54-94.274-25.73-61.514-117.884-67.324-117.884-67.324Z" fill="#54b646" stroke-width="0"/>
  </g>
  <path d="m1081.283,666.561c-1.618,0-3.258-.393-4.778-1.223-4.844-2.644-6.633-8.706-3.995-13.553,1.54-2.829,38.484-69.506,105.752-88.194,5.322-1.475,10.834,1.637,12.312,6.958,1.479,5.321-1.637,10.833-6.958,12.311-58.976,16.385-93.205,77.876-93.544,78.495-1.818,3.322-5.249,5.205-8.788,5.205Z" fill="#fff" stroke-width="0"/>
  <path d="m1222.915,569.189c-3.916,0-7.634-2.316-9.234-6.156-2.125-5.098.286-10.953,5.384-13.077l5.434-2.265c5.095-2.125,10.952.285,13.077,5.384,2.124,5.098-.286,10.953-5.384,13.077l-5.435,2.265c-1.257.524-2.56.772-3.843.772Z" fill="#fff" stroke-width="0"/>
  <path d="m602.94,1335.82c-5.523,0-10-4.477-10-10v-150.948c0-5.523,4.477-10,10-10s10,4.477,10,10v150.948c0,5.523-4.478,10-10,10Z" fill="#fff" stroke-width="0"/>
  <path d="m602.94,1385.889c-5.523,0-10-4.478-10-10v-14.068c0-5.522,4.477-10,10-10s10,4.478,10,10v14.068c0,5.522-4.478,10-10,10Z" fill="#fff" stroke-width="0"/>
  <path d="m965.974,1390.855h-90.207c-5.522,0-10-4.478-10-10s4.478-10,10-10h90.207c5.522,0,10,4.477,10,10s-4.478,10-10,10Z" fill="#fff" stroke-width="0"/>
  <path d="m1007.204,1374.878h0c.485-4.123,3.515-7.456,7.551-8.43,1.374-.332,2.904-.802,4.534-1.47,5.112-2.095,10.952.357,13.042,5.468,2.092,5.112-.356,10.951-5.468,13.042-2.399.981-5.309,1.701-8.19,2.226-6.48,1.18-12.239-4.295-11.47-10.836Z" fill="#fff" stroke-width="0"/>
  <path d="m988.742,1047.408c-3.417,0-6.745-1.752-8.612-4.904-16.217-27.364-55.654-42.552-63.007-44.479-4.725-.798-8.322-4.908-8.322-9.859,0-5.522,4.477-10,10-10,4.497,0,20.51,6.456,32.95,13.285,14.451,7.933,34.09,21.461,45.584,40.858,2.816,4.751,1.247,10.885-3.505,13.7-1.599.948-3.355,1.398-5.088,1.399Zm-69.956-49.243h.015-.015Zm-.013,0h.01-.01Z" fill="#fff" stroke-width="0"/>
  <path d="m1006.535,1078.139c-3.405,0-6.724-1.74-8.596-4.875l-2.207-3.696c-2.831-4.742-1.282-10.882,3.459-13.713,4.743-2.831,10.882-1.281,13.713,3.459l2.207,3.696c2.831,4.742,1.282,10.882-3.459,13.713-1.606.959-3.373,1.416-5.117,1.416Z" fill="#fff" stroke-width="0"/>
</svg>