<?xml version="1.0" encoding="UTF-8"?>
<svg id="a" data-name="FLAT COLORED" xmlns="http://www.w3.org/2000/svg" width="2000" height="2000" viewBox="0 0 2000 2000">
  <rect x="968.887" y="1134.676" width="63.598" height="345.454" fill="#a6fbff" stroke-width="0"/>
  <g>
    <path d="m899.989,740.319h-61.671v-269.917c0-15.907,12.895-28.802,28.802-28.802h4.068c15.907,0,28.802,12.895,28.802,28.802v269.917Z" fill="#6ad2ff" stroke-width="0"/>
    <path d="m1163.054,740.319h-61.671v-269.917c0-15.907,12.895-28.802,28.802-28.802h4.068c15.907,0,28.802,12.895,28.802,28.802v269.917Z" fill="#6ad2ff" stroke-width="0"/>
  </g>
  <path d="m1083.616,1166.716h-165.86c-26.843,0-48.603-21.76-48.603-48.603v-43.904h263.065v43.904c0,26.843-21.76,48.603-48.603,48.603Z" fill="#6ad2ff" stroke-width="0"/>
  <g>
    <path d="m1282.54,670.941v240.662c0,28.049-6.503,54.574-18.088,78.158-28.905,58.864-89.446,99.384-159.453,99.384h-208.624c-98.051,0-177.542-79.491-177.542-177.542v-240.662h563.708Z" fill="#ffb433" stroke-width="0"/>
    <path d="m1282.54,670.941v240.662c0,28.049-6.503,54.574-18.088,78.158-25.418,14.042-54.643,22.035-85.738,22.035h-268.368c-65.059,0-117.798-52.74-117.798-117.804v-223.051h489.992Z" fill="#fddb3a" stroke-width="0"/>
  </g>
  <g>
    <g>
      <path d="m1137.972,876.859c0,29.547-9.588,56.855-25.827,78.979-24.318,33.135-63.543,54.643-107.792,54.643-73.8,0-133.622-59.825-133.622-133.622,0-44.249,21.509-83.474,54.64-107.792,22.123-16.242,49.431-25.83,78.982-25.83,73.797,0,133.619,59.825,133.619,133.622Z" fill="#54b646" stroke-width="0"/>
      <path d="m1137.972,876.859c0,29.547-9.588,56.855-25.827,78.979-22.123,16.238-49.435,25.827-78.979,25.827-73.797,0-133.622-59.825-133.622-133.622,0-29.548,9.592-56.852,25.827-78.975,22.123-16.242,49.431-25.83,78.982-25.83,73.797,0,133.619,59.825,133.619,133.622Z" fill="#54e346" stroke-width="0"/>
    </g>
    <g>
      <polygon points="1104.874 851.66 938.876 1060.204 992.264 896.701 903.829 896.701 988.922 721.526 1104.874 721.526 1027.295 851.66 1104.874 851.66" fill="#fff" stroke-width="0"/>
      <path d="m938.876,1060.204l53.387-163.503h-76.928c17.266-1.421,54.37-9.284,113.895-45.041h75.643l-165.997,208.544Z" fill="#a6fbff" stroke-width="0"/>
    </g>
  </g>
  <g>
    <path d="m997.225,1514.049c-.984,7.12-5.746,13.134-12.43,15.777-340.936,134.944-424.299-242.74-444.349-410.187-.809-6.736,3.883-11.422,9.251-12.365,4.122-.734,8.64.745,11.376,5.181,29.889,48.443,92.124,107.669,220.314,123.999,162.673,20.72,206.866,121.943,216.367,198.82,4.209,34.098,1.595,63.405-.53,78.775Z" fill="#54b646" stroke-width="0"/>
    <path d="m997.755,1435.274c-.181,1.438-.355,2.794-.53,4.052-.984,7.12-5.746,13.134-12.43,15.777-303.2,120.005-402.688-165.403-435.098-347.829,4.122-.734,8.64.745,11.376,5.181,29.889,48.443,92.124,107.669,220.314,123.999,162.673,20.72,206.866,121.943,216.367,198.82Z" fill="#54e346" stroke-width="0"/>
    <path d="m661.418,1271.515s65.044,85.279,166.223,102.624c101.179,17.345,169.585,139.903,169.585,139.903,0,0-74.188-71.969-181.149-86.423-106.961-14.454-154.659-156.105-154.659-156.105Z" fill="#54b646" stroke-width="0"/>
  </g>
  <g>
    <path d="m1002.775,1514.049c.984,7.12,5.746,13.134,12.43,15.777,340.936,134.944,424.299-242.74,444.349-410.187.809-6.736-3.883-11.422-9.251-12.365-4.122-.734-8.64.745-11.376,5.181-29.889,48.443-92.124,107.669-220.314,123.999-162.673,20.72-206.866,121.943-216.367,198.82-4.209,34.098-1.595,63.405.53,78.775Z" fill="#54b646" stroke-width="0"/>
    <path d="m1002.245,1435.274c.181,1.438.355,2.794.53,4.052.984,7.12,5.746,13.134,12.43,15.777,303.2,120.005,402.688-165.403,435.098-347.829-4.122-.734-8.64.745-11.376,5.181-29.889,48.443-92.124,107.669-220.314,123.999-162.673,20.72-206.866,121.943-216.367,198.82Z" fill="#54e346" stroke-width="0"/>
    <path d="m1338.582,1271.515s-65.044,85.279-166.223,102.624c-101.179,17.345-169.585,139.903-169.585,139.903,0,0,74.188-71.969,181.149-86.423,106.961-14.454,154.659-156.105,154.659-156.105Z" fill="#54b646" stroke-width="0"/>
  </g>
  <path d="m1235.579,861.66c-5.523,0-10-4.477-10-10v-123.798c0-5.523,4.477-10,10-10s10,4.477,10,10v123.798c0,5.523-4.477,10-10,10Z" fill="#fff" stroke-width="0"/>
  <path d="m1235.579,905.463c-5.523,0-10-4.477-10-10v-9.234c0-5.523,4.477-10,10-10s10,4.477,10,10v9.234c0,5.523-4.477,10-10,10Z" fill="#fff" stroke-width="0"/>
  <path d="m927.78,1376.258c-3.591,0-7.062-1.939-8.854-5.336-27.221-51.607-83.007-70.708-83.568-70.895-5.233-1.745-8.072-7.401-6.335-12.637,1.737-5.236,7.378-8.078,12.616-6.351,2.595.856,63.903,21.641,94.977,80.552,2.577,4.885.706,10.934-4.18,13.51-1.488.785-3.084,1.157-4.657,1.157Z" fill="#fff" stroke-width="0"/>
  <path d="m801.559,1289.277c-.431,0-.867-.028-1.306-.085l-5.494-.717c-5.477-.714-9.337-5.733-8.622-11.21.715-5.476,5.734-9.335,11.21-8.622l5.494.717c5.477.714,9.337,5.733,8.622,11.21-.657,5.037-4.956,8.707-9.903,8.707Z" fill="#fff" stroke-width="0"/>
  <path d="m819.413,1029.05c-1.816,0-3.654-.495-5.305-1.531-33.82-21.22-49.074-59.862-49.707-61.497-1.994-5.15.565-10.942,5.715-12.936,5.147-1.992,10.933.562,12.931,5.704.215.546,13.694,34.222,41.69,51.788,4.678,2.936,6.091,9.108,3.156,13.786-1.899,3.026-5.153,4.686-8.48,4.686Z" fill="#fff" stroke-width="0"/>
  <path d="m761.164,945.173c-4.38,0-8.4-2.9-9.63-7.326l-1.154-4.155c-1.478-5.322,1.637-10.833,6.959-12.312,5.321-1.476,10.833,1.638,12.312,6.959l1.154,4.155c1.478,5.322-1.637,10.833-6.959,12.312-.895.249-1.796.367-2.682.367Z" fill="#fff" stroke-width="0"/>
  <path d="m1183.24,1519.696c-5.032,0-9.364-3.789-9.928-8.906-.604-5.487,3.351-10.425,8.836-11.034h0c.632-.071,63.502-7.501,89.631-43.91,3.22-4.487,9.468-5.515,13.955-2.294,4.487,3.22,5.514,9.468,2.294,13.955-31.363,43.7-100.744,51.804-103.682,52.127-.372.041-.741.061-1.107.061Z" fill="#fff" stroke-width="0"/>
  <path d="m1301.133,1448.285c-1.682,0-3.387-.425-4.952-1.319-4.795-2.74-6.461-8.849-3.722-13.644l2.462-4.31c2.74-4.794,8.849-6.461,13.644-3.722,4.795,2.74,6.461,8.849,3.722,13.644l-2.462,4.31c-1.846,3.23-5.22,5.041-8.692,5.041Z" fill="#fff" stroke-width="0"/>
</svg>