<?xml version="1.0" encoding="UTF-8"?>
<svg id="a" data-name="FLAT COLORED" xmlns="http://www.w3.org/2000/svg" width="2000" height="2000" viewBox="0 0 2000 2000">
  <g>
    <g>
      <g>
        <polygon points="1172.355 710.963 1172.355 1262.037 1362.211 1262.037 1362.211 556.906 1233.432 661.398 1172.355 710.963" fill="#6ad2ff" stroke-width="0"/>
        <polygon points="1233.432 661.398 1233.432 1176.417 1362.211 1176.417 1362.211 556.906 1233.432 661.398" fill="#a6fbff" stroke-width="0"/>
        <polygon points="1362.211 710.963 1362.211 1262.037 1552.067 1262.037 1552.067 556.906 1423.288 661.398 1362.211 710.963" fill="#6ad2ff" stroke-width="0"/>
        <polygon points="1423.288 661.398 1423.288 1176.417 1552.067 1176.417 1552.067 556.906 1423.288 661.398" fill="#a6fbff" stroke-width="0"/>
      </g>
      <g>
        <rect x="1116.914" y="1082.342" width="435.156" height="315.521" fill="#ffb433" stroke-width="0"/>
        <rect x="1116.914" y="1082.342" width="435.156" height="251.832" fill="#fddb3a" stroke-width="0"/>
      </g>
    </g>
    <g>
      <polygon points="834.795 710.963 834.795 1262.037 644.94 1262.037 644.94 556.906 773.719 661.398 834.795 710.963" fill="#6ad2ff" stroke-width="0"/>
      <polygon points="773.719 661.398 773.719 1176.417 644.94 1176.417 644.94 556.906 773.719 661.398" fill="#a6fbff" stroke-width="0"/>
      <polygon points="644.94 710.963 644.94 1262.037 455.084 1262.037 455.084 556.906 583.863 661.398 644.94 710.963" fill="#6ad2ff" stroke-width="0"/>
      <polygon points="583.863 661.398 583.863 1176.417 455.084 1176.417 455.084 556.906 583.863 661.398" fill="#a6fbff" stroke-width="0"/>
    </g>
    <g>
      <rect x="455.084" y="1082.342" width="435.156" height="315.521" fill="#ffb433" stroke-width="0"/>
      <rect x="455.084" y="1082.342" width="435.156" height="251.832" fill="#fddb3a" stroke-width="0"/>
    </g>
    <rect x="890.239" y="952.914" width="226.672" height="444.949" fill="#54e346" stroke-width="0"/>
    <polygon points="1216.062 1397.863 791.089 1397.863 878.11 765.502 883.842 723.844 906.704 557.701 1095.567 557.701 1119.397 723.844 1125.374 765.502 1216.062 1397.863" fill="#54b646" stroke-width="0"/>
    <polygon points="1216.062 1397.863 885.636 1397.863 972.658 765.502 978.389 723.844 1001.252 557.701 1095.567 557.701 1119.397 723.844 1125.374 765.502 1216.062 1397.863" fill="#54e346" stroke-width="0"/>
    <path d="m1072.33,1186.854v211.01h-137.506v-211.01c0-20.272,16.434-36.706,36.705-36.706h64.095c20.272,0,36.705,16.434,36.705,36.706Z" fill="#6ad2ff" stroke-width="0"/>
    <path d="m1072.33,1186.854v171.134h-71.968c-14.173,0-25.662-11.489-25.662-25.662v-182.178h60.925c20.272,0,36.705,16.434,36.705,36.706Z" fill="#a6fbff" stroke-width="0"/>
    <polygon points="1125.374 765.502 878.11 765.502 883.842 723.844 1119.397 723.844 1125.374 765.502" fill="#fddb3a" stroke-width="0"/>
    <g>
      <g>
        <rect x="1347.089" y="1266.03" width="33.661" height="132.416" fill="#ffb433" stroke-width="0"/>
        <rect x="1347.089" y="1145.359" width="33.661" height="253.087" fill="#54b646" stroke-width="0"/>
      </g>
      <g>
        <path d="m1359.378,1161.455c-3.825-.219-7.222-2.493-8.911-5.931-86.213-175.383,110.89-235.757,198.995-253.541,3.544-.717,6.234,1.577,6.964,4.388.565,2.159-.028,4.622-2.268,6.264-24.464,17.943-53.278,53.529-56.494,122.328-4.079,87.306-55.974,115.096-96.412,123.418-17.936,3.689-33.618,3.548-41.873,3.074Z" fill="#54b646" stroke-width="0"/>
        <path d="m1401.252,1158.381c-.772-.035-1.5-.07-2.175-.109-3.825-.219-7.222-2.493-8.911-5.931-76.669-155.97,70.723-220.982,166.261-245.97.565,2.159-.028,4.622-2.268,6.264-24.464,17.943-53.278,53.529-56.494,122.328-4.079,87.306-55.974,115.096-96.412,123.418Z" fill="#54e346" stroke-width="0"/>
        <path d="m1473.927,972.72s-42.536,38.188-47.442,92.68c-4.906,54.492-67.104,96.055-67.104,96.055,0,0,35.075-42.479,38.199-99.92,3.123-57.441,76.347-88.815,76.347-88.815Z" fill="#54b646" stroke-width="0"/>
      </g>
      <g>
        <path d="m1365.044,1162.057c3.825-.219,7.222-2.493,8.911-5.931,86.213-175.383-110.89-235.757-198.995-253.541-3.544-.717-6.234,1.577-6.963,4.388-.565,2.159.028,4.622,2.268,6.264,24.463,17.942,53.278,53.529,56.494,122.328,4.079,87.306,55.974,115.096,96.412,123.418,17.936,3.688,33.618,3.548,41.873,3.074Z" fill="#54b646" stroke-width="0"/>
        <path d="m1323.17,1158.983c.772-.035,1.5-.07,2.175-.109,3.825-.219,7.222-2.493,8.911-5.931,76.669-155.97-70.723-220.982-166.261-245.97-.565,2.159.028,4.622,2.268,6.264,24.463,17.942,53.278,53.529,56.494,122.328,4.079,87.306,55.974,115.096,96.412,123.418Z" fill="#54e346" stroke-width="0"/>
        <path d="m1250.495,973.322s42.536,38.188,47.442,92.68c4.906,54.492,67.104,96.055,67.104,96.055,0,0-35.075-42.479-38.199-99.92-3.124-57.441-76.347-88.815-76.347-88.815Z" fill="#54b646" stroke-width="0"/>
      </g>
    </g>
    <g>
      <g>
        <rect x="629.817" y="1266.03" width="33.661" height="132.416" fill="#ffb433" stroke-width="0"/>
        <rect x="629.817" y="1145.359" width="33.661" height="253.087" fill="#54b646" stroke-width="0"/>
      </g>
      <g>
        <path d="m642.107,1161.455c-3.825-.219-7.222-2.493-8.911-5.931-86.212-175.383,110.89-235.757,198.995-253.541,3.544-.717,6.234,1.577,6.963,4.388.565,2.159-.028,4.622-2.268,6.264-24.463,17.943-53.278,53.529-56.494,122.328-4.079,87.306-55.974,115.096-96.412,123.418-17.936,3.689-33.618,3.548-41.873,3.074Z" fill="#54b646" stroke-width="0"/>
        <path d="m683.98,1158.381c-.772-.035-1.5-.07-2.175-.109-3.825-.219-7.222-2.493-8.911-5.931-76.669-155.97,70.723-220.982,166.261-245.97.565,2.159-.028,4.622-2.268,6.264-24.463,17.943-53.278,53.529-56.494,122.328-4.079,87.306-55.974,115.096-96.412,123.418Z" fill="#54e346" stroke-width="0"/>
        <path d="m756.656,972.72s-42.536,38.188-47.442,92.68c-4.906,54.492-67.104,96.055-67.104,96.055,0,0,35.075-42.479,38.199-99.92,3.123-57.441,76.347-88.815,76.347-88.815Z" fill="#54b646" stroke-width="0"/>
      </g>
      <g>
        <path d="m647.772,1162.057c3.825-.219,7.222-2.493,8.911-5.931,86.212-175.383-110.89-235.757-198.995-253.541-3.544-.717-6.234,1.577-6.963,4.388-.565,2.159.028,4.622,2.268,6.264,24.463,17.942,53.278,53.529,56.494,122.328,4.079,87.306,55.975,115.096,96.412,123.418,17.936,3.688,33.618,3.548,41.873,3.074Z" fill="#54b646" stroke-width="0"/>
        <path d="m605.899,1158.983c.772-.035,1.5-.07,2.175-.109,3.825-.219,7.222-2.493,8.911-5.931,76.669-155.97-70.723-220.982-166.261-245.97-.565,2.159.028,4.622,2.268,6.264,24.463,17.942,53.278,53.529,56.494,122.328,4.079,87.306,55.975,115.096,96.412,123.418Z" fill="#54e346" stroke-width="0"/>
        <path d="m533.224,973.322s42.536,38.188,47.442,92.68c4.906,54.492,67.104,96.055,67.104,96.055,0,0-35.075-42.479-38.199-99.92-3.124-57.441-76.347-88.815-76.347-88.815Z" fill="#54b646" stroke-width="0"/>
      </g>
    </g>
    <g>
      <path d="m1133.641,544.674v22.202c0,16.044-13.002,29.055-29.046,29.055h-214.228c-16.044,0-29.036-13.011-29.036-29.055v-22.202c0-1.096.064-2.184.173-3.244,1.617-14.518,13.915-25.793,28.863-25.793h214.228c14.948,0,27.255,11.275,28.863,25.793.119,1.06.183,2.147.183,3.244Z" fill="#6ad2ff" stroke-width="0"/>
      <path d="m1133.458,541.431c-1.608,14.518-13.915,25.802-28.863,25.802h-214.228c-14.948,0-27.246-11.284-28.863-25.802,1.617-14.518,13.915-25.793,28.863-25.793h214.228c14.948,0,27.255,11.275,28.863,25.793Z" fill="#a6fbff" stroke-width="0"/>
    </g>
  </g>
  <path d="m1106.863,975.062c-4.857,0-9.119-3.545-9.873-8.494l-18.147-119.093c-.832-5.46,2.92-10.561,8.379-11.393,5.467-.839,10.561,2.919,11.393,8.379l18.147,119.093c.832,5.46-2.92,10.56-8.379,11.393-.511.078-1.018.115-1.519.115Z" fill="#fff" stroke-width="0"/>
  <path d="m1115.182,1031.522c-4.73,0-8.934-3.371-9.823-8.19l-3.528-19.155c-1.001-5.431,2.591-10.646,8.022-11.646,5.422-1.005,10.645,2.59,11.646,8.022l3.528,19.155c1.001,5.431-2.591,10.645-8.022,11.645-.612.113-1.222.168-1.823.168Z" fill="#fff" stroke-width="0"/>
  <path d="m1513.52,1334.073c-5.522,0-10-4.477-10-10v-90.501c0-5.522,4.478-10,10-10s10,4.478,10,10v90.501c0,5.523-4.478,10-10,10Z" fill="#fff" stroke-width="0"/>
  <path d="m1511.749,1205.504c-5.522,0-10-4.477-10-10v-11.44c0-5.522,4.478-10,10-10s10,4.478,10,10v11.44c0,5.523-4.477,10-10,10Z" fill="#fff" stroke-width="0"/>
  <path d="m490.243,768.283c-5.523,0-10-4.477-10-10v-85.47c0-5.523,4.477-10,10-10s10,4.477,10,10v85.47c0,5.523-4.478,10-10,10Z" fill="#fff" stroke-width="0"/>
  <path d="m490.243,812.113c-5.523,0-10-4.478-10-10v-12.099c0-5.522,4.477-10,10-10s10,4.478,10,10v12.099c0,5.522-4.478,10-10,10Z" fill="#fff" stroke-width="0"/>
  <g>
    <g>
      <path d="m1634.978,1484.365h-487.635c0-73.104,72.141-79.823,72.141-79.823.635-22.971,7.491-46.8,22.305-66.227,18.665-24.484,49.974-41.975,97.44-41.975,85.113,0,104.593,98.096,104.593,98.096,0,0,49.773-30.293,110.487-13.48,60.713,16.813,80.669,103.408,80.669,103.408Z" fill="#54e346" stroke-width="0"/>
      <path d="m1634.978,1484.365h-487.635c0-73.104,72.141-79.823,72.141-79.823.635-22.971,7.491-46.8,22.305-66.227,0,0-2.254,87.389,58.163,97.895,60.428,10.507,91.208-4.38,91.208-4.38,0,0,11.247,30.642,48.905,24.516,37.647-6.126,39.404-16.633,39.404-16.633,0,0,36.06,42.017,155.508,44.652Z" fill="#54b646" stroke-width="0"/>
    </g>
    <g>
      <path d="m1392.95,1389.788c-4.099,0-7.941-2.538-9.41-6.615-17.181-47.724-54.321-41.195-55.89-40.89-5.409,1.123-10.664-2.361-11.786-7.77-1.121-5.408,2.39-10.708,7.797-11.829,1.464-.304,14.775-2.812,31.099,2.576,15.11,4.986,35.635,17.906,47.599,51.137,1.87,5.197-.825,10.926-6.022,12.797-1.119.402-2.263.594-3.387.594Z" fill="#fff" stroke-width="0"/>
      <path d="m1405.355,1419.567c-3.121,0-6.194-1.456-8.146-4.19l-2.138-2.993c-3.21-4.494-2.169-10.739,2.326-13.949,4.494-3.211,10.739-2.168,13.949,2.326l2.138,2.993c3.21,4.494,2.169,10.739-2.326,13.949-1.761,1.258-3.792,1.863-5.803,1.863Z" fill="#fff" stroke-width="0"/>
    </g>
  </g>
  <g>
    <g>
      <path d="m365.022,1484.365h487.635c0-73.104-72.141-79.823-72.141-79.823-.635-22.971-7.491-46.8-22.305-66.227-18.665-24.484-49.974-41.975-97.44-41.975-85.113,0-104.593,98.096-104.593,98.096,0,0-49.773-30.293-110.487-13.48-60.713,16.813-80.669,103.408-80.669,103.408Z" fill="#54e346" stroke-width="0"/>
      <path d="m365.022,1484.365h487.635c0-73.104-72.141-79.823-72.141-79.823-.635-22.971-7.491-46.8-22.305-66.227,0,0,2.254,87.389-58.163,97.895-60.428,10.507-91.208-4.38-91.208-4.38,0,0-11.247,30.642-48.905,24.516-37.647-6.126-39.404-16.633-39.404-16.633,0,0-36.06,42.017-155.508,44.652Z" fill="#54b646" stroke-width="0"/>
    </g>
    <g>
      <path d="m607.05,1389.788c-1.124,0-2.268-.191-3.387-.594-5.196-1.871-7.892-7.6-6.022-12.797,11.964-33.23,32.488-46.15,47.599-51.137,16.322-5.387,29.633-2.879,31.099-2.576,5.407,1.121,8.883,6.414,7.762,11.822-1.117,5.389-6.373,8.86-11.763,7.774-1.739-.329-38.739-6.718-55.878,40.893-1.468,4.077-5.312,6.615-9.41,6.615Z" fill="#fff" stroke-width="0"/>
      <path d="m594.645,1419.567c-2.011,0-4.041-.605-5.803-1.863-4.495-3.21-5.536-9.455-2.326-13.949l2.138-2.993c3.21-4.495,9.453-5.536,13.949-2.326,4.495,3.21,5.536,9.455,2.326,13.949l-2.138,2.993c-1.952,2.733-5.026,4.19-8.147,4.19Z" fill="#fff" stroke-width="0"/>
    </g>
  </g>
</svg>