<?xml version="1.0" encoding="UTF-8"?>
<svg id="a" data-name="FLAT COLORED" xmlns="http://www.w3.org/2000/svg" width="2000" height="2000" viewBox="0 0 2000 2000">
  <path d="m1019.621,468.782v56.649c0,1.283-.069,2.546-.215,3.789-.215,1.978-.607,3.897-1.146,5.747-4.122,14.275-17.29,24.731-32.906,24.731h-174.274c-18.935,0-34.277-15.352-34.277-34.267v-56.649c0-15.597,10.437-28.785,24.721-32.897,1.85-.548,3.779-.93,5.757-1.145,1.243-.147,2.516-.215,3.799-.215h174.274c18.925,0,34.267,15.342,34.267,34.257Z" fill="#ffb433" stroke-width="0"/>
  <path d="m1019.621,468.782v56.649c0,1.283-.069,2.546-.215,3.789-1.243.147-2.506.215-3.789.215h-174.274c-18.935,0-34.277-15.352-34.277-34.277v-56.639c0-1.282.069-2.536.215-3.779,1.243-.147,2.516-.215,3.799-.215h174.274c18.925,0,34.267,15.342,34.267,34.257Z" fill="#fddb3a" stroke-width="0"/>
  <rect x="825.236" y="559.696" width="134.731" height="55.3" fill="#6ad2ff" stroke-width="0"/>
  <path d="m1115.369,940.766v468.365c0,43.239-27.374,46.252-27.374,46.252,0,0,.055.462.138,1.336.014.219.041.462.069.729.028.401.069.85.11,1.361.028.34.055.705.083,1.082.069.948.138,2.041.207,3.268.014.255.028.51.042.778.013.486.041.984.069,1.506v.061c.152,3.681.234,8.201.11,13.267,0,.207-.014.425-.014.644-.207,7.277-.827,15.624-2.275,24.201-4.976,29.595-19.682,61.864-60.137,61.864-.813,0-1.613-.012-2.398-.024-.028-.012-.055-.012-.083,0-1.516-.037-2.977-.097-4.424-.207-43.018-2.734-57.118-31.236-61.695-51.573-1.792-7.958-2.123-14.664-2.15-18.103-.675,33.167-14.955,50.602-29.772,59.762-11.73,7.253-23.804,9.318-29.731,9.914-1.571.158-2.702.207-3.294.231h-.483c-.179,0-.4-.012-.675-.024h-.083c-8.683-.462-60.716-5.819-62.039-69.882-.014,1.847-.124,4.653-.496,8.079-.138,1.336-.331,2.77-.565,4.276-3.322,21.164-16.72,57.551-69.703,57.551-74.706,0-61.584-110.096-61.584-110.096,0,0-27.388-3.013-27.388-46.252v-468.365s.193-63.006,39.544-63.006c0,0-48.09-28.332-39.544-131.892,8.559-103.56,147.91-130.871,147.91-130.871h149.715s139.364,27.311,147.91,130.871c8.559,103.56-39.545,131.892-39.545,131.892,39.365,0,39.545,63.006,39.545,63.006Z" fill="#6ad2ff" stroke-width="0"/>
  <path d="m1115.369,940.766v468.365c0,43.239-27.374,46.252-27.374,46.252,0,0,.055.462.138,1.336.028.219.041.462.069.729.041.401.082.85.11,1.361.028.34.055.705.083,1.082.083.96.152,2.053.207,3.268.014.255.028.51.042.778.028.486.055.984.069,1.506v.061c.095,2.303.163,4.933.17,7.82.004,1.73-.013,3.551-.06,5.447,0,.207-.014.425-.014.644-.207,7.277-.827,15.624-2.275,24.201-4.976,29.595-19.682,61.864-60.137,61.864-.813,0-1.613-.012-2.398-.024-.028-.012-.055-.012-.083,0-1.516-.037-2.977-.097-4.424-.207-43.018-2.734-57.118-31.236-61.695-51.573-1.792-7.958-2.123-14.664-2.15-18.103-.675,33.167-14.955,50.602-29.772,59.762-11.73,7.253-23.804,9.318-29.731,9.914-1.571.158-2.702.207-3.294.231h-.483c-.179,0-.4-.012-.675-.024h-.083c-8.683-.462-60.716-5.819-62.039-69.882-.014,1.847-.124,4.653-.496,8.079-.138,1.336-.331,2.77-.565,4.276v-7.945c-3.405-23.63-.91-44.6-.91-44.6,0,0-27.374-3.013-27.374-46.252v-468.365s.193-63.006,39.544-63.006c0,0-48.091-28.332-39.544-131.892,8.559-103.56,147.909-130.871,147.909-130.871h19.324s139.364,27.311,147.91,130.871c8.559,103.56-39.545,131.892-39.545,131.892,39.365,0,39.545,63.006,39.545,63.006Z" fill="#a6fbff" stroke-width="0"/>
  <rect x="668.814" y="1097.03" width="446.555" height="182.481" fill="#54b646" stroke-width="0"/>
  <rect x="799.205" y="1097.03" width="316.164" height="182.481" fill="#54e346" stroke-width="0"/>
  <path d="m1331.186,849.526c0,40.322-11.567,77.945-31.561,109.731-36.516,58.069-101.164,96.66-174.831,96.66-113.988,0-206.391-92.403-206.391-206.391,0-73.666,38.591-138.325,96.67-174.841,31.787-19.994,69.399-31.55,109.721-31.55,113.988,0,206.391,92.403,206.391,206.391Z" fill="#54b646" stroke-width="0"/>
  <path d="m1331.186,849.526c0,40.322-11.567,77.945-31.561,109.731-31.787,19.994-69.41,31.561-109.731,31.561-113.988,0-206.391-92.403-206.391-206.391,0-40.322,11.567-77.956,31.572-109.743,31.787-19.994,69.399-31.55,109.721-31.55,113.988,0,206.391,92.403,206.391,206.391Z" fill="#54e346" stroke-width="0"/>
  <g>
    <path d="m1122.726,797.642c8.327-4.89,15.834-9.3,24.119-14.166-5.164-8.785-9.842-17.601-15.383-25.834-3.108-4.618-8.671-3.157-12.043,2.607-6.758,11.552-13.428,23.156-20.532,35.425-12.044-6.93-23.904-13.754-36.944-21.257,9.682-15.529,17.502-32.11,28.97-45.587,20.932-24.599,59.825-20.194,76.992,7.231,5.308,8.48,10.136,17.262,15.419,26.308,7.979-4.514,15.576-8.813,24.241-13.715-2.503,28.713-4.921,56.459-7.415,85.081-25.926-12.086-51.244-23.888-77.423-36.092Z" fill="#fff" stroke-width="0"/>
    <path d="m1182.151,916.176c10.423,0,19.805.295,29.158-.102,6.414-.272,8.631-5.735,5.093-11.999-6.581-11.651-13.346-23.199-20.482-35.567,11.964-6.903,23.821-13.744,36.415-21.011,7.046,12.192,14.21,23.908,20.639,36.014,2.992,5.633,5.432,11.858,6.617,18.1,5.208,27.443-15.938,54.505-43.91,56.216-10.795.661-21.664.108-33.071.108v28.424c-23.934-16.742-46.76-32.71-70.273-49.157,23.487-16.437,46.22-32.347,69.814-48.859v27.833Z" fill="#fff" stroke-width="0"/>
    <path d="m1084.127,916.212v40.666c-18.184,0-36.518,2.555-53.835-.553-32.057-5.754-47.384-42.056-31.799-70.747,4.663-8.585,9.695-16.97,14.822-25.906-7.902-4.613-15.408-8.995-24.107-14.074,26.247-12.259,51.428-24.02,77.434-36.167,2.479,28.429,4.883,56.007,7.413,85.017-8.52-4.799-16.019-9.024-24.28-13.678-4.96,8.715-10.192,17.179-14.654,26.031-2.509,4.978,1.37,9.302,7.958,9.374,11.509.126,23.021.037,34.532.038,2.04,0,4.08,0,6.518,0Z" fill="#fff" stroke-width="0"/>
  </g>
  <path d="m868.439,1244.998h-121.539c-5.523,0-10-4.477-10-10s4.477-10,10-10h121.539c5.523,0,10,4.478,10,10s-4.477,10-10,10Z" fill="#fff" stroke-width="0"/>
  <path d="m925.562,1244.998h-17.826c-5.523,0-10-4.477-10-10s4.477-10,10-10h17.826c5.523,0,10,4.478,10,10s-4.477,10-10,10Z" fill="#fff" stroke-width="0"/>
  <path d="m711.377,761.407c-5.381,0-9.824-4.278-9.989-9.694-.764-24.94,9.682-46.675,30.206-62.852,15.025-11.842,30.283-16.519,30.925-16.712,5.286-1.591,10.866,1.405,12.457,6.694,1.59,5.282-1.398,10.852-6.674,12.451-2.083.643-48.282,15.412-46.924,59.807.169,5.52-4.169,10.132-9.689,10.301-.104.003-.208.005-.311.005Z" fill="#fff" stroke-width="0"/>
  <path d="m714.761,799.223c-4.02,0-7.811-2.442-9.338-6.42l-1.215-3.167c-1.979-5.156.597-10.94,5.753-12.919,5.157-1.978,10.94.598,12.918,5.753l1.215,3.167c1.979,5.156-.597,10.94-5.753,12.919-1.178.452-2.39.667-3.581.667Z" fill="#fff" stroke-width="0"/>
  <path d="m1069.721,1385.308c-5.523,0-10-4.478-10-10v-50.235c0-5.522,4.477-10,10-10s10,4.478,10,10v50.235c0,5.522-4.477,10-10,10Z" fill="#fff" stroke-width="0"/>
  <path d="m1069.721,1429.062c-5.523,0-10-4.478-10-10v-5.402c0-5.523,4.477-10,10-10s10,4.477,10,10v5.402c0,5.522-4.477,10-10,10Z" fill="#fff" stroke-width="0"/>
</svg>