<?xml version="1.0" encoding="UTF-8"?>
<svg id="a" data-name="FLAT COLORED" xmlns="http://www.w3.org/2000/svg" width="2000" height="2000" viewBox="0 0 2000 2000">
  <path d="m1170.274,1360.979v42.413c0,69.357-56.228,125.594-125.594,125.594h-89.369c-69.357,0-125.585-56.237-125.585-125.594v-42.413h340.548Z" fill="#54b646" stroke-width="0"/>
  <path d="m1170.274,1360.979v42.413c0,69.357-56.228,125.594-125.594,125.594h-22.92c-69.367,0-125.594-56.237-125.594-125.594v-42.413h274.109Z" fill="#54e346" stroke-width="0"/>
  <path d="m1383.846,854.864c0,8.559-.282,17.044-.836,25.462-9.49,144.872-99.359,267.814-225.44,324.648v101.379h-320.975v-104.076c-130.271-61.373-220.441-193.861-220.441-347.414,0-111.846,47.833-212.521,124.164-282.659,68.344-62.838,159.529-101.191,259.677-101.191,211.995,0,383.851,171.856,383.851,383.85Z" fill="#ffb433" stroke-width="0"/>
  <path d="m1383.846,854.864c0,8.559-.282,17.044-.836,25.462-44.197,149.316-182.408,258.249-346.052,258.249-199.292,0-360.85-161.558-360.85-360.85,0-76.377,23.724-147.202,64.21-205.521,68.344-62.838,159.529-101.191,259.677-101.191,211.995,0,383.851,171.856,383.851,383.85Z" fill="#fddb3a" stroke-width="0"/>
  <g>
    <rect x="1036.643" y="1108.71" width="38.985" height="153.36" fill="#ffb433" stroke-width="0"/>
    <rect x="1036.643" y="968.953" width="38.985" height="293.117" fill="#54b646" stroke-width="0"/>
    <rect x="921.747" y="968.953" width="38.985" height="293.117" fill="#54b646" stroke-width="0"/>
  </g>
  <g>
    <path d="m1050.877,987.594c-4.43-.254-8.365-2.888-10.321-6.87-99.849-203.122,128.429-273.045,230.47-293.642,4.105-.83,7.22,1.826,8.065,5.082.655,2.5-.032,5.353-2.627,7.255-28.333,20.78-61.704,61.995-65.429,141.676-4.725,101.115-64.828,133.3-111.662,142.938-20.773,4.272-38.935,4.109-48.496,3.56Z" fill="#54b646" stroke-width="0"/>
    <path d="m1099.373,984.035c-.894-.04-1.737-.081-2.519-.126-4.43-.254-8.365-2.888-10.321-6.87-88.795-180.64,81.909-255.934,192.557-284.874.655,2.5-.032,5.353-2.627,7.255-28.333,20.78-61.704,61.995-65.429,141.676-4.725,101.115-64.828,133.3-111.662,142.938Z" fill="#54e346" stroke-width="0"/>
    <path d="m1183.543,769.008s-49.264,44.228-54.945,107.339c-5.682,63.111-77.718,111.247-77.718,111.247,0,0,40.623-49.198,44.241-115.724,3.618-66.526,88.422-102.862,88.422-102.862Z" fill="#54b646" stroke-width="0"/>
  </g>
  <g>
    <path d="m945.379,987.594c4.429-.254,8.365-2.888,10.321-6.87,99.849-203.122-128.429-273.045-230.47-293.642-4.105-.83-7.22,1.826-8.065,5.082-.655,2.5.032,5.353,2.627,7.255,28.333,20.78,61.704,61.995,65.429,141.676,4.725,101.115,64.828,133.3,111.661,142.938,20.773,4.272,38.935,4.109,48.496,3.56Z" fill="#54b646" stroke-width="0"/>
    <path d="m896.883,984.035c.894-.04,1.737-.081,2.519-.126,4.429-.254,8.365-2.888,10.321-6.87,88.795-180.64-81.909-255.934-192.557-284.874-.655,2.5.032,5.353,2.627,7.255,28.333,20.78,61.704,61.995,65.429,141.676,4.725,101.115,64.828,133.3,111.661,142.938Z" fill="#54e346" stroke-width="0"/>
    <path d="m812.713,769.008s49.264,44.228,54.945,107.339c5.681,63.111,77.717,111.247,77.717,111.247,0,0-40.623-49.198-44.241-115.724-3.617-66.526-88.422-102.862-88.422-102.862Z" fill="#54b646" stroke-width="0"/>
  </g>
  <path d="m1218.19,1302.47v42.893c0,26.454-21.442,47.896-47.896,47.896h-340.587c-26.454,0-47.896-21.441-47.896-47.896v-42.893c0-26.454,21.441-47.906,47.896-47.906h340.587c26.454,0,47.896,21.451,47.896,47.906Z" fill="#6ad2ff" stroke-width="0"/>
  <path d="m1218.19,1302.461v42.903c0,26.452-21.444,47.896-47.896,47.896h-273.184c-8.189,0-14.828-6.639-14.828-14.828v-75.961c0-26.458,21.448-47.906,47.905-47.906h240.106c26.452,0,47.896,21.444,47.896,47.896Z" fill="#a6fbff" stroke-width="0"/>
  <path d="m703.618,1015.779c-3.763.001-7.367-2.133-9.065-5.767-40.668-86.995-37.548-179.952-37.395-183.866.215-5.519,4.86-9.863,10.382-9.603,5.519.215,9.818,4.863,9.602,10.382-.043,1.185-2.965,92.274,35.529,174.616,2.339,5.004.179,10.955-4.824,13.294-1.369.641-2.811.943-4.228.943Z" fill="#fff" stroke-width="0"/>
  <path d="m721.737,1054.984c-3.418,0-6.748-1.754-8.616-4.909l-4.794-8.102c-2.812-4.753-1.24-10.887,3.514-13.699,4.752-2.811,10.886-1.239,13.698,3.514l4.795,8.103c2.812,4.753,1.239,10.887-3.514,13.699-1.598.945-3.351,1.395-5.083,1.395Z" fill="#fff" stroke-width="0"/>
  <path d="m1199.845,597.699c-2.559,0-5.118-.976-7.071-2.929-34.969-34.968-99.585-53.996-100.233-54.184-5.303-1.538-8.358-7.083-6.822-12.387,1.536-5.303,7.073-8.359,12.381-6.825,2.848.823,70.169,20.605,108.817,59.253,3.905,3.905,3.905,10.237,0,14.143-1.953,1.952-4.512,2.929-7.071,2.929Z" fill="#fff" stroke-width="0"/>
  <path d="m1230.306,625.274c-2.783,0-5.553-1.155-7.529-3.415l-3.781-4.321c-3.637-4.156-3.216-10.474.94-14.11,4.155-3.638,10.474-3.218,14.11.941l3.781,4.321c3.637,4.156,3.216,10.474-.94,14.11-1.896,1.66-4.244,2.475-6.581,2.475Z" fill="#fff" stroke-width="0"/>
  <path d="m1054.486,531.826c-.594,0-1.195-.053-1.801-.163l-5.94-1.08c-5.435-.988-9.038-6.193-8.051-11.627.988-5.435,6.188-9.042,11.628-8.051l5.94,1.08c5.435.988,9.038,6.193,8.051,11.627-.878,4.829-5.088,8.214-9.827,8.214Z" fill="#fff" stroke-width="0"/>
  <path d="m1095.394,1304.002h-62.174c-5.522,0-10-4.478-10-10s4.478-10,10-10h62.174c5.522,0,10,4.477,10,10s-4.478,10-10,10Z" fill="#fff" stroke-width="0"/>
  <path d="m1135.906,1304.002h-6.077c-5.523,0-10-4.478-10-10s4.477-10,10-10h6.077c5.522,0,10,4.477,10,10s-4.478,10-10,10Z" fill="#fff" stroke-width="0"/>
  <path d="m1064.308,1495.901c-4.079,0-7.909-2.514-9.393-6.567-1.896-5.183.766-10.922,5.945-12.823h0c7.173-2.642,27.489-12.051,35.261-23.708,3.062-4.597,9.271-5.837,13.867-2.773s5.837,9.273,2.773,13.867c-12.788,19.183-41.758,30.2-45.019,31.394-1.134.414-2.294.611-3.435.611Z" fill="#fff" stroke-width="0"/>
</svg>