<?xml version="1.0" encoding="UTF-8"?>
<svg id="a" data-name="FLAT COLORED" xmlns="http://www.w3.org/2000/svg" width="2000" height="2000" viewBox="0 0 2000 2000">
  <g>
    <g>
      <polygon points="1116.465 1450.553 883.535 1450.553 962.104 801.882 1037.896 801.882 1116.465 1450.553" fill="#a6fbff" stroke-width="0"/>
      <polygon points="1116.465 1450.553 942.319 1450.553 989.498 801.882 1037.896 801.882 1116.465 1450.553" fill="#fff" stroke-width="0"/>
    </g>
    <g>
      <path d="m1087.562,1450.553h-485.523c0-72.788,71.829-79.477,71.829-79.477.632-22.872,7.459-46.597,22.208-65.94,18.584-24.378,49.757-41.793,97.018-41.793,84.745,0,104.14,97.671,104.14,97.671,0,0,49.557-30.162,110.008-13.421,60.451,16.74,80.32,102.96,80.32,102.96Z" fill="#54e346" stroke-width="0"/>
      <path d="m1087.562,1450.553h-485.523c0-72.788,71.829-79.477,71.829-79.477.632-22.872,7.459-46.597,22.208-65.94,0,0-2.244,87.01,57.911,97.471,60.167,10.462,90.813-4.361,90.813-4.361,0,0,11.199,30.51,48.693,24.41,37.484-6.1,39.233-16.562,39.233-16.562,0,0,35.904,41.835,154.835,44.459Z" fill="#54b646" stroke-width="0"/>
    </g>
    <g>
      <path d="m1424.663,1450.553h-485.523c0-72.788,71.829-79.477,71.829-79.477.632-22.872,7.459-46.597,22.208-65.94,18.584-24.378,49.758-41.793,97.018-41.793,84.745,0,104.14,97.671,104.14,97.671,0,0,49.557-30.162,110.008-13.421,60.451,16.74,80.32,102.96,80.32,102.96Z" fill="#54e346" stroke-width="0"/>
      <path d="m1424.663,1450.553h-485.523c0-72.788,71.829-79.477,71.829-79.477.632-22.872,7.459-46.597,22.208-65.94,0,0-2.244,87.01,57.912,97.471,60.167,10.462,90.813-4.361,90.813-4.361,0,0,11.199,30.51,48.693,24.41,37.484-6.1,39.233-16.562,39.233-16.562,0,0,35.904,41.835,154.835,44.459Z" fill="#54b646" stroke-width="0"/>
    </g>
    <path d="m1185.876,1365.464c-4.098,0-7.941-2.538-9.409-6.616-7.378-20.495-19.11-33.523-34.869-38.724-11.329-3.738-20.568-1.994-20.658-1.974-5.407,1.118-10.701-2.354-11.822-7.762-1.121-5.408,2.354-10.701,7.762-11.822,1.46-.302,14.725-2.8,30.986,2.565,15.055,4.968,35.502,17.839,47.419,50.942,1.871,5.196-.825,10.925-6.021,12.796-1.119.403-2.263.594-3.387.594Z" fill="#fff" stroke-width="0"/>
    <path d="m1198.227,1395.114c-3.12,0-6.193-1.456-8.146-4.188l-2.128-2.98c-3.21-4.494-2.169-10.74,2.324-13.95,4.494-3.21,10.739-2.17,13.95,2.324l2.128,2.979c3.21,4.494,2.169,10.74-2.324,13.95-1.762,1.258-3.793,1.864-5.805,1.864Z" fill="#fff" stroke-width="0"/>
    <g>
      <g>
        <path d="m1419.993,1078.896h-839.97c-68.367,0-116.203-67.61-93.45-132.07,38.909-110.428,77.818-220.798,116.727-331.227,14-39.61,51.451-66.151,93.51-66.151h606.396c42,0,79.51,26.541,93.453,66.151,38.966,110.43,77.878,220.799,116.787,331.227.758,2.158,1.458,4.375,2.042,6.533,17.441,62.42-29.401,125.538-95.495,125.538Z" fill="#ffb433" stroke-width="0"/>
        <path d="m1515.488,953.359h-804.969c-51.978,0-88.318-51.334-71.051-100.336,35.699-101.211,71.401-202.364,107.043-303.575h556.694c42,0,79.51,26.541,93.453,66.151,38.966,110.43,77.878,220.799,116.787,331.227.758,2.158,1.458,4.375,2.042,6.533Z" fill="#fddb3a" stroke-width="0"/>
      </g>
      <g>
        <g>
          <path d="m859.739,667.471c-4.145,29.459-8.291,58.929-12.436,88.389-.041.236-.072.463-.103.699-2.458,18.134-18.916,32.844-36.763,32.844h-141.876c-17.846,0-27.454-14.699-21.457-32.844,9.648-29.696,19.307-59.392,28.955-89.088,5.997-18.134,23.175-32.844,38.367-32.844h122.251c15.192,0,25.52,14.699,23.061,32.844Z" fill="#6ad2ff" stroke-width="0"/>
          <path d="m830.979,871.784c-4.135,29.439-8.28,58.867-12.426,88.296-.041.257-.072.524-.113.782-2.448,18.145-21.539,32.854-42.626,32.854h-167.797c-21.087,0-33.327-14.709-27.33-32.854,9.648-29.686,19.307-59.382,28.955-89.078,5.503-16.643,22.629-30.395,39.653-32.555,1.533-.195,3.065-.298,4.588-.298h148.161c18.443.01,31.393,14.709,28.935,32.854Z" fill="#6ad2ff" stroke-width="0"/>
          <path d="m1070.944,789.403h-141.887c-17.846,0-30.879-14.699-29.11-32.844,2.736-29.696,5.472-59.392,8.208-89.088,1.769-18.134,15.522-32.844,30.725-32.844h122.24c15.192,0,28.955,14.699,30.724,32.844,2.716,29.459,5.431,58.929,8.147,88.389.021.236.041.463.062.699,1.769,18.134-11.263,32.844-29.109,32.844Z" fill="#6ad2ff" stroke-width="0"/>
          <path d="m1083.894,993.716h-167.797c-21.087,0-36.742-14.709-34.973-32.854,2.736-29.686,5.472-59.382,8.208-89.078,1.769-18.145,18.155-32.844,36.587-32.854h148.161c18.443.01,34.819,14.709,36.588,32.854,2.715,29.46,5.431,58.929,8.146,88.378.021.237.041.463.062.7,1.769,18.145-13.886,32.854-34.983,32.854Z" fill="#6ad2ff" stroke-width="0"/>
          <path d="m1331.439,789.403h-141.877c-17.847,0-34.314-14.699-36.763-32.844-4.186-29.696-8.362-59.392-12.539-89.088-2.458-18.134,7.869-32.844,23.061-32.844h122.251c15.193,0,32.37,14.699,38.367,32.844,9.576,29.459,19.153,58.929,28.729,88.389.072.236.154.463.226.699,5.997,18.134-3.61,32.844-21.457,32.844Z" fill="#6ad2ff" stroke-width="0"/>
          <path d="m1391.983,993.716h-167.797c-21.087,0-40.178-14.709-42.636-32.854-4.176-29.686-8.352-59.382-12.528-89.078-2.458-18.145,10.492-32.844,28.935-32.854h148.161c18.433.01,38.244,14.709,44.241,32.854,9.577,29.46,19.143,58.929,28.729,88.378.072.237.154.463.226.7,5.997,18.145-6.244,32.854-27.33,32.854Z" fill="#6ad2ff" stroke-width="0"/>
        </g>
        <g>
          <path d="m859.739,667.471c-4.145,29.459-8.291,58.929-12.436,88.389h-138.77c-17.857,0-27.464-14.709-21.467-32.854,9.587-29.459,19.153-58.919,28.739-88.378h120.872c15.192,0,25.52,14.699,23.061,32.844Z" fill="#a6fbff" stroke-width="0"/>
          <path d="m830.979,871.784c-4.135,29.439-8.28,58.867-12.426,88.296-.926.051-1.852.082-2.777.082h-167.797c-21.087.011-33.317-14.699-27.32-32.843,9.546-29.367,19.081-58.734,28.637-88.09,1.533-.195,3.065-.298,4.588-.298h148.161c18.443.01,31.393,14.709,28.935,32.854Z" fill="#a6fbff" stroke-width="0"/>
          <path d="m1099.991,755.86h-130.963c-17.846,0-30.879-14.709-29.11-32.854,2.715-29.459,5.431-58.919,8.147-88.378h113.055c15.192,0,28.955,14.699,30.724,32.844,2.716,29.459,5.431,58.929,8.147,88.389Z" fill="#a6fbff" stroke-width="0"/>
          <path d="m1118.815,960.162h-162.747c-21.087.011-36.752-14.699-34.983-32.843,2.716-29.47,5.431-58.929,8.147-88.389h144.849c18.443.01,34.819,14.709,36.588,32.854,2.715,29.46,5.431,58.929,8.146,88.378Z" fill="#a6fbff" stroke-width="0"/>
          <path d="m1352.67,755.86h-123.145c-17.847,0-34.304-14.709-36.763-32.854-4.145-29.459-8.291-58.919-12.436-88.378h105.248c15.193,0,32.37,14.699,38.367,32.844,9.576,29.459,19.153,58.929,28.729,88.389Z" fill="#a6fbff" stroke-width="0"/>
          <path d="m1419.087,960.162h-154.94c-21.087.011-40.167-14.699-42.626-32.843-4.145-29.47-8.301-58.929-12.446-88.389h137.042c18.433.01,38.244,14.709,44.241,32.854,9.577,29.46,19.143,58.929,28.729,88.378Z" fill="#a6fbff" stroke-width="0"/>
        </g>
      </g>
    </g>
  </g>
  <path d="m1124.963,601.151h-146.657c-5.523,0-10-4.477-10-10s4.477-10,10-10h146.657c5.523,0,10,4.477,10,10s-4.477,10-10,10Z" fill="#fff" stroke-width="0"/>
  <path d="m1186.283,601.151h-12.998c-5.523,0-10-4.477-10-10s4.477-10,10-10h12.998c5.523,0,10,4.477,10,10s-4.477,10-10,10Z" fill="#fff" stroke-width="0"/>
  <path d="m797.457,1046.916h-169.546c-5.523,0-10-4.477-10-10s4.477-10,10-10h169.546c5.523,0,10,4.477,10,10s-4.477,10-10,10Z" fill="#fff" stroke-width="0"/>
  <path d="m853.549,1046.916h-13.988c-5.523,0-10-4.477-10-10s4.477-10,10-10h13.988c5.523,0,10,4.477,10,10s-4.477,10-10,10Z" fill="#fff" stroke-width="0"/>
  <path d="m1454.304,921.031c-4.255,0-8.2-2.737-9.54-7.012l-33.47-106.814c-1.651-5.27,1.282-10.881,6.552-12.533,5.273-1.652,10.882,1.283,12.533,6.552l33.47,106.814c1.651,5.27-1.282,10.881-6.552,12.533-.995.312-2.003.46-2.993.46Z" fill="#fff" stroke-width="0"/>
  <path d="m1467.024,962.005c-4.086,0-7.922-2.523-9.399-6.586l-3.391-9.325c-1.887-5.19.79-10.928,5.98-12.815,5.191-1.888,10.928.791,12.815,5.98l3.391,9.325c1.887,5.19-.79,10.928-5.981,12.815-1.128.41-2.282.605-3.416.605Z" fill="#fff" stroke-width="0"/>
</svg>