<?xml version="1.0" encoding="UTF-8"?>
<svg id="a" data-name="FLAT COLORED" xmlns="http://www.w3.org/2000/svg" width="2000" height="2000" viewBox="0 0 2000 2000">
  <g>
    <g>
      <rect x="1184.808" y="1444.963" width="74.139" height="92.37" fill="#ffb433" stroke-width="0"/>
      <g>
        <path d="m1359.17,811.749l-46.369,556.481c-.695,8.273-2.115,16.331-4.22,24.095-15.626,58.049-68.593,100.041-130.695,100.041h-341.977c-70.405,0-129.06-53.976-134.915-124.136l-46.368-556.481,102.684-7.588,242.691-17.936h13.805l345.365,25.524Z" fill="#54b646" stroke-width="0"/>
        <path d="m1359.17,811.749l-46.369,556.481c-.695,8.273-2.115,16.331-4.22,24.095-11.279,3.045-23.116,4.66-35.315,4.66h-341.978c-70.414,0-129.07-53.966-134.915-124.136l-39.065-468.688,242.691-17.936h13.805l345.365,25.524Z" fill="#54e346" stroke-width="0"/>
      </g>
      <path d="m1394.397,786.225c0,9.732-3.946,18.543-10.329,24.917-6.374,6.383-15.185,10.329-24.917,10.329h-718.3c-19.464,0-35.246-15.783-35.246-35.246,0-9.742,3.946-18.553,10.329-24.927,6.374-6.374,15.185-10.319,24.917-10.319h718.3c19.464,0,35.246,15.773,35.246,35.246Z" fill="#ffb433" stroke-width="0"/>
      <path d="m1394.397,786.225c0,9.732-3.946,18.543-10.329,24.917-6.374,6.383-15.185,10.329-24.917,10.329h-595.144c-19.464,0-35.246-15.783-35.246-35.246,0-9.742,3.946-18.553,10.319-24.927,6.383-6.374,15.195-10.319,24.927-10.319h595.144c19.464,0,35.246,15.773,35.246,35.246Z" fill="#fddb3a" stroke-width="0"/>
      <g>
        <path d="m1205.085,1126.975c0,40.067-11.493,77.452-31.361,109.037-36.285,57.702-100.524,96.048-173.724,96.048-113.267,0-205.085-91.818-205.085-205.085,0-73.2,38.346-137.449,96.058-173.734,31.586-19.868,68.96-31.35,109.026-31.35,113.266,0,205.084,91.818,205.084,205.085Z" fill="#6ad2ff" stroke-width="0"/>
        <path d="m1205.085,1126.975c0,40.067-11.493,77.452-31.361,109.037-31.585,19.868-68.971,31.361-109.037,31.361-113.266,0-205.085-91.818-205.085-205.085,0-40.066,11.494-77.463,31.372-109.048,31.586-19.868,68.96-31.35,109.026-31.35,113.266,0,205.084,91.818,205.084,205.085Z" fill="#a6fbff" stroke-width="0"/>
        <g>
          <path d="m997.944,1075.418c8.274-4.86,15.733-9.241,23.966-14.076-5.132-8.73-9.779-17.489-15.285-25.671-3.088-4.589-8.616-3.137-11.966,2.59-6.715,11.479-13.343,23.01-20.402,35.201-11.968-6.886-23.753-13.667-36.71-21.122,9.621-15.431,17.391-31.907,28.787-45.298,20.8-24.443,59.446-20.067,76.505,7.185,5.275,8.427,10.072,17.152,15.321,26.141,7.928-4.486,15.478-8.757,24.087-13.629-2.487,28.531-4.89,56.102-7.368,84.542-25.762-12.009-50.919-23.737-76.933-35.864Z" fill="#fff" stroke-width="0"/>
          <path d="m1056.993,1193.202c10.356,0,19.68.293,28.974-.101,6.374-.27,8.576-5.699,5.061-11.923-6.539-11.578-13.261-23.052-20.352-35.342,11.888-6.859,23.67-13.657,36.185-20.878,7.001,12.115,14.12,23.756,20.508,35.786,2.972,5.597,5.398,11.782,6.575,17.985,5.175,27.269-15.837,54.159-43.633,55.86-10.727.657-21.527.107-32.862.107v28.244c-23.782-16.636-46.464-32.503-69.828-48.846,23.338-16.333,45.928-32.142,69.372-48.55v27.656Z" fill="#fff" stroke-width="0"/>
          <path d="m959.589,1193.238v40.409c-18.068,0-36.287,2.539-53.495-.55-31.854-5.718-47.084-41.79-31.598-70.3,4.634-8.531,9.634-16.863,14.728-25.743-7.852-4.584-15.311-8.938-23.955-13.985,26.081-12.182,51.102-23.868,76.944-35.938,2.463,28.25,4.852,55.653,7.366,84.479-8.466-4.769-15.917-8.967-24.127-13.592-4.929,8.66-10.128,17.07-14.561,25.867-2.493,4.947,1.362,9.243,7.907,9.315,11.436.126,22.875.037,34.313.038,2.027,0,4.054,0,6.477,0Z" fill="#fff" stroke-width="0"/>
        </g>
      </g>
      <g>
        <path d="m877.217,1412.088c9.624,66.22-36.254,127.712-102.474,137.337-66.228,9.626-127.722-36.262-137.346-102.481-1.085-7.465-1.464-14.858-1.183-22.13,2.155-57.293,44.902-106.667,103.674-115.209,52.49-7.629,102.019,19.616,125.079,64.241v.008c2.757,5.327,5.13,10.892,7.093,16.682,2.34,6.891,4.073,14.088,5.157,21.552Z" fill="#ffb433" stroke-width="0"/>
        <path d="m872.059,1390.534c-2.166,57.29-44.909,106.662-103.668,115.202-58.767,8.541-113.796-26.621-132.181-80.924,2.158-57.289,44.907-106.67,103.675-115.211,58.759-8.54,113.797,26.628,132.174,80.933Z" fill="#fddb3a" stroke-width="0"/>
        <circle cx="757.309" cy="1429.515" r="48.456" transform="translate(-789.009 954.194) rotate(-45)" fill="#fff" stroke-width="0"/>
        <path d="m789.543,1523.229c-4.119,0-7.977-2.564-9.428-6.669-1.839-5.201.881-10.907,6.076-12.755.356-.127,33.601-12.278,41.84-36.385,1.786-5.226,7.472-8.015,12.697-6.228,5.226,1.786,8.015,7.47,6.228,12.696-11.394,33.337-52.343,48.153-54.08,48.767-1.103.39-2.228.575-3.334.575Z" fill="#fff" stroke-width="0"/>
      </g>
    </g>
    <g>
      <path d="m1331.113,568.584l-677.976,138.429c-16.472-80.675,35.579-159.422,116.254-175.895l385.82-78.776c40.337-8.236,80.194.653,112.03,21.693,31.834,21.03,55.636,54.212,63.872,94.549Z" fill="#54b646" stroke-width="0"/>
      <path d="m1331.113,568.584l-577.367,117.886c-16.472-80.675,35.579-159.422,116.254-175.895l285.211-58.234c40.337-8.236,80.194.653,112.03,21.693,31.834,21.03,55.636,54.212,63.872,94.549Z" fill="#54e346" stroke-width="0"/>
    </g>
    <g>
      <path d="m1379.171,564.977c1.947,9.535-.156,18.958-5.134,26.489-4.97,7.52-12.814,13.149-22.349,15.095l-703.78,143.697c-19.07,3.894-37.691-8.412-41.585-27.483-1.947-9.535.156-18.958,5.134-26.49,4.97-7.52,12.814-13.148,22.349-15.095l703.78-143.697c19.07-3.894,37.691,8.412,41.585,27.483Z" fill="#ffb433" stroke-width="0"/>
      <path d="m1379.171,564.977c1.947,9.535-.156,18.958-5.134,26.489-4.97,7.52-12.814,13.149-22.349,15.095l-583.113,119.06c-19.07,3.894-37.691-8.412-41.585-27.483-1.947-9.535.156-18.958,5.124-26.488,4.979-7.522,12.823-13.15,22.359-15.097l583.113-119.06c19.07-3.894,37.691,8.412,41.585,27.483Z" fill="#fddb3a" stroke-width="0"/>
    </g>
    <circle cx="658.676" cy="746.445" r="27.549" transform="translate(-217.838 1218.418) rotate(-76.875)" fill="#fff" stroke-width="0"/>
  </g>
  <path d="m1242.873,873.736h-130.451c-5.523,0-10-4.477-10-10s4.477-10,10-10h130.451c5.523,0,10,4.477,10,10s-4.477,10-10,10Z" fill="#fff" stroke-width="0"/>
  <path d="m1287.032,873.736c-5.522,0-10-4.477-10-10v-2.431c0-5.523,4.478-10,10-10s10,4.477,10,10v2.431c0,5.523-4.477,10-10,10Z" fill="#fff" stroke-width="0"/>
  <path d="m794.903,577.886c-4.716,0-8.913-3.351-9.816-8.154-1.021-5.428,2.553-10.655,7.98-11.675l150.998-28.387c5.427-1.021,10.655,2.552,11.676,7.98,1.02,5.428-2.553,10.655-7.98,11.675l-150.998,28.387c-.624.118-1.246.174-1.859.174Z" fill="#fff" stroke-width="0"/>
  <path d="m742.799,588.158c-4.558,0-8.676-3.136-9.738-7.767-1.234-5.383,2.129-10.747,7.512-11.982l11.344-2.602c5.383-1.233,10.747,2.128,11.982,7.512,1.234,5.383-2.129,10.747-7.512,11.982l-11.344,2.601c-.752.172-1.504.255-2.244.255Z" fill="#fff" stroke-width="0"/>
  <path d="m730.883,1182.66c-5.161,0-9.537-3.968-9.957-9.201l-9.287-115.811c-.441-5.505,3.663-10.326,9.168-10.767,5.527-.444,10.326,3.664,10.768,9.168l9.287,115.811c.441,5.505-3.663,10.326-9.168,10.767-.272.022-.543.033-.811.033Z" fill="#fff" stroke-width="0"/>
  <path d="m715.124,1031.737c-5.522,0-10-4.477-10-10v-11.343c0-5.523,4.478-10,10-10s10,4.477,10,10v11.343c0,5.523-4.477,10-10,10Z" fill="#fff" stroke-width="0"/>
</svg>