<?xml version="1.0" encoding="UTF-8"?>
<svg id="a" data-name="FLAT COLORED" xmlns="http://www.w3.org/2000/svg" width="2000" height="2000" viewBox="0 0 2000 2000">
  <path d="m1384.106,1158.007c0,74.458-18.02,131.762-45.938,175.869-95.963,151.645-308.901,147.337-308.901,147.337,0,0-354.85,7.18-354.85-323.206s354.85-639.231,354.85-639.231c0,0,.515.438,1.49,1.315,24.903,22.13,353.348,320.048,353.348,637.916Z" fill="#6ad2ff" stroke-width="0"/>
  <path d="m1384.106,1158.007c0,74.458-18.02,131.762-45.938,175.869-99.854,61.173-217.641,58.795-217.641,58.795,0,0-354.85,7.179-354.85-323.206,0-221.817,159.953-433.922,265.08-549.374,24.903,22.13,353.348,320.048,353.348,637.916Z" fill="#a6fbff" stroke-width="0"/>
  <g>
    <path d="m1038.913,1389.113c-7.106,4.109-15.867,4.037-22.938-.132-360.796-212.553-78.94-552.649,57.884-688.194,5.502-5.455,13.017-4.514,17.633-.339,3.553,3.2,5.39,8.308,3.312,13.886-22.684,60.921-32.39,158.554,42.83,285.526,95.457,161.126,35.247,271.966-27.363,334.463-27.774,27.716-56.017,45.921-71.358,54.789Z" fill="#54b646" stroke-width="0"/>
    <path d="m1110.271,1334.323c-1.422.846-2.767,1.64-4.023,2.365-7.106,4.109-15.867,4.037-22.937-.132-320.859-189.028-133.469-478.917,8.182-636.109,3.553,3.2,5.39,8.308,3.312,13.886-22.684,60.921-32.39,158.554,42.83,285.526,95.457,161.126,35.247,271.966-27.363,334.463Z" fill="#54e346" stroke-width="0"/>
  </g>
  <g>
    <polygon points="1159.753 1076.113 917.301 1380.707 995.277 1141.899 866.112 1141.899 990.397 886.042 1159.753 886.042 1046.444 1076.113 1159.753 1076.113" fill="#fddb3a" stroke-width="0"/>
    <path d="m917.301,1380.707l77.976-238.808h-112.359c25.219-2.076,79.411-13.559,166.353-65.786h110.483l-242.452,304.594Z" fill="#ffb433" stroke-width="0"/>
  </g>
  <g>
    <path d="m1452.154,819.92c0,26.559-6.427,46.999-16.386,62.731-34.23,54.091-110.184,52.554-110.184,52.554,0,0-126.573,2.561-126.573-115.286s126.573-228.01,126.573-228.01c0,0,.184.156.532.469,8.883,7.894,126.037,114.16,126.037,227.541Z" fill="#a6fbff" stroke-width="0"/>
    <path d="m1452.154,819.92c0,26.559-6.427,46.999-16.386,62.731-35.617,21.82-77.631,20.972-77.631,20.972,0,0-126.573,2.561-126.573-115.286,0-79.121,57.055-154.778,94.553-195.959,8.883,7.894,126.037,114.16,126.037,227.541Z" fill="#fff" stroke-width="0"/>
  </g>
  <g>
    <path d="m800.989,1329.964c0,26.559-6.427,46.999-16.386,62.731-34.23,54.091-110.183,52.554-110.183,52.554,0,0-126.573,2.561-126.573-115.286s126.573-228.011,126.573-228.011c0,0,.184.156.532.469,8.883,7.894,126.037,114.16,126.037,227.541Z" fill="#a6fbff" stroke-width="0"/>
    <path d="m800.989,1329.964c0,26.559-6.427,46.999-16.386,62.731-35.618,21.82-77.631,20.972-77.631,20.972,0,0-126.573,2.561-126.573-115.286,0-79.121,57.055-154.778,94.553-195.959,8.883,7.894,126.037,114.16,126.037,227.541Z" fill="#fff" stroke-width="0"/>
  </g>
  <path d="m878.809,781.543c-1.432,0-2.887-.309-4.267-.962-4.993-2.36-7.127-8.321-4.767-13.314,22.275-47.121,91.517-134.715,94.453-138.421,3.43-4.329,9.72-5.057,14.048-1.626,4.329,3.43,5.057,9.719,1.627,14.048-.705.89-70.751,89.498-92.047,134.548-1.708,3.612-5.301,5.729-9.048,5.729Z" fill="#fff" stroke-width="0"/>
  <path d="m855.213,822.516c-1.458,0-2.939-.32-4.34-.997-4.974-2.401-7.059-8.379-4.658-13.353l3.956-8.194c2.401-4.974,8.379-7.061,13.353-4.658,4.974,2.401,7.059,8.379,4.658,13.353l-3.956,8.194c-1.725,3.572-5.295,5.655-9.013,5.655Z" fill="#fff" stroke-width="0"/>
  <path d="m973.415,1021.733c-1.377,0-2.777-.286-4.113-.89-5.033-2.275-7.268-8.199-4.993-13.231l37.3-82.512c2.275-5.032,8.201-7.267,13.231-4.993,5.033,2.275,7.268,8.199,4.993,13.231l-37.3,82.512c-1.671,3.696-5.31,5.883-9.118,5.883Z" fill="#fff" stroke-width="0"/>
  <path d="m958.073,1057.762c-1.314,0-2.65-.26-3.935-.811-5.076-2.176-7.428-8.054-5.252-13.131l3.815-8.901c2.176-5.075,8.053-7.429,13.131-5.252,5.076,2.176,7.428,8.054,5.252,13.131l-3.815,8.901c-1.625,3.792-5.316,6.063-9.196,6.063Z" fill="#fff" stroke-width="0"/>
  <path d="m1202.516,1406.885c-3.634,0-7.138-1.987-8.909-5.443-2.516-4.912-.577-10.933,4.331-13.454h0c.665-.342,66.828-35.057,97.707-105.333,2.221-5.055,8.121-7.355,13.178-5.132,5.056,2.222,7.354,8.122,5.132,13.178-33.821,76.971-103.921,113.562-106.889,115.082-1.459.748-3.017,1.102-4.55,1.102Z" fill="#fff" stroke-width="0"/>
  <path d="m1319.363,1255.706c-.65,0-1.31-.064-1.972-.196-5.416-1.083-8.928-6.351-7.845-11.767l1.695-8.477c1.083-5.416,6.351-8.933,11.767-7.845,5.416,1.083,8.928,6.351,7.845,11.767l-1.695,8.477c-.951,4.753-5.126,8.041-9.795,8.041Z" fill="#fff" stroke-width="0"/>
</svg>