<?xml version="1.0" encoding="UTF-8"?>
<svg id="a" data-name="FLAT COLORED" xmlns="http://www.w3.org/2000/svg" width="2000" height="2000" viewBox="0 0 2000 2000">
  <g>
    <path d="m1085.855,935.373h-206.482l42.427-435.887c3.105-31.978,28.684-55.185,60.819-55.185,9.453,0,18.329,2.004,26.239,5.655,18.989,8.76,32.376,26.963,34.58,49.53l42.416,435.887Z" fill="#6ad2ff" stroke-width="0"/>
    <path d="m1085.855,935.373h-154.004l42.417-435.887c2.203-22.577,15.59-40.78,34.591-49.53,18.989,8.76,32.376,26.963,34.58,49.53l42.416,435.887Z" fill="#a6fbff" stroke-width="0"/>
  </g>
  <g>
    <path d="m1355.27,1039.332l-358.039-252.188-101.993,179.538,399.95,178.413c8.218,3.666,16.774,5.525,25.43,5.525,26.425,0,49.687-17.383,57.882-43.254,8.131-25.662-.988-52.367-23.231-68.034Z" fill="#a6fbff" stroke-width="0"/>
    <g>
      <path d="m900.245,971.256l101.457-179.836,358.791,251.131c26.325,18.417,33.969,52.098,18.179,80.086-4.645,8.233-10.751,14.979-17.818,20.075-16.96,12.234-39.392,14.95-60.13,5.78l-400.48-177.236Z" fill="#6ad2ff" stroke-width="0"/>
      <path d="m900.245,971.256l75.672-134.13,358.796,251.122c18.581,13.013,27.857,33.616,26.142,54.464-16.96,12.234-39.392,14.95-60.13,5.78l-400.48-177.236Z" fill="#a6fbff" stroke-width="0"/>
    </g>
  </g>
  <g>
    <path d="m966.823,786.579l102.614,179.179-399.335,179.803c-29.293,13.197-62.143,2.534-78.113-25.352-4.698-8.203-7.37-16.901-8.133-25.58-1.835-20.832,7.308-41.495,25.796-54.622l357.171-253.428Z" fill="#6ad2ff" stroke-width="0"/>
    <path d="m966.823,786.579l76.534,133.64-399.33,179.812c-20.687,9.308-43.135,6.737-60.171-5.402-1.835-20.832,7.308-41.495,25.796-54.622l357.171-253.428Z" fill="#a6fbff" stroke-width="0"/>
  </g>
  <g>
    <path d="m1044.26,1555.699h-483.507c0-72.486,71.531-79.147,71.531-79.147.63-22.777,7.428-46.403,22.116-65.666,18.506-24.277,49.551-41.619,96.615-41.619,84.393,0,103.708,97.266,103.708,97.266,0,0,49.352-30.037,109.551-13.366,60.2,16.67,79.986,102.533,79.986,102.533Z" fill="#54e346" stroke-width="0"/>
    <path d="m1044.26,1555.699h-483.507c0-72.486,71.531-79.147,71.531-79.147.63-22.777,7.428-46.403,22.116-65.666,0,0-2.235,86.649,57.671,97.067,59.917,10.418,90.436-4.343,90.436-4.343,0,0,11.152,30.383,48.491,24.308,37.328-6.075,39.07-16.493,39.07-16.493,0,0,35.755,41.661,154.192,44.274Z" fill="#54b646" stroke-width="0"/>
  </g>
  <g>
    <polygon points="1123.855 1555.699 841.373 1555.699 936.656 909.721 1028.572 909.721 1123.855 1555.699" fill="#ffb433" stroke-width="0"/>
    <polygon points="1123.855 1555.699 912.662 1555.699 969.879 909.721 1028.572 909.721 1123.855 1555.699" fill="#fddb3a" stroke-width="0"/>
  </g>
  <g>
    <path d="m1439.247,1555.699h-483.507c0-72.486,71.531-79.147,71.531-79.147.63-22.777,7.428-46.403,22.116-65.666,18.507-24.277,49.551-41.619,96.615-41.619,84.393,0,103.708,97.266,103.708,97.266,0,0,49.352-30.037,109.551-13.366,60.2,16.67,79.986,102.533,79.986,102.533Z" fill="#54e346" stroke-width="0"/>
    <path d="m1439.247,1555.699h-483.507c0-72.486,71.531-79.147,71.531-79.147.63-22.777,7.428-46.403,22.116-65.666,0,0-2.235,86.649,57.671,97.067,59.917,10.418,90.436-4.343,90.436-4.343,0,0,11.152,30.383,48.491,24.308,37.328-6.075,39.07-16.493,39.07-16.493,0,0,35.755,41.661,154.192,44.274Z" fill="#54b646" stroke-width="0"/>
  </g>
  <g>
    <path d="m1096.644,897.981c0,21.101-5.733,40.856-15.721,57.801-19.822,33.657-56.423,56.235-98.304,56.235-62.982,0-114.035-51.053-114.035-114.035,0-41.881,22.589-78.493,56.246-98.304,16.944-9.999,36.689-15.721,57.789-15.721,62.971,0,114.024,51.054,114.024,114.025Z" fill="#54b548" stroke-width="0"/>
    <path d="m1096.644,897.981c0,21.101-5.733,40.856-15.721,57.801-16.933,9.988-36.689,15.71-57.778,15.71-62.982,0-114.036-51.054-114.036-114.035,0-21.09,5.722-40.834,15.721-57.778,16.944-9.999,36.689-15.721,57.789-15.721,62.971,0,114.024,51.054,114.024,114.025Z" fill="#54e346" stroke-width="0"/>
  </g>
  <circle cx="982.614" cy="897.987" r="31.408" transform="translate(-117.109 1647.999) rotate(-76.717)" fill="#fddb3a" stroke-width="0"/>
  <path d="m1018.928,661.361c-5.158,0-9.533-3.963-9.957-9.194l-9.834-121.585c-.445-5.505,3.656-10.329,9.161-10.773,5.531-.45,10.328,3.657,10.774,9.161l9.834,121.585c.445,5.505-3.656,10.329-9.161,10.773-.274.023-.548.033-.817.033Z" fill="#fff" stroke-width="0"/>
  <path d="m1023.774,701.449c-5.027,0-9.357-3.783-9.926-8.896l-.982-8.839c-.61-5.489,3.345-10.433,8.834-11.043,5.487-.605,10.433,3.345,11.043,8.834l.982,8.839c.61,5.489-3.345,10.433-8.834,11.043-.375.042-.748.062-1.117.062Z" fill="#fff" stroke-width="0"/>
  <path d="m923.768,1390.23c-.416,0-.836-.026-1.259-.079-5.479-.688-9.364-5.688-8.676-11.168l15.093-120.167c.688-5.48,5.703-9.363,11.168-8.676,5.479.688,9.364,5.689,8.676,11.168l-15.093,120.167c-.635,5.057-4.942,8.755-9.909,8.755Z" fill="#fff" stroke-width="0"/>
  <path d="m941.845,1236.354c-.296,0-.594-.013-.895-.039-5.501-.488-9.565-5.343-9.078-10.844l.982-11.083c.487-5.501,5.33-9.575,10.844-9.078,5.501.488,9.565,5.343,9.078,10.844l-.983,11.084c-.461,5.201-4.826,9.118-9.949,9.118Z" fill="#fff" stroke-width="0"/>
  <path d="m727.541,1072.431c-3.814,0-7.456-2.193-9.124-5.896-2.268-5.036-.023-10.957,5.013-13.224l51.176-23.043c5.035-2.268,10.956-.023,13.224,5.012,2.268,5.036.023,10.957-5.013,13.224l-51.176,23.044c-1.332.6-2.728.884-4.1.884Z" fill="#fff" stroke-width="0"/>
  <path d="m809.022,1035.742c-3.814,0-7.457-2.193-9.124-5.896-2.268-5.036-.023-10.957,5.013-13.224l8.476-3.817c5.033-2.268,10.957-.023,13.224,5.012,2.267,5.036.023,10.957-5.013,13.224l-8.477,3.817c-1.332.6-2.728.884-4.1.884Z" fill="#fff" stroke-width="0"/>
  <path d="m1263.843,1048.653c-1.98,0-3.979-.587-5.726-1.808l-44.456-31.115c-4.524-3.167-5.625-9.402-2.458-13.927,3.168-4.525,9.401-5.625,13.927-2.459l44.456,31.115c4.524,3.167,5.625,9.402,2.458,13.927-1.945,2.779-5.048,4.267-8.201,4.267Z" fill="#fff" stroke-width="0"/>
  <path d="m1293.448,1069.374c-1.98,0-3.98-.587-5.726-1.809l-5.86-4.102c-4.524-3.167-5.625-9.402-2.458-13.927,3.167-4.524,9.403-5.624,13.927-2.458l5.86,4.102c4.524,3.167,5.625,9.402,2.458,13.927-1.945,2.779-5.048,4.267-8.201,4.267Z" fill="#fff" stroke-width="0"/>
  <g>
    <path d="m1199.267,1462.007c-4.098,0-7.941-2.538-9.409-6.616-17.009-47.249-53.763-40.786-55.32-40.489-5.408,1.123-10.665-2.36-11.786-7.769-1.121-5.408,2.391-10.707,7.798-11.829,1.453-.301,14.675-2.791,30.879,2.556,15.001,4.95,35.375,17.774,47.248,50.756,1.87,5.197-.826,10.925-6.023,12.796-1.118.403-2.262.594-3.387.594Z" fill="#fff" stroke-width="0"/>
    <path d="m1211.567,1491.534c-3.121,0-6.194-1.456-8.146-4.19l-2.119-2.967c-3.21-4.494-2.168-10.74,2.326-13.949,4.494-3.21,10.739-2.168,13.949,2.326l2.119,2.967c3.21,4.494,2.168,10.74-2.326,13.949-1.761,1.258-3.792,1.863-5.803,1.863Z" fill="#fff" stroke-width="0"/>
  </g>
</svg>